<svg width="962" height="683" viewBox="0 0 962 683" fill="none" xmlns="http://www.w3.org/2000/svg">
<path fill-rule="evenodd" clip-rule="evenodd" d="M211.922 37.9711L150.873 2.44418L93.8752 35.3716L2.44666 253.732V303.99L63.7848 339.517L91.2154 323.648L91.2713 334.029L152.32 369.556L263.134 305.434L263.134 251.999L239.407 238.257L266.027 222.827L266.027 173.147L229.861 152.189L229.861 135.598L182.796 108.56L211.922 37.9711Z" fill="#EEEFF1" stroke="#1F2533" stroke-width="3" stroke-miterlimit="10" stroke-linejoin="round"/>
<path d="M169.101 235.535L230.15 270.774L263.134 251.999L201.796 216.472L169.101 235.535Z" fill="#EEEFF1" stroke="#1F2533" stroke-miterlimit="10" stroke-linejoin="round"/>
<path d="M176.624 274.24L133.514 249.4L176.624 224.56L176.335 167.37L180.385 165.059L229.861 193.943L266.027 173.147L215.684 143.974L229.861 135.598L168.523 100.36L115.286 131.843V189.033L60.8915 220.516L115.575 252.288V266.152L90.982 280.305L91.2713 334.029L152.32 369.556V315.832L176.624 301.679V274.24Z" fill="#EEEFF1" stroke="#1F2533" stroke-miterlimit="10" stroke-linejoin="round"/>
<path d="M155.213 70.8985L211.922 37.9711L150.873 2.44418L93.8752 35.3716L2.44666 253.732V303.99L63.7848 339.517L63.4955 289.259L155.213 70.8985Z" fill="#EEEFF1" stroke="#1F2533" stroke-miterlimit="10" stroke-linejoin="round"/>
<path d="M211.922 37.9711L121.94 256.043L176.624 224.56L176.334 167.37L229.861 135.598V193.943L266.027 173.147V222.827L230.15 243.623V270.774L263.134 251.999V305.434L152.32 369.556V315.832L176.624 301.679V274.24L63.7848 339.517L63.4954 289.259L155.213 70.8985L211.922 37.9711Z" fill="#EEEFF1" stroke="#1F2533" stroke-miterlimit="10" stroke-linejoin="round"/>
<path fill-rule="evenodd" clip-rule="evenodd" d="M312.899 214.971C312.455 209.598 313.13 204.226 314.924 198.853C318.685 187.589 326.497 176.035 338.649 164.77C350.801 153.506 366.136 142.53 384.363 131.843C402.302 121.445 421.108 112.491 440.783 105.27C460.168 98.0492 480.132 93.1389 500.096 90.8283C520.06 88.5176 540.024 88.8064 559.987 92.2724C579.951 95.7385 599.047 102.671 617.854 113.358C636.371 124.044 648.523 135.02 654.309 146.285C658.683 154.798 659.519 163 659.519 172.195C659.559 177.903 659.519 182.5 659.519 190.679C660.163 224.719 660.627 249.245 645.918 272.218C585.159 366.956 401.144 395.84 334.309 320.742C313.373 297.3 312.909 264.743 312.899 214.971ZM422.45 242.209C427.158 243.765 431.832 244.814 436.443 245.356C446.57 246.511 456.407 245.934 466.823 243.623C477.528 241.312 488.233 237.557 498.649 232.647C509.354 227.448 520.349 221.671 531.633 215.028C539.052 210.85 545.845 206.672 552.096 202.495C513.964 189.506 458.256 216.086 422.45 242.209Z" stroke="#283046" stroke-width="2" stroke-miterlimit="10" stroke-linejoin="round"/>
<path d="M586.895 159.149C547.257 99.3599 451.935 133.732 386.546 197.853C386.546 197.853 386.546 274.395 386.546 278.439C386.546 255.043 544.363 142.397 584.58 232.514L586.895 159.149Z" fill="#EEEFF1" stroke="#1F2533" stroke-miterlimit="10" stroke-linejoin="round"/>
<path d="M659.228 168.103C653.152 198.72 622.193 224.715 584.58 246.089C521.506 282.194 433.839 301.257 373.947 272.084C349.065 259.953 312.899 241.179 312.899 210.562C312.899 262.264 312.899 295.769 334.309 319.742C401.144 394.84 585.159 365.956 645.918 271.218C663.857 243.201 659.228 212.873 659.228 165.792C659.228 166.659 659.228 167.237 659.228 168.103Z" fill="#EEEFF1" stroke="#283046" stroke-width="2" stroke-miterlimit="10" stroke-linejoin="round"/>
<path d="M632.152 215.199C620.064 226.471 604.81 237.454 586.967 247.859C568.835 258.554 550.128 267.224 530.558 274.45C510.987 281.676 491.417 286.3 471.558 288.613C451.7 290.925 432.13 290.347 412.559 286.878C392.989 283.41 373.994 276.473 355.862 266.068C337.731 255.663 325.643 244.68 319.599 233.408C313.556 222.136 312.404 210.864 316.146 199.591C319.887 188.319 327.658 176.758 339.746 165.486C351.833 154.214 367.087 143.231 385.218 132.536C403.062 122.131 421.769 113.171 441.339 105.946C460.622 98.7199 480.48 93.8064 500.339 91.4942C520.197 89.1819 540.055 89.471 559.913 92.9393C579.772 96.4077 598.767 103.344 617.474 114.039C635.893 124.733 647.981 135.716 653.737 146.988C659.493 158.26 660.644 169.821 656.615 181.383C652.585 192.655 644.527 203.927 632.152 215.199ZM498.9 233.408C509.548 228.205 520.485 222.425 531.709 215.777C542.933 209.418 552.718 203.06 561.352 196.701C569.986 190.631 576.318 184.562 580.347 178.492C584.377 172.423 585.528 166.642 583.513 160.861C581.499 155.081 575.742 149.3 565.669 143.52C555.596 137.739 545.523 134.271 535.45 133.114C525.377 131.958 515.304 132.536 504.943 134.849C494.583 137.161 484.222 140.918 473.573 145.832C462.924 150.745 452.276 156.526 441.052 163.174C429.827 169.821 419.754 176.18 410.832 182.539C402.198 188.608 395.867 194.678 391.838 200.748C387.808 206.817 386.945 212.598 388.96 218.378C390.974 224.159 397.018 229.94 407.091 235.72C417.164 241.501 427.237 244.969 437.022 246.125C447.095 247.281 456.881 246.703 467.241 244.391C477.89 242.079 488.539 238.321 498.9 233.408Z" fill="#EEEFF1" stroke="#283046" stroke-miterlimit="10" stroke-linejoin="round"/>
<path fill-rule="evenodd" clip-rule="evenodd" d="M905.476 37.9711L844.427 2.44418L787.429 35.3716L696 253.732V303.99L757.338 339.517L784.769 323.648L784.825 334.029L845.873 369.556L956.687 305.434L956.687 251.999L932.961 238.257L959.58 222.827L959.58 173.147L923.414 152.189L923.414 135.598L876.349 108.56L905.476 37.9711Z" fill="#EEEFF1" stroke="#1F2533" stroke-width="3" stroke-miterlimit="10" stroke-linejoin="round"/>
<path d="M862.655 235.535L923.703 270.774L956.687 251.999L895.349 216.472L862.655 235.535Z" fill="#EEEFF1" stroke="#1F2533" stroke-miterlimit="10" stroke-linejoin="round"/>
<path d="M870.177 274.24L827.067 249.4L870.177 224.56L869.888 167.37L873.938 165.059L923.414 193.943L959.58 173.147L909.237 143.974L923.414 135.598L862.076 100.36L808.839 131.843V189.033L754.445 220.516L809.128 252.288V266.152L784.535 280.305L784.825 334.029L845.873 369.556V315.832L870.177 301.679V274.24Z" fill="#EEEFF1" stroke="#1F2533" stroke-miterlimit="10" stroke-linejoin="round"/>
<path d="M848.767 70.8985L905.476 37.9711L844.427 2.44418L787.429 35.3716L696 253.732V303.99L757.338 339.517L757.049 289.259L848.767 70.8985Z" fill="#EEEFF1" stroke="#1F2533" stroke-miterlimit="10" stroke-linejoin="round"/>
<path d="M905.476 37.9711L815.494 256.043L870.177 224.56L869.888 167.37L923.414 135.598V193.943L959.58 173.147V222.827L923.703 243.623V270.774L956.687 251.999V305.434L845.873 369.556V315.832L870.177 301.679V274.24L757.338 339.517L757.049 289.259L848.767 70.8985L905.476 37.9711Z" fill="#EEEFF1" stroke="#1F2533" stroke-miterlimit="10" stroke-linejoin="round"/>
<path d="M686 462.9L518.5 528.8L440.5 448.3L603.2 384L686 462.9Z" fill="#F0F0F0" stroke="#283046" stroke-miterlimit="10" stroke-linejoin="round"/>
<path d="M686 454.5L518.5 520.3L440.5 439.9L603.2 375.6L686 454.5Z" fill="#EEEFF1" stroke="#1F2533" stroke-miterlimit="10" stroke-linejoin="round"/>
<path d="M439.5 438.9V448.3L518.5 529.8L693 460L604 374.5L439.5 438.9Z" fill="#F0F0F0" stroke="#1F2533" stroke-width="2" stroke-miterlimit="10" stroke-linejoin="round"/>
<path d="M440.5 439.9V448.3L518.5 528.8V520.3L440.5 439.9Z" fill="#F0F0F0" stroke="#1F2533" stroke-miterlimit="10" stroke-linejoin="round"/>
<path d="M518.5 520.3V528.8L686 462.9V454.5L518.5 520.3Z" fill="#EEEFF1" stroke="#1F2533" stroke-miterlimit="10" stroke-linejoin="round"/>
<path d="M619.2 390.8L603.2 375.6L440.5 439.9L456.6 456.5L619.2 390.8Z" fill="#EEEFF1" stroke="#1F2533" stroke-miterlimit="10" stroke-linejoin="round"/>
<path d="M637.5 408.5L619.7 391L456 456.3L474.5 474.5L637.5 408.5Z" fill="#EEEFF1"/>
<path d="M456 456.3L619.7 391L637.5 408.5L474.5 474.5L456 456.3ZM456 456.3V464.5" stroke="#1F2533" stroke-miterlimit="10" stroke-linejoin="round"/>
<path d="M656.3 426.6L638.1 408.3L473.8 474.6L490 491.3L656.3 426.6Z" fill="#EEEFF1"/>
<path d="M473.8 474.6L638.1 408.3L656.3 426.6L490 491.3L473.8 474.6ZM473.8 474.6V483" stroke="#1F2533" stroke-miterlimit="10" stroke-linejoin="round"/>
<path d="M674.9 443.9L656.5 426.4L490.6 491.3L508 509.2L674.9 443.9Z" fill="#EEEFF1" stroke="#1F2533" stroke-miterlimit="10" stroke-linejoin="round"/>
<path d="M647.5 380V513L761.5 578.5L786 564L793 567.5L814.5 555.5V547L888.5 503L895.5 507L917 494.5V486L934.5 475.5V347L820 280L809.5 286V282L802.5 278L781 290V302.5L689.5 355.5V351L682.5 347L661 359V372L647.5 380Z" stroke="#1F2533" stroke-width="3"/>
<path d="M682.5 347L661 359L668 363.5L689.5 350.9L682.5 347Z" fill="#EEEFF1" stroke="#1F2533" stroke-miterlimit="10" stroke-linejoin="round"/>
<path d="M661 359V502.505L668 506V363.5L661 359Z" fill="#EEEFF1" stroke="#1F2533" stroke-miterlimit="10" stroke-linejoin="round"/>
<path d="M689.5 350.9L668 363.5L668.6 506.5L689.9 494.2L689.5 350.9Z" fill="#EEEFF1" stroke="#1F2533" stroke-miterlimit="10" stroke-linejoin="round"/>
<path d="M802.5 278L781 290L788 294.5L809.5 281.9L802.5 278Z" fill="#EEEFF1" stroke="#1F2533" stroke-miterlimit="10" stroke-linejoin="round"/>
<path d="M781 290V433.505L788 437V294.5L781 290Z" fill="#EEEFF1" stroke="#1F2533" stroke-miterlimit="10" stroke-linejoin="round"/>
<path d="M809.5 281.9L788 294.5L788.6 437.5L809.9 425.2L809.5 281.9Z" fill="#EEEFF1" stroke="#1F2533" stroke-miterlimit="10" stroke-linejoin="round"/>
<path d="M647.4 380.3L761.5 446.6L933.8 347.1L819.7 280.8L647.4 380.3Z" fill="#F0F0F0" stroke="#283046" stroke-miterlimit="10" stroke-linejoin="round"/>
<path d="M647.4 380.3L647.7 512.3L761.9 578.6V446.6L647.4 380.3Z" fill="#EEEFF1" stroke="#1F2533" stroke-miterlimit="10" stroke-linejoin="round"/>
<path d="M647.7 512.3L761.5 446.6L668.2 392.4L647.5 404.7L647.7 512.3Z" fill="#F0F0F0" stroke="#283046" stroke-miterlimit="10" stroke-linejoin="round"/>
<path d="M647.7 512.3L761.5 446.6L684.1 401.7L647.5 422.8L647.7 512.3Z" fill="#F0F0F0" stroke="#283046" stroke-miterlimit="10" stroke-linejoin="round"/>
<path d="M647.7 512.3L761.5 446.6L704.2 414.2L647.6 445.5L647.7 512.3Z" fill="#F0F0F0" stroke="#283046" stroke-miterlimit="10" stroke-linejoin="round"/>
<path d="M647.7 512.3L761.5 446.6L723.9 424.7L647.6 468.8L647.7 512.3Z" fill="#F0F0F0" stroke="#283046" stroke-miterlimit="10" stroke-linejoin="round"/>
<path d="M647.7 512.3L761.5 446.6L743.4 436.1L647.7 491.4V512.3Z" fill="#F0F0F0" stroke="#283046" stroke-miterlimit="10" stroke-linejoin="round"/>
<path d="M761.5 446.6V578.6L934.1 475.9L933.8 347.1L761.5 446.6Z" fill="#EEEFF1" stroke="#1F2533" stroke-miterlimit="10" stroke-linejoin="round"/>
<path d="M647.4 380.3L701.5 480.1L761.5 446.6L647.4 380.3Z" fill="#1F2533"/>
<path d="M652.5 383.1L825.5 284L850.5 298.5L676.9 397.7L652.5 383.1Z" fill="#EEEFF1" stroke="#1F2533" stroke-miterlimit="10" stroke-linejoin="round"/>
<path d="M677 397.5L851 298.7L876 313.5L705.5 414L677 397.5Z" fill="#EEEFF1" stroke="#1F2533" stroke-miterlimit="10" stroke-linejoin="round"/>
<path d="M705.8 414.2L822.7 346.1L876 313.5L904.5 330L732 429.5L705.8 414.2Z" fill="#EEEFF1" stroke="#1F2533" stroke-miterlimit="10" stroke-linejoin="round"/>
<path d="M732 429.5L904.5 330L928.5 344L755.3 443.1L732 429.5Z" fill="#EEEFF1" stroke="#1F2533" stroke-miterlimit="10" stroke-linejoin="round"/>
<path d="M647.3 380.2L820 280.5L825.5 284L652.5 383L647.3 380.2Z" fill="#EEEFF1" stroke="#1F2533" stroke-miterlimit="10" stroke-linejoin="round"/>
<path d="M647.4 380.3V512.5L651.7 515.2L652.5 383.1L647.4 380.3Z" fill="#F0F0F0" stroke="#1F2533" stroke-miterlimit="10" stroke-linejoin="round"/>
<path d="M755.3 443.1L928.2 344L933.8 347.1L761.5 446.6L755.3 443.1Z" fill="#EEEFF1" stroke="#1F2533" stroke-miterlimit="10" stroke-linejoin="round"/>
<path d="M755.3 443.1L756.3 575.4L761.9 578.6L761.5 446.6L755.3 443.1Z" fill="#EEEFF1" stroke="#1F2533" stroke-miterlimit="10" stroke-linejoin="round"/>
<path d="M652.5 383.1L755.3 443.1V449.2L652.5 388.9V383.1Z" fill="#EEEFF1" stroke="#1F2533" stroke-miterlimit="10" stroke-linejoin="round"/>
<path d="M652 515.432V509L756 568.667V575L652 515.432Z" fill="#EEEFF1" stroke="#1F2533" stroke-miterlimit="10" stroke-linejoin="round"/>
<path d="M651.6 509.7L755.3 450.2" stroke="#1F2533" stroke-miterlimit="10" stroke-linejoin="round"/>
<path d="M761.5 446.6L761.9 473.4L933.8 374.8V347L761.5 446.6Z" fill="#EEEFF1" stroke="#1F2533" stroke-miterlimit="10" stroke-linejoin="round"/>
<path d="M761.5 474V500L934 401V374.7L761.5 474Z" fill="#EEEFF1" stroke="#1F2533" stroke-miterlimit="10" stroke-linejoin="round"/>
<path d="M762 499.5V523L934 425.5V401.1L762 499.5Z" fill="#EEEFF1" stroke="#1F2533" stroke-miterlimit="10" stroke-linejoin="round"/>
<path d="M762 521.5V544L934.2 443.8V424L762 521.5Z" fill="#EEEFF1" stroke="#1F2533" stroke-miterlimit="10" stroke-linejoin="round"/>
<path d="M762 544V566L934.1 462.8V444L762 544Z" fill="#EEEFF1" stroke="#1F2533" stroke-miterlimit="10" stroke-linejoin="round"/>
<path d="M807.1 408.1L786 420.5L792.5 424L814 412L807.1 408.1Z" fill="#EEEFF1" stroke="#1F2533" stroke-miterlimit="10" stroke-linejoin="round"/>
<path d="M786 420.5L787.084 564.483L793 567.5L792.606 423.919L786 420.5Z" fill="#EEEFF1" stroke="#1F2533" stroke-miterlimit="10" stroke-linejoin="round"/>
<path d="M814 412L792.5 424L793 567.5L814.5 555.4L814 412Z" fill="#EEEFF1" stroke="#1F2533" stroke-miterlimit="10" stroke-linejoin="round"/>
<path d="M909.8 348.6L888.3 360.9L895.1 364.8L916.8 352.5L909.8 348.6Z" fill="#F0F0F0" stroke="#283046" stroke-miterlimit="10" stroke-linejoin="round"/>
<path d="M888.3 360.9L889.4 503.1L895.5 506.5L895.1 364.8L888.3 360.9Z" fill="#F0F0F0" stroke="#283046" stroke-miterlimit="10" stroke-linejoin="round"/>
<path d="M916.8 352.5L895.5 364.8L895.9 506.5L917.2 494.2L916.8 352.5Z" fill="#F0F0F0" stroke="#283046" stroke-miterlimit="10" stroke-linejoin="round"/>
<path d="M755 471.5C755 471.5 755 456 755 451C755 447.5 749.036 449.99 749.036 449.99C749.036 449.99 747.5 447 743.6 446.7C739.7 446.4 736.5 452.5 739.7 455.3C739.7 455.3 736.192 455.581 734.5 457.457C730 461 731 471.5 731 471.5H755Z" fill="#EEEFF1"/>
<path d="M676.826 501.748C673.126 505.048 675.226 509.848 681.526 509.748C687.826 509.648 691.326 500.248 684.026 501.048C676.826 501.748 676.826 501.748 676.826 501.748Z" fill="#EEEFF1" stroke="#1F2533" stroke-miterlimit="10" stroke-linejoin="round"/>
<path d="M724.5 537C723.3 537.8 724.9 539 727 539C730.2 539 730.7 538 729 537.3C726.6 536.3 724.5 537 724.5 537Z" fill="#F0F0F0" stroke="#283046" stroke-miterlimit="10" stroke-linejoin="round"/>
<path d="M655.491 536.426C654.06 537.855 655.968 540 658.473 540C662.289 540 662.885 538.213 660.858 536.962C657.996 535.175 655.491 536.426 655.491 536.426Z" fill="#EEEFF1" stroke="#1F2533" stroke-width="2" stroke-miterlimit="10" stroke-linejoin="round"/>
<path d="M675.466 563.716C677.518 558.776 673.172 561.007 670.637 560.369C666.894 559.413 666.773 560.369 667.136 562.6C667.377 565.309 674.621 565.787 675.466 563.716Z" fill="#EEEFF1" stroke="#1F2533" stroke-width="2" stroke-miterlimit="10" stroke-linejoin="round"/>
<path d="M740.9 467.2C745.6 468.4 746.6 456.8 738.8 451.4C731 446 727 454.8 727 454.8C727 454.8 723.921 451.104 721 452.795C717.058 455.077 714.405 460.064 719 461.5C726.68 463.9 740.9 467.2 740.9 467.2Z" fill="#EEEFF1"/>
<path d="M748.4 460.4C748.724 453.175 739 451 736.4 457.4C736.4 457.4 727.5 455.2 729 463.2" stroke="#1F2533" stroke-miterlimit="10" stroke-linejoin="round"/>
<path d="M708.4 533C709.2 531.9 707.5 531.8 706.2 531.6C704.2 531.2 702.1 530.5 703 532.6C703.4 533.6 707.7 534 708.4 533Z" fill="#F0F0F0" stroke="#283046" stroke-miterlimit="10" stroke-linejoin="round"/>
<path d="M713.1 460.6C717.1 458.7 717.4 453.7 712.7 451.8C708 449.9 701.8 457.6 707.5 459.1C713.1 460.6 713.1 460.6 713.1 460.6Z" fill="#EEEFF1"/>
<path d="M696.1 463.1C696.1 463.1 690.2 463.8 690.3 470.1C690.3 470.1 702.9 479.5 705.9 472.8C708.9 466.1 696.1 463.1 696.1 463.1Z" fill="#EEEFF1" stroke="#1F2533" stroke-miterlimit="10" stroke-linejoin="round"/>
<path d="M755.5 474.5L756 536.9C756 536.9 752.8 535.5 745.1 536.9C737.3 538.3 733.6 530.9 735.3 528.8C736.2 527.6 732.057 533.5 725.2 532.5C718.343 531.5 718.5 526.8 718.5 526.8C718.5 526.8 709.8 528 708.1 522.5C706.4 517 705.4 525.8 699.6 525.8C693 525.8 696.5 521.1 691.2 521.1C687 520.5 690.4 514.7 690.4 514.7C690.4 514.7 682.9 517.9 680.6 514.2C678.3 510.5 682.2 506.7 682.2 506.7C682.2 506.7 677.3 505.2 674.7 497.6C672.8 491.9 675.5 487 679.3 485C683.1 483 685.8 483.6 685.8 483.6C685.8 483.6 681.591 477 683.8 470.8C686.009 464.6 697.2 467.1 697.2 467.1C697.2 467.1 695 461.4 696.9 458.7C698.8 456.1 700.284 454.285 704.4 455.2C708.516 456.115 710.7 460.7 710.7 460.7C710.7 460.7 713 456.1 717.5 456.8C722 457.5 723.4 463.4 723.4 463.4C723.4 463.4 728.5 460.8 732.5 461.6C736.5 462.4 740 469.1 740 469.1C740 469.1 742.5 466 747.5 466C752.5 466 755.5 474.5 755.5 474.5Z" fill="#EEEFF1" stroke="#1F2533" stroke-miterlimit="10" stroke-linejoin="round"/>
<path d="M753.6 503.5C741 501 738.5 511.7 738.5 511.7C738.5 511.7 733 506 726 511.7" stroke="#1F2533" stroke-miterlimit="10" stroke-linejoin="round"/>
<path d="M693.7 497.5C693 488.5 702.4 489.9 702.4 489.9C703.555 478.351 719.382 476.866 721.2 488.5" stroke="#1F2533" stroke-miterlimit="10" stroke-linejoin="round"/>
<path d="M699.1 507.7C703 502.5 706.8 507.7 706.8 507.7C706.8 501.5 715.5 498.5 719 505.2" stroke="#1F2533" stroke-miterlimit="10" stroke-linejoin="round"/>
<path d="M743.8 522.4C744.2 520.4 748.7 521.4 749 522.4" stroke="#1F2533" stroke-miterlimit="10" stroke-linejoin="round"/>
<path d="M734.5 548.2C734.9 545.1 740.6 545.4 741.2 548.2C741.8 551 741.2 548.2 737.8 548.2C734.5 548.2 734.5 548.2 734.5 548.2Z" fill="#F0F0F0" stroke="#283046" stroke-miterlimit="10" stroke-linejoin="round"/>
<path d="M728.873 584.749C727.572 588.549 720.237 582.652 721.065 580.817C722.485 577.41 722.603 579.507 726.152 581.341C728.991 582.783 729.228 583.7 728.873 584.749Z" fill="#EEEFF1" stroke="#1F2533" stroke-width="2" stroke-miterlimit="10" stroke-linejoin="round"/>
<path d="M820.5 477.7C821.1 495.309 822.1 532.6 822.1 532.6L884 494.5C884 494.5 882.476 482.5 882 471C881.524 459.5 882.6 443.4 882.6 443.4C882.6 443.4 868.7 452.3 854.9 459.5C842.4 465.9 844 464.9 820.5 477.7Z" fill="#1F2533"/>
<path d="M823.1 479.3C823.1 479.3 822.4 495.5 823.1 508.2C823.8 520.9 825.1 529.5 825.1 529.5L883.6 494.1C883.6 494.1 882.1 485.4 881.6 470.3C881.1 456.8 881.6 445.1 881.6 445.1C881.6 445.1 868.7 453.7 854.9 460.8C841.1 467.9 823.1 479.3 823.1 479.3Z" fill="#EEEFF1"/>
<path d="M846.9 474.2L833.2 482.1V495.3C833.2 499.2 835.7 501 838.9 499.8V508.9C835.7 510.9 833.2 513.1 833.2 514.1C833.2 515.2 836.3 514.3 840.1 512.1C843.9 509.9 847 507.3 847 506.2C847 505.2 844.5 505.9 841.3 507.6V498.5C844.5 496 847 491.4 847 487.4L846.9 474.2Z" fill="#1F2533"/>
<path d="M873.3 461.7L869.7 472.2L871.7 471L871.8 491.1L863.2 496V475.9L865.2 474.8L861.5 468.5L857.9 479L860 477.8V497.9L858 499.1V502.8L877.1 491.8L877 488.1L875 489.3L874.9 469.2L877 468L873.3 461.7Z" fill="#1F2533"/>
<path d="M807.3 663.6C817 666.9 839.6 659.8 850.4 659.8C861.2 659.8 856.9 668.6 848.6 669.3C833.4 670.7 810 676.1 802.3 672.6C794.5 669.1 724.4 630.5 717.9 624.5C711.4 618.5 713 613.6 712.6 611C712.1 608 706.8 610.2 702.7 613C698.6 615.8 693.7 621.6 688.3 622.8C683.6 623.8 681.8 618.8 681.8 618.8L691.3 614.3L681.4 616.3C681.4 616.3 679.2 610.3 684.9 608.8C690.6 607.3 696.6 608.5 700 606.3C707.8 601.3 714.5 600 719.5 604.5C724.5 609 717.5 614 726.5 620C735.5 626 789.6 657.5 807.3 663.6Z" fill="#1F2533"/>
<path d="M399.818 436.592L399.818 436.592C400.653 445.384 396.717 451.979 390.397 456.405C384.12 460.8 375.493 463.068 366.766 463.394C358.034 463.721 349.079 462.107 342.108 458.607C335.136 455.107 330.012 449.636 329.327 442.229C328.684 435.346 332.929 430.182 339.258 426.7C345.585 423.22 354.191 421.284 362.864 420.829C371.542 420.374 380.404 421.396 387.267 423.933C394.073 426.449 399.248 430.599 399.818 436.592Z" fill="#EEEFF1" stroke="#1F2533" stroke-width="2" stroke-miterlimit="10"/>
<path d="M356.175 391.086C373.121 385.841 399.282 403.117 401.336 428.723C404.211 465.434 332.274 466.125 329.09 436.201C326.009 406.38 345.597 394.274 356.175 391.086Z" fill="#1F2533"/>
<path d="M356.792 393.114C372.504 388.281 396.638 404.323 397.768 428.077C399.411 462.218 335.43 461.909 332.555 434.144C329.679 406.38 347.035 396.096 356.792 393.114Z" fill="#EEEFF1"/>
<path d="M371.991 396.199C373.326 400.724 369.013 406.688 363.262 406.688C355.354 406.688 353.608 401.546 353.197 396.919C352.992 395.377 356.381 394.451 362.44 394.348C367.883 394.245 371.477 394.348 371.991 396.199Z" fill="#EEEFF1" stroke="#1F2533" stroke-miterlimit="10"/>
<path d="M371.685 331.576C372.497 329.583 372.567 327.228 371.72 324.682C371.289 323.389 369.906 322.095 368.07 321.217C366.18 320.313 363.656 319.768 360.699 320.097L360.699 320.097L360.691 320.097C357.485 320.478 355.258 321.613 353.85 323.188C352.443 324.761 351.946 326.672 352.005 328.425L352.005 328.425L352.005 328.432C352.065 329.946 352.289 331.414 352.798 332.719C352.15 333.219 351.672 333.914 351.795 334.837L351.797 334.848L351.798 334.859C352.037 336.394 352.416 338.039 353.125 339.549C352.845 339.723 352.596 339.917 352.389 340.137C351.937 340.615 351.666 341.249 351.801 341.97C352.004 343.299 352.314 344.684 352.841 345.988C352.257 346.443 351.838 347.076 351.891 347.93L351.892 347.942L351.893 347.954C352.032 349.553 352.312 351.267 352.948 352.85C352.335 353.326 351.882 353.992 352 354.887C352.184 356.298 352.48 357.785 353.026 359.182C352.486 359.739 352.106 360.439 352.203 361.24C352.342 362.797 352.632 364.47 353.273 366.022C353.002 366.312 352.774 366.612 352.598 366.918C352.324 367.394 352.133 367.96 352.203 368.541C352.35 370.185 352.665 371.964 353.389 373.593C353.174 373.729 352.979 373.882 352.811 374.054C352.384 374.491 352.122 375.07 352.203 375.74C352.34 377.278 352.626 378.932 353.252 380.471C353.062 380.603 352.889 380.751 352.74 380.917C352.352 381.347 352.127 381.901 352.203 382.526C352.352 384.197 352.676 386.007 353.425 387.658C353.204 387.796 353.003 387.95 352.83 388.123C352.393 388.561 352.12 389.147 352.203 389.828C352.35 391.472 352.665 393.25 353.389 394.879C353.174 395.016 352.979 395.168 352.811 395.341C352.384 395.777 352.122 396.356 352.203 397.026C352.415 399.398 352.979 402.07 354.634 404.16C356.337 406.31 359.068 407.688 363.262 407.688C366.493 407.688 369.281 406.015 371.067 403.762C372.84 401.526 373.732 398.576 372.952 395.924C372.817 395.442 372.562 395.054 372.233 394.743C373.181 392.858 373.535 390.709 372.952 388.725C372.812 388.226 372.543 387.828 372.197 387.511C373.172 385.61 373.542 383.432 372.952 381.424C372.837 381.012 372.632 380.667 372.366 380.379C373.213 378.563 373.508 376.521 372.95 374.63C372.811 374.157 372.55 373.781 372.219 373.483C373.178 371.592 373.538 369.43 372.952 367.437C372.821 366.971 372.573 366.53 372.248 366.124C373.185 364.247 373.533 362.106 372.95 360.131C372.835 359.74 372.634 359.392 372.377 359.084C373.189 357.256 373.441 355.212 372.841 353.324L372.841 353.323L372.837 353.311C372.709 352.925 372.504 352.6 372.245 352.328C372.937 350.649 373.151 348.801 372.644 347.078C372.523 346.645 372.303 346.286 372.019 345.991C372.987 343.969 373.283 341.662 372.518 339.601L372.512 339.585L372.505 339.569C372.395 339.302 372.247 339.067 372.07 338.861C372.947 336.921 373.206 334.732 372.527 332.737L372.527 332.737L372.523 332.727C372.351 332.239 372.053 331.864 371.685 331.576Z" fill="#EEEFF1" stroke="#1F2533" stroke-width="2" stroke-miterlimit="10"/>
<path d="M371.991 389.001C373.326 393.525 369.013 399.49 363.262 399.49C355.354 399.49 353.608 394.348 353.197 389.721C352.992 388.178 356.381 387.253 362.44 387.15C367.883 387.047 371.477 387.15 371.991 389.001Z" fill="#EEEFF1" stroke="#1F2533" stroke-miterlimit="10"/>
<path d="M371.991 381.7C373.326 386.224 369.013 392.189 363.262 392.189C355.354 392.189 353.608 387.047 353.197 382.42C352.992 380.877 356.381 379.952 362.44 379.849C367.883 379.746 371.477 379.849 371.991 381.7Z" fill="#EEEFF1" stroke="#1F2533" stroke-miterlimit="10"/>
<path d="M371.991 374.913C373.326 379.437 369.013 385.402 363.262 385.402C355.354 385.402 353.608 380.26 353.197 375.633C352.992 374.09 356.381 373.165 362.44 373.062C367.883 373.062 371.477 373.165 371.991 374.913Z" fill="#EEEFF1" stroke="#1F2533" stroke-miterlimit="10"/>
<path d="M371.991 367.714C373.326 372.239 369.013 378.203 363.262 378.203C355.354 378.203 353.608 373.062 353.197 368.434C352.992 366.892 356.381 363.807 362.44 363.807C367.883 363.601 371.477 365.863 371.991 367.714Z" fill="#EEEFF1" stroke="#1F2533" stroke-miterlimit="10"/>
<path d="M371.991 360.413C373.326 364.938 369.013 370.902 363.262 370.902C355.354 370.902 353.608 365.761 353.197 361.133C352.992 359.591 356.381 357.534 362.44 357.534C367.883 357.431 371.477 358.665 371.991 360.413Z" fill="#EEEFF1" stroke="#1F2533" stroke-miterlimit="10"/>
<path d="M371.888 353.626C373.326 358.151 369.115 364.115 363.364 364.321C355.457 364.527 353.608 359.488 352.992 354.758C352.786 353.215 356.073 352.187 362.132 351.981C367.678 351.775 371.272 351.775 371.888 353.626Z" fill="#EEEFF1" stroke="#1F2533" stroke-miterlimit="10"/>
<path d="M371.683 347.354C373.018 351.878 368.602 357.842 362.851 357.74C354.943 357.74 353.3 352.598 352.889 347.868C352.786 346.222 356.073 345.4 362.132 345.4C367.575 345.4 371.169 345.503 371.683 347.354Z" fill="#EEEFF1" stroke="#1F2533" stroke-miterlimit="10"/>
<path d="M371.58 339.95C373.223 344.371 369.218 350.541 363.467 350.953C355.559 351.467 353.505 346.531 352.786 341.801C352.478 340.258 355.765 339.127 361.824 338.613C367.37 338.304 370.861 338.201 371.58 339.95Z" fill="#EEEFF1" stroke="#1F2533" stroke-miterlimit="10"/>
<path d="M371.58 333.06C373.121 337.584 369.115 343.652 363.364 343.96C355.456 344.371 353.505 339.333 352.786 334.705C352.581 333.163 355.765 332.031 361.824 331.723C367.369 331.414 370.964 331.312 371.58 333.06Z" fill="#EEEFF1" stroke="#1F2533" stroke-miterlimit="10"/>
<path d="M370.771 324.998C372.825 331.168 368.922 335.693 363.171 336.413C355.366 337.338 353.209 333.533 353.004 328.392C352.901 325.307 354.75 321.81 360.809 321.09C366.355 320.473 370.155 323.147 370.771 324.998Z" fill="#EEEFF1" stroke="#1F2533" stroke-miterlimit="10"/>
<path d="M368.306 324.175C369.744 327.569 366.766 330.14 362.555 330.654C356.804 331.271 355.366 329.214 355.263 326.438C355.263 324.69 356.701 322.736 361.117 322.222C365.225 321.81 367.895 323.147 368.306 324.175Z" fill="#1F2533"/>
<path d="M375.38 455.431C378.05 439.8 365.829 427.974 376.715 416.971C387.909 405.557 393.66 411.727 397.871 422.73" stroke="#1F2533" stroke-miterlimit="10"/>
<mask id="path-103-outside-1" maskUnits="userSpaceOnUse" x="202" y="510" width="59" height="59" fill="black">
<rect fill="white" x="202" y="510" width="59" height="59"/>
<path fill-rule="evenodd" clip-rule="evenodd" d="M204.149 533.522C204.05 532.906 204 532.273 204 531.623C204 521.319 216.959 513.882 229.291 512.218C241.519 510.658 258.013 517.608 258.944 528.567C258.965 528.809 258.979 529.051 258.989 529.29C259 529.102 259 529 259 529L259 529.878L259 548.536C259 571.072 204 573.647 204 547.765V532.36C204 532.36 204.005 532.797 204.149 533.522Z"/>
</mask>
<path fill-rule="evenodd" clip-rule="evenodd" d="M204.149 533.522C204.05 532.906 204 532.273 204 531.623C204 521.319 216.959 513.882 229.291 512.218C241.519 510.658 258.013 517.608 258.944 528.567C258.965 528.809 258.979 529.051 258.989 529.29C259 529.102 259 529 259 529L259 529.878L259 548.536C259 571.072 204 573.647 204 547.765V532.36C204 532.36 204.005 532.797 204.149 533.522Z" fill="#EEEFF1"/>
<path d="M204.149 533.522L206.124 533.207L202.187 533.912L204.149 533.522ZM229.291 512.218L229.024 510.236L229.031 510.235L229.038 510.234L229.291 512.218ZM258.944 528.567L256.951 528.736L258.944 528.567ZM258.989 529.29L260.985 529.41L256.99 529.367L258.989 529.29ZM259 529.878H257H259ZM259 548.536H261H259ZM204 532.36H202L206 532.338L204 532.36ZM206 531.623C206 532.169 206.042 532.697 206.124 533.207L202.174 533.837C202.058 533.115 202 532.376 202 531.623H206ZM229.559 514.2C223.658 514.996 217.65 517.174 213.17 520.318C208.666 523.478 206 527.383 206 531.623H202C202 525.559 205.814 520.593 210.872 517.043C215.955 513.477 222.592 511.104 229.024 510.236L229.559 514.2ZM256.951 528.736C256.571 524.267 252.954 520.261 247.452 517.483C242.011 514.736 235.23 513.476 229.544 514.202L229.038 510.234C235.579 509.4 243.16 510.835 249.255 513.912C255.291 516.96 260.385 521.908 260.937 528.398L256.951 528.736ZM256.99 529.367C256.982 529.158 256.969 528.948 256.951 528.736L260.937 528.398C260.96 528.671 260.977 528.943 260.987 529.214L256.99 529.367ZM259 529C261 529 261 529 261 529C261 529 261 529 261 529C261 529.001 261 529.001 261 529.001C261 529.001 261 529.001 261 529.002C261 529.002 261 529.003 261 529.004C261 529.005 261 529.007 261 529.008C261 529.011 261 529.015 261 529.019C261 529.027 261 529.036 261 529.047C260.999 529.069 260.999 529.098 260.998 529.132C260.996 529.201 260.992 529.295 260.985 529.41L256.992 529.171C256.997 529.098 256.999 529.046 256.999 529.017C257 529.002 257 528.993 257 528.991C257 528.989 257 528.989 257 528.991C257 528.992 257 528.993 257 528.994C257 528.995 257 528.996 257 528.997C257 528.997 257 528.998 257 528.998C257 528.999 257 528.999 257 528.999C257 528.999 257 528.999 257 529C257 529 257 529 257 529C257 529 257 529 259 529ZM257 529.878V529H261V529.878H257ZM257 548.536V529.878H261V548.536H257ZM206 547.765C206 553.386 208.931 557.487 213.611 560.252C218.361 563.058 224.843 564.416 231.467 564.308C238.086 564.199 244.606 562.629 249.399 559.835C254.177 557.049 257 553.222 257 548.536H261C261 555.118 256.948 560.064 251.414 563.29C245.894 566.508 238.664 568.19 231.533 568.307C224.407 568.424 217.139 566.981 211.576 563.695C205.944 560.368 202 555.085 202 547.765H206ZM206 532.36V547.765H202V532.36H206ZM202.187 533.912C202.101 533.478 202.054 533.121 202.029 532.86C202.017 532.729 202.01 532.622 202.006 532.542C202.004 532.501 202.002 532.468 202.001 532.441C202.001 532.427 202.001 532.416 202.001 532.406C202 532.401 202 532.396 202 532.392C202 532.39 202 532.388 202 532.386C202 532.385 202 532.384 202 532.383C202 532.383 202 532.382 202 532.382C202 532.382 202 532.382 202 532.381C202 532.381 202 532.381 204 532.36C206 532.338 206 532.338 206 532.338C206 532.338 206 532.337 206 532.337C206 532.337 206 532.336 206 532.336C206 532.335 206 532.335 206 532.334C206 532.332 206 532.331 206 532.33C206 532.327 206 532.325 206 532.324C206 532.321 206 532.319 206 532.319C206 532.319 206 532.325 206 532.337C206.002 532.361 206.005 532.409 206.011 532.478C206.025 532.617 206.052 532.841 206.11 533.133L202.187 533.912Z" fill="#1F2533" mask="url(#path-103-outside-1)"/>
<path d="M204 532.36C204 532.36 204 539.389 204 547.765C204 573.647 259 571.072 259 548.536C259 526 259 529 259 529C259 529 259 547.378 231.58 547.378C204.159 547.378 204 532.36 204 532.36Z" fill="#EEEFF1"/>
<path d="M204 532.36H203.5C203.5 532.085 203.722 531.861 203.997 531.86C204.272 531.858 204.497 532.079 204.5 532.354L204 532.36ZM259 529H258.5H259ZM259 529C259.5 529 259.5 529 259.5 529.001C259.5 529.001 259.5 529.002 259.5 529.002C259.5 529.003 259.5 529.005 259.5 529.006C259.5 529.009 259.5 529.014 259.5 529.019C259.5 529.03 259.499 529.045 259.499 529.065C259.498 529.104 259.496 529.16 259.493 529.231C259.486 529.375 259.471 529.581 259.444 529.843C259.388 530.365 259.277 531.106 259.057 531.992C258.616 533.765 257.735 536.126 255.973 538.488C252.432 543.234 245.413 547.878 231.58 547.878V546.878C245.167 546.878 251.858 542.332 255.172 537.89C256.837 535.657 257.67 533.424 258.086 531.751C258.294 530.914 258.398 530.219 258.449 529.737C258.475 529.495 258.488 529.307 258.494 529.182C258.497 529.119 258.499 529.071 258.499 529.041C258.5 529.025 258.5 529.014 258.5 529.007C258.5 529.004 258.5 529.002 258.5 529C258.5 529 258.5 528.999 258.5 528.999C258.5 528.999 258.5 528.999 258.5 528.999C258.5 529 258.5 529 259 529ZM231.58 547.878C217.78 547.878 210.731 544.096 207.14 540.208C205.349 538.269 204.438 536.324 203.976 534.856C203.746 534.123 203.627 533.509 203.565 533.075C203.535 532.857 203.518 532.685 203.51 532.564C203.505 532.504 203.503 532.456 203.502 532.423C203.501 532.406 203.501 532.393 203.5 532.383C203.5 532.378 203.5 532.374 203.5 532.371C203.5 532.37 203.5 532.368 203.5 532.367C203.5 532.367 203.5 532.366 203.5 532.366C203.5 532.365 203.5 532.365 204 532.36C204.5 532.354 204.5 532.354 204.5 532.354C204.5 532.354 204.5 532.353 204.5 532.353C204.5 532.353 204.5 532.353 204.5 532.353C204.5 532.354 204.5 532.356 204.5 532.358C204.5 532.363 204.5 532.371 204.501 532.383C204.502 532.406 204.504 532.443 204.507 532.493C204.514 532.592 204.528 532.742 204.555 532.935C204.61 533.322 204.718 533.881 204.93 534.556C205.355 535.904 206.198 537.714 207.874 539.529C211.218 543.15 217.959 546.878 231.58 546.878V547.878ZM258.5 548.536C258.5 537.268 258.5 532.384 258.5 530.317C258.5 529.284 258.5 528.954 258.5 528.883C258.5 528.875 258.5 528.87 258.5 528.868C258.5 528.868 258.5 528.867 258.5 528.867C259 529.367 259.5 528.867 259.5 528.867C259.5 528.867 259.5 528.867 259.5 528.867C259.5 528.868 259.5 528.868 259.5 528.868C259.5 528.868 259.5 528.87 259.5 528.872C259.5 528.879 259.5 528.896 259.5 528.915C259.5 528.934 259.5 528.955 259.5 528.972C259.5 528.98 259.5 528.987 259.5 528.992C259.5 528.995 259.5 528.997 259.5 528.998C259.5 528.999 259.5 528.999 259.5 528.999C259.5 529 259.5 529 259.5 529C259.5 529 259.5 529 259.5 529C259.5 529 259.5 529 259 529C258.5 529 258.5 529 258.5 529C258.5 529 258.5 529 258.5 529C258.5 529 258.5 529 258.5 528.999C258.5 528.999 258.5 528.999 258.5 528.998C258.5 528.997 258.5 528.995 258.5 528.992C258.5 528.987 258.5 528.98 258.5 528.972C258.5 528.955 258.5 528.934 258.5 528.915C258.5 528.896 258.5 528.879 258.5 528.872C258.5 528.87 258.5 528.868 258.5 528.868C258.5 528.868 258.5 528.868 258.5 528.867C258.5 528.867 258.5 528.867 258.5 528.867C258.5 528.867 259 528.367 259.5 528.867C259.5 528.867 259.5 528.868 259.5 528.868C259.5 528.87 259.5 528.875 259.5 528.883C259.5 528.954 259.5 529.284 259.5 530.317C259.5 532.384 259.5 537.268 259.5 548.536H258.5ZM204 532.36C204.5 532.36 204.5 532.36 204.5 532.36C204.5 532.36 204.5 532.36 204.5 532.36C204.5 532.36 204.5 532.36 204.5 532.36C204.5 532.361 204.5 532.361 204.5 532.361C204.5 532.361 204.5 532.361 204.5 532.362C204.5 532.362 204.5 532.362 204.5 532.363C204.5 532.363 204.5 532.363 204.5 532.364C204.5 532.364 204.5 532.364 204.5 532.365C204.5 532.365 204.5 532.366 204.5 532.366C204.5 532.367 204.5 532.367 204.5 532.368C204.5 532.368 204.5 532.369 204.5 532.369C204.5 532.37 204.5 532.37 204.5 532.371C204.5 532.372 204.5 532.372 204.5 532.373C204.5 532.374 204.5 532.375 204.5 532.375C204.5 532.376 204.5 532.377 204.5 532.378C204.5 532.378 204.5 532.379 204.5 532.38C204.5 532.381 204.5 532.382 204.5 532.383C204.5 532.384 204.5 532.384 204.5 532.385C204.5 532.386 204.5 532.387 204.5 532.388C204.5 532.389 204.5 532.39 204.5 532.391C204.5 532.393 204.5 532.394 204.5 532.395C204.5 532.396 204.5 532.397 204.5 532.398C204.5 532.399 204.5 532.4 204.5 532.402C204.5 532.403 204.5 532.404 204.5 532.405C204.5 532.407 204.5 532.408 204.5 532.409C204.5 532.411 204.5 532.412 204.5 532.413C204.5 532.415 204.5 532.416 204.5 532.417C204.5 532.419 204.5 532.42 204.5 532.422C204.5 532.423 204.5 532.425 204.5 532.426C204.5 532.428 204.5 532.429 204.5 532.431C204.5 532.432 204.5 532.434 204.5 532.436C204.5 532.437 204.5 532.439 204.5 532.441C204.5 532.442 204.5 532.444 204.5 532.446C204.5 532.447 204.5 532.449 204.5 532.451C204.5 532.453 204.5 532.455 204.5 532.456C204.5 532.458 204.5 532.46 204.5 532.462C204.5 532.464 204.5 532.466 204.5 532.468C204.5 532.47 204.5 532.471 204.5 532.473C204.5 532.475 204.5 532.477 204.5 532.479C204.5 532.481 204.5 532.484 204.5 532.486C204.5 532.488 204.5 532.49 204.5 532.492C204.5 532.494 204.5 532.496 204.5 532.498C204.5 532.501 204.5 532.503 204.5 532.505C204.5 532.507 204.5 532.509 204.5 532.512C204.5 532.514 204.5 532.516 204.5 532.519C204.5 532.521 204.5 532.523 204.5 532.526C204.5 532.528 204.5 532.531 204.5 532.533C204.5 532.535 204.5 532.538 204.5 532.54C204.5 532.543 204.5 532.545 204.5 532.548C204.5 532.55 204.5 532.553 204.5 532.555C204.5 532.558 204.5 532.561 204.5 532.563C204.5 532.566 204.5 532.569 204.5 532.571C204.5 532.574 204.5 532.577 204.5 532.579C204.5 532.582 204.5 532.585 204.5 532.588C204.5 532.59 204.5 532.593 204.5 532.596C204.5 532.599 204.5 532.602 204.5 532.604C204.5 532.607 204.5 532.61 204.5 532.613C204.5 532.616 204.5 532.619 204.5 532.622C204.5 532.625 204.5 532.628 204.5 532.631C204.5 532.634 204.5 532.637 204.5 532.64C204.5 532.643 204.5 532.646 204.5 532.649C204.5 532.652 204.5 532.656 204.5 532.659C204.5 532.662 204.5 532.665 204.5 532.668C204.5 532.672 204.5 532.675 204.5 532.678C204.5 532.681 204.5 532.685 204.5 532.688C204.5 532.691 204.5 532.695 204.5 532.698C204.5 532.701 204.5 532.705 204.5 532.708C204.5 532.711 204.5 532.715 204.5 532.718C204.5 532.722 204.5 532.725 204.5 532.729C204.5 532.732 204.5 532.736 204.5 532.739C204.5 532.743 204.5 532.746 204.5 532.75C204.5 532.754 204.5 532.757 204.5 532.761C204.5 532.764 204.5 532.768 204.5 532.772C204.5 532.776 204.5 532.779 204.5 532.783C204.5 532.787 204.5 532.79 204.5 532.794C204.5 532.798 204.5 532.802 204.5 532.806C204.5 532.81 204.5 532.813 204.5 532.817C204.5 532.821 204.5 532.825 204.5 532.829C204.5 532.833 204.5 532.837 204.5 532.841C204.5 532.845 204.5 532.849 204.5 532.853C204.5 532.857 204.5 532.861 204.5 532.865C204.5 532.869 204.5 532.873 204.5 532.877C204.5 532.881 204.5 532.885 204.5 532.89C204.5 532.894 204.5 532.898 204.5 532.902C204.5 532.906 204.5 532.911 204.5 532.915C204.5 532.919 204.5 532.923 204.5 532.928C204.5 532.932 204.5 532.936 204.5 532.941C204.5 532.945 204.5 532.949 204.5 532.954C204.5 532.958 204.5 532.963 204.5 532.967C204.5 532.971 204.5 532.976 204.5 532.98C204.5 532.985 204.5 532.989 204.5 532.994C204.5 532.998 204.5 533.003 204.5 533.008C204.5 533.012 204.5 533.017 204.5 533.021C204.5 533.026 204.5 533.031 204.5 533.035C204.5 533.04 204.5 533.045 204.5 533.049C204.5 533.054 204.5 533.059 204.5 533.064C204.5 533.068 204.5 533.073 204.5 533.078C204.5 533.083 204.5 533.088 204.5 533.092C204.5 533.097 204.5 533.102 204.5 533.107C204.5 533.112 204.5 533.117 204.5 533.122C204.5 533.127 204.5 533.132 204.5 533.137C204.5 533.142 204.5 533.147 204.5 533.152C204.5 533.157 204.5 533.162 204.5 533.167C204.5 533.172 204.5 533.177 204.5 533.182C204.5 533.187 204.5 533.192 204.5 533.198C204.5 533.203 204.5 533.208 204.5 533.213C204.5 533.218 204.5 533.224 204.5 533.229C204.5 533.234 204.5 533.239 204.5 533.245C204.5 533.25 204.5 533.255 204.5 533.261C204.5 533.266 204.5 533.271 204.5 533.277C204.5 533.282 204.5 533.287 204.5 533.293C204.5 533.298 204.5 533.304 204.5 533.309C204.5 533.315 204.5 533.32 204.5 533.326C204.5 533.331 204.5 533.337 204.5 533.342C204.5 533.348 204.5 533.354 204.5 533.359C204.5 533.365 204.5 533.37 204.5 533.376C204.5 533.382 204.5 533.387 204.5 533.393C204.5 533.399 204.5 533.404 204.5 533.41C204.5 533.416 204.5 533.422 204.5 533.427C204.5 533.433 204.5 533.439 204.5 533.445C204.5 533.451 204.5 533.457 204.5 533.462C204.5 533.468 204.5 533.474 204.5 533.48C204.5 533.486 204.5 533.492 204.5 533.498C204.5 533.504 204.5 533.51 204.5 533.516C204.5 533.522 204.5 533.528 204.5 533.534C204.5 533.54 204.5 533.546 204.5 533.552C204.5 533.558 204.5 533.564 204.5 533.57C204.5 533.577 204.5 533.583 204.5 533.589C204.5 533.595 204.5 533.601 204.5 533.607C204.5 533.614 204.5 533.62 204.5 533.626C204.5 533.632 204.5 533.639 204.5 533.645C204.5 533.651 204.5 533.658 204.5 533.664C204.5 533.67 204.5 533.677 204.5 533.683C204.5 533.689 204.5 533.696 204.5 533.702C204.5 533.709 204.5 533.715 204.5 533.722C204.5 533.728 204.5 533.735 204.5 533.741C204.5 533.748 204.5 533.754 204.5 533.761C204.5 533.767 204.5 533.774 204.5 533.78C204.5 533.787 204.5 533.794 204.5 533.8C204.5 533.807 204.5 533.813 204.5 533.82C204.5 533.827 204.5 533.834 204.5 533.84C204.5 533.847 204.5 533.854 204.5 533.86C204.5 533.867 204.5 533.874 204.5 533.881C204.5 533.888 204.5 533.894 204.5 533.901C204.5 533.908 204.5 533.915 204.5 533.922C204.5 533.929 204.5 533.936 204.5 533.943C204.5 533.95 204.5 533.956 204.5 533.963C204.5 533.97 204.5 533.977 204.5 533.984C204.5 533.991 204.5 533.998 204.5 534.006C204.5 534.013 204.5 534.02 204.5 534.027C204.5 534.034 204.5 534.041 204.5 534.048C204.5 534.055 204.5 534.062 204.5 534.07C204.5 534.077 204.5 534.084 204.5 534.091C204.5 534.098 204.5 534.106 204.5 534.113C204.5 534.12 204.5 534.127 204.5 534.135C204.5 534.142 204.5 534.149 204.5 534.157C204.5 534.164 204.5 534.171 204.5 534.179C204.5 534.186 204.5 534.193 204.5 534.201C204.5 534.208 204.5 534.216 204.5 534.223C204.5 534.231 204.5 534.238 204.5 534.246C204.5 534.253 204.5 534.261 204.5 534.268C204.5 534.276 204.5 534.283 204.5 534.291C204.5 534.298 204.5 534.306 204.5 534.314C204.5 534.321 204.5 534.329 204.5 534.337C204.5 534.344 204.5 534.352 204.5 534.36C204.5 534.367 204.5 534.375 204.5 534.383C204.5 534.39 204.5 534.398 204.5 534.406C204.5 534.414 204.5 534.422 204.5 534.429C204.5 534.437 204.5 534.445 204.5 534.453C204.5 534.461 204.5 534.469 204.5 534.476C204.5 534.484 204.5 534.492 204.5 534.5C204.5 534.508 204.5 534.516 204.5 534.524C204.5 534.532 204.5 534.54 204.5 534.548C204.5 534.556 204.5 534.564 204.5 534.572C204.5 534.58 204.5 534.588 204.5 534.596C204.5 534.604 204.5 534.613 204.5 534.621C204.5 534.629 204.5 534.637 204.5 534.645C204.5 534.653 204.5 534.661 204.5 534.67C204.5 534.678 204.5 534.686 204.5 534.694C204.5 534.703 204.5 534.711 204.5 534.719C204.5 534.727 204.5 534.736 204.5 534.744C204.5 534.752 204.5 534.761 204.5 534.769C204.5 534.777 204.5 534.786 204.5 534.794C204.5 534.803 204.5 534.811 204.5 534.819C204.5 534.828 204.5 534.836 204.5 534.845C204.5 534.853 204.5 534.862 204.5 534.87C204.5 534.879 204.5 534.887 204.5 534.896C204.5 534.904 204.5 534.913 204.5 534.922C204.5 534.93 204.5 534.939 204.5 534.947C204.5 534.956 204.5 534.965 204.5 534.973C204.5 534.982 204.5 534.991 204.5 534.999C204.5 535.008 204.5 535.017 204.5 535.025C204.5 535.034 204.5 535.043 204.5 535.052C204.5 535.061 204.5 535.069 204.5 535.078C204.5 535.087 204.5 535.096 204.5 535.105C204.5 535.113 204.5 535.122 204.5 535.131C204.5 535.14 204.5 535.149 204.5 535.158C204.5 535.167 204.5 535.176 204.5 535.185C204.5 535.194 204.5 535.203 204.5 535.212C204.5 535.221 204.5 535.23 204.5 535.239C204.5 535.248 204.5 535.257 204.5 535.266C204.5 535.275 204.5 535.284 204.5 535.293C204.5 535.302 204.5 535.311 204.5 535.32C204.5 535.33 204.5 535.339 204.5 535.348C204.5 535.357 204.5 535.366 204.5 535.376C204.5 535.385 204.5 535.394 204.5 535.403C204.5 535.413 204.5 535.422 204.5 535.431C204.5 535.44 204.5 535.45 204.5 535.459C204.5 535.468 204.5 535.478 204.5 535.487C204.5 535.496 204.5 535.506 204.5 535.515C204.5 535.525 204.5 535.534 204.5 535.543C204.5 535.553 204.5 535.562 204.5 535.572C204.5 535.581 204.5 535.591 204.5 535.6C204.5 535.61 204.5 535.619 204.5 535.629C204.5 535.638 204.5 535.648 204.5 535.657C204.5 535.667 204.5 535.677 204.5 535.686C204.5 535.696 204.5 535.705 204.5 535.715C204.5 535.725 204.5 535.734 204.5 535.744C204.5 535.754 204.5 535.763 204.5 535.773C204.5 535.783 204.5 535.793 204.5 535.802C204.5 535.812 204.5 535.822 204.5 535.832C204.5 535.841 204.5 535.851 204.5 535.861C204.5 535.871 204.5 535.881 204.5 535.891C204.5 535.9 204.5 535.91 204.5 535.92C204.5 535.93 204.5 535.94 204.5 535.95C204.5 535.96 204.5 535.97 204.5 535.98C204.5 535.99 204.5 536 204.5 536.01C204.5 536.02 204.5 536.03 204.5 536.04C204.5 536.05 204.5 536.06 204.5 536.07C204.5 536.08 204.5 536.09 204.5 536.1C204.5 536.11 204.5 536.12 204.5 536.13C204.5 536.14 204.5 536.151 204.5 536.161C204.5 536.171 204.5 536.181 204.5 536.191C204.5 536.202 204.5 536.212 204.5 536.222C204.5 536.232 204.5 536.242 204.5 536.253C204.5 536.263 204.5 536.273 204.5 536.284C204.5 536.294 204.5 536.304 204.5 536.314C204.5 536.325 204.5 536.335 204.5 536.346C204.5 536.356 204.5 536.366 204.5 536.377C204.5 536.387 204.5 536.397 204.5 536.408C204.5 536.418 204.5 536.429 204.5 536.439C204.5 536.45 204.5 536.46 204.5 536.471C204.5 536.481 204.5 536.492 204.5 536.502C204.5 536.513 204.5 536.523 204.5 536.534C204.5 536.544 204.5 536.555 204.5 536.566C204.5 536.576 204.5 536.587 204.5 536.598C204.5 536.608 204.5 536.619 204.5 536.629C204.5 536.64 204.5 536.651 204.5 536.661C204.5 536.672 204.5 536.683 204.5 536.694C204.5 536.704 204.5 536.715 204.5 536.726C204.5 536.737 204.5 536.747 204.5 536.758C204.5 536.769 204.5 536.78 204.5 536.791C204.5 536.801 204.5 536.812 204.5 536.823C204.5 536.834 204.5 536.845 204.5 536.856C204.5 536.867 204.5 536.878 204.5 536.888C204.5 536.899 204.5 536.91 204.5 536.921C204.5 536.932 204.5 536.943 204.5 536.954C204.5 536.965 204.5 536.976 204.5 536.987C204.5 536.998 204.5 537.009 204.5 537.02C204.5 537.031 204.5 537.042 204.5 537.054C204.5 537.065 204.5 537.076 204.5 537.087C204.5 537.098 204.5 537.109 204.5 537.12C204.5 537.131 204.5 537.142 204.5 537.154C204.5 537.165 204.5 537.176 204.5 537.187C204.5 537.198 204.5 537.21 204.5 537.221C204.5 537.232 204.5 537.243 204.5 537.255C204.5 537.266 204.5 537.277 204.5 537.289C204.5 537.3 204.5 537.311 204.5 537.322C204.5 537.334 204.5 537.345 204.5 537.357C204.5 537.368 204.5 537.379 204.5 537.391C204.5 537.402 204.5 537.413 204.5 537.425C204.5 537.436 204.5 537.448 204.5 537.459C204.5 537.471 204.5 537.482 204.5 537.494C204.5 537.505 204.5 537.517 204.5 537.528C204.5 537.54 204.5 537.551 204.5 537.563C204.5 537.574 204.5 537.586 204.5 537.597C204.5 537.609 204.5 537.621 204.5 537.632C204.5 537.644 204.5 537.655 204.5 537.667C204.5 537.679 204.5 537.69 204.5 537.702C204.5 537.714 204.5 537.725 204.5 537.737C204.5 537.749 204.5 537.76 204.5 537.772C204.5 537.784 204.5 537.796 204.5 537.807C204.5 537.819 204.5 537.831 204.5 537.843C204.5 537.854 204.5 537.866 204.5 537.878C204.5 537.89 204.5 537.902 204.5 537.914C204.5 537.925 204.5 537.937 204.5 537.949C204.5 537.961 204.5 537.973 204.5 537.985C204.5 537.997 204.5 538.009 204.5 538.021C204.5 538.033 204.5 538.044 204.5 538.056C204.5 538.068 204.5 538.08 204.5 538.092C204.5 538.104 204.5 538.116 204.5 538.128C204.5 538.14 204.5 538.152 204.5 538.165C204.5 538.177 204.5 538.189 204.5 538.201C204.5 538.213 204.5 538.225 204.5 538.237C204.5 538.249 204.5 538.261 204.5 538.273C204.5 538.285 204.5 538.298 204.5 538.31C204.5 538.322 204.5 538.334 204.5 538.346C204.5 538.359 204.5 538.371 204.5 538.383C204.5 538.395 204.5 538.407 204.5 538.42C204.5 538.432 204.5 538.444 204.5 538.456C204.5 538.469 204.5 538.481 204.5 538.493C204.5 538.506 204.5 538.518 204.5 538.53C204.5 538.543 204.5 538.555 204.5 538.567C204.5 538.58 204.5 538.592 204.5 538.604C204.5 538.617 204.5 538.629 204.5 538.642C204.5 538.654 204.5 538.667 204.5 538.679C204.5 538.691 204.5 538.704 204.5 538.716C204.5 538.729 204.5 538.741 204.5 538.754C204.5 538.766 204.5 538.779 204.5 538.791C204.5 538.804 204.5 538.816 204.5 538.829C204.5 538.842 204.5 538.854 204.5 538.867C204.5 538.879 204.5 538.892 204.5 538.904C204.5 538.917 204.5 538.93 204.5 538.942C204.5 538.955 204.5 538.968 204.5 538.98C204.5 538.993 204.5 539.006 204.5 539.018C204.5 539.031 204.5 539.044 204.5 539.056C204.5 539.069 204.5 539.082 204.5 539.095C204.5 539.107 204.5 539.12 204.5 539.133C204.5 539.146 204.5 539.158 204.5 539.171C204.5 539.184 204.5 539.197 204.5 539.21C204.5 539.223 204.5 539.235 204.5 539.248C204.5 539.261 204.5 539.274 204.5 539.287C204.5 539.3 204.5 539.313 204.5 539.326C204.5 539.338 204.5 539.351 204.5 539.364C204.5 539.377 204.5 539.39 204.5 539.403C204.5 539.416 204.5 539.429 204.5 539.442C204.5 539.455 204.5 539.468 204.5 539.481C204.5 539.494 204.5 539.507 204.5 539.52C204.5 539.533 204.5 539.546 204.5 539.559C204.5 539.572 204.5 539.585 204.5 539.598C204.5 539.612 204.5 539.625 204.5 539.638C204.5 539.651 204.5 539.664 204.5 539.677C204.5 539.69 204.5 539.703 204.5 539.717C204.5 539.73 204.5 539.743 204.5 539.756C204.5 539.769 204.5 539.782 204.5 539.796C204.5 539.809 204.5 539.822 204.5 539.835C204.5 539.849 204.5 539.862 204.5 539.875C204.5 539.888 204.5 539.902 204.5 539.915C204.5 539.928 204.5 539.942 204.5 539.955C204.5 539.968 204.5 539.982 204.5 539.995C204.5 540.008 204.5 540.022 204.5 540.035C204.5 540.048 204.5 540.062 204.5 540.075C204.5 540.088 204.5 540.102 204.5 540.115C204.5 540.129 204.5 540.142 204.5 540.156C204.5 540.169 204.5 540.182 204.5 540.196C204.5 540.209 204.5 540.223 204.5 540.236C204.5 540.25 204.5 540.263 204.5 540.277C204.5 540.29 204.5 540.304 204.5 540.317C204.5 540.331 204.5 540.344 204.5 540.358C204.5 540.372 204.5 540.385 204.5 540.399C204.5 540.412 204.5 540.426 204.5 540.44C204.5 540.453 204.5 540.467 204.5 540.48C204.5 540.494 204.5 540.508 204.5 540.521C204.5 540.535 204.5 540.549 204.5 540.562C204.5 540.576 204.5 540.59 204.5 540.603C204.5 540.617 204.5 540.631 204.5 540.645C204.5 540.658 204.5 540.672 204.5 540.686C204.5 540.699 204.5 540.713 204.5 540.727C204.5 540.741 204.5 540.755 204.5 540.768C204.5 540.782 204.5 540.796 204.5 540.81C204.5 540.824 204.5 540.837 204.5 540.851C204.5 540.865 204.5 540.879 204.5 540.893C204.5 540.907 204.5 540.921 204.5 540.934C204.5 540.948 204.5 540.962 204.5 540.976C204.5 540.99 204.5 541.004 204.5 541.018C204.5 541.032 204.5 541.046 204.5 541.06C204.5 541.074 204.5 541.088 204.5 541.102C204.5 541.116 204.5 541.13 204.5 541.144C204.5 541.158 204.5 541.172 204.5 541.186C204.5 541.2 204.5 541.214 204.5 541.228C204.5 541.242 204.5 541.256 204.5 541.27C204.5 541.284 204.5 541.298 204.5 541.312C204.5 541.326 204.5 541.34 204.5 541.354C204.5 541.369 204.5 541.383 204.5 541.397C204.5 541.411 204.5 541.425 204.5 541.439C204.5 541.453 204.5 541.468 204.5 541.482C204.5 541.496 204.5 541.51 204.5 541.524C204.5 541.539 204.5 541.553 204.5 541.567C204.5 541.581 204.5 541.595 204.5 541.61C204.5 541.624 204.5 541.638 204.5 541.652C204.5 541.667 204.5 541.681 204.5 541.695C204.5 541.71 204.5 541.724 204.5 541.738C204.5 541.752 204.5 541.767 204.5 541.781C204.5 541.795 204.5 541.81 204.5 541.824C204.5 541.839 204.5 541.853 204.5 541.867C204.5 541.882 204.5 541.896 204.5 541.91C204.5 541.925 204.5 541.939 204.5 541.954C204.5 541.968 204.5 541.982 204.5 541.997C204.5 542.011 204.5 542.026 204.5 542.04C204.5 542.055 204.5 542.069 204.5 542.084C204.5 542.098 204.5 542.113 204.5 542.127C204.5 542.142 204.5 542.156 204.5 542.171C204.5 542.185 204.5 542.2 204.5 542.214C204.5 542.229 204.5 542.243 204.5 542.258C204.5 542.272 204.5 542.287 204.5 542.301C204.5 542.316 204.5 542.331 204.5 542.345C204.5 542.36 204.5 542.374 204.5 542.389C204.5 542.404 204.5 542.418 204.5 542.433C204.5 542.448 204.5 542.462 204.5 542.477C204.5 542.492 204.5 542.506 204.5 542.521C204.5 542.536 204.5 542.55 204.5 542.565C204.5 542.58 204.5 542.594 204.5 542.609C204.5 542.624 204.5 542.639 204.5 542.653C204.5 542.668 204.5 542.683 204.5 542.698C204.5 542.712 204.5 542.727 204.5 542.742C204.5 542.757 204.5 542.771 204.5 542.786C204.5 542.801 204.5 542.816 204.5 542.831C204.5 542.845 204.5 542.86 204.5 542.875C204.5 542.89 204.5 542.905 204.5 542.92C204.5 542.934 204.5 542.949 204.5 542.964C204.5 542.979 204.5 542.994 204.5 543.009C204.5 543.024 204.5 543.039 204.5 543.053C204.5 543.068 204.5 543.083 204.5 543.098C204.5 543.113 204.5 543.128 204.5 543.143C204.5 543.158 204.5 543.173 204.5 543.188C204.5 543.203 204.5 543.218 204.5 543.233C204.5 543.248 204.5 543.263 204.5 543.278C204.5 543.293 204.5 543.308 204.5 543.323C204.5 543.338 204.5 543.353 204.5 543.368C204.5 543.383 204.5 543.398 204.5 543.413C204.5 543.428 204.5 543.443 204.5 543.458C204.5 543.473 204.5 543.488 204.5 543.503C204.5 543.519 204.5 543.534 204.5 543.549C204.5 543.564 204.5 543.579 204.5 543.594C204.5 543.609 204.5 543.624 204.5 543.64C204.5 543.655 204.5 543.67 204.5 543.685C204.5 543.7 204.5 543.715 204.5 543.731C204.5 543.746 204.5 543.761 204.5 543.776C204.5 543.791 204.5 543.806 204.5 543.822C204.5 543.837 204.5 543.852 204.5 543.867C204.5 543.883 204.5 543.898 204.5 543.913C204.5 543.928 204.5 543.944 204.5 543.959C204.5 543.974 204.5 543.989 204.5 544.005C204.5 544.02 204.5 544.035 204.5 544.051C204.5 544.066 204.5 544.081 204.5 544.096C204.5 544.112 204.5 544.127 204.5 544.142C204.5 544.158 204.5 544.173 204.5 544.188C204.5 544.204 204.5 544.219 204.5 544.235C204.5 544.25 204.5 544.265 204.5 544.281C204.5 544.296 204.5 544.311 204.5 544.327C204.5 544.342 204.5 544.358 204.5 544.373C204.5 544.388 204.5 544.404 204.5 544.419C204.5 544.435 204.5 544.45 204.5 544.466C204.5 544.481 204.5 544.497 204.5 544.512C204.5 544.528 204.5 544.543 204.5 544.558C204.5 544.574 204.5 544.589 204.5 544.605C204.5 544.62 204.5 544.636 204.5 544.651C204.5 544.667 204.5 544.682 204.5 544.698C204.5 544.714 204.5 544.729 204.5 544.745C204.5 544.76 204.5 544.776 204.5 544.791C204.5 544.807 204.5 544.822 204.5 544.838C204.5 544.854 204.5 544.869 204.5 544.885C204.5 544.9 204.5 544.916 204.5 544.931C204.5 544.947 204.5 544.963 204.5 544.978C204.5 544.994 204.5 545.01 204.5 545.025C204.5 545.041 204.5 545.056 204.5 545.072C204.5 545.088 204.5 545.103 204.5 545.119C204.5 545.135 204.5 545.15 204.5 545.166C204.5 545.182 204.5 545.198 204.5 545.213C204.5 545.229 204.5 545.245 204.5 545.26C204.5 545.276 204.5 545.292 204.5 545.307C204.5 545.323 204.5 545.339 204.5 545.355C204.5 545.37 204.5 545.386 204.5 545.402C204.5 545.418 204.5 545.433 204.5 545.449C204.5 545.465 204.5 545.481 204.5 545.497C204.5 545.512 204.5 545.528 204.5 545.544C204.5 545.56 204.5 545.575 204.5 545.591C204.5 545.607 204.5 545.623 204.5 545.639C204.5 545.655 204.5 545.67 204.5 545.686C204.5 545.702 204.5 545.718 204.5 545.734C204.5 545.75 204.5 545.765 204.5 545.781C204.5 545.797 204.5 545.813 204.5 545.829C204.5 545.845 204.5 545.861 204.5 545.877C204.5 545.893 204.5 545.908 204.5 545.924C204.5 545.94 204.5 545.956 204.5 545.972C204.5 545.988 204.5 546.004 204.5 546.02C204.5 546.036 204.5 546.052 204.5 546.068C204.5 546.084 204.5 546.1 204.5 546.116C204.5 546.131 204.5 546.147 204.5 546.163C204.5 546.179 204.5 546.195 204.5 546.211C204.5 546.227 204.5 546.243 204.5 546.259C204.5 546.275 204.5 546.291 204.5 546.307C204.5 546.323 204.5 546.339 204.5 546.355C204.5 546.371 204.5 546.387 204.5 546.404C204.5 546.42 204.5 546.436 204.5 546.452C204.5 546.468 204.5 546.484 204.5 546.5C204.5 546.516 204.5 546.532 204.5 546.548C204.5 546.564 204.5 546.58 204.5 546.596C204.5 546.612 204.5 546.628 204.5 546.645C204.5 546.661 204.5 546.677 204.5 546.693C204.5 546.709 204.5 546.725 204.5 546.741C204.5 546.757 204.5 546.773 204.5 546.79C204.5 546.806 204.5 546.822 204.5 546.838C204.5 546.854 204.5 546.87 204.5 546.886C204.5 546.903 204.5 546.919 204.5 546.935C204.5 546.951 204.5 546.967 204.5 546.984C204.5 547 204.5 547.016 204.5 547.032C204.5 547.048 204.5 547.064 204.5 547.081C204.5 547.097 204.5 547.113 204.5 547.129C204.5 547.146 204.5 547.162 204.5 547.178C204.5 547.194 204.5 547.21 204.5 547.227C204.5 547.243 204.5 547.259 204.5 547.275C204.5 547.292 204.5 547.308 204.5 547.324C204.5 547.34 204.5 547.357 204.5 547.373C204.5 547.389 204.5 547.406 204.5 547.422C204.5 547.438 204.5 547.454 204.5 547.471C204.5 547.487 204.5 547.503 204.5 547.52C204.5 547.536 204.5 547.552 204.5 547.569C204.5 547.585 204.5 547.601 204.5 547.618C204.5 547.634 204.5 547.65 204.5 547.667C204.5 547.683 204.5 547.699 204.5 547.716C204.5 547.732 204.5 547.748 204.5 547.765H203.5C203.5 547.748 203.5 547.732 203.5 547.716C203.5 547.699 203.5 547.683 203.5 547.667C203.5 547.65 203.5 547.634 203.5 547.618C203.5 547.601 203.5 547.585 203.5 547.569C203.5 547.552 203.5 547.536 203.5 547.52C203.5 547.503 203.5 547.487 203.5 547.471C203.5 547.454 203.5 547.438 203.5 547.422C203.5 547.406 203.5 547.389 203.5 547.373C203.5 547.357 203.5 547.34 203.5 547.324C203.5 547.308 203.5 547.292 203.5 547.275C203.5 547.259 203.5 547.243 203.5 547.227C203.5 547.21 203.5 547.194 203.5 547.178C203.5 547.162 203.5 547.146 203.5 547.129C203.5 547.113 203.5 547.097 203.5 547.081C203.5 547.064 203.5 547.048 203.5 547.032C203.5 547.016 203.5 547 203.5 546.984C203.5 546.967 203.5 546.951 203.5 546.935C203.5 546.919 203.5 546.903 203.5 546.886C203.5 546.87 203.5 546.854 203.5 546.838C203.5 546.822 203.5 546.806 203.5 546.79C203.5 546.773 203.5 546.757 203.5 546.741C203.5 546.725 203.5 546.709 203.5 546.693C203.5 546.677 203.5 546.661 203.5 546.645C203.5 546.628 203.5 546.612 203.5 546.596C203.5 546.58 203.5 546.564 203.5 546.548C203.5 546.532 203.5 546.516 203.5 546.5C203.5 546.484 203.5 546.468 203.5 546.452C203.5 546.436 203.5 546.42 203.5 546.404C203.5 546.387 203.5 546.371 203.5 546.355C203.5 546.339 203.5 546.323 203.5 546.307C203.5 546.291 203.5 546.275 203.5 546.259C203.5 546.243 203.5 546.227 203.5 546.211C203.5 546.195 203.5 546.179 203.5 546.163C203.5 546.147 203.5 546.131 203.5 546.116C203.5 546.1 203.5 546.084 203.5 546.068C203.5 546.052 203.5 546.036 203.5 546.02C203.5 546.004 203.5 545.988 203.5 545.972C203.5 545.956 203.5 545.94 203.5 545.924C203.5 545.908 203.5 545.893 203.5 545.877C203.5 545.861 203.5 545.845 203.5 545.829C203.5 545.813 203.5 545.797 203.5 545.781C203.5 545.765 203.5 545.75 203.5 545.734C203.5 545.718 203.5 545.702 203.5 545.686C203.5 545.67 203.5 545.655 203.5 545.639C203.5 545.623 203.5 545.607 203.5 545.591C203.5 545.575 203.5 545.56 203.5 545.544C203.5 545.528 203.5 545.512 203.5 545.497C203.5 545.481 203.5 545.465 203.5 545.449C203.5 545.433 203.5 545.418 203.5 545.402C203.5 545.386 203.5 545.37 203.5 545.355C203.5 545.339 203.5 545.323 203.5 545.307C203.5 545.292 203.5 545.276 203.5 545.26C203.5 545.245 203.5 545.229 203.5 545.213C203.5 545.198 203.5 545.182 203.5 545.166C203.5 545.15 203.5 545.135 203.5 545.119C203.5 545.103 203.5 545.088 203.5 545.072C203.5 545.056 203.5 545.041 203.5 545.025C203.5 545.01 203.5 544.994 203.5 544.978C203.5 544.963 203.5 544.947 203.5 544.931C203.5 544.916 203.5 544.9 203.5 544.885C203.5 544.869 203.5 544.854 203.5 544.838C203.5 544.822 203.5 544.807 203.5 544.791C203.5 544.776 203.5 544.76 203.5 544.745C203.5 544.729 203.5 544.714 203.5 544.698C203.5 544.682 203.5 544.667 203.5 544.651C203.5 544.636 203.5 544.62 203.5 544.605C203.5 544.589 203.5 544.574 203.5 544.558C203.5 544.543 203.5 544.528 203.5 544.512C203.5 544.497 203.5 544.481 203.5 544.466C203.5 544.45 203.5 544.435 203.5 544.419C203.5 544.404 203.5 544.388 203.5 544.373C203.5 544.358 203.5 544.342 203.5 544.327C203.5 544.311 203.5 544.296 203.5 544.281C203.5 544.265 203.5 544.25 203.5 544.235C203.5 544.219 203.5 544.204 203.5 544.188C203.5 544.173 203.5 544.158 203.5 544.142C203.5 544.127 203.5 544.112 203.5 544.096C203.5 544.081 203.5 544.066 203.5 544.051C203.5 544.035 203.5 544.02 203.5 544.005C203.5 543.989 203.5 543.974 203.5 543.959C203.5 543.944 203.5 543.928 203.5 543.913C203.5 543.898 203.5 543.883 203.5 543.867C203.5 543.852 203.5 543.837 203.5 543.822C203.5 543.806 203.5 543.791 203.5 543.776C203.5 543.761 203.5 543.746 203.5 543.731C203.5 543.715 203.5 543.7 203.5 543.685C203.5 543.67 203.5 543.655 203.5 543.64C203.5 543.624 203.5 543.609 203.5 543.594C203.5 543.579 203.5 543.564 203.5 543.549C203.5 543.534 203.5 543.519 203.5 543.503C203.5 543.488 203.5 543.473 203.5 543.458C203.5 543.443 203.5 543.428 203.5 543.413C203.5 543.398 203.5 543.383 203.5 543.368C203.5 543.353 203.5 543.338 203.5 543.323C203.5 543.308 203.5 543.293 203.5 543.278C203.5 543.263 203.5 543.248 203.5 543.233C203.5 543.218 203.5 543.203 203.5 543.188C203.5 543.173 203.5 543.158 203.5 543.143C203.5 543.128 203.5 543.113 203.5 543.098C203.5 543.083 203.5 543.068 203.5 543.053C203.5 543.039 203.5 543.024 203.5 543.009C203.5 542.994 203.5 542.979 203.5 542.964C203.5 542.949 203.5 542.934 203.5 542.92C203.5 542.905 203.5 542.89 203.5 542.875C203.5 542.86 203.5 542.845 203.5 542.831C203.5 542.816 203.5 542.801 203.5 542.786C203.5 542.771 203.5 542.757 203.5 542.742C203.5 542.727 203.5 542.712 203.5 542.698C203.5 542.683 203.5 542.668 203.5 542.653C203.5 542.639 203.5 542.624 203.5 542.609C203.5 542.594 203.5 542.58 203.5 542.565C203.5 542.55 203.5 542.536 203.5 542.521C203.5 542.506 203.5 542.492 203.5 542.477C203.5 542.462 203.5 542.448 203.5 542.433C203.5 542.418 203.5 542.404 203.5 542.389C203.5 542.374 203.5 542.36 203.5 542.345C203.5 542.331 203.5 542.316 203.5 542.301C203.5 542.287 203.5 542.272 203.5 542.258C203.5 542.243 203.5 542.229 203.5 542.214C203.5 542.2 203.5 542.185 203.5 542.171C203.5 542.156 203.5 542.142 203.5 542.127C203.5 542.113 203.5 542.098 203.5 542.084C203.5 542.069 203.5 542.055 203.5 542.04C203.5 542.026 203.5 542.011 203.5 541.997C203.5 541.982 203.5 541.968 203.5 541.954C203.5 541.939 203.5 541.925 203.5 541.91C203.5 541.896 203.5 541.882 203.5 541.867C203.5 541.853 203.5 541.839 203.5 541.824C203.5 541.81 203.5 541.795 203.5 541.781C203.5 541.767 203.5 541.752 203.5 541.738C203.5 541.724 203.5 541.71 203.5 541.695C203.5 541.681 203.5 541.667 203.5 541.652C203.5 541.638 203.5 541.624 203.5 541.61C203.5 541.595 203.5 541.581 203.5 541.567C203.5 541.553 203.5 541.539 203.5 541.524C203.5 541.51 203.5 541.496 203.5 541.482C203.5 541.468 203.5 541.453 203.5 541.439C203.5 541.425 203.5 541.411 203.5 541.397C203.5 541.383 203.5 541.369 203.5 541.354C203.5 541.34 203.5 541.326 203.5 541.312C203.5 541.298 203.5 541.284 203.5 541.27C203.5 541.256 203.5 541.242 203.5 541.228C203.5 541.214 203.5 541.2 203.5 541.186C203.5 541.172 203.5 541.158 203.5 541.144C203.5 541.13 203.5 541.116 203.5 541.102C203.5 541.088 203.5 541.074 203.5 541.06C203.5 541.046 203.5 541.032 203.5 541.018C203.5 541.004 203.5 540.99 203.5 540.976C203.5 540.962 203.5 540.948 203.5 540.934C203.5 540.921 203.5 540.907 203.5 540.893C203.5 540.879 203.5 540.865 203.5 540.851C203.5 540.837 203.5 540.824 203.5 540.81C203.5 540.796 203.5 540.782 203.5 540.768C203.5 540.755 203.5 540.741 203.5 540.727C203.5 540.713 203.5 540.699 203.5 540.686C203.5 540.672 203.5 540.658 203.5 540.645C203.5 540.631 203.5 540.617 203.5 540.603C203.5 540.59 203.5 540.576 203.5 540.562C203.5 540.549 203.5 540.535 203.5 540.521C203.5 540.508 203.5 540.494 203.5 540.48C203.5 540.467 203.5 540.453 203.5 540.44C203.5 540.426 203.5 540.412 203.5 540.399C203.5 540.385 203.5 540.372 203.5 540.358C203.5 540.344 203.5 540.331 203.5 540.317C203.5 540.304 203.5 540.29 203.5 540.277C203.5 540.263 203.5 540.25 203.5 540.236C203.5 540.223 203.5 540.209 203.5 540.196C203.5 540.182 203.5 540.169 203.5 540.156C203.5 540.142 203.5 540.129 203.5 540.115C203.5 540.102 203.5 540.088 203.5 540.075C203.5 540.062 203.5 540.048 203.5 540.035C203.5 540.022 203.5 540.008 203.5 539.995C203.5 539.982 203.5 539.968 203.5 539.955C203.5 539.942 203.5 539.928 203.5 539.915C203.5 539.902 203.5 539.888 203.5 539.875C203.5 539.862 203.5 539.849 203.5 539.835C203.5 539.822 203.5 539.809 203.5 539.796C203.5 539.782 203.5 539.769 203.5 539.756C203.5 539.743 203.5 539.73 203.5 539.717C203.5 539.703 203.5 539.69 203.5 539.677C203.5 539.664 203.5 539.651 203.5 539.638C203.5 539.625 203.5 539.612 203.5 539.598C203.5 539.585 203.5 539.572 203.5 539.559C203.5 539.546 203.5 539.533 203.5 539.52C203.5 539.507 203.5 539.494 203.5 539.481C203.5 539.468 203.5 539.455 203.5 539.442C203.5 539.429 203.5 539.416 203.5 539.403C203.5 539.39 203.5 539.377 203.5 539.364C203.5 539.351 203.5 539.338 203.5 539.326C203.5 539.313 203.5 539.3 203.5 539.287C203.5 539.274 203.5 539.261 203.5 539.248C203.5 539.235 203.5 539.223 203.5 539.21C203.5 539.197 203.5 539.184 203.5 539.171C203.5 539.158 203.5 539.146 203.5 539.133C203.5 539.12 203.5 539.107 203.5 539.095C203.5 539.082 203.5 539.069 203.5 539.056C203.5 539.044 203.5 539.031 203.5 539.018C203.5 539.006 203.5 538.993 203.5 538.98C203.5 538.968 203.5 538.955 203.5 538.942C203.5 538.93 203.5 538.917 203.5 538.904C203.5 538.892 203.5 538.879 203.5 538.867C203.5 538.854 203.5 538.842 203.5 538.829C203.5 538.816 203.5 538.804 203.5 538.791C203.5 538.779 203.5 538.766 203.5 538.754C203.5 538.741 203.5 538.729 203.5 538.716C203.5 538.704 203.5 538.691 203.5 538.679C203.5 538.667 203.5 538.654 203.5 538.642C203.5 538.629 203.5 538.617 203.5 538.604C203.5 538.592 203.5 538.58 203.5 538.567C203.5 538.555 203.5 538.543 203.5 538.53C203.5 538.518 203.5 538.506 203.5 538.493C203.5 538.481 203.5 538.469 203.5 538.456C203.5 538.444 203.5 538.432 203.5 538.42C203.5 538.407 203.5 538.395 203.5 538.383C203.5 538.371 203.5 538.359 203.5 538.346C203.5 538.334 203.5 538.322 203.5 538.31C203.5 538.298 203.5 538.285 203.5 538.273C203.5 538.261 203.5 538.249 203.5 538.237C203.5 538.225 203.5 538.213 203.5 538.201C203.5 538.189 203.5 538.177 203.5 538.165C203.5 538.152 203.5 538.14 203.5 538.128C203.5 538.116 203.5 538.104 203.5 538.092C203.5 538.08 203.5 538.068 203.5 538.056C203.5 538.044 203.5 538.033 203.5 538.021C203.5 538.009 203.5 537.997 203.5 537.985C203.5 537.973 203.5 537.961 203.5 537.949C203.5 537.937 203.5 537.925 203.5 537.914C203.5 537.902 203.5 537.89 203.5 537.878C203.5 537.866 203.5 537.854 203.5 537.843C203.5 537.831 203.5 537.819 203.5 537.807C203.5 537.796 203.5 537.784 203.5 537.772C203.5 537.76 203.5 537.749 203.5 537.737C203.5 537.725 203.5 537.714 203.5 537.702C203.5 537.69 203.5 537.679 203.5 537.667C203.5 537.655 203.5 537.644 203.5 537.632C203.5 537.621 203.5 537.609 203.5 537.597C203.5 537.586 203.5 537.574 203.5 537.563C203.5 537.551 203.5 537.54 203.5 537.528C203.5 537.517 203.5 537.505 203.5 537.494C203.5 537.482 203.5 537.471 203.5 537.459C203.5 537.448 203.5 537.436 203.5 537.425C203.5 537.413 203.5 537.402 203.5 537.391C203.5 537.379 203.5 537.368 203.5 537.357C203.5 537.345 203.5 537.334 203.5 537.322C203.5 537.311 203.5 537.3 203.5 537.289C203.5 537.277 203.5 537.266 203.5 537.255C203.5 537.243 203.5 537.232 203.5 537.221C203.5 537.21 203.5 537.198 203.5 537.187C203.5 537.176 203.5 537.165 203.5 537.154C203.5 537.142 203.5 537.131 203.5 537.12C203.5 537.109 203.5 537.098 203.5 537.087C203.5 537.076 203.5 537.065 203.5 537.054C203.5 537.042 203.5 537.031 203.5 537.02C203.5 537.009 203.5 536.998 203.5 536.987C203.5 536.976 203.5 536.965 203.5 536.954C203.5 536.943 203.5 536.932 203.5 536.921C203.5 536.91 203.5 536.899 203.5 536.888C203.5 536.878 203.5 536.867 203.5 536.856C203.5 536.845 203.5 536.834 203.5 536.823C203.5 536.812 203.5 536.801 203.5 536.791C203.5 536.78 203.5 536.769 203.5 536.758C203.5 536.747 203.5 536.737 203.5 536.726C203.5 536.715 203.5 536.704 203.5 536.694C203.5 536.683 203.5 536.672 203.5 536.661C203.5 536.651 203.5 536.64 203.5 536.629C203.5 536.619 203.5 536.608 203.5 536.598C203.5 536.587 203.5 536.576 203.5 536.566C203.5 536.555 203.5 536.544 203.5 536.534C203.5 536.523 203.5 536.513 203.5 536.502C203.5 536.492 203.5 536.481 203.5 536.471C203.5 536.46 203.5 536.45 203.5 536.439C203.5 536.429 203.5 536.418 203.5 536.408C203.5 536.397 203.5 536.387 203.5 536.377C203.5 536.366 203.5 536.356 203.5 536.346C203.5 536.335 203.5 536.325 203.5 536.314C203.5 536.304 203.5 536.294 203.5 536.284C203.5 536.273 203.5 536.263 203.5 536.253C203.5 536.242 203.5 536.232 203.5 536.222C203.5 536.212 203.5 536.202 203.5 536.191C203.5 536.181 203.5 536.171 203.5 536.161C203.5 536.151 203.5 536.14 203.5 536.13C203.5 536.12 203.5 536.11 203.5 536.1C203.5 536.09 203.5 536.08 203.5 536.07C203.5 536.06 203.5 536.05 203.5 536.04C203.5 536.03 203.5 536.02 203.5 536.01C203.5 536 203.5 535.99 203.5 535.98C203.5 535.97 203.5 535.96 203.5 535.95C203.5 535.94 203.5 535.93 203.5 535.92C203.5 535.91 203.5 535.9 203.5 535.891C203.5 535.881 203.5 535.871 203.5 535.861C203.5 535.851 203.5 535.841 203.5 535.832C203.5 535.822 203.5 535.812 203.5 535.802C203.5 535.793 203.5 535.783 203.5 535.773C203.5 535.763 203.5 535.754 203.5 535.744C203.5 535.734 203.5 535.725 203.5 535.715C203.5 535.705 203.5 535.696 203.5 535.686C203.5 535.677 203.5 535.667 203.5 535.657C203.5 535.648 203.5 535.638 203.5 535.629C203.5 535.619 203.5 535.61 203.5 535.6C203.5 535.591 203.5 535.581 203.5 535.572C203.5 535.562 203.5 535.553 203.5 535.543C203.5 535.534 203.5 535.525 203.5 535.515C203.5 535.506 203.5 535.496 203.5 535.487C203.5 535.478 203.5 535.468 203.5 535.459C203.5 535.45 203.5 535.44 203.5 535.431C203.5 535.422 203.5 535.413 203.5 535.403C203.5 535.394 203.5 535.385 203.5 535.376C203.5 535.366 203.5 535.357 203.5 535.348C203.5 535.339 203.5 535.33 203.5 535.32C203.5 535.311 203.5 535.302 203.5 535.293C203.5 535.284 203.5 535.275 203.5 535.266C203.5 535.257 203.5 535.248 203.5 535.239C203.5 535.23 203.5 535.221 203.5 535.212C203.5 535.203 203.5 535.194 203.5 535.185C203.5 535.176 203.5 535.167 203.5 535.158C203.5 535.149 203.5 535.14 203.5 535.131C203.5 535.122 203.5 535.113 203.5 535.105C203.5 535.096 203.5 535.087 203.5 535.078C203.5 535.069 203.5 535.061 203.5 535.052C203.5 535.043 203.5 535.034 203.5 535.025C203.5 535.017 203.5 535.008 203.5 534.999C203.5 534.991 203.5 534.982 203.5 534.973C203.5 534.965 203.5 534.956 203.5 534.947C203.5 534.939 203.5 534.93 203.5 534.922C203.5 534.913 203.5 534.904 203.5 534.896C203.5 534.887 203.5 534.879 203.5 534.87C203.5 534.862 203.5 534.853 203.5 534.845C203.5 534.836 203.5 534.828 203.5 534.819C203.5 534.811 203.5 534.803 203.5 534.794C203.5 534.786 203.5 534.777 203.5 534.769C203.5 534.761 203.5 534.752 203.5 534.744C203.5 534.736 203.5 534.727 203.5 534.719C203.5 534.711 203.5 534.703 203.5 534.694C203.5 534.686 203.5 534.678 203.5 534.67C203.5 534.661 203.5 534.653 203.5 534.645C203.5 534.637 203.5 534.629 203.5 534.621C203.5 534.613 203.5 534.604 203.5 534.596C203.5 534.588 203.5 534.58 203.5 534.572C203.5 534.564 203.5 534.556 203.5 534.548C203.5 534.54 203.5 534.532 203.5 534.524C203.5 534.516 203.5 534.508 203.5 534.5C203.5 534.492 203.5 534.484 203.5 534.476C203.5 534.469 203.5 534.461 203.5 534.453C203.5 534.445 203.5 534.437 203.5 534.429C203.5 534.422 203.5 534.414 203.5 534.406C203.5 534.398 203.5 534.39 203.5 534.383C203.5 534.375 203.5 534.367 203.5 534.36C203.5 534.352 203.5 534.344 203.5 534.337C203.5 534.329 203.5 534.321 203.5 534.314C203.5 534.306 203.5 534.298 203.5 534.291C203.5 534.283 203.5 534.276 203.5 534.268C203.5 534.261 203.5 534.253 203.5 534.246C203.5 534.238 203.5 534.231 203.5 534.223C203.5 534.216 203.5 534.208 203.5 534.201C203.5 534.193 203.5 534.186 203.5 534.179C203.5 534.171 203.5 534.164 203.5 534.157C203.5 534.149 203.5 534.142 203.5 534.135C203.5 534.127 203.5 534.12 203.5 534.113C203.5 534.106 203.5 534.098 203.5 534.091C203.5 534.084 203.5 534.077 203.5 534.07C203.5 534.062 203.5 534.055 203.5 534.048C203.5 534.041 203.5 534.034 203.5 534.027C203.5 534.02 203.5 534.013 203.5 534.006C203.5 533.998 203.5 533.991 203.5 533.984C203.5 533.977 203.5 533.97 203.5 533.963C203.5 533.956 203.5 533.95 203.5 533.943C203.5 533.936 203.5 533.929 203.5 533.922C203.5 533.915 203.5 533.908 203.5 533.901C203.5 533.894 203.5 533.888 203.5 533.881C203.5 533.874 203.5 533.867 203.5 533.86C203.5 533.854 203.5 533.847 203.5 533.84C203.5 533.834 203.5 533.827 203.5 533.82C203.5 533.813 203.5 533.807 203.5 533.8C203.5 533.794 203.5 533.787 203.5 533.78C203.5 533.774 203.5 533.767 203.5 533.761C203.5 533.754 203.5 533.748 203.5 533.741C203.5 533.735 203.5 533.728 203.5 533.722C203.5 533.715 203.5 533.709 203.5 533.702C203.5 533.696 203.5 533.689 203.5 533.683C203.5 533.677 203.5 533.67 203.5 533.664C203.5 533.658 203.5 533.651 203.5 533.645C203.5 533.639 203.5 533.632 203.5 533.626C203.5 533.62 203.5 533.614 203.5 533.607C203.5 533.601 203.5 533.595 203.5 533.589C203.5 533.583 203.5 533.577 203.5 533.57C203.5 533.564 203.5 533.558 203.5 533.552C203.5 533.546 203.5 533.54 203.5 533.534C203.5 533.528 203.5 533.522 203.5 533.516C203.5 533.51 203.5 533.504 203.5 533.498C203.5 533.492 203.5 533.486 203.5 533.48C203.5 533.474 203.5 533.468 203.5 533.462C203.5 533.457 203.5 533.451 203.5 533.445C203.5 533.439 203.5 533.433 203.5 533.427C203.5 533.422 203.5 533.416 203.5 533.41C203.5 533.404 203.5 533.399 203.5 533.393C203.5 533.387 203.5 533.382 203.5 533.376C203.5 533.37 203.5 533.365 203.5 533.359C203.5 533.354 203.5 533.348 203.5 533.342C203.5 533.337 203.5 533.331 203.5 533.326C203.5 533.32 203.5 533.315 203.5 533.309C203.5 533.304 203.5 533.298 203.5 533.293C203.5 533.287 203.5 533.282 203.5 533.277C203.5 533.271 203.5 533.266 203.5 533.261C203.5 533.255 203.5 533.25 203.5 533.245C203.5 533.239 203.5 533.234 203.5 533.229C203.5 533.224 203.5 533.218 203.5 533.213C203.5 533.208 203.5 533.203 203.5 533.198C203.5 533.192 203.5 533.187 203.5 533.182C203.5 533.177 203.5 533.172 203.5 533.167C203.5 533.162 203.5 533.157 203.5 533.152C203.5 533.147 203.5 533.142 203.5 533.137C203.5 533.132 203.5 533.127 203.5 533.122C203.5 533.117 203.5 533.112 203.5 533.107C203.5 533.102 203.5 533.097 203.5 533.092C203.5 533.088 203.5 533.083 203.5 533.078C203.5 533.073 203.5 533.068 203.5 533.064C203.5 533.059 203.5 533.054 203.5 533.049C203.5 533.045 203.5 533.04 203.5 533.035C203.5 533.031 203.5 533.026 203.5 533.021C203.5 533.017 203.5 533.012 203.5 533.008C203.5 533.003 203.5 532.998 203.5 532.994C203.5 532.989 203.5 532.985 203.5 532.98C203.5 532.976 203.5 532.971 203.5 532.967C203.5 532.963 203.5 532.958 203.5 532.954C203.5 532.949 203.5 532.945 203.5 532.941C203.5 532.936 203.5 532.932 203.5 532.928C203.5 532.923 203.5 532.919 203.5 532.915C203.5 532.911 203.5 532.906 203.5 532.902C203.5 532.898 203.5 532.894 203.5 532.89C203.5 532.885 203.5 532.881 203.5 532.877C203.5 532.873 203.5 532.869 203.5 532.865C203.5 532.861 203.5 532.857 203.5 532.853C203.5 532.849 203.5 532.845 203.5 532.841C203.5 532.837 203.5 532.833 203.5 532.829C203.5 532.825 203.5 532.821 203.5 532.817C203.5 532.813 203.5 532.81 203.5 532.806C203.5 532.802 203.5 532.798 203.5 532.794C203.5 532.79 203.5 532.787 203.5 532.783C203.5 532.779 203.5 532.776 203.5 532.772C203.5 532.768 203.5 532.764 203.5 532.761C203.5 532.757 203.5 532.754 203.5 532.75C203.5 532.746 203.5 532.743 203.5 532.739C203.5 532.736 203.5 532.732 203.5 532.729C203.5 532.725 203.5 532.722 203.5 532.718C203.5 532.715 203.5 532.711 203.5 532.708C203.5 532.705 203.5 532.701 203.5 532.698C203.5 532.695 203.5 532.691 203.5 532.688C203.5 532.685 203.5 532.681 203.5 532.678C203.5 532.675 203.5 532.672 203.5 532.668C203.5 532.665 203.5 532.662 203.5 532.659C203.5 532.656 203.5 532.652 203.5 532.649C203.5 532.646 203.5 532.643 203.5 532.64C203.5 532.637 203.5 532.634 203.5 532.631C203.5 532.628 203.5 532.625 203.5 532.622C203.5 532.619 203.5 532.616 203.5 532.613C203.5 532.61 203.5 532.607 203.5 532.604C203.5 532.602 203.5 532.599 203.5 532.596C203.5 532.593 203.5 532.59 203.5 532.588C203.5 532.585 203.5 532.582 203.5 532.579C203.5 532.577 203.5 532.574 203.5 532.571C203.5 532.569 203.5 532.566 203.5 532.563C203.5 532.561 203.5 532.558 203.5 532.555C203.5 532.553 203.5 532.55 203.5 532.548C203.5 532.545 203.5 532.543 203.5 532.54C203.5 532.538 203.5 532.535 203.5 532.533C203.5 532.531 203.5 532.528 203.5 532.526C203.5 532.523 203.5 532.521 203.5 532.519C203.5 532.516 203.5 532.514 203.5 532.512C203.5 532.509 203.5 532.507 203.5 532.505C203.5 532.503 203.5 532.501 203.5 532.498C203.5 532.496 203.5 532.494 203.5 532.492C203.5 532.49 203.5 532.488 203.5 532.486C203.5 532.484 203.5 532.481 203.5 532.479C203.5 532.477 203.5 532.475 203.5 532.473C203.5 532.471 203.5 532.47 203.5 532.468C203.5 532.466 203.5 532.464 203.5 532.462C203.5 532.46 203.5 532.458 203.5 532.456C203.5 532.455 203.5 532.453 203.5 532.451C203.5 532.449 203.5 532.447 203.5 532.446C203.5 532.444 203.5 532.442 203.5 532.441C203.5 532.439 203.5 532.437 203.5 532.436C203.5 532.434 203.5 532.432 203.5 532.431C203.5 532.429 203.5 532.428 203.5 532.426C203.5 532.425 203.5 532.423 203.5 532.422C203.5 532.42 203.5 532.419 203.5 532.417C203.5 532.416 203.5 532.415 203.5 532.413C203.5 532.412 203.5 532.411 203.5 532.409C203.5 532.408 203.5 532.407 203.5 532.405C203.5 532.404 203.5 532.403 203.5 532.402C203.5 532.4 203.5 532.399 203.5 532.398C203.5 532.397 203.5 532.396 203.5 532.395C203.5 532.394 203.5 532.393 203.5 532.391C203.5 532.39 203.5 532.389 203.5 532.388C203.5 532.387 203.5 532.386 203.5 532.385C203.5 532.384 203.5 532.384 203.5 532.383C203.5 532.382 203.5 532.381 203.5 532.38C203.5 532.379 203.5 532.378 203.5 532.378C203.5 532.377 203.5 532.376 203.5 532.375C203.5 532.375 203.5 532.374 203.5 532.373C203.5 532.372 203.5 532.372 203.5 532.371C203.5 532.37 203.5 532.37 203.5 532.369C203.5 532.369 203.5 532.368 203.5 532.368C203.5 532.367 203.5 532.367 203.5 532.366C203.5 532.366 203.5 532.365 203.5 532.365C203.5 532.364 203.5 532.364 203.5 532.364C203.5 532.363 203.5 532.363 203.5 532.363C203.5 532.362 203.5 532.362 203.5 532.362C203.5 532.361 203.5 532.361 203.5 532.361C203.5 532.361 203.5 532.361 203.5 532.36C203.5 532.36 203.5 532.36 203.5 532.36C203.5 532.36 203.5 532.36 203.5 532.36C203.5 532.36 203.5 532.36 204 532.36ZM204.5 547.765C204.5 554.023 207.811 558.567 212.848 561.543C217.903 564.529 224.68 565.919 231.492 565.807C238.303 565.696 245.089 564.084 250.154 561.131C255.216 558.18 258.5 553.933 258.5 548.536H259.5C259.5 554.407 255.909 558.933 250.658 561.995C245.411 565.054 238.447 566.693 231.508 566.807C224.57 566.921 217.597 565.51 212.339 562.404C207.064 559.287 203.5 554.448 203.5 547.765H204.5Z" fill="#1F2533"/>
<path d="M204 531.623C204 541.927 216.626 548 232.872 548C249.118 548 259.875 539.526 258.944 528.567C258.013 517.608 241.519 510.658 229.291 512.218C216.959 513.882 204 521.319 204 531.623Z" fill="#EEEFF1" stroke="#1F2533" stroke-miterlimit="10"/>
<path d="M224.009 529.954C224.237 532.646 228.8 534.341 233.363 533.942C237.926 533.543 241.691 530.253 240.893 527.76C239.98 524.968 234.759 523.672 230.88 524.071C227.116 524.569 223.78 527.062 224.009 529.954Z" fill="#EEEFF1" stroke="#1F2533" stroke-miterlimit="10"/>
<path d="M204.49 558.778C198.431 560.526 193.809 559.909 191.858 557.75C190.318 556.104 187.339 558.058 189.291 560.115C191.345 562.377 196.48 564.845 205.62 561.554C213.014 558.881 216.711 554.87 213.836 553.636C211.371 552.711 209.83 557.235 204.49 558.778Z" fill="#EEEFF1" stroke="#1F2533" stroke-miterlimit="10"/>
<path d="M198 545C192.968 541.195 191.55 537.491 192.064 534.612C192.474 532.453 189.085 531.219 188.572 533.995C188.058 536.977 189.188 542.633 197.301 547.878C203.874 552.197 209.317 552.711 208.598 549.626C208.085 547.158 202.519 548.393 198 545Z" fill="#EEEFF1" stroke="#1F2533" stroke-miterlimit="10"/>
<path d="M307.086 496.255C309.037 498.004 306.469 500.472 303.08 500.472C298.87 500.472 298.254 499.032 299.999 496.872C302.875 493.273 307.086 496.255 307.086 496.255Z" fill="#EEEFF1" stroke="#1F2533" stroke-width="2" stroke-miterlimit="10" stroke-linejoin="round"/>
<path d="M299.178 528.031C297.535 524.226 302.464 526.077 304.518 524.74C306.469 523.506 308.113 524.123 308.113 525.974C308.01 531.219 300.513 531.219 299.178 528.031Z" fill="#EEEFF1" stroke="#1F2533" stroke-width="2" stroke-miterlimit="10" stroke-linejoin="round"/>
<path d="M327.317 493.376C325.571 492.656 327.214 490.188 329.885 489.674C333.993 488.954 335.02 495.021 332.144 493.685C329.063 492.348 327.317 493.376 327.317 493.376Z" fill="#EEEFF1" stroke="#1F2533" stroke-width="2" stroke-miterlimit="10" stroke-linejoin="round"/>
<path d="M355.867 483.607C354.635 481.859 357.305 481.653 359.462 481.242C362.645 480.625 366.034 479.494 364.699 482.784C363.98 484.635 357.1 485.252 355.867 483.607Z" fill="#EEEFF1" stroke="#1F2533" stroke-width="2" stroke-miterlimit="10" stroke-linejoin="round"/>
<path d="M318.999 415.532C314.891 413.578 314.583 408.436 319.409 406.482C324.236 404.529 330.604 412.447 324.75 413.989C318.896 415.532 318.999 415.532 318.999 415.532Z" fill="#F0F0F0" stroke="#283046" stroke-miterlimit="10" stroke-linejoin="round"/>
<path d="M339.127 453.477C340.463 447.821 331.733 442.885 330.193 445.559C328.652 448.233 328.96 433.219 318.896 435.79C311.912 437.538 310.885 444.222 310.885 444.222" fill="#F0F0F0"/>
<path d="M339.127 453.477C340.463 447.821 331.733 442.885 330.193 445.559C328.652 448.233 328.96 433.219 318.896 435.79C311.912 437.538 310.885 444.222 310.885 444.222" stroke="#283046" stroke-miterlimit="10" stroke-linejoin="round"/>
<path d="M333.582 464.069C330.912 459.853 325.571 464.069 325.571 464.069C325.571 464.069 324.236 459.441 318.896 459.03C313.556 458.619 312.837 461.601 312.837 461.601" fill="#F0F0F0"/>
<path d="M333.582 464.069C330.912 459.853 325.571 464.069 325.571 464.069C325.571 464.069 324.236 459.441 318.896 459.03C313.556 458.619 312.837 461.601 312.837 461.601" stroke="#283046" stroke-miterlimit="10" stroke-linejoin="round"/>
<path d="M169.675 441.548C173.167 441.137 178.713 446.073 177.378 440.109C176.145 434.967 170.6 439.697 171.216 432.088C171.524 427.46 174.913 425.712 178.918 425.198C178.816 419.542 183.334 418.308 184.567 418.103C182.718 415.018 184.361 413.167 185.696 411.418C187.648 408.745 194.118 406.071 195.453 409.876C196.788 413.681 201.512 414.503 205.004 411.418C211.474 405.66 214.965 409.876 214.965 414.195C214.965 416.149 215.684 417.177 217.019 417.691C217.533 417.28 218.046 417.074 218.457 417.074C221.949 416.663 227.494 421.599 226.159 415.635C224.927 410.493 222.36 406.071 227.084 401.855C234.375 395.274 239.099 401.341 237.559 397.844C234.375 390.749 235.3 386.841 237.251 384.065C239.202 381.391 245.672 381.597 247.007 385.402C248.342 389.207 250.191 390.029 253.683 386.944C260.153 381.186 263.644 385.402 263.644 389.721C263.644 394.04 267.239 393.628 272.99 394.04C278.741 394.451 284.184 396.816 285.108 400.929C285.211 401.238 285.211 402.575 285.314 404.426C286.341 405.146 287.368 406.38 288.189 408.025C288.805 407.614 289.524 407.202 290.449 406.997C297.124 395.376 301.335 408.025 303.697 405.351C307.291 401.238 313.248 405.557 313.042 409.156C314.069 409.567 315.199 410.287 316.431 411.418C319.923 414.503 324.647 413.681 325.982 409.876C327.317 406.071 333.787 408.745 335.738 411.418C337.074 413.167 338.717 415.018 336.868 418.103C338.101 418.308 342.619 419.645 342.517 425.198C346.522 425.712 349.911 427.46 350.219 432.088C350.732 439.697 345.187 434.967 344.057 440.109C342.722 446.073 348.268 441.137 351.759 441.548C353.916 441.754 359.564 447.616 357.51 453.477C356.997 454.917 356.381 455.945 355.662 456.665C359.462 460.058 357.305 464.994 350.835 464.891C351.759 467.462 357.408 473.015 353.608 475.483C348.165 479.082 349.705 473.941 345.7 474.455C341.798 474.866 347.96 477.643 343.235 478.26C337.895 478.98 339.538 483.504 331.836 483.504C323.209 483.504 323.415 471.37 324.134 478.98C324.544 483.813 316.226 486.075 312.734 483.71C313.556 484.841 313.658 487.206 305.545 488.337C300.616 489.057 292.194 484.327 293.119 485.561C294.865 487.823 293.119 495.33 285.108 493.993C277.098 492.554 278.433 491.32 272.168 494.302C268.677 495.947 264.055 494.816 259.126 492.554C254.093 493.788 249.472 494.302 246.391 493.993C243.824 493.685 244.132 492.554 236.121 493.993C228.111 495.433 226.365 487.823 228.111 485.561C229.035 484.327 220.614 489.057 215.684 488.337C207.571 487.206 207.674 484.841 208.495 483.71C205.004 486.075 196.685 483.916 197.096 478.98C197.712 471.267 198.02 483.504 189.393 483.504C181.794 483.504 183.334 478.98 177.994 478.26C173.27 477.643 179.432 474.866 175.529 474.455C171.524 474.044 173.064 479.082 167.621 475.483C163.924 473.015 169.47 467.462 170.394 464.891C173.475 456.665 166.389 461.292 163.719 453.477C161.973 447.616 167.519 441.857 169.675 441.548ZM306.469 414.915C306.469 414.709 306.469 414.503 306.469 414.195C306.469 413.989 306.469 413.784 306.469 413.578C306.161 413.681 305.853 413.784 305.545 413.886C305.956 414.195 306.264 414.503 306.469 414.915Z" fill="#EEEFF1" stroke="#1F2533" stroke-width="2" stroke-miterlimit="10" stroke-linejoin="round"/>
<path d="M288 479C287.538 473.804 282.346 476.402 282 479" stroke="#1F2533" stroke-miterlimit="10" stroke-linejoin="round"/>
<path d="M358.332 513.326C358.024 510.652 353.094 510.961 352.581 513.326C352.067 515.691 352.581 515.691 355.456 515.691C358.332 515.691 358.332 513.326 358.332 513.326Z" fill="#EEEFF1" stroke="#1F2533" stroke-width="2" stroke-miterlimit="10" stroke-linejoin="round"/>
<path d="M240.126 455.842C240.126 455.842 237.456 450.803 233.656 451.215C229.857 451.626 228.83 455.637 228.83 455.637C228.83 455.637 229.754 446.587 223.284 445.867C216.814 445.148 215.273 448.438 215.273 448.438C215.273 448.438 210.652 446.484 209.728 448.438C208.803 450.392 208.598 455.534 206.441 453.374C204.285 451.318 200.485 456.768 200.485 456.768" stroke="#1F2533" stroke-miterlimit="10" stroke-linejoin="round"/>
<path d="M534.665 536.772C531.584 521.655 516.898 508.904 516.077 505.408C515.255 501.911 525.114 493.788 523.265 489.057C521.417 484.327 509.428 479.933 502.65 479.419C492.996 478.597 419.005 492.451 379.877 505.613C359.44 512.503 356.213 520 359.181 524.871C362.148 529.743 380.515 540.268 381.336 540.371C379.796 552.916 380.618 564.125 380.618 564.125C380.618 564.125 411.941 590.759 415.227 593.021C417.692 594.769 431.864 597.135 439.874 596.723C449.015 596.312 473.662 578.008 473.662 578.008C473.662 578.008 481.056 582.121 491.224 579.961C501.391 577.802 504.472 568.958 504.472 568.958L518.233 569.164C518.747 569.164 520.287 568.958 520.801 568.753C523.265 567.724 528.298 563.92 531.379 561.246C534.87 558.469 537.746 551.888 534.665 536.772Z" fill="#1F2533"/>
<path d="M361.516 523.712C357.819 519.701 365.829 513.017 386.266 506.127C420.054 494.816 487.683 483.093 496.412 481.859C504.526 480.728 519.033 484.121 520.882 488.852C522.73 493.582 512.974 501.574 513.795 505.071C514.617 508.567 528.325 519.187 532.227 534.098C535.514 546.644 534.562 555.796 530.865 558.881C527.99 561.246 522.649 565.256 520.493 566.388C519.876 566.696 519.26 566.799 518.541 566.799L504.012 565.565C504.012 565.565 501.904 574.342 492.202 577.671C482.5 581 474.511 572.146 474.511 572.146C468.041 575.745 447.166 592.096 438.437 592.301C434.021 592.404 422.005 590.759 419.335 589.833C416.048 588.702 415.416 584.954 416.237 567.781C417.059 550.505 427.551 536.669 413.789 535.024C400.028 533.481 389.86 540.268 380.618 536.977C373.429 534.304 366.137 528.751 361.516 523.712Z" fill="#EEEFF1"/>
<path d="M505.704 552.402C508.169 567.005 502.726 576.362 491.737 578.933C477.667 582.224 469.143 576.157 465.96 564.537C462.776 552.916 467.5 538.417 481.262 535.846C492.456 533.789 503.65 540.474 505.704 552.402Z" fill="#1F2533"/>
<path d="M504.369 553.739C506.115 565.668 500.98 574.1 491.429 576.774C481.878 579.447 473.97 573.072 470.992 562.377C468.014 551.682 473.457 539.651 483.008 536.977C492.559 534.304 502.726 542.736 504.369 553.739Z" fill="#EEEFF1"/>
<path d="M418.102 590.245L464.933 563.303C464.933 563.303 462.879 555.796 465.652 548.597C467.706 543.147 472.224 539.137 472.224 539.137L467 523.5L471.5 522L477.359 538.931C477.359 538.931 470.581 544.484 469.554 552.299C468.527 560.115 468.733 565.771 468.733 565.771L424.675 591.273L418.102 590.245Z" fill="#1F2533"/>
<path d="M529.941 562.377L531.481 561.143L505.807 557.955C505.807 557.955 505.807 549.009 501.185 543.353C496.564 537.594 489.478 535.846 489.478 535.846L483.316 516.925L481.365 517.748L486.705 535.846C486.705 535.846 496.643 537 501.5 545.5C506.357 554 505 559 505 559L529.941 562.377Z" fill="#1F2533"/>
<path d="M489.375 544.895C490.607 545.101 491.737 545.512 492.867 546.232C495.64 548.083 497.694 551.271 498.207 554.665C498.412 555.796 498.412 556.927 498.412 558.058L501.801 559.086C501.904 557.544 501.904 555.899 501.596 554.15C500.98 549.729 498.412 545.718 494.818 543.353C492.867 542.119 490.71 541.399 488.656 541.399L489.375 544.895Z" fill="#1F2533"/>
<path d="M498.002 561.452C497.077 565.154 494.715 567.724 491.532 568.444C488.04 569.164 484.959 567.724 482.7 564.639L479.927 566.593C482.186 569.678 485.267 571.632 488.656 571.941C489.786 572.043 491.018 571.941 492.251 571.735C496.769 570.809 500.056 567.313 501.288 562.48L498.002 561.452Z" fill="#1F2533"/>
<path d="M477.976 563.303C478.9 562.686 479.927 561.966 480.851 561.349C480.646 560.732 480.44 560.115 480.235 559.498C478.592 553.431 481.262 546.952 486.089 545.204C485.883 544.176 485.575 543.044 485.37 541.913C478.694 544.073 474.792 552.505 476.949 560.423C477.257 561.452 477.565 562.377 477.976 563.303Z" fill="#1F2533"/>
<path d="M481.365 517.748L483.316 516.925L473.251 509.829C473.251 509.829 492.969 503.659 481.056 498.209C469.143 492.759 465.241 492.039 444.496 497.181C423.751 502.323 415.74 508.287 429.502 515.485C443.264 522.684 455.382 516.514 455.382 516.514L467 523.5L471.5 522L460 514.5L470.581 511.138L481.365 517.748Z" fill="#1F2533"/>
<path d="M428.475 644.335C428.475 644.335 391.709 692.152 325.263 681.355C266.623 671.791 273.298 638.165 273.298 638.165C273.298 638.165 272.066 561.349 347.651 555.693C423.237 550.14 428.475 644.335 428.475 644.335Z" fill="#1F2533"/>
<path d="M423.648 642.073C423.648 642.073 389.552 686.188 325.571 675.802C269.087 666.65 276.071 637.548 276.071 637.548C276.071 637.548 274.941 563.508 347.754 558.058C420.464 552.608 423.648 642.073 423.648 642.073Z" fill="#EEEFF1"/>
<path d="M404 580.921C396.334 572.826 375.097 571.597 370.332 601.926C365.36 633.485 354.897 670.474 310.973 658.793C267.049 647.112 286.318 595.11 292.948 584.249" stroke="#1F2533" stroke-miterlimit="10"/>
<path d="M298.326 622.993C296.566 611.771 302.951 601.446 312.589 599.93C322.226 598.414 331.466 606.281 333.227 617.502C334.988 628.724 328.602 639.049 318.964 640.565C309.327 642.081 300.087 634.214 298.326 622.993Z" fill="#1F2533"/>
</svg>
