<svg width="103" height="40" viewBox="0 0 103 40" fill="none" xmlns="http://www.w3.org/2000/svg">
<path d="M46.5397 28.5701L40.0563 11.428H45.7786L49.5935 23.2713L53.4084 11.428H59.1307L52.6473 28.5701H46.5397Z" fill="#293D66"/>
<path fill-rule="evenodd" clip-rule="evenodd" d="M68.666 2.85701C68.666 4.43489 67.385 5.71402 65.8048 5.71402C64.2247 5.71402 62.9437 4.43489 62.9437 2.85701C62.9437 1.27913 64.2247 0 65.8048 0C67.385 0 68.666 1.27913 68.666 2.85701ZM62.9437 11.428V28.5701H68.666V11.428H62.9437Z" fill="#293D66"/>
<path fill-rule="evenodd" clip-rule="evenodd" d="M77.2495 5.71402C78.8289 5.71402 80.1107 4.43408 80.1107 2.85701C80.1107 1.27994 78.8289 0 77.2495 0C75.6702 0 74.3884 1.27994 74.3884 2.85701C74.3884 4.43408 75.6702 5.71402 77.2495 5.71402ZM68.9693 40H69.3222C71.4871 40 74.8309 39.8781 77.322 37.3982C79.1722 35.5583 80.1107 32.8099 80.1107 29.2291V11.428H74.3884V29.2253C74.3884 30.6062 74.1976 32.4423 73.282 33.3527C72.3321 34.2974 70.4781 34.2917 68.9884 34.286H68.666V40H68.9693Z" fill="#293D66"/>
<path d="M103 28.5714H97.2777V18.4762C97.2777 16.9524 96.7056 14.8571 94.4165 14.8571C92.1275 14.8571 91.5553 16.9524 91.5553 18.4762V28.5714H85.833V11.4249H90.1839L90.9526 12.7583C90.9526 12.7583 92.8104 10.4762 95.8528 10.4762C102.496 10.4762 103 16.7511 103 18.0884V28.5714Z" fill="#293D66"/>
<path d="M19.0976 5.35708V0.59752C27.3942 1.55389 33.834 8.58759 33.834 17.1229C33.834 19.4666 33.3471 21.6958 32.4712 23.7181L28.342 21.3385C28.8377 20.0271 29.1097 18.6055 29.1097 17.1229C29.1097 11.1926 24.7735 6.27905 19.0976 5.35708Z" stroke="#293D66"/>
<path d="M6.61501 21.5628C6.03897 20.1991 5.72233 18.702 5.72233 17.1287C5.72233 11.3004 10.0923 6.49684 15.7364 5.79211V0.0457153C6.92402 0.771395 0 8.14248 0 17.1287C0 19.7419 0.587493 22.218 1.63468 24.435L6.61501 21.5628Z" fill="#293D66"/>
<path d="M26.2827 24.035C24.1921 26.7816 20.8865 28.5567 17.1651 28.5567C13.4436 28.5567 10.1381 26.7816 8.04749 24.035L3.06525 26.9073C6.16675 31.3566 11.3245 34.2707 17.1651 34.2707C23.0057 34.2707 28.1653 31.3566 31.2649 26.9073L26.2827 24.035Z" fill="#293D66"/>
</svg>
