<svg width="103" height="40" viewBox="0 0 103 40" fill="none" xmlns="http://www.w3.org/2000/svg">
    <path d="M46.5397 28.5701L40.0563 11.428H45.7786L49.5935 23.2713L53.4084 11.428H59.1307L52.6473 28.5701H46.5397Z" fill="#293D66"/>
    <path fill-rule="evenodd" clip-rule="evenodd" d="M68.666 2.85701C68.666 4.43489 67.385 5.71402 65.8048 5.71402C64.2247 5.71402 62.9437 4.43489 62.9437 2.85701C62.9437 1.27913 64.2247 0 65.8048 0C67.385 0 68.666 1.27913 68.666 2.85701ZM62.9437 11.428V28.5701H68.666V11.428H62.9437Z" fill="#293D66"/>
    <path fill-rule="evenodd" clip-rule="evenodd" d="M77.2495 5.71402C78.8289 5.71402 80.1107 4.43408 80.1107 2.85701C80.1107 1.27994 78.8289 0 77.2495 0C75.6702 0 74.3884 1.27994 74.3884 2.85701C74.3884 4.43408 75.6702 5.71402 77.2495 5.71402ZM68.9693 40H69.3222C71.4871 40 74.8309 39.8781 77.322 37.3982C79.1722 35.5583 80.1107 32.8099 80.1107 29.2291V11.428H74.3884V29.2253C74.3884 30.6062 74.1976 32.4423 73.282 33.3527C72.3321 34.2974 70.4781 34.2917 68.9884 34.286H68.666V40H68.9693Z" fill="#293D66"/>
    <path d="M103 28.5714H97.2777V18.4762C97.2777 16.9524 96.7056 14.8571 94.4165 14.8571C92.1275 14.8571 91.5553 16.9524 91.5553 18.4762V28.5714H85.833V11.4249H90.1839L90.9526 12.7583C90.9526 12.7583 92.8104 10.4762 95.8528 10.4762C102.496 10.4762 103 16.7511 103 18.0884V28.5714Z" fill="#293D66"/>
    <path d="M18.4148 5.75237C24.004 6.45033 28.3314 11.2226 28.3314 17.0106C28.3314 18.5711 28.016 20.0597 27.4474 21.414L32.3812 24.2664C33.4182 22.0647 34 19.6057 34 17.0106C34 8.08648 27.1433 0.768268 18.4167 0.0457153V5.75237H18.4148Z" fill="#FF3333"/>
    <path d="M6.55067 21.4213C5.98023 20.0665 5.66667 18.5793 5.66667 17.0164C5.66667 11.2264 9.99412 6.45443 15.5833 5.75433V0.0457153C6.85667 0.766624 0 8.08924 0 17.0164C0 19.6124 0.581778 22.0722 1.61878 24.2747L6.55067 21.4213Z" fill="#293D66"/>
    <path d="M26.027 23.8773C23.9568 26.6058 20.6833 28.3693 16.9981 28.3693C13.3129 28.3693 10.0394 26.6058 7.96921 23.8773L3.03543 26.7307C6.10677 31.1507 11.2143 34.0457 16.9981 34.0457C22.7819 34.0457 27.8913 31.1507 30.9608 26.7307L26.027 23.8773Z" fill="#293D66"/>
</svg>