<svg width="680" height="600" viewBox="0 0 680 600" fill="none" xmlns="http://www.w3.org/2000/svg">
    <path d="M431.212 40V119.474L323.583 152.721V65.5043L431.212 40Z" fill="#EEEFF1" stroke="#1F2533" stroke-miterlimit="10"/>
    <path d="M394 65V86.8623L362 97V74.5619L394 65Z" fill="#EEEFF1" stroke="#1F2533" stroke-miterlimit="10"/>
    <path d="M391 68V85.777L364 94V75.9611L391 68Z" fill="#EEEFF1" stroke="#1F2533" stroke-miterlimit="10"/>
    <path d="M390.265 105.618L397.274 109.643V117.892L390.265 114.115V105.618Z" fill="#1F2533" stroke="#1F2533" stroke-miterlimit="10" stroke-linecap="round" stroke-linejoin="round"/>
    <path d="M392.342 105.04L399.35 109.066L367.009 119.62L360 115.593L363.507 114.449L368.525 117.143L395.323 108.5L390.265 105.618L392.342 105.04Z" fill="#EEEFF1" stroke="#1F2533" stroke-miterlimit="10" stroke-linecap="round" stroke-linejoin="round"/>
    <path d="M360 115.594L367.009 119.62V127.867L360 124.091V115.594Z" fill="#EEEFF1" stroke="#1F2533" stroke-miterlimit="10" stroke-linecap="round" stroke-linejoin="round"/>
    <path d="M367.009 119.62L399.35 109.066V117.314L367.009 127.867V119.62Z" fill="#EEEFF1" stroke="#1F2533" stroke-miterlimit="10" stroke-linecap="round" stroke-linejoin="round"/>
    <path d="M320.176 66.0176V153.241L202.051 189.73V94.0092L320.176 66.0176Z" fill="#EEEFF1" stroke="#1F2533" stroke-miterlimit="10"/>
    <path d="M277.266 96.5505V118.478L246.318 128.645V106.141L277.266 96.5505Z" fill="#EEEFF1" stroke="#1F2533" stroke-miterlimit="10"/>
    <path d="M274.163 99.5908V117.332L248.293 125.538V107.536L274.163 99.5908Z" fill="#EEEFF1" stroke="#1F2533" stroke-miterlimit="10"/>
    <path d="M275.703 137.618L282.875 141.643V149.892L275.703 146.115V137.618Z" fill="#1F2533" stroke="#1F2533" stroke-miterlimit="10" stroke-linecap="round" stroke-linejoin="round"/>
    <path d="M277.828 137.04L285 141.066L251.904 151.62L244.732 147.593L248.321 146.449L253.455 149.143L280.878 140.5L275.703 137.618L277.828 137.04Z" fill="#EEEFF1" stroke="#1F2533" stroke-miterlimit="10" stroke-linecap="round" stroke-linejoin="round"/>
    <path d="M244.731 147.594L251.904 151.62V159.867L244.731 156.091V147.594Z" fill="#EEEFF1" stroke="#1F2533" stroke-miterlimit="10" stroke-linecap="round" stroke-linejoin="round"/>
    <path d="M251.904 151.62L285 141.066V149.314L251.904 159.867V151.62Z" fill="#EEEFF1" stroke="#1F2533" stroke-miterlimit="10" stroke-linecap="round" stroke-linejoin="round"/>
    <path d="M196.734 95.8511V189.432L70.0001 228.58V125.883L196.734 95.8511Z" fill="#EEEFF1" stroke="#1F2533" stroke-miterlimit="10"/>
    <path d="M154.877 128V149.927L121.83 160.095V137.59L154.877 128Z" fill="#EEEFF1" stroke="#1F2533" stroke-miterlimit="10"/>
    <path d="M151.563 131.04V148.781L123.939 156.988V138.985L151.563 131.04Z" fill="#EEEFF1" stroke="#1F2533" stroke-miterlimit="10"/>
    <path d="M151.072 169.067L158.731 173.093V181.341L151.072 177.564V169.067Z" fill="#1F2533" stroke="#1F2533" stroke-miterlimit="10" stroke-linecap="round" stroke-linejoin="round"/>
    <path d="M153.341 168.49L161 172.515L125.659 183.069L118 179.043L121.833 177.898L127.316 180.592L156.599 171.949L151.072 169.067L153.341 168.49Z" fill="#EEEFF1" stroke="#1F2533" stroke-miterlimit="10" stroke-linecap="round" stroke-linejoin="round"/>
    <path d="M118 179.043L125.659 183.07V191.317L118 187.54V179.043Z" fill="#EEEFF1" stroke="#1F2533" stroke-miterlimit="10" stroke-linecap="round" stroke-linejoin="round"/>
    <path d="M125.659 183.069L161 172.515V180.764L125.659 191.317V183.069Z" fill="#EEEFF1" stroke="#1F2533" stroke-miterlimit="10" stroke-linecap="round" stroke-linejoin="round"/>
    <path d="M431.212 122.533V202.007L323.583 242.846V155.629L431.212 122.533Z" fill="#EEEFF1" stroke="#1F2533" stroke-miterlimit="10"/>
    <path d="M394.994 146.551V168.478L366.082 178.645V156.141L394.994 146.551Z" fill="#EEEFF1" stroke="#1F2533" stroke-miterlimit="10"/>
    <path d="M392.094 149.591V167.332L367.927 175.538V157.536L392.094 149.591Z" fill="#EEEFF1" stroke="#1F2533" stroke-miterlimit="10"/>
    <path d="M391.665 187.618L398.365 191.643V199.892L391.665 196.115V187.618Z" fill="#1F2533" stroke="#1F2533" stroke-miterlimit="10" stroke-linecap="round" stroke-linejoin="round"/>
    <path d="M393.65 187.04L400.35 191.066L369.432 201.62L362.732 197.593L366.084 196.449L370.881 199.143L396.5 190.5L391.665 187.618L393.65 187.04Z" fill="#EEEFF1" stroke="#1F2533" stroke-miterlimit="10" stroke-linecap="round" stroke-linejoin="round"/>
    <path d="M362.731 197.594L369.432 201.62V209.867L362.731 206.091V197.594Z" fill="#EEEFF1" stroke="#1F2533" stroke-miterlimit="10" stroke-linecap="round" stroke-linejoin="round"/>
    <path d="M369.432 201.62L400.35 191.066V199.314L369.432 209.867V201.62Z" fill="#EEEFF1" stroke="#1F2533" stroke-miterlimit="10" stroke-linecap="round" stroke-linejoin="round"/>
    <path d="M279.084 189.114V211.042L250.172 221.209V198.704L279.084 189.114Z" fill="#F0F0F0" stroke="#283046" stroke-miterlimit="10"/>
    <path d="M277.184 192.154V209.895L253.017 218.101V200.099L277.184 192.154Z" fill="#F0F0F0" stroke="#283046" stroke-miterlimit="10"/>
    <path d="M275.756 230.182L282.456 234.209V242.456L275.756 238.679V230.182Z" fill="#283046" stroke="#283046" stroke-miterlimit="10" stroke-linecap="round" stroke-linejoin="round"/>
    <path d="M277.741 229.604L284.441 233.63L253.522 244.183L246.822 240.157L250.175 239.012L254.972 241.706L281.091 233.367L275.756 230.181L277.741 229.604Z" fill="#F0F0F0" stroke="#283046" stroke-miterlimit="10" stroke-linecap="round" stroke-linejoin="round"/>
    <path d="M246.822 240.156L253.523 244.183V252.43L246.822 248.655V240.156Z" fill="#F0F0F0" stroke="#283046" stroke-miterlimit="10" stroke-linecap="round" stroke-linejoin="round"/>
    <path d="M253.523 244.183L284.441 233.63V241.877L253.523 252.43V244.183Z" fill="#F0F0F0" stroke="#283046" stroke-miterlimit="10" stroke-linecap="round" stroke-linejoin="round"/>
    <path d="M320.176 156.383V243.606L222.955 186.16L320.176 156.383Z" fill="#1F2533"/>
    <path d="M196.734 194.922V288.503L70.0001 336.589V233.893L196.734 194.922Z" fill="#EEEFF1" stroke="#1F2533" stroke-miterlimit="10"/>
    <path d="M152.647 230.04V253.565L121.629 264.474V240.328L152.647 230.04Z" fill="#EEEFF1" stroke="#1F2533" stroke-miterlimit="10"/>
    <path d="M150.609 233.301V252.335L124.681 261.14V241.825L150.609 233.301Z" fill="#EEEFF1" stroke="#1F2533" stroke-miterlimit="10"/>
    <path d="M149.076 274.099L156.265 278.419V287.268L149.076 283.216V274.099Z" fill="#283046" stroke="#283046" stroke-miterlimit="10" stroke-linecap="round" stroke-linejoin="round"/>
    <path d="M151.206 273.48L158.394 277.799L125.222 289.122L118.034 284.802L121.631 283.575L126.778 286.464L154.8 277.517L149.076 274.099L151.206 273.48Z" fill="#EEEFF1" stroke="#1F2533" stroke-miterlimit="10" stroke-linecap="round" stroke-linejoin="round"/>
    <path d="M118.035 284.802L125.223 289.122V297.971L118.035 293.919V284.802Z" fill="#EEEFF1" stroke="#1F2533" stroke-miterlimit="10" stroke-linecap="round" stroke-linejoin="round"/>
    <path d="M125.223 289.122L158.394 277.8V286.649L125.223 297.971V289.122Z" fill="#EEEFF1" stroke="#1F2533" stroke-miterlimit="10" stroke-linecap="round" stroke-linejoin="round"/>
    <path d="M431.212 205.603V285.076L323.583 333.494V246.278L431.212 205.603Z" fill="#EEEFF1" stroke="#1F2533" stroke-miterlimit="10"/>
    <path d="M393.772 238.063V258.042L367.429 269.161V248.656L393.772 238.063Z" fill="#EEEFF1" stroke="#1F2533" stroke-miterlimit="10"/>
    <path d="M392.04 240.955V257.119L370.022 266.148V249.744L392.04 240.955Z" fill="#EEEFF1" stroke="#1F2533" stroke-miterlimit="10"/>
    <path d="M390.739 275.695L396.844 278.933V286.448L390.739 283.437V275.695Z" fill="#283046" stroke="#283046" stroke-miterlimit="10" stroke-linecap="round" stroke-linejoin="round"/>
    <path d="M392.548 275.041L398.652 278.28L370.482 289.879L364.376 286.641L367.431 285.383L371.801 287.53L395.599 278.255L390.738 275.695L392.548 275.041Z" fill="#EEEFF1" stroke="#283046" stroke-miterlimit="10" stroke-linecap="round" stroke-linejoin="round"/>
    <path d="M364.377 286.641L370.482 289.879V297.394L364.377 294.383V286.641Z" fill="#EEEFF1" stroke="#283046" stroke-miterlimit="10" stroke-linecap="round" stroke-linejoin="round"/>
    <path d="M370.482 289.879L398.652 278.28V285.794L370.482 297.394V289.879Z" fill="#EEEFF1" stroke="#283046" stroke-miterlimit="10" stroke-linecap="round" stroke-linejoin="round"/>
    <path d="M320.176 247.271V334.494L202.051 387.634V291.913L320.176 247.271Z" fill="#EEEFF1" stroke="#1F2533" stroke-miterlimit="10"/>
    <path d="M279.084 282.897V304.824L250.172 317.028V294.523L279.084 282.897Z" fill="#EEEFF1" stroke="#283046" stroke-miterlimit="10"/>
    <path d="M277.184 286.071V303.812L253.017 313.72V295.717L277.184 286.071Z" fill="#EEEFF1" stroke="#283046" stroke-miterlimit="10"/>
    <path d="M275.756 324.199L282.456 327.753V336L275.756 332.696V324.199Z" fill="#283046" stroke="#283046" stroke-miterlimit="10" stroke-linecap="round" stroke-linejoin="round"/>
    <path d="M277.741 323.481L284.441 327.035L253.522 339.766L246.822 336.212L250.175 334.831L254.972 337.187L281.091 327.008L275.756 324.199L277.741 323.481Z" fill="#EEEFF1" stroke="#283046" stroke-miterlimit="10" stroke-linecap="round" stroke-linejoin="round"/>
    <path d="M246.822 336.212L253.523 339.766V348.013L246.822 344.709V336.212Z" fill="#EEEFF1" stroke="#283046" stroke-miterlimit="10" stroke-linecap="round" stroke-linejoin="round"/>
    <path d="M253.523 339.766L284.441 327.035V335.283L253.523 348.013V339.766Z" fill="#EEEFF1" stroke="#283046" stroke-miterlimit="10" stroke-linecap="round" stroke-linejoin="round"/>
    <path d="M196.734 294.504V388.084L70.0001 445.097V342.399L196.734 294.504Z" fill="#EEEFF1" stroke="#1F2533" stroke-miterlimit="10"/>
    <path d="M152.647 332.726V356.252L121.629 369.345V345.199L152.647 332.726Z" fill="#EEEFF1" stroke="#283046" stroke-miterlimit="10"/>
    <path d="M150.609 336.132V355.166L124.681 365.796V346.481L150.609 336.132Z" fill="#EEEFF1" stroke="#283046" stroke-miterlimit="10"/>
    <path d="M149.076 377.038L156.265 380.852V389.7L149.076 386.155V377.038Z" fill="#283046" stroke="#283046" stroke-miterlimit="10" stroke-linecap="round" stroke-linejoin="round"/>
    <path d="M151.206 376.268L158.394 380.082L125.222 393.74L118.034 389.927L121.631 388.446L126.778 390.974L154.8 380.052L149.076 377.038L151.206 376.268Z" fill="#EEEFF1" stroke="#283046" stroke-miterlimit="10" stroke-linecap="round" stroke-linejoin="round"/>
    <path d="M118.035 389.927L125.223 393.741V402.589L118.035 399.044V389.927Z" fill="#EEEFF1" stroke="#283046" stroke-miterlimit="10" stroke-linecap="round" stroke-linejoin="round"/>
    <path d="M125.223 393.741L158.394 380.082V388.931L125.223 402.588V393.741Z" fill="#EEEFF1" stroke="#283046" stroke-miterlimit="10" stroke-linecap="round" stroke-linejoin="round"/>
    <path d="M281.363 271.125C288.869 276.547 297.774 262.069 297.774 262.069C297.774 262.069 300.78 249.436 299.164 246.145C298.403 244.597 297.002 243.84 295.662 244.694C293.085 246.341 292.282 251.81 290.842 254.019C290.842 254.019 277.763 257.008 279.629 260.1C282.35 264.608 278.665 269.175 281.363 271.125Z" fill="#283046"/>
    <path d="M299.576 258.483C297.495 258.751 293.95 257.149 293.7 256.347C293.45 255.545 294.189 244.85 297.874 244.759C301.561 244.67 299.576 258.483 299.576 258.483Z" fill="#F0F0F0" stroke="#283046" stroke-miterlimit="10"/>
    <path d="M298.39 261.97C298.731 262.768 294.771 267.508 291.353 270.326C287.936 273.144 284.022 274.106 283.024 272.658C282.027 271.211 284.481 268.146 282.773 263.333C282.36 262.168 282.603 261.243 284.128 260.276C285.06 259.685 290.377 257.542 291.355 257.339C292.548 257.092 293.004 257.606 294.83 259.344C296.656 261.083 298.031 261.128 298.39 261.97Z" fill="#F0F0F0" stroke="#283046" stroke-miterlimit="10"/>
    <path d="M488.477 413.163L202.928 253.547V249.423L488.463 408.387L488.477 413.163Z" fill="#EEEFF1" stroke="#1F2533" stroke-miterlimit="10"/>
    <path d="M317.383 243.124L609.5 414.766L609.487 377.741L317.383 214.477V243.124Z" fill="#1F2533" stroke="#1F2533" stroke-miterlimit="10" stroke-linecap="round" stroke-linejoin="round"/>
    <path d="M606.848 379.988L289.14 200.482L316.883 213.671L606.834 375.394L606.848 379.988Z" fill="#EEEFF1" stroke="#1F2533" stroke-miterlimit="10"/>
    <path d="M273.952 242.847L272.916 187.343L191.573 212.488L193.644 276.211L273.952 242.847Z" fill="#1F2533" stroke="#EEEFF1" stroke-miterlimit="10" stroke-linecap="round" stroke-linejoin="round"/>
    <path d="M280.636 189.016L247.399 200.232L243.9 208.588L195.858 226.073L193.791 276L280.636 241.024V189.016Z" fill="#EEEFF1" stroke="#1F2533" stroke-miterlimit="10"/>
    <path d="M291.321 253.063V195.473L208.942 224.79L211.014 286.426L291.321 253.063Z" fill="#1F2533" stroke="#EEEFF1" stroke-miterlimit="10" stroke-linecap="round" stroke-linejoin="round"/>
    <path d="M298.005 198.189L264.769 209.405L261.27 218.803L213.227 236.289L211.16 286.216L298.005 251.239V198.189Z" fill="#EEEFF1" stroke="#1F2533" stroke-miterlimit="10"/>
    <path d="M310.06 264.122L309.025 205.49L227.681 234.805L229.753 297.485L310.06 264.122Z" fill="#1F2533" stroke="#EEEFF1" stroke-miterlimit="10" stroke-linecap="round" stroke-linejoin="round"/>
    <path d="M316.744 209.248L283.508 220.464L280.009 229.862L231.966 247.348L229.899 297.274L316.744 262.298V209.248Z" fill="#EEEFF1" stroke="#1F2533" stroke-miterlimit="10"/>
    <path d="M331.185 277.243L330.15 218.611L248.807 247.927L250.877 310.606L331.185 277.243Z" fill="#1F2533" stroke="#EEEFF1" stroke-miterlimit="10" stroke-linecap="round" stroke-linejoin="round"/>
    <path d="M337.869 222.37L304.632 233.585L301.133 242.983L253.09 260.469L251.023 310.395L337.869 275.419V222.37Z" fill="#EEEFF1" stroke="#1F2533" stroke-miterlimit="10"/>
    <path d="M353.195 288.845L352.16 230.213L270.817 259.53L272.888 322.209L353.195 288.845Z" fill="#283046" stroke="#F0F0F0" stroke-miterlimit="10" stroke-linecap="round" stroke-linejoin="round"/>
    <path d="M359.88 233.972L326.643 245.188L323.144 254.585L275.102 272.071L273.034 321.998L359.88 287.021V233.972Z" fill="#EEEFF1" stroke="#1F2533" stroke-miterlimit="10"/>
    <path d="M376.08 272.382L375.007 211.661L290.767 242.021L292.913 306.933L376.08 272.382Z" fill="#1F2533" stroke="#EEEFF1" stroke-miterlimit="10" stroke-linecap="round" stroke-linejoin="round"/>
    <path d="M383.002 215.554L348.582 227.17L344.958 236.902L295.205 255.01L293.064 306.715L383.002 270.494V215.554Z" fill="#EEEFF1" stroke="#1F2533" stroke-miterlimit="10"/>
    <path d="M397.33 317.125L396.258 256.405L312.018 286.765L314.162 351.677L397.33 317.125Z" fill="#1F2533" stroke="#EEEFF1" stroke-miterlimit="10" stroke-linecap="round" stroke-linejoin="round"/>
    <path d="M404.252 260.297L369.832 271.912L366.208 281.645L316.455 299.754L314.314 351.459L404.252 315.236V260.297Z" fill="#EEEFF1" stroke="#1F2533" stroke-miterlimit="10"/>
    <path d="M417.335 330.877L416.262 270.156L332.023 300.517L334.167 365.428L417.335 330.877Z" fill="#1F2533" stroke="#EEEFF1" stroke-miterlimit="10" stroke-linecap="round" stroke-linejoin="round"/>
    <path d="M424.258 274.048L389.837 285.664L386.213 295.397L336.46 313.505L334.319 365.21L424.258 328.988V274.048Z" fill="#EEEFF1" stroke="#1F2533" stroke-miterlimit="10"/>
    <path d="M438.709 343.669L437.636 282.948L353.396 313.308L355.541 378.22L438.709 343.669Z" fill="#1F2533" stroke="#EEEFF1" stroke-miterlimit="10" stroke-linecap="round" stroke-linejoin="round"/>
    <path d="M445.63 286.841L411.21 298.456L407.587 308.189L357.833 326.298L355.692 378.002L445.63 341.78V286.841Z" fill="#EEEFF1" stroke="#1F2533" stroke-miterlimit="10"/>
    <path d="M464.328 356.784L463.255 296.063L379.015 326.423L381.16 391.335L464.328 356.784Z" fill="#1F2533" stroke="#EEEFF1" stroke-miterlimit="10" stroke-linecap="round" stroke-linejoin="round"/>
    <path d="M471.25 299.956L436.829 311.571L433.207 321.304L383.453 339.413L381.311 391.117L471.25 354.895V299.956Z" fill="#EEEFF1" stroke="#1F2533" stroke-miterlimit="10"/>
    <path d="M489.566 370.607L488.493 309.886L404.253 340.246L406.397 405.158L489.566 370.607Z" fill="#1F2533" stroke="#EEEFF1" stroke-miterlimit="10" stroke-linecap="round" stroke-linejoin="round"/>
    <path d="M496.488 313.779L462.067 325.395L458.444 335.127L408.69 353.235L406.55 404.94L496.488 368.718V313.779Z" fill="#EEEFF1" stroke="#1F2533" stroke-miterlimit="10"/>
    <path d="M512.742 384.685L511.669 323.965L427.429 354.325L429.573 419.237L512.742 384.685Z" fill="#1F2533" stroke="#EEEFF1" stroke-miterlimit="10" stroke-linecap="round" stroke-linejoin="round"/>
    <path d="M519.664 327.857L485.243 339.474L481.62 349.206L431.866 367.314L429.726 419.019L519.664 382.796V327.857Z" fill="#EEEFF1" stroke="#1F2533" stroke-miterlimit="10"/>
    <path d="M538.762 401.287L537.689 340.566L453.449 370.927L455.594 435.839L538.762 401.287Z" fill="#1F2533" stroke="#EEEFF1" stroke-miterlimit="10" stroke-linecap="round" stroke-linejoin="round"/>
    <path d="M545.685 344.459L511.264 356.075L507.641 365.807L457.887 383.915L455.746 435.62L545.685 399.399V344.459Z" fill="#EEEFF1" stroke="#1F2533" stroke-miterlimit="10"/>
    <path d="M488.477 459.563L202.928 287.333V257.547L488.463 418.22L488.477 459.563Z" fill="#EEEFF1" stroke="#1F2533" stroke-miterlimit="10"/>
    <path d="M485.349 439.814L202.928 272.833V271.396L485.336 435.219L485.349 439.814Z" fill="#1F2533"/>
    <path d="M489.248 462.133L609.5 415.6V325.268L489.248 366.499V462.133Z" fill="#EEEFF1" stroke="#1F2533" stroke-miterlimit="10"/>
    <path d="M488.248 366.142C488.248 365.928 488.383 365.738 488.586 365.669L608.834 324.44L606.515 323.016L484.785 363.353V459.454L488.248 461.898V366.142Z" fill="#EEEFF1" stroke="#1F2533" stroke-miterlimit="10" stroke-linecap="round" stroke-linejoin="round"/>
    <path d="M569.994 362.551V384.478L541.082 394.645V372.141L569.994 362.551Z" fill="#EEEFF1" stroke="#1F2533" stroke-miterlimit="10"/>
    <path d="M567.094 365.591V383.332L542.927 391.538V373.536L567.094 365.591Z" fill="#EEEFF1" stroke="#1F2533" stroke-miterlimit="10"/>
    <path d="M566.665 403.618L573.365 407.643V415.892L566.665 412.115V403.618Z" fill="#1F2533" stroke="#1F2533" stroke-miterlimit="10" stroke-linecap="round" stroke-linejoin="round"/>
    <path d="M568.65 403.04L575.35 407.066L544.432 417.62L537.732 413.593L541.084 412.449L545.881 415.143L571.5 406.5L566.665 403.618L568.65 403.04Z" fill="#EEEFF1" stroke="#1F2533" stroke-miterlimit="10" stroke-linecap="round" stroke-linejoin="round"/>
    <path d="M537.731 413.594L544.432 417.62V425.867L537.731 422.091V413.594Z" fill="#EEEFF1" stroke="#1F2533" stroke-miterlimit="10" stroke-linecap="round" stroke-linejoin="round"/>
    <path d="M544.432 417.62L575.35 407.066V415.314L544.432 425.867V417.62Z" fill="#EEEFF1" stroke="#1F2533" stroke-miterlimit="10" stroke-linecap="round" stroke-linejoin="round"/>
    <path d="M191.049 486.046C194.385 521.646 121.514 521.269 118.811 491.783C116.352 464.961 188.904 463.146 191.049 486.046Z" fill="#EEEFF1" stroke="#1F2533" stroke-miterlimit="10"/>
    <path d="M145.036 439.719C162.853 434.182 189.442 452.531 191.583 479.662C194.66 518.644 120.837 518.238 117.545 486.565C114.252 454.892 133.935 443.169 145.036 439.719Z" fill="#1F2533"/>
    <path d="M145.699 440.832C162.256 435.687 187.758 452.685 188.956 477.951C190.674 514.176 123.211 513.801 120.151 484.366C117.092 454.933 135.383 444.039 145.699 440.832Z" fill="#EEEFF1"/>
    <path d="M161.504 444.91C162.535 449.838 157.481 455.731 151.432 455.279C143.146 454.661 140.917 447.889 141.62 444.078C141.927 442.409 145.133 441.704 151.503 442.137C157.325 442.532 161.089 442.926 161.504 444.91Z" fill="#EEEFF1" stroke="#1F2533" stroke-miterlimit="10"/>
    <path d="M161.727 436.449C163.129 441.284 158.536 447.547 152.47 447.563C144.161 447.584 142.326 442.15 141.837 437.149C141.672 435.458 145.161 434.512 151.544 434.453C157.38 434.4 161.163 434.504 161.727 436.449Z" fill="#EEEFF1" stroke="#1F2533" stroke-miterlimit="10"/>
    <path d="M161.727 428.758C163.129 433.593 158.536 439.856 152.47 439.872C144.161 439.893 142.326 434.46 141.837 429.459C141.672 427.768 145.161 426.822 151.544 426.763C157.38 426.709 161.163 426.814 161.727 428.758Z" fill="#EEEFF1" stroke="#1F2533" stroke-miterlimit="10"/>
    <path d="M162.477 421.597C163.879 426.432 159.285 432.695 153.22 432.71C144.911 432.731 143.076 427.298 142.587 422.296C142.421 420.605 145.911 416.737 152.294 416.679C158.129 416.625 161.913 419.652 162.477 421.597Z" fill="#EEEFF1" stroke="#1F2533" stroke-miterlimit="10"/>
    <path d="M163.339 413.442C164.741 418.277 160.148 424.54 154.082 424.555C145.773 424.576 143.939 419.143 143.45 414.141C143.284 412.451 146.773 409.242 153.157 409.184C158.992 409.131 162.775 411.496 163.339 413.442Z" fill="#EEEFF1" stroke="#1F2533" stroke-miterlimit="10"/>
    <path d="M163.339 406.216C164.741 411.051 160.148 417.314 154.082 417.33C145.773 417.351 143.939 411.917 143.45 406.915C143.284 405.225 146.773 403.147 153.157 403.089C158.992 403.036 162.775 404.272 163.339 406.216Z" fill="#EEEFF1" stroke="#1F2533" stroke-miterlimit="10"/>
    <path d="M162.44 398.965C163.969 403.761 159.541 410.144 153.478 410.32C145.173 410.562 143.196 405.18 142.576 400.192C142.366 398.507 145.829 397.468 152.209 397.24C158.041 397.032 161.825 397.035 162.44 398.965Z" fill="#EEEFF1" stroke="#1F2533" stroke-miterlimit="10"/>
    <path d="M161.735 391.758C163.103 396.604 158.465 402.833 152.399 402.803C144.091 402.764 142.295 397.317 141.842 392.312C141.688 390.621 145.184 389.7 151.567 389.688C157.403 389.677 161.186 389.809 161.735 391.758Z" fill="#EEEFF1" stroke="#1F2533" stroke-miterlimit="10"/>
    <path d="M161.282 384.499C162.998 389.231 158.824 395.785 152.773 396.203C144.483 396.775 142.297 391.476 141.481 386.518C141.206 384.842 144.624 383.666 150.99 383.183C156.81 382.742 160.592 382.595 161.282 384.499Z" fill="#EEEFF1" stroke="#1F2533" stroke-miterlimit="10"/>
    <path d="M160.532 377.197C162.179 381.953 157.912 388.446 151.855 388.774C143.559 389.226 141.448 383.895 140.704 378.925C140.453 377.246 143.888 376.119 150.261 375.73C156.086 375.375 159.869 375.284 160.532 377.197Z" fill="#EEEFF1" stroke="#1F2533" stroke-miterlimit="10"/>
    <path d="M159.054 369.063C161.239 375.575 157.099 380.448 151.072 381.137C142.816 382.081 140.592 378.045 140.397 372.661C140.277 369.344 142.273 365.724 148.611 364.957C154.406 364.255 158.41 367.144 159.054 369.063Z" fill="#EEEFF1" stroke="#1F2533" stroke-miterlimit="10"/>
    <path d="M164.5 442C159.605 440.645 163.666 445.083 168.5 450.5C179.753 463.11 179.411 451.789 188.987 472.231" stroke="#1F2533" stroke-miterlimit="10"/>
    <path d="M279.285 238.211C286.245 227 300.663 229.63 300.663 229.63C300.663 229.63 314.403 232.535 315.608 236.787C316.175 238.788 315.511 242.194 313.822 243.035C311.034 244.422 304.41 241.733 301.371 241.528C295.568 241.321 291.922 251.205 281.666 247.569C274.024 244.859 277.552 241.002 279.285 238.211Z" fill="#1F2533"/>
    <path d="M302.33 231.326C302.633 234.107 303.387 237.577 301.896 239.449C301.223 240.294 312.724 244.639 314.25 240.183C316.161 234.603 302.33 231.326 302.33 231.326Z" fill="#EEEFF1"/>
    <path d="M300.32 230.775C299.474 230.412 294.686 229.728 289.836 231.104C284.986 232.479 278.059 239.309 276.077 242.661C275.222 244.105 281.66 249.751 290.061 246.572C292.035 245.825 299.245 240.533 300.571 239.991C301.896 239.448 302.147 238.95 302.397 235.676C302.576 233.32 301.615 231.332 300.32 230.775Z" fill="#EEEFF1"/>
    <path d="M254.828 279.144C243.73 264.345 252.384 251.878 267.475 241.378C282.566 230.877 293.428 228.945 306.431 249.136C319.065 268.751 302.83 283.627 291.93 287.897C284.301 290.885 263.382 290.55 254.828 279.144Z" fill="#1F2533"/>
    <path d="M296.718 285.255C294.493 286.742 319.565 271.447 305.383 250.61C290.013 228.026 281.593 235.098 275.659 237.781C271.053 239.865 238.665 257.779 254.643 278.233C271.021 299.2 292.471 288.093 296.718 285.255Z" fill="#EEEFF1"/>
    <path d="M267.116 254.365C263.125 247.459 273.563 241.323 276.463 247.149C280.079 254.419 269.528 258.539 267.116 254.365Z" fill="#EEEFF1" stroke="#1F2533" stroke-miterlimit="10"/>
    <path d="M263.969 277.773C269.321 271.757 264.779 263.014 257.876 264.676C250.972 266.338 239.423 271.916 223.809 271.61C208.195 271.303 196.938 261.849 196.938 261.849C196.938 261.849 192.174 257.512 185.6 266.428C180.213 273.735 186.923 277.029 193.252 280.805C199.581 284.581 218.554 289.196 233.931 286.586C249.307 283.976 261.04 281.066 263.969 277.773Z" fill="#283046"/>
    <path d="M258.646 280.362C261.081 280.4 266.7 276.195 265.516 270.482C264.333 264.769 259.561 262.852 256.785 263.631C254.84 264.177 250.745 267.161 251.425 272.549C252.131 278.133 256.288 280.325 258.646 280.362Z" fill="#F0F0F0" stroke="#283046" stroke-miterlimit="10"/>
    <path d="M254.669 282.155C257.105 282.193 262.723 277.988 261.539 272.275C260.356 266.563 255.585 264.645 252.808 265.424C250.863 265.97 246.768 268.954 247.449 274.343C248.155 279.926 252.312 282.119 254.669 282.155Z" fill="#F0F0F0" stroke="#283046" stroke-miterlimit="10"/>
    <path d="M249.348 283.762C251.783 283.8 257.401 279.595 256.218 273.882C255.035 268.169 250.263 266.252 247.487 267.031C245.542 267.577 241.446 270.561 242.127 275.949C242.833 281.533 246.99 283.725 249.348 283.762Z" fill="#F0F0F0" stroke="#283046" stroke-miterlimit="10"/>
    <path d="M243.498 285.707C245.933 285.745 251.551 281.54 250.368 275.827C249.185 270.115 244.413 268.197 241.637 268.976C239.692 269.522 235.597 272.506 236.277 277.895C236.984 283.478 241.141 285.671 243.498 285.707Z" fill="#F0F0F0" stroke="#283046" stroke-miterlimit="10"/>
    <path d="M237.393 286.888C239.795 287.27 245.926 283.89 245.541 278.055C245.156 272.221 240.704 269.645 237.852 270.026C235.854 270.294 231.397 272.676 231.329 278.118C231.26 283.757 235.068 286.519 237.393 286.888Z" fill="#F0F0F0" stroke="#283046" stroke-miterlimit="10"/>
    <path d="M231.051 287.612C233.405 288.214 239.809 285.415 239.955 279.563C240.101 273.71 235.906 270.728 233.036 270.843C231.024 270.924 226.375 272.885 225.815 278.304C225.234 283.921 228.771 287.028 231.051 287.612Z" fill="#F0F0F0" stroke="#283046" stroke-miterlimit="10"/>
    <path d="M224.633 288.42C226.987 289.023 233.391 286.224 233.537 280.371C233.683 274.518 229.488 271.535 226.618 271.651C224.605 271.732 219.957 273.693 219.397 279.112C218.817 284.73 222.354 287.837 224.633 288.42Z" fill="#F0F0F0" stroke="#283046" stroke-miterlimit="10"/>
    <path d="M216.342 287.445C218.593 288.356 225.293 286.424 226.193 280.631C227.094 274.837 223.328 271.32 220.472 271.053C218.47 270.866 213.616 272.198 212.363 277.506C211.062 283.008 214.161 286.563 216.342 287.445Z" fill="#F0F0F0" stroke="#283046" stroke-miterlimit="10"/>
    <path d="M210.096 286.55C212.348 287.462 219.047 285.53 219.948 279.736C220.849 273.943 217.082 270.425 214.226 270.159C212.225 269.972 207.371 271.303 206.118 276.612C204.818 282.113 207.915 285.668 210.096 286.55Z" fill="#F0F0F0" stroke="#283046" stroke-miterlimit="10"/>
    <path d="M203.797 284.927C206.049 285.839 212.748 283.907 213.649 278.113C214.55 272.32 210.783 268.802 207.928 268.536C205.926 268.349 201.072 269.68 199.819 274.988C198.519 280.49 201.617 284.044 203.797 284.927Z" fill="#F0F0F0" stroke="#283046" stroke-miterlimit="10"/>
    <path d="M197.465 282.373C199.716 283.284 206.416 281.352 207.317 275.558C208.217 269.765 204.451 266.248 201.595 265.981C199.593 265.794 194.739 267.125 193.486 272.434C192.186 277.936 195.285 281.49 197.465 282.373Z" fill="#F0F0F0" stroke="#283046" stroke-miterlimit="10"/>
    <path d="M191.098 279.166C193.329 280.295 200.312 278.872 201.662 272.982C203.012 267.092 199.429 263.151 196.534 262.636C194.505 262.275 189.45 263.235 187.776 268.595C186.04 274.151 188.938 278.073 191.098 279.166Z" fill="#F0F0F0" stroke="#283046" stroke-miterlimit="10"/>
    <path d="M132.632 297.071C142.834 303.767 162.42 311.186 171.757 304.501C181.095 297.816 187.23 278.75 180.561 271.124C173.892 263.499 162.42 260.956 153.349 257.652C144.876 254.565 133.784 255.872 128.091 271.379C124.124 282.18 125.146 292.157 132.632 297.071Z" fill="#1F2533"/>
    <path d="M138.208 299.606C143.026 302.274 149.524 305.548 155.838 306.225C162.151 306.903 175.83 308.669 180.293 291.377C184.296 275.87 180.398 268.97 167.519 263.584C154.148 257.991 153.594 257.926 149.859 257.247C146.576 256.651 135.277 254.116 128.871 273.601C123.244 290.72 133.61 297.06 138.208 299.606Z" fill="#EEEFF1"/>
    <path d="M173.074 344.544C165.213 337.037 149.848 324.554 136.503 345.12C124.151 364.154 140.049 375.734 147.1 380.437C153.687 384.83 165.337 386.498 173.134 372.854C178.566 363.35 178.86 350.069 173.074 344.544Z" fill="#1F2533"/>
    <path d="M167.66 337.794C160.857 333.091 149.689 323.797 137.666 344.191C123.212 368.706 149.023 378.534 152.574 380.184C154.398 381.031 167.631 386 175.49 368.17C184.087 348.667 173.238 341.651 167.66 337.794Z" fill="#EEEFF1"/>
    <path d="M229.737 414.661C213.708 417.661 198.577 410.138 181.734 399.394C164.89 388.65 155.907 394.305 147.766 375.362C139.624 356.42 141.523 332.056 145.173 319.051C148.823 306.045 162.645 289.981 205.876 296.483C249.107 302.985 261.369 311.444 261.164 328.713C260.935 347.943 267 407.687 229.737 414.661Z" fill="#1F2533"/>
    <path d="M244.876 311.184C223.645 312.803 226.591 318.008 222.433 350.471C219.823 370.839 210.769 416.615 235.556 411.833C254.608 408.157 259.032 378.755 260.15 351.049C261.27 323.341 261.27 309.935 244.876 311.184Z" fill="#EEEFF1"/>
    <path d="M199.528 406.235C184.021 398.884 181.538 393.978 167.972 390.629C154.407 387.281 149.613 377.907 145.608 364.619C141.602 351.331 141.501 331.97 145.173 320.661C148.845 309.352 148.279 305.371 183.66 311.105C219.043 316.84 233.791 306.944 228.784 321.363C223.777 335.782 216.305 371.037 217.74 388.934C219.647 412.74 215.033 413.585 199.528 406.235Z" fill="#EEEFF1"/>
    <path d="M139.211 287.6C142.241 256.023 127.239 256.305 129.733 245.498C130.537 242.015 164.091 234.346 170.828 234.411C180.411 234.503 246.159 251.053 283.635 267.808C303.161 276.537 308.504 288.926 304.17 292.242C299.161 296.075 282.703 304.614 281.887 304.681C282.232 317.331 280.414 328.417 280.414 328.417C280.414 328.417 247 351.897 243.491 353.875C240.884 355.345 225.348 355.628 221.462 355.584C220.817 355.577 220.187 355.384 219.648 355.026C219.648 355.026 145.13 320.957 142.269 318.076C138.902 314.685 137.158 308.99 139.211 287.6Z" fill="#1F2533"/>
    <path d="M292.103 301.443C282.616 293.703 266.983 284.578 257.22 290.983C247.456 297.389 239.283 317.821 244.771 326.956C250.259 336.091 260.965 340.111 269.276 344.722C277.037 349.029 287.84 348.753 295.163 332.21C300.264 320.686 299.087 307.141 292.103 301.443Z" fill="#1F2533"/>
    <path d="M286.275 300.234C277.833 298.782 268.37 307.651 266.683 320.833C264.995 334.014 267.892 343.149 275.678 345.427C284.618 348.043 293.026 336.812 295.833 326.029C298.641 315.245 295.432 301.809 286.275 300.234Z" fill="#EEEFF1"/>
    <path d="M284.703 307.659C279.02 306.681 274.572 311.707 272.538 321.636C270.745 330.391 272.328 336.546 277.569 338.079C283.586 339.839 289.246 332.279 291.136 325.02C293.026 317.762 290.866 308.719 284.703 307.659Z" fill="#1F2533"/>
    <path d="M287.909 299.607C287.909 299.607 278.683 292.173 272.704 290.758C266.725 289.342 253.808 285.946 247.453 304.594C241.754 321.316 244.669 329.356 256.384 336.67C268.549 344.263 274.538 345.838 273.356 345.319C270.377 344.011 262.185 340.546 266.002 318.174C269.839 295.679 287.909 299.607 287.909 299.607Z" fill="#EEEFF1"/>
    <path d="M303.048 289.981C307.094 286.315 299.792 274.72 280.266 265.99C247.873 251.507 183.181 237.46 174.626 235.416C166.751 233.533 133.205 242.643 132.072 246.032C129.362 254.138 141.932 256.559 140.972 281.217C140.37 296.687 140.103 312.285 143.471 315.677C146.12 318.345 212.896 346.872 216.348 348.927C220.197 351.218 231.734 351.219 234.457 350.533C237.826 349.685 237.066 334.089 237.908 316.842C238.751 299.596 263.615 308.476 272.972 306.108C280.476 304.207 298.046 294.512 303.048 289.981Z" fill="#EEEFF1" stroke="#1F2533" stroke-miterlimit="10"/>
    <path d="M268.455 259.798C268.455 259.798 238.88 288.724 195.678 274.109C157.532 261.204 165.524 238.788 165.524 238.788C165.524 238.788 172.773 185.808 223.803 190.071C274.833 194.334 268.455 259.798 268.455 259.798Z" fill="#1F2533"/>
    <path d="M265.452 257.652C265.452 257.652 238.064 284.359 196.421 270.272C159.652 257.833 167.355 238.575 167.355 238.575C167.355 238.575 174.342 187.508 223.53 191.616C272.719 195.726 265.452 257.652 265.452 257.652Z" fill="#EEEFF1"/>
    <path d="M257.866 213.301C253.672 206.916 239.684 203.76 233.371 224.173C226.789 245.452 215.974 269.846 188.139 257.057C160.305 244.269 178.279 211.788 183.803 205.013" stroke="#1F2533" stroke-miterlimit="10"/>
    <path d="M290.572 532.683C293.908 568.283 221.037 567.906 218.334 538.42C215.874 511.598 288.427 509.784 290.572 532.683Z" fill="#EEEFF1" stroke="#1F2533" stroke-miterlimit="10"/>
    <path d="M244.559 485.306C262.376 479.77 288.965 499.169 291.106 526.299C294.183 565.282 220.36 564.875 217.067 533.203C213.775 501.529 233.458 488.755 244.559 485.306Z" fill="#1F2533"/>
    <path d="M245.223 486.42C261.78 481.274 287.282 499.323 288.479 524.589C290.198 560.814 222.734 560.438 219.674 531.004C216.614 501.57 234.907 489.626 245.223 486.42Z" fill="#EEEFF1"/>
    <path d="M261.027 491.546C262.058 496.475 257.004 502.367 250.955 501.915C242.669 501.297 240.44 494.526 241.143 490.715C241.45 489.045 244.656 488.341 251.026 488.773C256.848 489.168 260.612 489.564 261.027 491.546Z" fill="#EEEFF1" stroke="#1F2533" stroke-miterlimit="10"/>
    <path d="M261.25 482.036C262.652 486.871 258.059 494.184 251.993 494.2C243.684 494.221 241.85 487.737 241.361 482.735C241.195 481.045 244.684 477.999 251.068 477.94C256.903 477.887 260.686 480.092 261.25 482.036Z" fill="#EEEFF1" stroke="#1F2533" stroke-miterlimit="10"/>
    <path d="M261.25 472.246C262.652 477.081 258.059 484.394 251.993 484.41C243.684 484.431 241.85 477.947 241.361 472.945C241.195 471.255 244.684 470.309 251.068 470.25C256.903 470.197 260.686 470.301 261.25 472.246Z" fill="#EEEFF1" stroke="#1F2533" stroke-miterlimit="10"/>
    <path d="M262 465.085C263.402 469.92 258.809 476.183 252.743 476.198C244.434 476.219 242.599 470.786 242.11 465.785C241.945 464.095 245.434 460.227 251.817 460.168C257.653 460.113 261.436 463.139 262 465.085Z" fill="#EEEFF1" stroke="#1F2533" stroke-miterlimit="10"/>
    <path d="M262.862 456.929C264.264 461.764 259.671 468.027 253.605 468.042C245.296 468.063 243.461 462.63 242.972 457.628C242.807 455.937 246.296 452.729 252.679 452.671C258.515 452.618 262.298 454.984 262.862 456.929Z" fill="#EEEFF1" stroke="#1F2533" stroke-miterlimit="10"/>
    <path d="M262.862 449.703C264.264 454.538 259.671 460.801 253.605 460.817C245.296 460.838 243.461 455.404 242.972 450.402C242.807 448.712 246.296 446.634 252.679 446.576C258.515 446.523 262.298 447.758 262.862 449.703Z" fill="#EEEFF1" stroke="#1F2533" stroke-miterlimit="10"/>
    <path d="M261.964 442.452C263.493 447.248 259.065 453.63 253.002 453.807C244.697 454.048 242.72 448.666 242.1 443.679C241.89 441.994 245.353 440.954 251.733 440.727C257.565 440.519 261.349 440.523 261.964 442.452Z" fill="#EEEFF1" stroke="#1F2533" stroke-miterlimit="10"/>
    <path d="M261.258 435.245C262.626 440.091 257.988 446.32 251.923 446.291C243.615 446.251 241.818 440.805 241.365 435.8C241.211 434.108 244.707 433.187 251.091 433.175C256.927 433.164 260.709 433.297 261.258 435.245Z" fill="#EEEFF1" stroke="#1F2533" stroke-miterlimit="10"/>
    <path d="M260.805 427.987C262.521 432.719 258.348 439.273 252.296 439.69C244.007 440.263 241.82 434.964 241.004 430.006C240.729 428.33 244.147 427.154 250.513 426.671C256.333 426.23 260.115 426.083 260.805 427.987Z" fill="#EEEFF1" stroke="#1F2533" stroke-miterlimit="10"/>
    <path d="M260.056 420.683C261.703 425.44 257.436 431.933 251.379 432.261C243.082 432.713 240.972 427.382 240.228 422.412C239.977 420.733 243.412 419.606 249.785 419.217C255.609 418.862 259.394 418.77 260.056 420.683Z" fill="#EEEFF1" stroke="#1F2533" stroke-miterlimit="10"/>
    <path d="M258.578 411.55C260.762 418.062 256.622 422.934 250.595 423.624C242.339 424.568 240.115 420.532 239.92 415.148C239.801 411.832 241.796 408.211 248.135 407.443C253.929 406.742 257.933 409.63 258.578 411.55Z" fill="#F0F0F0" stroke="#283046" stroke-miterlimit="10"/>
    <path d="M264 488C259.105 486.645 262.922 489.505 267.757 494.922C279.01 507.532 279.423 499.018 289 519.461" stroke="#1F2533" stroke-miterlimit="10"/>
    <path d="M265.26 384.618C256.831 377.765 238.5 368 228.851 388.124C219.453 407.724 234.121 418.819 241.522 422.943C248.435 426.793 260.865 427.059 267.558 412.834C272.222 402.924 271.464 389.662 265.26 384.618Z" fill="#1F2533"/>
    <path d="M262 382.876C262 382.876 240.669 366.674 230.031 388.076C217.241 413.803 248.138 424.456 247.057 423.985C244.333 422.8 234.703 417.154 241.292 398.658C249.67 376.381 262 382.876 262 382.876Z" fill="#EEEFF1"/>
    <path d="M261.561 383.823C254.262 381.195 245.479 388.852 242.221 399.875C238.342 413 242.843 423.104 250.004 423.989C258.256 425.009 265.606 416.787 268.211 407.484C270.814 398.183 269.42 386.653 261.561 383.823Z" fill="#EEEFF1"/>
    <path d="M257.635 398.248C255.415 397.316 252.556 399.87 251.371 403.249C250.208 406.569 251.505 410.502 253.71 410.89C256.251 411.338 258.659 408.896 259.614 406.042C260.568 403.189 260.025 399.252 257.635 398.248Z" fill="#EEEFF1" stroke="#1F2533" stroke-miterlimit="10"/>
    <path d="M245.078 370.88C248.126 374.848 249.077 378.387 248.048 380.52C247.282 382.108 249.571 383.726 250.531 381.735C251.576 379.57 251.854 375.03 246.81 369.29C242.707 364.619 238.697 363.1 238.629 365.58C238.573 367.572 242.363 367.346 245.078 370.88Z" fill="#EEEFF1" stroke="#1F2533" stroke-miterlimit="10"/>
    <path d="M276.749 336.392C273.912 329.191 281.006 322.829 286.73 326.626C292.453 330.422 301.084 339.287 315.404 344.217C327.375 348.338 337.271 348.269 343.59 345.426C345.977 344.352 348.982 342.056 351.95 352.275C354.382 360.649 347.156 361.383 340.116 362.675C333.075 363.967 314.236 361.805 301.118 354.334C288 346.862 278.302 340.335 276.749 336.392Z" fill="#1F2533"/>
    <path d="M281.764 339.784C279.534 339.007 274.745 332.956 277.756 328.205C280.767 323.454 285.209 323.741 288.267 326.07C289.821 327.255 285.461 326.04 283.016 330.666C280.483 335.46 283.924 340.535 281.764 339.784Z" fill="#EEEFF1" stroke="#1F2533" stroke-miterlimit="10"/>
    <path d="M286.58 342.571C284.463 341.833 279.915 336.087 282.775 331.575C285.635 327.064 289.853 327.337 292.757 329.548C294.234 330.672 290.092 329.519 287.771 333.911C285.364 338.465 288.631 343.285 286.58 342.571Z" fill="#EEEFF1" stroke="#1F2533" stroke-miterlimit="10"/>
    <path d="M291.825 346.179C289.708 345.441 285.16 339.695 288.02 335.183C290.879 330.67 295.098 330.944 298.002 333.156C299.478 334.28 295.336 333.126 293.016 337.519C290.608 342.073 293.876 346.893 291.825 346.179Z" fill="#EEEFF1" stroke="#1F2533" stroke-miterlimit="10"/>
    <path d="M297.223 349.448C295.105 348.71 290.16 344.361 292.703 338.495C294.83 333.59 300.74 334.786 303.644 336.997C305.12 338.121 300.019 336.438 297.698 340.832C295.293 345.386 299.273 350.163 297.223 349.448Z" fill="#EEEFF1" stroke="#1F2533" stroke-miterlimit="10"/>
    <path d="M302.382 352.816C300.21 352.258 295.372 347.893 297.416 342.953C299.3 338.402 304.382 337.36 307.46 339.32C309.025 340.316 304.802 339.514 302.851 344.087C300.83 348.826 304.485 353.356 302.382 352.816Z" fill="#EEEFF1" stroke="#1F2533" stroke-miterlimit="10"/>
    <path d="M307.647 354.885C305.466 354.364 300.808 352.037 301.755 347.151C302.753 341.999 308.347 339.814 311.456 341.723C313.036 342.693 308.8 341.962 306.927 346.567C304.986 351.34 309.758 355.39 307.647 354.885Z" fill="#EEEFF1" stroke="#1F2533" stroke-miterlimit="10"/>
    <path d="M313.652 357.43C311.412 357.355 305.383 353.216 306.794 348.054C308.204 342.894 312.315 341.902 315.738 343.151C317.478 343.786 313.182 343.915 312.251 348.803C311.286 353.868 315.82 357.503 313.652 357.43Z" fill="#EEEFF1" stroke="#1F2533" stroke-miterlimit="10"/>
    <path d="M320.039 359.493C317.658 359.622 311.186 355.839 312.6 350.289C314.013 344.739 318.365 343.315 322.022 344.308C323.882 344.813 319.32 345.348 318.411 350.565C317.468 355.974 322.344 359.367 320.039 359.493Z" fill="#EEEFF1" stroke="#1F2533" stroke-miterlimit="10"/>
    <path d="M327.189 360.731C324.837 361.124 317.99 358.079 318.79 352.407C319.59 346.734 323.76 344.837 327.502 345.42C329.406 345.716 324.929 346.753 324.596 352.04C324.249 357.518 329.467 360.351 327.189 360.731Z" fill="#EEEFF1" stroke="#1F2533" stroke-miterlimit="10"/>
    <path d="M333.463 361.536C331.074 362.142 323.791 359.595 324.171 353.683C324.55 347.771 328.692 345.456 332.589 345.736C334.571 345.878 330.047 347.331 330.116 352.805C330.187 358.479 335.777 360.95 333.463 361.536Z" fill="#EEEFF1" stroke="#1F2533" stroke-miterlimit="10"/>
    <path d="M338.982 361.485C336.622 362.199 329.234 359.986 329.347 354.062C329.461 348.138 333.496 345.638 337.401 345.74C339.387 345.791 334.932 347.448 335.247 352.915C335.573 358.58 341.268 360.793 338.982 361.485Z" fill="#EEEFF1" stroke="#1F2533" stroke-miterlimit="10"/>
    <path d="M343.654 360.379C341.294 361.093 333.906 358.879 334.019 352.955C334.133 347.032 338.168 344.532 342.073 344.634C344.059 344.685 339.604 346.342 339.919 351.809C340.245 357.474 345.94 359.688 343.654 360.379Z" fill="#EEEFF1" stroke="#1F2533" stroke-miterlimit="10"/>
    <path d="M349.336 359.173C346.976 359.887 339.588 357.674 339.701 351.75C339.815 345.826 343.85 343.326 347.755 343.428C349.741 343.479 345.286 345.136 345.601 350.603C345.927 356.268 351.623 358.481 349.336 359.173Z" fill="#F0F0F0" stroke="#283046" stroke-miterlimit="10"/>
    <path d="M396.593 373.678C401.212 382.15 416.309 371.838 416.309 371.838C416.309 371.838 426.126 363.434 426.061 359.641C426.031 357.856 425.056 356.511 423.434 356.69C420.311 357.033 415.225 360.78 412.916 362.168C412.916 362.168 399.421 358.938 399.806 362.661C400.368 368.088 394.933 370.632 396.593 373.678Z" fill="#1F2533"/>
    <path d="M415.977 368.876C414.341 367.425 413.122 363.558 413.561 362.817C414 362.076 421.942 354.582 424.547 357.412C427.153 360.242 415.977 368.876 415.977 368.876Z" fill="#EEEFF1"/>
    <path d="M414.795 369.465C414.763 370.361 409.968 373.417 405.55 374.461C401.132 375.506 397.064 374.602 396.768 372.802C396.472 371.003 400.101 369.287 400.618 364.041C400.743 362.77 401.376 362.024 403.219 361.826C404.347 361.705 410.24 362.158 411.239 362.419C412.458 362.738 412.658 363.423 413.599 365.873C414.539 368.322 414.829 368.519 414.795 369.465Z" fill="#EEEFF1"/>
    <path d="M403.211 365.552C403.585 366.927 411.408 364.869 418.967 363.049C422.977 362.083 429.21 361.252 432.054 360.049C435.037 358.787 436.273 354.181 433.601 353.022C427.735 350.476 407.913 348.897 406.635 350.661C404.871 353.097 406.092 354.682 405.442 357.826C404.791 360.971 402.711 363.716 403.211 365.552Z" fill="#1F2533"/>
    <path d="M434.957 355.241C435.574 352.344 429.406 352.19 426.082 351.645C422.757 351.101 420.06 349.745 420.453 353.972C420.846 358.199 419.549 360.96 420.172 361.768C420.797 362.575 428.748 361.106 431.962 359.957C435.176 358.809 434.656 356.655 434.957 355.241Z" fill="#EEEFF1"/>
    <path d="M418.065 361.958C418.895 361.273 419.252 359.884 418.807 356.822C418.363 353.76 418.736 352.548 418.89 351.697C419.044 350.847 417.341 350.462 413.391 350.422C409.44 350.381 405.098 348.732 405.608 352.244C406.117 355.756 404.258 361.265 403.287 362.983C402.315 364.701 403.758 365.613 408.487 364.535C413.217 363.458 416.265 363.442 418.065 361.958Z" fill="#EEEFF1"/>
    <path d="M393.871 330.428C401.5 324.221 415.037 331.275 415.037 331.275C415.037 331.275 427.492 338.639 428.036 342.523C428.292 344.351 427.206 346.868 425.512 346.932C422.715 347.039 416.888 342.444 414.073 341.17C408.675 338.886 403.914 345.561 394.818 338.876C388.043 333.894 391.869 332.056 393.871 330.428Z" fill="#1F2533"/>
    <path d="M416.363 333.256C416.267 335.618 416.498 338.704 414.849 339.677C414.103 340.115 424.266 347.829 426.302 344.777C428.851 340.955 416.363 333.256 416.363 333.256Z" fill="#EEEFF1"/>
    <path d="M414.56 332.077C413.818 331.474 409.434 329.175 404.71 328.519C399.986 327.864 392.574 330.87 390.261 332.861C389.265 333.719 394.514 340.64 402.805 341.129C404.753 341.244 412.219 339.588 413.533 339.632C414.846 339.676 415.149 339.364 415.83 336.803C416.322 334.961 415.695 333.001 414.56 332.077Z" fill="#EEEFF1"/>
    <path d="M340.707 358.105C336.56 339.171 352.464 329.544 374.263 324.176C393.213 319.51 405.812 324.922 408.934 348.268C411.908 370.512 403.327 379.473 387.239 381.202C371.15 382.931 344.92 377.346 340.707 358.105Z" fill="#1F2533"/>
    <path d="M392.875 379.326C394.43 378.671 412.377 376.252 408.094 350.098C403.812 323.945 389.808 323 384.977 323.398C378.915 323.897 334.568 330.721 340.987 357.115C348.377 387.499 392.875 379.326 392.875 379.326Z" fill="#EEEFF1"/>
    <path d="M355.301 337.882C354.953 331.303 366.907 328.96 366.79 334.392C366.644 341.173 355.511 341.859 355.301 337.882Z" fill="#EEEFF1" stroke="#1F2533" stroke-miterlimit="10"/>
    <path d="M139.685 286.966L156.054 279.014C162.803 276.288 186.942 286.016 201.628 294.421C213.75 301.359 209.925 320.576 209.048 346.449C208.274 369.282 204.974 375.174 202.03 378.175C199.271 380.987 189.452 386.535 189.452 386.535L180.681 370.171C167.897 364.173 152.832 355.874 150.047 349.243C147.743 343.756 147.571 326.691 148.829 310.745L139.685 286.966Z" fill="#EEEFF1" stroke="#1F2533" stroke-miterlimit="10"/>
    <path d="M186.853 302.912C171.652 294.212 146.669 284.145 139.685 286.965C132.701 289.786 128.73 348.368 133.467 359.65C138.206 370.932 178.252 384.938 184.735 387.293C191.219 389.648 193.531 382.381 194.532 352.864C195.44 326.086 199.399 310.094 186.853 302.912Z" fill="#EEEFF1" stroke="#1F2533" stroke-miterlimit="10"/>
    <path d="M182.09 340.322L182.869 319.064L184.668 319.876L184.016 341.111L182.09 340.322Z" fill="#1F2533"/>
    <path d="M174.643 337.563L175.439 315.874L177.237 316.686L176.573 338.354L174.643 337.563Z" fill="#1F2533"/>
    <path d="M166.725 334.321L167.503 313.156L169.301 313.968L168.652 335.11L166.725 334.321Z" fill="#1F2533"/>
    <path d="M157.439 330.517L158.238 308.745L160.036 309.557L159.368 331.308L157.439 330.517Z" fill="#1F2533"/>
    <path d="M149.507 327.269L150.322 305.066L152.119 305.878L151.438 328.06L149.507 327.269Z" fill="#1F2533"/>
    <path d="M141.589 324.026L142.385 302.348L144.183 303.16L143.517 324.816L141.589 324.026Z" fill="#1F2533"/>
    <path d="M188.634 296.687C193.868 298.018 191.933 289.603 197.045 289.713C204.312 289.87 204.563 282.231 201.5 280.846C198.437 279.462 192.069 281.165 188.674 283.762C185.278 286.36 180.575 294.637 188.634 296.687Z" fill="#1F2533"/>
    <path d="M188.643 295.799C190.894 296.373 190.572 295.476 191.19 294.165C191.39 293.741 190.53 292.395 190.769 291.919C191.015 291.429 191.425 291.41 192.762 291.338C194.221 291.262 191.875 288.663 193.992 288.486C194.344 288.456 196.349 289.302 196.857 289.211C197.356 289.121 197.483 287.535 197.901 287.415C198.319 287.294 199.03 288.636 199.372 288.489C203.658 286.642 203.55 282.678 200.909 281.483C197.848 280.098 191.972 281.943 188.576 284.54C185.183 287.136 182.534 294.239 188.643 295.799Z" fill="#EEEFF1"/>
    <path d="M160.74 285.364C165.973 286.696 162.069 280.07 169.323 278.757C176.576 277.443 176.247 271.511 173.184 270.126C170.121 268.742 165.778 268.618 160.781 272.439C157.385 275.036 152.681 283.315 160.74 285.364Z" fill="#1F2533"/>
    <path d="M159.75 284.476C162.001 285.05 162.679 284.155 163.297 282.842C163.497 282.418 162.637 281.072 162.876 280.596C163.122 280.106 164.471 280.484 164.869 280.016C165.08 279.769 165.319 279.531 165.596 279.306C165.872 279.081 165.741 277.353 166.099 277.163C166.411 276.998 167.203 278.367 167.59 278.237C168.001 278.097 168.458 277.98 168.964 277.888C169.464 277.798 169.59 276.213 170.008 276.092C170.426 275.971 171.137 277.313 171.479 277.166C175.765 275.319 175.259 271.589 172.62 270.395C169.558 269.01 165.08 269.621 161.684 272.218C158.289 274.814 153.641 282.918 159.75 284.476Z" fill="#EEEFF1"/>
    <path d="M147.983 354.808V359.956L137 354.808V350L147.983 354.808Z" fill="#1F2533"/>
    <path d="M137.678 354.122L141.678 352.709L137.678 351.122V354.122Z" fill="#EEEFF1"/>
</svg>
