<svg width="680" height="600" viewBox="0 0 680 600" fill="none" xmlns="http://www.w3.org/2000/svg">
    <path d="M248.8 71.7871L240.137 56.0522L273.308 62.1772L277.956 74.1104L248.8 71.7871Z" fill="#EEEFF1"/>
    <path d="M241.088 56.791L272.886 62.7048L277.111 73.5819L249.117 71.2587L241.088 56.791ZM239.187 55.3126L248.483 72.3147L278.696 74.7436L273.731 61.6488L239.187 55.3126Z" fill="#1F2533"/>
    <path d="M248.908 72.843L277.536 75.1663L273.205 79.6016L247.64 80.6577L248.908 72.843Z" fill="#EEEFF1"/>
    <path d="M249.329 73.4763L276.372 75.6939L272.992 79.0732L248.273 80.1293L249.329 73.4763ZM248.484 72.3146L247.005 81.1853L273.414 80.0237L278.696 74.6379L248.484 72.3146Z" fill="#1F2533"/>
    <path d="M247.006 81.1854L219.54 80.3405L203.483 55.4182L239.189 55.3126L248.485 72.3147L247.006 81.1854Z" fill="#1F2533"/>
    <path d="M217.11 79.3908L203.482 55.4188L239.822 56.5805L242.04 60.171L213.201 58.9037L223.025 79.4964L217.11 79.3908Z" fill="#EEEFF1" stroke="#1F2533" stroke-miterlimit="10" stroke-linejoin="round"/>
    <path d="M213.201 58.9037L203.482 55.4188" stroke="#1F2533" stroke-miterlimit="10" stroke-linejoin="round"/>
    <path d="M264.437 250.256V58.5861L385.181 80.6572L507.299 59.4309V249.094L264.437 250.256Z" fill="#1F2533"/>
    <path d="M53.8986 457.978L249.118 556.611C263.273 561.68 278.591 561.047 292.641 554.816L626.88 380.254C629.943 378.881 631.317 374.657 628.359 369.694C624.133 362.618 615.365 345.616 615.365 345.616C604.062 342.87 78.8292 416.159 67.7372 420.278C67.7372 420.278 58.6523 435.907 50.8351 448.896C48.7223 452.487 50.9407 456.922 53.8986 457.978Z" fill="#EEEFF1" stroke="#1F2533" stroke-miterlimit="10"/>
    <path d="M80.096 428.515L57.0669 459.984L78.7227 470.967L102.914 438.23L80.096 428.515Z" fill="#1F2533"/>
    <path d="M120.028 445.939L95.9429 478.676L118.655 490.081L144.008 456.183L120.028 445.939Z" fill="#1F2533"/>
    <path d="M166.298 465.476L138.198 500.747L160.488 512.047L189.644 475.508L166.298 465.476Z" fill="#1F2533"/>
    <path d="M212.038 483.851L182.248 522.29L205.805 534.435L235.067 494.622L212.038 483.851Z" fill="#1F2533"/>
    <path d="M313.135 496.946L288.204 556.611L320.952 540.032L339.333 483.534L313.135 496.946Z" fill="#1F2533"/>
    <path d="M367.856 470.333L349.792 524.93L380.85 508.245L397.329 455.232L367.856 470.333Z" fill="#1F2533"/>
    <path d="M427.012 441.398L409.054 494.2L436.731 479.099L454.795 427.987L427.012 441.398Z" fill="#1F2533"/>
    <path d="M484.375 412.251L466.416 465.159L494.093 450.057L512.157 398.945L484.375 412.251Z" fill="#1F2533"/>
    <path d="M539.835 385.956L523.25 434.534L548.814 420.7L565.399 373.706L539.835 385.956Z" fill="#1F2533"/>
    <path d="M594.555 358.711L578.075 405.493L603.64 391.659L617.901 351.002L616.316 348.362L594.555 358.711Z" fill="#1F2533"/>
    <path d="M258.309 504.443L229.892 546.579L249.435 557.456L256.724 558.934L283.768 507.294L271.936 507.717L258.309 504.443Z" fill="#1F2533"/>
    <path d="M70.2024 427.043L256.718 508.545C270.854 513.713 286.151 513.067 300.182 506.715L612.869 351.355C615.928 349.955 615.612 344.895 612.447 344.141L421.079 296.661C409.791 293.861 398.081 294.615 387.004 298.814L70.3079 419.829C67.2485 421.014 67.2485 425.966 70.2024 427.043Z" fill="#EEEFF1" stroke="#1F2533" stroke-miterlimit="10"/>
    <path d="M440.006 176.756C438.527 173.06 432.4 174.116 430.604 174.539C429.337 174.855 428.492 173.166 430.182 172.743C431.978 172.321 439.267 171.265 441.38 175.489C443.598 180.03 439.161 185.099 437.999 183.304C436.943 181.508 441.485 180.241 440.006 176.756Z" fill="#EEEFF1" stroke="#1F2533" stroke-miterlimit="10"/>
    <path d="M405.251 189.534C414.336 190.801 428.808 190.062 433.456 182.776C437.47 176.545 436.414 159.648 428.069 155.952C421.096 152.89 414.336 152.995 406.941 155.002C400.391 156.692 392.785 159.86 393.102 172.321C393.314 180.98 398.596 188.689 405.251 189.534Z" fill="#EEEFF1" stroke="#1F2533" stroke-miterlimit="10"/>
    <path d="M432.4 175.595C431.344 174.222 426.59 173.06 424.161 176.228C421.625 179.396 422.787 182.881 424.372 184.043C425.534 184.888 428.914 185.732 431.45 182.987C434.196 180.135 433.457 176.862 432.4 175.595Z" fill="#F0F0F0" stroke="#283046" stroke-miterlimit="10"/>
    <path d="M436.837 177.073C435.78 175.7 431.026 174.538 428.597 177.707C426.061 180.875 427.223 184.36 428.808 185.521C429.97 186.366 433.35 187.211 435.886 184.465C438.527 181.614 437.787 178.446 436.837 177.073Z" fill="#F0F0F0" stroke="#283046" stroke-miterlimit="10"/>
    <path d="M442.436 178.974C441.591 177.495 437.048 175.7 434.09 178.446C431.132 181.297 431.766 184.782 433.245 186.155C434.301 187.105 437.471 188.478 440.429 186.049C443.492 183.726 443.281 180.452 442.436 178.974Z" fill="#F0F0F0" stroke="#283046" stroke-miterlimit="10"/>
    <path d="M448.351 181.192C447.612 179.608 443.281 177.39 440.112 179.924C436.942 182.459 437.259 186.049 438.527 187.528C439.478 188.584 442.541 190.273 445.71 188.161C448.985 185.944 448.985 182.67 448.351 181.192Z" fill="#F0F0F0" stroke="#283046" stroke-miterlimit="10"/>
    <path d="M454.056 183.409C453.316 181.825 448.985 179.608 445.816 182.142C442.647 184.677 442.964 188.267 444.231 189.745C445.182 190.802 448.245 192.491 451.415 190.379C454.689 188.267 454.795 184.888 454.056 183.409Z" fill="#F0F0F0" stroke="#283046" stroke-miterlimit="10"/>
    <path d="M459.021 189.112C459.127 187.422 456.38 183.409 452.366 184.148C448.352 184.888 446.978 188.161 447.401 190.168C447.718 191.541 449.725 194.497 453.422 194.075C457.331 193.547 458.915 190.696 459.021 189.112Z" fill="#F0F0F0" stroke="#283046" stroke-miterlimit="10"/>
    <path d="M461.027 192.702C461.133 191.013 458.492 186.894 454.478 187.528C450.464 188.161 448.879 191.435 449.302 193.441C449.619 194.814 451.414 197.771 455.217 197.56C459.232 197.243 460.922 194.392 461.027 192.702Z" fill="#F0F0F0" stroke="#283046" stroke-miterlimit="10"/>
    <path d="M461.344 198.722C462.189 197.138 461.133 192.386 457.013 191.541C452.893 190.696 450.147 193.336 449.724 195.342C449.513 196.715 450.147 200.2 453.844 201.256C457.753 202.312 460.499 200.306 461.344 198.722Z" fill="#F0F0F0" stroke="#283046" stroke-miterlimit="10"/>
    <path d="M459.867 203.685C460.817 202.206 460.395 197.349 456.592 196.081C452.789 194.709 449.831 196.821 449.303 198.827C448.88 200.2 449.092 203.685 452.578 205.269C456.064 206.747 458.916 205.163 459.867 203.685Z" fill="#F0F0F0" stroke="#283046" stroke-miterlimit="10"/>
    <path d="M457.964 207.381C458.598 205.797 457.225 201.15 453.211 200.622C449.196 200.094 446.767 202.735 446.661 204.741C446.555 206.114 447.506 209.493 451.203 210.338C454.901 211.183 457.331 208.965 457.964 207.381Z" fill="#F0F0F0" stroke="#283046" stroke-miterlimit="10"/>
    <path d="M456.59 209.915C456.485 208.015 452.893 203.579 448.562 204.318C444.231 205.058 443.069 208.648 443.808 210.866C444.336 212.344 446.872 215.618 450.992 215.196C455.323 214.879 456.696 211.711 456.59 209.915Z" fill="#F0F0F0" stroke="#283046" stroke-miterlimit="10"/>
    <path d="M409.267 173.482C401.555 178.551 386.66 184.148 379.477 179.079C372.399 174.01 367.751 159.648 372.821 153.84C377.892 148.032 386.66 146.131 393.527 143.702C399.971 141.379 408.422 142.329 412.753 154.051C415.711 162.183 414.971 169.786 409.267 173.482Z" fill="#283046"/>
    <path d="M404.937 175.383C401.239 177.39 396.38 179.819 391.521 180.347C386.767 180.875 376.309 182.142 372.928 169.153C369.865 157.431 372.823 152.256 382.647 148.138C392.788 143.914 393.211 143.914 396.063 143.386C398.598 142.963 407.155 141.062 412.014 155.741C416.346 168.625 408.528 173.483 404.937 175.383Z" fill="#F0F0F0" stroke="#283046" stroke-miterlimit="10"/>
    <path d="M347.468 260.5C357.081 260.605 366.377 258.599 374.934 256.064C390.357 251.418 398.702 250.151 401.238 234.838C403.245 222.588 403.033 195.237 401.66 189.957C399.019 180.136 388.878 167.991 357.187 172.955C325.495 177.918 314.297 178.974 315.248 193.442C316.41 211.394 317.361 229.875 319.579 242.441C321.164 251.101 324.756 260.394 347.468 260.5Z" fill="#1F2533"/>
    <path d="M361.835 258.176C373.138 255.642 378.737 253.53 388.139 250.256C397.435 246.982 399.02 234.838 399.442 224.383C400.182 209.071 399.865 204.847 399.02 195.026C398.28 186.049 397.541 179.608 372.822 183.937C348.102 188.267 317.467 184.782 318.101 196.293C318.946 210.233 319.474 224.278 322.538 243.92C325.39 261.873 350.109 260.816 361.835 258.176Z" fill="#EEEFF1"/>
    <path d="M282.394 183.62C280.598 187.95 285.563 191.541 287.148 192.385C288.31 193.019 287.57 195.026 286.092 194.181C284.507 193.23 278.591 188.795 280.493 183.515C282.5 178.023 289.578 177.073 288.944 179.396C288.31 181.825 284.19 179.502 282.394 183.62Z" fill="#EEEFF1" stroke="#1F2533" stroke-miterlimit="10"/>
    <path d="M511.207 250.573L420.886 219.209L264.436 250.256L309.227 304.325L511.207 250.573Z" fill="#F0F0F0" stroke="#283046" stroke-miterlimit="10" stroke-linejoin="round"/>
    <path d="M299.191 200.517C308.276 201.784 322.748 201.045 327.396 193.758C331.41 187.528 330.354 170.631 322.009 166.935C315.036 163.873 308.276 163.978 300.881 165.985C294.331 167.674 286.725 170.842 287.042 183.304C287.359 191.963 292.535 199.567 299.191 200.517Z" fill="#EEEFF1" stroke="#1F2533" stroke-miterlimit="10"/>
    <path d="M333.944 269.476C332.571 276.551 345.67 276.34 345.67 276.34C345.67 276.34 354.966 275.179 356.762 272.855C357.607 271.799 357.713 270.532 356.656 270.004C354.755 268.948 350.212 269.159 348.311 269.054C348.311 269.054 342.29 261.556 340.811 263.985C338.592 267.575 334.472 266.942 333.944 269.476Z" fill="#1F2533"/>
    <path d="M346.938 274.439C346.727 273.066 347.889 270.638 348.523 270.426C349.157 270.215 356.974 268.842 357.08 271.271C357.08 273.594 346.938 274.439 346.938 274.439Z" fill="#EEEFF1"/>
    <path d="M345.989 274.334C345.566 274.862 341.446 274.757 338.594 273.595C335.636 272.434 333.84 270.216 334.474 269.054C335.108 267.893 337.96 268.209 340.707 265.253C341.341 264.513 342.08 264.302 343.136 264.936C343.77 265.358 346.834 267.998 347.256 268.526C347.785 269.265 347.573 269.688 346.939 271.589C346.411 273.49 346.411 273.701 345.989 274.334Z" fill="#EEEFF1"/>
    <path d="M343.772 242.336C349.371 240.224 357.505 247.721 357.505 247.721C357.505 247.721 363.527 255.642 362.787 258.493C362.365 259.866 360.991 261.344 359.829 261.027C357.928 260.499 355.498 255.959 354.019 254.48C351.167 251.629 345.991 255.219 341.976 248.566C338.913 243.497 341.976 243.075 343.772 242.336Z" fill="#1F2533"/>
    <path d="M357.82 249.411C357.081 250.995 356.235 253.213 354.862 253.53C354.228 253.636 358.665 261.345 360.883 259.655C363.736 257.543 357.82 249.411 357.82 249.411Z" fill="#EEEFF1" stroke="#1F2533" stroke-miterlimit="10"/>
    <path d="M356.974 248.147C356.658 247.513 354.439 244.979 351.481 243.5C348.523 242.022 342.819 242.444 340.601 243.289C339.65 243.711 341.129 249.625 346.411 251.843C347.678 252.371 353.066 252.899 353.911 253.216C354.756 253.532 355.073 253.427 356.235 251.737C357.291 250.576 357.397 248.991 356.974 248.147Z" fill="#EEEFF1" stroke="#1F2533" stroke-miterlimit="10"/>
    <path d="M339.544 268.948C339.333 270.004 345.143 270.321 350.742 270.743C353.7 270.954 358.031 271.799 360.249 271.588C362.573 271.377 364.792 268.42 363.313 267.047C360.249 263.984 347.573 258.387 346.199 259.338C344.298 260.605 344.615 261.978 343.242 264.09C341.868 266.202 339.755 267.575 339.544 268.948Z" fill="#1F2533"/>
    <path d="M362.784 269.265C364.158 267.259 359.932 265.675 357.925 264.513C355.812 263.351 354.439 261.662 353.383 264.935C352.326 268.209 350.53 270.004 350.742 270.743C350.953 271.483 356.763 272.222 359.404 272.116C362.045 272.011 362.151 270.215 362.784 269.265Z" fill="#EEEFF1" stroke="#1F2533" stroke-miterlimit="10"/>
    <path d="M349.897 270.425C350.636 270.108 351.27 269.158 352.009 266.835C352.643 264.511 353.277 263.667 353.7 263.033C354.122 262.399 353.066 261.766 350.531 260.921C347.995 259.971 345.671 257.858 344.932 260.604C344.192 263.35 341.234 266.94 340.072 267.996C338.91 269.052 339.544 270.003 342.925 270.32C346.305 270.425 348.312 271.059 349.897 270.425Z" fill="#EEEFF1" stroke="#1F2533" stroke-miterlimit="10"/>
    <path d="M300.457 249.728C303.309 235.577 316.726 232.409 332.677 233.571C346.621 234.521 353.276 241.174 348.417 258.176C343.769 274.334 335.424 278.663 324.331 276.34C313.134 273.911 297.499 264.09 300.457 249.728Z" fill="#1F2533"/>
    <path d="M328.557 276.235C329.825 276.129 342.396 278.453 347.361 259.233C352.326 240.013 343.347 236.211 340.072 235.367C335.952 234.311 304.578 229.136 300.986 248.989C296.76 272.011 328.557 276.235 328.557 276.235Z" fill="#EEEFF1" stroke="#1F2533" stroke-miterlimit="10"/>
    <path d="M317.253 239.273C319.472 234.521 330.353 235.471 328.134 239.273C325.388 244.025 315.88 242.124 317.253 239.273Z" fill="#EEEFF1" stroke="#1F2533" stroke-miterlimit="10"/>
    <path d="M307.536 253.952C305.951 254.164 301.62 252.58 301.937 248.25C302.254 243.498 305.846 242.758 308.592 243.286C309.965 243.498 311.339 245.399 311.233 249.095C311.127 252.896 309.12 253.636 307.536 253.952Z" fill="#EEEFF1" stroke="#1F2533" stroke-miterlimit="10"/>
    <path d="M301.831 251.946C300.246 251.629 296.443 248.567 298.028 244.448C299.718 240.118 303.415 240.646 305.951 242.019C307.218 242.758 304.789 243.075 303.627 246.666C302.465 250.362 303.521 252.263 301.831 251.946Z" fill="#EEEFF1" stroke="#1F2533" stroke-miterlimit="10"/>
    <path d="M297.184 248.989C295.599 248.461 291.902 244.765 293.909 240.857C296.127 236.739 299.824 237.689 302.36 239.59C303.627 240.54 300.986 240.541 299.508 243.92C297.923 247.405 298.874 249.517 297.184 248.989Z" fill="#EEEFF1" stroke="#1F2533" stroke-miterlimit="10"/>
    <path d="M292.852 246.032C291.162 245.293 287.676 240.963 290.105 237.161C292.746 233.043 296.549 234.521 299.085 236.739C300.352 237.901 297.606 237.584 295.704 240.963C293.697 244.448 294.542 246.771 292.852 246.032Z" fill="#EEEFF1" stroke="#1F2533" stroke-miterlimit="10"/>
    <path d="M288.944 242.653C287.148 240.752 284.507 236.633 287.676 232.832C291.056 228.819 294.226 230.931 296.127 233.571C297.183 234.944 294.12 233.676 291.69 236.95C289.261 240.224 290.211 244.025 288.944 242.653Z" fill="#EEEFF1" stroke="#1F2533" stroke-miterlimit="10"/>
    <path d="M285.88 238.957C284.295 236.739 281.866 231.459 285.563 227.974C289.472 224.278 292.535 227.657 294.12 230.614C294.965 232.092 291.901 229.769 289.049 232.726C286.091 236 287.042 240.541 285.88 238.957Z" fill="#EEEFF1" stroke="#1F2533" stroke-miterlimit="10"/>
    <path d="M282.818 233.36C281.656 230.825 280.072 225.228 284.086 222.483C288.312 219.631 290.847 223.539 291.903 226.812C292.431 228.502 289.896 225.545 286.727 227.974C283.558 230.403 283.663 235.155 282.818 233.36Z" fill="#EEEFF1" stroke="#1F2533" stroke-miterlimit="10"/>
    <path d="M280.599 226.707C279.965 223.961 279.648 217.942 283.979 216.146C288.627 214.351 290.212 218.892 290.529 222.377C290.74 224.172 288.839 220.582 285.352 222.166C281.866 223.855 281.021 228.608 280.599 226.707Z" fill="#EEEFF1" stroke="#1F2533" stroke-miterlimit="10"/>
    <path d="M280.07 219.314C280.07 216.358 281.126 210.338 285.669 209.81C290.422 209.282 290.951 214.14 290.528 217.73C290.317 219.526 289.366 215.513 285.669 216.146C281.866 216.886 280.07 221.321 280.07 219.314Z" fill="#EEEFF1" stroke="#1F2533" stroke-miterlimit="10"/>
    <path d="M280.915 212.556C281.338 209.599 283.134 203.685 287.571 203.896C292.324 204.107 292.113 209.071 291.268 212.661C290.845 214.457 290.423 210.232 286.726 210.338C282.923 210.444 280.599 214.668 280.915 212.556Z" fill="#EEEFF1" stroke="#1F2533" stroke-miterlimit="10"/>
    <path d="M282.606 205.586C283.134 202.84 285.035 198.088 289.366 198.827C294.014 199.566 293.486 204.319 292.535 207.698C292.007 209.388 291.796 205.269 288.31 204.952C284.507 204.635 282.183 207.592 282.606 205.586Z" fill="#EEEFF1" stroke="#1F2533" stroke-miterlimit="10"/>
    <path d="M283.768 201.045C284.296 198.299 286.198 192.808 290.634 193.653C295.388 194.603 295.071 199.355 294.226 202.629C293.698 204.319 293.381 200.095 289.684 199.672C285.986 199.25 283.451 203.052 283.768 201.045Z" fill="#EEEFF1" stroke="#1F2533" stroke-miterlimit="10"/>
    <path d="M285.352 195.554C285.986 192.808 288.31 187.422 292.641 188.689C297.29 189.957 296.761 194.814 295.599 197.983C294.966 199.672 294.966 195.448 291.374 194.709C287.571 193.864 284.93 197.455 285.352 195.554Z" fill="#EEEFF1" stroke="#1F2533" stroke-miterlimit="10"/>
    <path d="M287.148 190.062C287.993 187.422 290.74 182.248 294.965 183.937C299.508 185.627 298.557 190.379 297.184 193.547C296.444 195.131 296.761 190.907 293.169 189.851C289.578 188.689 286.514 191.963 287.148 190.062Z" fill="#EEEFF1" stroke="#1F2533" stroke-miterlimit="10"/>
    <path d="M452.789 208.543C464.303 216.357 460.606 229.241 451.838 242.864C444.232 254.691 434.936 258.071 421.837 247.51C409.371 237.372 409.477 228.502 417.083 219.631C424.583 210.76 441.063 200.622 452.789 208.543Z" fill="#283046"/>
    <path d="M414.969 223.327C414.441 224.489 422.47 213.084 437.576 224.595C452.682 236.105 444.231 251.101 446.661 248.461C449.619 245.187 469.479 219.631 453.21 209.177C434.301 197.032 414.969 223.327 414.969 223.327Z" fill="#F0F0F0" stroke="#283046" stroke-miterlimit="10"/>
    <path d="M415.287 222.799C417.928 219.842 427.541 217.097 438.105 225.967C448.668 234.732 447.084 247.299 443.915 250.151C441.062 252.791 431.661 256.064 419.829 244.87C408.103 233.571 413.491 224.806 415.287 222.799Z" fill="#F0F0F0" stroke="#283046" stroke-miterlimit="10"/>
    <path d="M423.421 241.596C414.758 233.676 414.125 227.446 415.075 223.961C413.279 226.284 409.054 233.993 420.357 244.342C432.189 255.114 441.274 252.262 444.126 249.834C444.337 249.622 444.443 249.517 444.654 249.306C440.64 250.678 433.139 250.362 423.421 241.596Z" fill="#F0F0F0" stroke="#283046" stroke-miterlimit="10"/>
    <path d="M418.562 225.334C412.646 221.743 406.941 233.676 406.941 233.676C406.941 233.676 403.878 242.441 405.251 244.765C405.885 245.821 407.047 246.349 407.998 245.609C409.794 244.237 411.695 240.118 412.54 238.428C412.54 238.428 422.153 235.577 420.569 233.359C418.139 230.191 420.674 226.706 418.562 225.334Z" fill="#283046"/>
    <path d="M408.525 235.471C410.849 235.999 414.441 238.323 414.441 238.956C414.441 239.59 412.117 247.088 407.997 245.926C403.983 244.659 408.525 235.471 408.525 235.471Z" fill="#F0F0F0" stroke="#283046" stroke-miterlimit="10"/>
    <path d="M408.63 234.627C408.313 234.099 410.215 230.403 412.645 228.186C415.074 225.968 417.926 225.017 418.772 226.074C419.617 227.13 417.926 229.453 419.511 232.938C419.934 233.783 419.722 234.416 418.666 235.261C418.032 235.789 414.123 237.584 413.49 237.795C412.645 238.007 412.222 237.69 410.743 236.528C409.264 235.367 408.947 235.155 408.63 234.627Z" fill="#F0F0F0" stroke="#283046" stroke-miterlimit="10"/>
    <path d="M437.681 210.232C437.787 213.717 429.759 216.991 429.97 214.034C430.181 210.338 437.576 208.12 437.681 210.232Z" fill="#F0F0F0" stroke="#283046" stroke-miterlimit="10"/>
    <path d="M444.231 243.921C445.498 248.99 437.892 256.382 437.892 256.382C437.892 256.382 430.075 261.768 427.645 261.029C426.483 260.712 425.321 259.339 425.744 258.283C426.483 256.594 430.815 254.376 432.294 253.003C435.146 250.363 432.505 245.717 438.949 242.126C443.808 239.486 443.808 242.232 444.231 243.921Z" fill="#283046"/>
    <path d="M436.309 256.592C434.936 255.853 433.034 255.219 432.929 253.952C432.823 253.424 425.428 257.332 426.696 259.444C428.28 261.872 436.309 256.592 436.309 256.592Z" fill="#F0F0F0" stroke="#283046" stroke-miterlimit="10"/>
    <path d="M437.575 255.853C438.103 255.536 440.744 253.635 442.434 250.89C444.125 248.25 444.441 242.969 443.913 241.069C443.702 240.224 438.103 241.491 435.568 246.349C434.934 247.51 433.878 252.368 433.455 253.213C433.033 253.952 433.138 254.269 434.511 255.325C435.357 256.064 436.624 256.275 437.575 255.853Z" fill="#F0F0F0" stroke="#283046" stroke-miterlimit="10"/>
    <path d="M430.498 225.65C429.442 225.228 427.541 232.198 424.055 237.478C422.153 240.329 420.04 244.025 419.301 246.56C418.561 249.2 422.259 252.368 424.371 251.206C429.125 248.566 439.055 237.372 438.527 235.577C437.788 233.148 436.097 233.148 434.407 231.142C432.717 229.135 431.977 226.178 430.498 225.65Z" fill="#283046"/>
    <path d="M422.893 239.062C420.147 244.659 419.302 248.249 421.52 249.833C423.738 251.417 425.006 248.883 430.077 244.236C430.605 243.708 434.408 241.28 436.415 238.745C438.422 236.211 439.901 235.577 439.795 232.409C439.69 228.185 435.57 224.805 432.929 224.383C431.239 224.066 430.288 224.066 429.02 227.973C427.541 232.726 424.689 235.471 422.893 239.062Z" fill="#F0F0F0" stroke="#283046" stroke-miterlimit="10"/>
    <path d="M422.47 146.659C400.708 139.373 376.834 137.894 360.249 137.894C343.664 137.894 320.423 140.112 298.873 147.398C287.147 151.411 284.929 152.679 282.288 159.226C279.753 165.773 277.534 169.364 282.922 170.103C290.211 171.054 292.112 170.842 302.571 170.948C309.754 171.054 302.993 181.403 303.627 194.392C304.261 207.381 311.127 210.655 323.276 210.655C334.473 210.655 352.854 200.623 360.143 199.989C367.538 200.623 385.813 210.655 397.011 210.655C409.159 210.655 416.026 207.487 416.66 194.392C417.294 181.403 410.533 171.054 417.716 170.948C428.174 170.842 430.076 171.054 437.365 170.103C442.752 169.364 444.865 165.034 439.583 158.487C433.456 150.672 434.196 150.672 422.47 146.659Z" fill="#EEEFF1" stroke="#1F2533" stroke-miterlimit="10"/>
    <path d="M408.948 208.648L367.433 198.51L364.686 159.965H361.834H361.094H358.242L355.496 197.771L311.656 208.648L322.325 212.344L361.411 206.536L400.603 212.344L408.948 208.648Z" fill="#EEEFF1" stroke="#1F2533" stroke-miterlimit="10"/>
    <path d="M361.199 221.532C370.417 221.532 377.89 214.062 377.89 204.847C377.89 195.632 370.417 188.161 361.199 188.161C351.981 188.161 344.508 195.632 344.508 204.847C344.508 214.062 351.981 221.532 361.199 221.532Z" fill="#EEEFF1" stroke="#1F2533" stroke-miterlimit="10"/>
    <path d="M361.2 222.06C369.776 222.06 376.729 215.11 376.729 206.536C376.729 197.963 369.776 191.012 361.2 191.012C352.623 191.012 345.671 197.963 345.671 206.536C345.671 215.11 352.623 222.06 361.2 222.06Z" fill="#EEEFF1" stroke="#1F2533" stroke-miterlimit="10"/>
    <path d="M398.913 148.454C401.342 155.319 384.123 168.202 359.51 168.202C334.262 168.202 317.254 155.002 318.522 149.194C320.212 141.907 338.593 138 359.51 138C380.426 138 396.06 140.323 398.913 148.454Z" fill="#1F2533"/>
    <path d="M362.784 197.349C367.221 198.088 370.602 201.89 370.602 206.536C370.602 207.487 370.496 208.437 370.179 209.282L372.926 210.866C373.454 209.493 373.665 208.12 373.665 206.536C373.665 200.2 368.911 194.92 362.679 194.181V197.349H362.784Z" fill="#1F2533"/>
    <path d="M352.326 209.176C352.115 208.332 351.904 207.381 351.904 206.431C351.904 201.784 355.284 197.982 359.721 197.243V194.075C353.594 194.814 348.734 200.095 348.734 206.431C348.734 207.909 349.051 209.388 349.474 210.76L352.326 209.176Z" fill="#1F2533"/>
    <path d="M368.807 211.922C367.117 214.245 364.37 215.829 361.201 215.829C358.032 215.829 355.285 214.245 353.595 211.922L350.849 213.506C353.067 216.78 356.87 218.997 361.201 218.997C365.532 218.997 369.23 216.885 371.554 213.506L368.807 211.922Z" fill="#1F2533"/>
    <path d="M318.205 148.56C318.205 148.56 332.466 170.103 366.904 165.668C395.11 162.077 399.335 147.926 399.335 147.926C399.335 147.926 396.906 98.0817 355.39 100.194C318.733 101.989 318.205 148.56 318.205 148.56Z" fill="#1F2533"/>
    <path d="M320.319 148.138C320.319 148.138 335.003 168.097 366.8 163.873C392.048 160.494 397.435 146.871 397.435 146.871C397.435 146.871 395.639 101.039 356.342 101.039C320.319 101.039 320.319 148.138 320.319 148.138Z" fill="#EEEFF1"/>
    <path d="M388.878 117.618C385.92 112.972 381.8 114.133 381.8 131.347C381.8 147.61 375.567 156.586 358.137 156.586C339.756 156.586 334.474 148.243 334.474 132.086C334.474 113.394 330.354 112.972 327.396 117.618" stroke="#1F2533" stroke-miterlimit="10"/>
    <path d="M359.024 141.19C365.638 141.19 371 135.932 371 129.446C371 122.96 365.638 117.702 359.024 117.702C352.41 117.702 347.048 122.96 347.048 129.446C347.048 135.932 352.41 141.19 359.024 141.19Z" fill="#1F2533"/>
    <path d="M350.13 124.543C350.358 123.859 350.586 123.061 351.043 122.491C350.472 123.061 350.016 123.745 349.673 124.429L350.13 124.543Z" fill="#EEEFF1"/>
    <path d="M368.265 128.078C368.265 128.42 368.151 128.762 368.151 129.105L369.748 129.447C369.748 128.99 369.748 128.534 369.634 128.078H368.265Z" fill="#EEEFF1"/>
    <path d="M367.922 129.902C367.808 130.244 367.694 130.472 367.58 130.814L369.519 131.726C369.634 131.27 369.634 130.814 369.748 130.358L367.922 129.902Z" fill="#EEEFF1"/>
    <path d="M368.493 124.885C368.15 124.087 367.58 123.403 367.009 122.719C367.466 123.403 367.694 124.201 367.922 124.999L368.493 124.885Z" fill="#EEEFF1"/>
    <path d="M367.123 131.612C366.895 131.954 366.667 132.296 366.439 132.638L368.606 134.235C368.834 133.665 369.062 133.095 369.29 132.524L367.123 131.612Z" fill="#EEEFF1"/>
    <path d="M363.017 135.375C362.675 135.603 362.218 135.717 361.762 135.831L362.789 139.479C363.473 139.251 364.157 138.909 364.728 138.567L363.017 135.375Z" fill="#EEEFF1"/>
    <path d="M360.965 136.059C360.737 136.059 360.509 136.173 360.167 136.173L360.509 139.936C360.965 139.822 361.536 139.822 361.992 139.708L360.965 136.059Z" fill="#EEEFF1"/>
    <path d="M364.499 134.577C364.271 134.691 364.043 134.919 363.815 135.033L365.526 137.997C365.982 137.655 366.324 137.313 366.666 136.971L364.499 134.577Z" fill="#EEEFF1"/>
    <path d="M365.982 133.208C365.754 133.551 365.412 133.779 365.184 134.007L367.237 136.401C367.693 135.945 368.035 135.489 368.377 134.919L365.982 133.208Z" fill="#EEEFF1"/>
    <path d="M369.406 127.28C369.292 126.709 369.064 126.139 368.836 125.683L368.151 125.911C368.265 126.367 368.265 126.823 368.265 127.394L369.406 127.28Z" fill="#EEEFF1"/>
    <path d="M357.658 136.173C357.43 136.173 357.202 136.059 356.974 136.059L355.833 139.594C356.289 139.708 356.745 139.822 357.202 139.936L357.658 136.173Z" fill="#EEEFF1"/>
    <path d="M354.577 135.033C354.235 134.919 354.007 134.691 353.779 134.463L351.612 136.971C352.068 137.313 352.41 137.769 352.98 138.111L354.577 135.033Z" fill="#EEEFF1"/>
    <path d="M356.173 135.717C355.945 135.603 355.603 135.489 355.375 135.375L353.664 138.453C354.12 138.681 354.576 138.909 355.147 139.137L356.173 135.717Z" fill="#EEEFF1"/>
    <path d="M359.369 136.287C359.141 136.287 358.912 136.287 358.684 136.287C358.57 136.287 358.57 136.287 358.456 136.287L358 140.049C358.228 140.049 358.342 140.049 358.57 140.163C358.912 140.163 359.255 140.163 359.597 140.163L359.369 136.287Z" fill="#EEEFF1"/>
    <path d="M353.094 134.007C352.638 133.665 352.181 133.209 351.839 132.752L349.558 134.235C350.014 135.033 350.471 135.717 351.041 136.401L353.094 134.007Z" fill="#EEEFF1"/>
    <path d="M349.788 126.026C349.788 125.798 349.788 125.57 349.902 125.341L349.218 125.113C349.104 125.341 348.99 125.57 348.875 125.912L349.788 126.026Z" fill="#EEEFF1"/>
    <path d="M349.789 127.394C349.789 127.166 349.789 127.052 349.789 126.824L348.762 126.709C348.647 126.938 348.647 127.166 348.647 127.508L349.789 127.394Z" fill="#EEEFF1"/>
    <path d="M349.788 128.306H348.305C348.305 128.534 348.305 128.762 348.305 128.99C348.305 129.56 348.305 130.13 348.419 130.7L350.245 130.13C350.13 129.446 349.902 128.876 349.788 128.306Z" fill="#EEEFF1"/>
    <path d="M351.27 132.068C351.041 131.612 350.813 131.27 350.585 130.814L348.532 131.498C348.646 132.182 348.874 132.866 349.103 133.436L351.27 132.068Z" fill="#EEEFF1"/>
    <path d="M362.56 121.806C360.964 121.008 355.831 121.692 357.2 122.149C361.762 123.859 361.99 127.507 361.762 130.472C361.648 132.296 365.412 130.472 365.64 128.99C366.324 126.139 365.982 123.631 362.56 121.806Z" fill="#EEEFF1"/>
    <path d="M351.952 124.201C351.952 124.201 355.146 127.052 356.857 131.27C357.199 132.182 356.857 134.007 354.804 132.524C351.838 130.358 351.952 124.201 351.952 124.201Z" fill="#EEEFF1"/>
    <path d="M415.498 248.144C409.688 244.765 400.287 244.765 394.476 248.144C388.666 251.523 388.772 256.909 394.582 260.288C400.392 263.668 409.794 263.668 415.604 260.288C421.309 257.015 421.309 251.523 415.498 248.144Z" stroke="#283046" stroke-miterlimit="10"/>
    <path d="M416.449 246.772C416.449 246.877 416.449 246.983 416.449 247.089C416.449 247.194 416.449 247.3 416.343 247.405C416.343 247.511 416.237 247.617 416.237 247.722C416.237 247.828 416.132 247.933 416.132 248.039C416.132 248.145 416.026 248.25 415.921 248.356C415.921 248.461 415.815 248.567 415.815 248.567C415.709 248.673 415.604 248.884 415.498 248.989C415.392 249.095 415.392 249.095 415.287 249.201C415.181 249.412 414.97 249.517 414.758 249.729C414.653 249.834 414.653 249.834 414.547 249.94C414.442 250.045 414.336 250.151 414.23 250.257C414.125 250.362 414.019 250.468 413.913 250.468C413.808 250.573 413.596 250.679 413.491 250.785C413.385 250.89 413.174 250.996 413.068 251.101C412.751 251.313 412.329 251.524 412.012 251.629C411.906 251.629 411.801 251.735 411.695 251.735C411.378 251.841 411.061 251.946 410.85 252.052C410.744 252.052 410.639 252.157 410.533 252.157C410.322 252.263 410.11 252.263 409.899 252.369C409.794 252.369 409.582 252.474 409.477 252.474C409.265 252.474 409.054 252.58 408.843 252.58C408.737 252.58 408.526 252.685 408.42 252.685C407.998 252.791 407.575 252.791 407.153 252.897C407.047 252.897 406.836 252.897 406.73 252.897C406.519 252.897 406.202 252.897 405.991 252.897C405.779 252.897 405.674 252.897 405.462 252.897C405.251 252.897 405.04 252.897 404.829 252.897C404.617 252.897 404.512 252.897 404.3 252.897C404.089 252.897 403.878 252.897 403.772 252.897C403.561 252.897 403.455 252.897 403.244 252.897C403.033 252.897 402.821 252.897 402.716 252.791C402.504 252.791 402.399 252.791 402.188 252.685C401.976 252.685 401.765 252.58 401.554 252.58C401.342 252.58 401.237 252.474 401.131 252.474C400.92 252.474 400.709 252.369 400.392 252.263C400.286 252.263 400.18 252.157 399.969 252.157C399.547 252.052 399.124 251.946 398.702 251.735C398.49 251.629 398.279 251.524 398.173 251.524C398.068 251.524 397.962 251.418 397.856 251.418C397.539 251.313 397.328 251.101 397.011 250.996C394.793 249.729 393.631 248.039 393.631 246.349V253.741C393.631 255.431 394.793 257.121 397.011 258.388C397.328 258.494 397.539 258.705 397.856 258.81C397.962 258.81 398.068 258.916 398.173 258.916C398.385 259.022 398.49 259.022 398.702 259.127C398.702 259.127 398.702 259.127 398.807 259.127C399.23 259.233 399.652 259.444 400.075 259.55H400.18C400.286 259.55 400.392 259.55 400.497 259.655C400.709 259.761 400.92 259.761 401.237 259.866C401.342 259.866 401.342 259.866 401.448 259.866C401.554 259.866 401.659 259.866 401.765 259.866C401.976 259.866 402.188 259.972 402.399 259.972C402.504 259.972 402.61 259.972 402.61 259.972C402.716 259.972 402.821 259.972 402.821 259.972C403.033 259.972 403.244 259.972 403.35 260.078C403.455 260.078 403.561 260.078 403.666 260.078C403.772 260.078 403.878 260.078 403.878 260.078C404.089 260.078 404.3 260.078 404.406 260.078C404.512 260.078 404.617 260.078 404.723 260.078C404.829 260.078 404.829 260.078 404.934 260.078C405.145 260.078 405.357 260.078 405.568 260.078C405.674 260.078 405.779 260.078 405.885 260.078C405.991 260.078 405.991 260.078 406.096 260.078C406.307 260.078 406.624 260.078 406.836 260.078C406.941 260.078 407.047 260.078 407.153 260.078H407.258C407.681 260.078 408.103 259.972 408.526 259.866C408.526 259.866 408.526 259.866 408.631 259.866C408.737 259.866 408.843 259.866 408.948 259.761C409.16 259.761 409.371 259.655 409.582 259.655C409.688 259.655 409.899 259.55 410.005 259.55C410.216 259.444 410.427 259.444 410.639 259.338H410.744C410.85 259.338 410.85 259.338 410.956 259.233C411.272 259.127 411.589 259.022 411.801 258.916C411.906 258.916 412.012 258.81 412.118 258.81C412.54 258.599 412.857 258.494 413.174 258.282L413.28 258.177C413.385 258.071 413.491 258.071 413.596 257.966C413.702 257.86 413.913 257.754 414.019 257.649C414.125 257.543 414.23 257.438 414.336 257.438C414.442 257.332 414.547 257.226 414.653 257.121C414.653 257.121 414.653 257.121 414.758 257.015L414.864 256.91C415.075 256.698 415.181 256.593 415.392 256.382L415.498 256.276C415.498 256.276 415.498 256.17 415.604 256.17C415.709 256.065 415.815 255.959 415.921 255.748C415.921 255.642 416.026 255.642 416.026 255.537V255.431C416.132 255.326 416.132 255.22 416.237 255.114C416.237 255.009 416.343 255.009 416.343 254.903C416.343 254.903 416.343 254.903 416.343 254.798C416.343 254.692 416.449 254.586 416.449 254.481C416.449 254.375 416.449 254.375 416.554 254.27C416.554 254.27 416.554 254.27 416.554 254.164C416.554 254.058 416.554 253.953 416.554 253.847C416.554 253.742 416.554 253.742 416.554 253.636V253.53V246.138C416.449 246.56 416.449 246.666 416.449 246.772Z" fill="#EEEFF1" stroke="#1F2533" stroke-miterlimit="10"/>
    <path d="M413.069 241.702C417.505 244.237 417.611 248.461 413.069 250.995C408.632 253.53 401.448 253.53 396.906 250.995C392.364 248.461 392.364 244.237 396.8 241.702C401.448 239.168 408.632 239.168 413.069 241.702Z" fill="#EEEFF1" stroke="#1F2533" stroke-miterlimit="10"/>
    <path d="M259.26 55.3126V382.366L385.286 437.068V77.9117L259.26 55.3126ZM376.096 278.241L267.816 249.517V68.7242L376.096 89.7392V278.241Z" fill="#EEEFF1" stroke="#1F2533" stroke-miterlimit="10" stroke-linejoin="round"/>
    <path d="M385.179 77.9117V437.068L511.206 382.366V55.3126L385.179 77.9117ZM394.37 89.7392L502.649 68.7242V249.411L394.37 278.135V89.7392Z" fill="#F0F0F0" stroke="#283046" stroke-miterlimit="10" stroke-linejoin="round"/>
    <path d="M227.462 474.029L275.316 494.516C276.478 494.939 277.746 494.939 278.908 494.305L313.557 477.409C314.402 476.986 314.297 475.825 313.452 475.508L261.372 456.182L227.462 472.129C226.511 472.551 226.617 473.713 227.462 474.029Z" fill="#EEEFF1" stroke="#1F2533" stroke-miterlimit="10" stroke-linejoin="round"/>
    <path d="M234.963 472.446V305.17L277.746 313.935V489.764L234.963 472.446Z" fill="#EEEFF1" stroke="#1F2533" stroke-miterlimit="10" stroke-linejoin="round"/>
    <path d="M306.057 475.825L304.895 305.17L277.746 313.935V489.764L306.057 475.825Z" fill="#EEEFF1" stroke="#1F2533" stroke-miterlimit="10" stroke-linejoin="round"/>
    <path d="M234.963 305.17L277.746 315.096L304.895 305.17L263.591 294.715L234.963 305.17Z" fill="#EEEFF1" stroke="#1F2533" stroke-miterlimit="10" stroke-linejoin="round"/>
    <path d="M291.267 329.142V349.84L612.724 469.911L613.886 446.678L291.267 329.142Z" fill="#EEEFF1" stroke="#1F2533" stroke-miterlimit="10" stroke-linejoin="round"/>
    <path d="M620.858 441.187L619.801 464.948L612.724 469.911L613.886 446.678L620.858 441.187Z" fill="#EEEFF1" stroke="#1F2533" stroke-miterlimit="10" stroke-linejoin="round"/>
    <path d="M291.267 329.142L298.662 326.819L621.069 441.293L613.886 446.678L291.267 329.142Z" fill="#EEEFF1" stroke="#1F2533" stroke-miterlimit="10" stroke-linejoin="round"/>
    <path d="M311.867 340.125L303.311 350.685L312.184 354.064L320.952 343.187L311.867 340.125Z" fill="#1F2533"/>
    <path d="M329.614 346.355L320.952 356.81L329.72 360.4L338.699 349.629L329.614 346.355Z" fill="#1F2533"/>
    <path d="M347.995 353.43L339.438 363.991L348.312 367.37L357.08 356.493L347.995 353.43Z" fill="#1F2533"/>
    <path d="M365.742 359.767L356.974 370.116L365.848 373.706L374.827 363.041L365.742 359.767Z" fill="#1F2533"/>
    <path d="M383.384 366.736L374.827 377.297L383.701 380.676L392.574 369.799L383.384 366.736Z" fill="#1F2533"/>
    <path d="M401.237 373.073L392.469 383.527L401.237 387.012L410.322 376.346L401.237 373.073Z" fill="#1F2533"/>
    <path d="M419.512 380.042L410.956 390.603L419.829 394.088L428.597 383.211L419.512 380.042Z" fill="#1F2533"/>
    <path d="M437.259 386.379L428.597 396.833L437.365 400.424L446.344 389.652L437.259 386.379Z" fill="#1F2533"/>
    <path d="M455.429 393.349L446.873 403.909L455.746 407.394L464.514 396.517L455.429 393.349Z" fill="#1F2533"/>
    <path d="M473.177 399.685L464.514 410.14L473.282 413.73L482.261 402.959L473.177 399.685Z" fill="#1F2533"/>
    <path d="M491.557 406.655L483 417.32L491.874 420.7L500.642 409.823L491.557 406.655Z" fill="#1F2533"/>
    <path d="M509.304 412.991L500.642 423.445L509.41 427.036L518.389 416.264L509.304 412.991Z" fill="#1F2533"/>
    <path d="M526.946 420.066L518.39 430.627L527.263 434.006L536.137 423.129L526.946 420.066Z" fill="#1F2533"/>
    <path d="M544.798 426.297L536.03 436.751L544.904 440.342L553.883 429.57L544.798 426.297Z" fill="#1F2533"/>
    <path d="M563.075 433.372L554.518 443.933L563.392 447.312L572.16 436.435L563.075 433.372Z" fill="#1F2533"/>
    <path d="M580.927 439.708L572.159 450.057L580.927 453.648L589.906 442.982L580.927 439.708Z" fill="#1F2533"/>
    <path d="M598.674 446.044L589.906 456.394L598.779 459.984L607.759 449.318L598.674 446.044Z" fill="#1F2533"/>
    <path d="M259.26 55.3125L385.18 77.9116L511.207 55.3125L373.983 40L259.26 55.3125Z" fill="#F0F0F0" stroke="#283046" stroke-miterlimit="10" stroke-linejoin="round"/>
    <path d="M433.782 75.2777L451.439 95.776L415.669 92.929L393 72.7724L433.782 75.2777Z" fill="#EEEFF1" stroke="#1F2533" stroke-miterlimit="10" stroke-linejoin="round"/>
    <path d="M450.754 94.0677L433.781 75.2777L402.454 73.3417L419.541 91.3346L450.754 94.0677Z" fill="#1F2533"/>
    <path d="M433.782 75.2776L480.943 41L492.335 45.4413L445.629 88.9431L433.782 75.2776Z" fill="#EEEFF1" stroke="#1F2533" stroke-miterlimit="10" stroke-linejoin="round"/>
    <path d="M451.44 95.7758L445.63 88.9431L492.336 45.4413V56.032L451.44 95.7758Z" fill="#EEEFF1" stroke="#1F2533" stroke-miterlimit="10" stroke-linejoin="round"/>
    <path d="M393 72.7723L433.783 75.2776L480.944 41.0001H455.427L393 72.7723Z" fill="#EEEFF1" stroke="#1F2533" stroke-miterlimit="10" stroke-linejoin="round"/>
</svg>
