<svg width="680" height="600" viewBox="0 0 680 600" fill="none" xmlns="http://www.w3.org/2000/svg">
<path d="M373.508 241.598L69.1179 325.187V331.508L373.508 248.205V241.598Z" fill="#F0F0F0" stroke="#283046" stroke-miterlimit="10" stroke-linejoin="round"/>
<path d="M69.118 331.509L36.9998 304.54V299.487L69.118 325.187V331.509Z" fill="#F0F0F0" stroke="#283046" stroke-miterlimit="10" stroke-linejoin="round"/>
<path d="M36.9998 299.487L335.222 224.701L373.508 241.598L69.118 325.187L36.9998 299.487Z" fill="#F0F0F0" stroke="#283046" stroke-miterlimit="10" stroke-linejoin="round"/>
<path d="M157.977 277.566L148.818 279.257L152.332 293.712L167.641 290.625L157.977 277.566Z" fill="#F0F0F0" stroke="#283046" stroke-miterlimit="10" stroke-linejoin="round"/>
<path d="M152.332 293.712L135.275 278.413L142.048 273.633L148.819 279.257L152.332 293.712Z" fill="#F0F0F0" stroke="#283046" stroke-miterlimit="10" stroke-linejoin="round"/>
<path d="M157.977 277.566L148.818 279.257L142.047 273.633L150.139 271.062L157.977 277.566Z" fill="#F0F0F0" stroke="#283046" stroke-miterlimit="10" stroke-linejoin="round"/>
<path d="M167.64 290.625V293.389L152.012 297.001L152.331 293.712L167.64 290.625Z" fill="#F0F0F0" stroke="#283046" stroke-miterlimit="10" stroke-linejoin="round"/>
<path d="M152.012 297.001L135.168 281.007L135.275 278.413L152.331 293.712L152.012 297.001Z" fill="#F0F0F0" stroke="#283046" stroke-miterlimit="10" stroke-linejoin="round"/>
<path d="M146.286 237.047C146.986 236.92 151.676 235.622 154.332 237.351C157.721 239.557 160.603 242.643 157.409 252.911C154.651 261.776 154.651 261.776 154.651 261.776L149.215 262.776L146.286 237.047Z" fill="#F0F0F0" stroke="#283046" stroke-miterlimit="10" stroke-linejoin="round"/>
<path d="M147.732 261.994C147.732 261.994 152.878 248.059 152.222 244.381C151.565 240.703 147.885 235.109 143.963 238.65C140.04 242.189 138.109 251.473 138.109 251.473L147.732 261.994Z" fill="#283046"/>
<path d="M151.404 281.772C151.184 280.191 146.148 235.838 146.148 235.838C146.148 235.838 146.179 208.347 120.582 210.873C95.1094 213.386 103.33 242.972 103.33 242.972L108.998 287.068C110.107 288.763 116.591 299.1 132.981 296.903C146.41 295.104 151.404 281.772 151.404 281.772Z" fill="#283046"/>
<path d="M151.404 281.772L145.602 292.094C145.602 292.094 141.483 295.945 135.884 297.483C127.367 299.822 115.686 296.201 115.686 296.201L108.999 287.069C108.999 287.069 115.313 292.844 130.841 290.581C146.774 288.258 151.404 281.772 151.404 281.772Z" fill="#F0F0F0" stroke="#283046" stroke-miterlimit="10" stroke-linejoin="round"/>
<path d="M145.708 232.163C145.708 232.163 144.856 209.683 120.583 210.871C96.309 212.061 102.484 237.783 102.484 237.783C102.484 237.783 110.298 240.945 125.981 239.32C142.869 237.571 145.708 232.163 145.708 232.163Z" fill="#F0F0F0" stroke="#283046" stroke-miterlimit="10" stroke-linejoin="round"/>
<path d="M146.149 235.839L145.709 232.164C145.709 232.164 141.845 238.555 127.368 239.622C108.286 241.027 102.484 237.785 102.484 237.785L103.331 242.972C103.331 242.972 112.758 247.106 129.314 244.809C144.919 242.644 146.149 235.839 146.149 235.839Z" fill="#F0F0F0" stroke="#283046" stroke-miterlimit="10" stroke-linejoin="round"/>
<path d="M105.808 286.438L96.6494 288.129V305.827L112.279 302.74L105.808 286.438Z" fill="#F0F0F0" stroke="#283046" stroke-miterlimit="10" stroke-linejoin="round"/>
<path d="M96.6488 305.827L86.3005 287.286L91.4742 280.884L96.6488 288.128V305.827Z" fill="#F0F0F0" stroke="#283046" stroke-miterlimit="10" stroke-linejoin="round"/>
<path d="M105.808 286.438L96.6493 288.128L91.4746 280.884L101.164 279.934L105.808 286.438Z" fill="#F0F0F0" stroke="#283046" stroke-miterlimit="10" stroke-linejoin="round"/>
<path d="M112.279 302.74V305.503L96.6494 309.116V305.827L112.279 302.74Z" fill="#F0F0F0" stroke="#283046" stroke-miterlimit="10" stroke-linejoin="round"/>
<path d="M96.6495 309.116L85.8752 288.907L86.3012 287.286L96.6495 305.827V309.116Z" fill="#F0F0F0" stroke="#283046" stroke-miterlimit="10" stroke-linejoin="round"/>
<path d="M104.497 268.768L103.331 285.771L97.1599 286.744L97.7989 267.14L104.497 268.768Z" fill="#F0F0F0" stroke="#283046" stroke-miterlimit="10" stroke-linejoin="round"/>
<path d="M97.16 286.744L93.54 281.448L95.031 260.373L98.7575 265.519L97.16 286.744Z" fill="#F0F0F0" stroke="#283046" stroke-miterlimit="10" stroke-linejoin="round"/>
<path d="M113.894 246.051C117.96 246.421 123.809 246.472 130.058 245.349C147.548 242.208 146.149 235.839 146.149 235.839C146.149 235.839 151.184 279.219 151.405 280.799C151.405 280.799 146.56 285.986 133.301 288.797C128.26 289.866 123.543 289.871 119.627 289.468L113.894 246.051Z" fill="#F0F0F0" stroke="#283046" stroke-miterlimit="10" stroke-linejoin="round"/>
<path d="M139.823 296.042L142.303 286.313L138.968 287.382L138.108 296.591L139.823 296.042Z" fill="#283046"/>
<path d="M129.214 298.198C128.993 297.444 127.928 289.715 127.928 289.715L123.027 289.694L126.12 298.13L129.214 298.198Z" fill="#283046"/>
<path d="M113.322 245.346L118.919 289.39C112.932 288.683 108.999 286.42 108.999 286.42L103.331 242.972C103.331 242.972 106.771 244.672 113.322 245.346Z" fill="#F0F0F0" stroke="#283046" stroke-miterlimit="10" stroke-linejoin="round"/>
<path d="M107.408 269.721L110.618 260.373C110.618 260.373 113.282 251.423 107.275 246.478C101.67 241.864 95.4382 245.426 94.7125 249.295C93.8825 253.721 91.9446 259.832 91.9446 259.832L100.355 271.181L107.408 269.721Z" fill="#F0F0F0" stroke="#283046" stroke-miterlimit="10" stroke-linejoin="round"/>
<path d="M100.354 271.18C100.354 271.18 104.168 261.994 104.177 255.617C104.187 249.24 98.5746 243.904 96.0729 246.983C93.5723 250.062 91.9424 259.831 91.9424 259.831L100.354 271.18Z" fill="#F0F0F0" stroke="#283046" stroke-miterlimit="10" stroke-linejoin="round"/>
<path d="M114.738 224.28C116.592 224.738 122.338 225.916 128.946 224.851C133.953 224.046 137.052 222.096 138.57 220.878C139.059 221.71 139.498 222.549 139.864 223.386C140.259 224.293 140.609 225.194 140.919 226.076C140.53 226.382 140.086 226.707 139.581 227.039C136.736 228.91 133.359 230.17 129.541 230.785C127.374 231.134 125.296 231.266 123.389 231.266C119.231 231.266 115.887 230.634 114.198 230.239C114.346 228.22 114.525 226.173 114.738 224.28Z" fill="#283046"/>
<path d="M128.485 250.549C126.085 250.779 125.721 251.841 126.219 255.676C126.717 259.512 127.2 265.522 127.682 268.464C128.163 271.405 127.768 273.124 131.8 272.934C136.267 272.723 141.84 271.249 144.536 269.857C146.968 268.601 146.689 267.712 146.461 265.959C146.234 264.206 144.753 252.336 144.443 249.811C144.134 247.287 142.974 246.944 140.081 247.806C135.5 249.171 132.533 250.161 128.485 250.549Z" fill="#283046"/>
<path d="M130.402 252.69C129.23 252.911 129.188 253.727 129.51 255.777C129.832 257.827 130.57 264.088 130.851 266.169C131.13 268.25 131.458 268.21 132.401 268.077C133.344 267.943 135.002 267.631 135.807 267.433C136.612 267.236 136.754 266.76 136.577 265.401C136.4 264.043 135.2 254.522 135 253.268C134.801 252.014 134.447 251.992 133.573 252.09C132.701 252.188 130.402 252.69 130.402 252.69Z" fill="#F0F0F0" stroke="#283046" stroke-miterlimit="10"/>
<path d="M138.472 251.136C137.2 251.293 137.317 252.192 137.513 253.705C137.709 255.217 138.118 258.217 138.26 259.448C138.401 260.678 138.722 261.157 139.749 260.963C140.776 260.769 142.161 260.485 143.065 260.337C143.969 260.188 144.137 259.64 143.834 257.878C143.532 256.116 143.22 252.963 143.05 251.749C142.88 250.535 142.66 250.404 141.03 250.652C139.4 250.9 138.472 251.136 138.472 251.136Z" fill="#F0F0F0" stroke="#283046" stroke-miterlimit="10"/>
<path d="M366.508 156.44L56.7703 238.254V244.576L366.508 163.047V156.44Z" fill="#F0F0F0" stroke="#283046" stroke-miterlimit="10" stroke-linejoin="round"/>
<path d="M56.7702 244.576L30 222.994V217.942L56.7702 238.255V244.576Z" fill="#F0F0F0" stroke="#283046" stroke-miterlimit="10" stroke-linejoin="round"/>
<path d="M30 217.942L324.685 144.929L366.508 156.44L56.7702 238.254L30 217.942Z" fill="#F0F0F0" stroke="#283046" stroke-miterlimit="10" stroke-linejoin="round"/>
<path d="M219.715 168.892L212.325 171.48L215.838 182.346L229.379 177.462L219.715 168.892Z" fill="#F0F0F0" stroke="#283046" stroke-miterlimit="10" stroke-linejoin="round"/>
<path d="M215.839 182.346L197.014 169.739L203.786 166.754L212.325 171.48L215.839 182.346Z" fill="#F0F0F0" stroke="#283046" stroke-miterlimit="10" stroke-linejoin="round"/>
<path d="M219.715 168.892L212.325 171.479L203.785 166.754L211.877 164.183L219.715 168.892Z" fill="#F0F0F0" stroke="#283046" stroke-miterlimit="10" stroke-linejoin="round"/>
<path d="M229.379 177.462V180.226L215.519 185.634L215.838 182.346L229.379 177.462Z" fill="#F0F0F0" stroke="#283046" stroke-miterlimit="10" stroke-linejoin="round"/>
<path d="M215.519 185.634L196.907 172.333L197.014 169.739L215.838 182.346L215.519 185.634Z" fill="#F0F0F0" stroke="#283046" stroke-miterlimit="10" stroke-linejoin="round"/>
<path d="M213.837 141.417L214.258 166.498L208.599 168.537L207.534 139.976L213.837 141.417Z" fill="#F0F0F0" stroke="#283046" stroke-miterlimit="10" stroke-linejoin="round"/>
<path d="M208.599 167.639L205.581 165.126L205.467 138.656L208.622 141.914L208.599 167.639Z" fill="#F0F0F0" stroke="#283046" stroke-miterlimit="10" stroke-linejoin="round"/>
<path d="M202.342 127.937C202.964 127.587 206.99 124.824 210.055 125.592C213.964 126.57 217.673 128.548 217.911 139.312C218.116 148.607 218.116 148.607 218.116 148.607L211.635 151.078L198.27 143.796L202.342 127.937Z" fill="#F0F0F0" stroke="#283046" stroke-miterlimit="10" stroke-linejoin="round"/>
<path d="M211.588 151.078C211.588 151.078 212.063 135.169 210.148 131.676C208.233 128.182 202.608 123.809 199.839 128.765C197.071 133.721 198.271 143.795 198.271 143.795L211.588 151.078Z" fill="#283046"/>
<path d="M212.238 171.281C212.018 169.701 206.982 125.348 206.982 125.348C206.982 125.348 207.013 97.8562 181.416 100.382C155.943 102.895 164.164 132.481 164.164 132.481L169.832 176.578C170.941 178.272 177.425 188.609 193.814 186.413C207.244 184.613 212.238 171.281 212.238 171.281Z" fill="#283046"/>
<path d="M212.238 171.281L206.436 181.603C206.436 181.603 202.317 185.454 196.718 186.992C188.201 189.331 176.52 185.71 176.52 185.71L169.833 176.578C169.833 176.578 176.147 182.353 191.675 180.09C207.606 177.767 212.238 171.281 212.238 171.281Z" fill="#F0F0F0" stroke="#283046" stroke-miterlimit="10" stroke-linejoin="round"/>
<path d="M206.542 121.673C206.542 121.673 205.69 99.1925 181.417 100.381C157.143 101.57 163.318 127.292 163.318 127.292C163.318 127.292 171.132 130.454 186.815 128.829C203.703 127.08 206.542 121.673 206.542 121.673Z" fill="#F0F0F0" stroke="#283046" stroke-miterlimit="10" stroke-linejoin="round"/>
<path d="M206.982 125.348L206.541 121.673C206.541 121.673 202.678 128.065 188.2 129.131C169.119 130.536 163.317 127.294 163.317 127.294L164.163 132.481C164.163 132.481 173.591 136.615 190.146 134.318C205.753 132.154 206.982 125.348 206.982 125.348Z" fill="#F0F0F0" stroke="#283046" stroke-miterlimit="10" stroke-linejoin="round"/>
<path d="M174.728 135.56C178.794 135.93 184.643 135.981 190.892 134.859C208.382 131.717 206.983 125.348 206.983 125.348C206.983 125.348 212.018 168.728 212.239 170.308C212.239 170.308 207.394 175.496 194.135 178.307C189.094 179.375 184.377 179.38 180.461 178.977L174.728 135.56Z" fill="#F0F0F0" stroke="#283046" stroke-miterlimit="10" stroke-linejoin="round"/>
<path d="M200.656 185.551L203.135 175.822L199.801 176.891L198.942 186.1L200.656 185.551Z" fill="#283046"/>
<path d="M190.047 187.707C189.827 186.953 188.762 179.224 188.762 179.224L183.861 179.203L186.954 187.639L190.047 187.707Z" fill="#283046"/>
<path d="M174.155 134.856L179.751 178.899C173.764 178.192 169.832 175.929 169.832 175.929L164.164 132.481C164.164 132.481 167.605 134.182 174.155 134.856Z" fill="#F0F0F0" stroke="#283046" stroke-miterlimit="10" stroke-linejoin="round"/>
<path d="M175.572 113.789C177.426 114.247 183.172 115.425 189.78 114.361C194.787 113.555 197.885 111.605 199.404 110.387C199.892 111.219 200.332 112.058 200.697 112.895C201.093 113.802 201.443 114.703 201.753 115.585C201.363 115.891 200.92 116.216 200.414 116.548C197.57 118.419 194.192 119.679 190.375 120.294C188.208 120.643 186.13 120.775 184.223 120.775C180.064 120.775 176.721 120.144 175.032 119.748C175.18 117.729 175.359 115.682 175.572 113.789Z" fill="#283046"/>
<path d="M174.039 179.538L164.18 181.229L166.084 195.337L181.955 191.351L174.039 179.538Z" fill="#F0F0F0" stroke="#283046" stroke-miterlimit="10" stroke-linejoin="round"/>
<path d="M166.083 195.337L153.04 184.874L156.706 175.78L164.18 181.229L166.083 195.337Z" fill="#F0F0F0" stroke="#283046" stroke-miterlimit="10" stroke-linejoin="round"/>
<path d="M174.039 179.538L164.18 181.229L156.706 175.78L166.184 173.932L174.039 179.538Z" fill="#F0F0F0" stroke="#283046" stroke-miterlimit="10" stroke-linejoin="round"/>
<path d="M181.955 191.351V195.012L166.084 199.523V195.337L181.955 191.351Z" fill="#F0F0F0" stroke="#283046" stroke-miterlimit="10" stroke-linejoin="round"/>
<path d="M166.084 199.523L152.65 188.291L153.04 184.874L166.084 195.337V199.523Z" fill="#F0F0F0" stroke="#283046" stroke-miterlimit="10" stroke-linejoin="round"/>
<path d="M169.436 152.762L169.858 177.843L164.199 178.985L163.134 151.322L169.436 152.762Z" fill="#F0F0F0" stroke="#283046" stroke-miterlimit="10" stroke-linejoin="round"/>
<path d="M164.199 178.985L161.18 176.472L161.068 150.002L164.222 153.259L164.199 178.985Z" fill="#F0F0F0" stroke="#283046" stroke-miterlimit="10" stroke-linejoin="round"/>
<path d="M176.779 155.835L176.303 145.722C176.303 145.722 175.684 135.206 167.301 133.812C164.329 133.318 156.564 132.401 156.564 140.403C156.564 145.011 156.996 152.394 156.996 152.394L169.182 158.1L176.779 155.835Z" fill="#F0F0F0" stroke="#283046" stroke-miterlimit="10" stroke-linejoin="round"/>
<path d="M169.18 158.1C169.18 158.1 170.361 147.907 167.807 141.848C165.253 135.788 158.345 133.797 157.026 137.684C155.706 141.571 156.994 152.394 156.994 152.394L169.18 158.1Z" fill="#F0F0F0" stroke="#283046" stroke-miterlimit="10" stroke-linejoin="round"/>
<path d="M189.012 144.422C190.112 140.695 196.181 137.785 201.141 138.334C206.102 138.883 207.641 148.498 207.405 151.917C207.115 156.119 200.092 158.835 195.928 158.645C191.764 158.455 190.786 155.186 189.99 152.93C189.193 150.672 188.18 147.244 189.012 144.422Z" fill="#283046"/>
<path d="M205.719 148.651C205.341 147.484 203.313 148.651 203.313 148.651L202.488 145.965C202.488 145.965 204.79 145.538 204.343 144.228C203.897 142.918 202.041 143.96 202.041 143.96C202.041 143.96 201.285 141.53 200.254 142.063C199.223 142.596 200.254 144.696 200.254 144.696L197.779 145.577C197.779 145.577 197.092 143.281 196.026 143.652C194.961 144.023 196.026 146.16 196.026 146.16C196.026 146.16 193.895 146.626 194.307 148.028C194.72 149.428 196.713 148.223 196.713 148.223L197.4 150.791C197.4 150.791 195.441 151.685 195.75 152.736C196.059 153.786 197.778 152.852 197.916 152.813C198.054 152.774 197.902 155.217 199.613 154.904C201.044 154.643 199.738 152.308 199.738 152.191C199.738 152.074 202.144 151.257 202.144 151.257C202.144 151.257 202.694 153.786 204.108 153.086C205.099 152.594 203.955 150.557 203.955 150.557C203.955 150.557 206.097 149.819 205.719 148.651ZM199.12 150.013L198.433 147.561L200.769 146.702L201.594 149.273L199.12 150.013Z" fill="#F0F0F0"/>
<path d="M367.196 79.7153L54.8052 140.903V147.225L367.196 86.3219V79.7153Z" fill="#F0F0F0" stroke="#283046" stroke-miterlimit="10" stroke-linejoin="round"/>
<path d="M54.8052 147.225L30.687 128.293V123.24L54.8052 140.903V147.225Z" fill="#F0F0F0" stroke="#283046" stroke-miterlimit="10" stroke-linejoin="round"/>
<path d="M30.687 123.241L325.373 70L367.196 79.7154L54.8052 140.903L30.687 123.241Z" fill="#F0F0F0" stroke="#283046" stroke-miterlimit="10" stroke-linejoin="round"/>
<path d="M440.847 220.427C435.494 225.749 439.312 234.305 445.897 233.196C452.482 232.088 463.645 227.591 478.325 228.923C493.006 230.254 503.107 239.928 503.107 239.928C503.107 239.928 507.363 244.339 514.019 236.362C519.472 229.825 513.328 226.266 507.568 222.281C501.808 218.296 484.191 212.673 469.582 214.111C454.972 215.549 443.776 217.513 440.847 220.427Z" fill="#283046"/>
<path d="M445.993 218.339C443.703 218.141 438.195 221.736 439.009 227.208C439.823 232.679 444.215 234.807 446.869 234.257C448.73 233.871 452.739 231.328 452.381 226.196C452.008 220.877 448.21 218.531 445.993 218.339Z" fill="#F0F0F0" stroke="#283046" stroke-miterlimit="10"/>
<path d="M449.829 216.91C447.539 216.712 442.03 220.307 442.845 225.779C443.659 231.25 448.051 233.378 450.705 232.828C452.566 232.442 456.575 229.899 456.217 224.767C455.844 219.449 452.047 217.102 449.829 216.91Z" fill="#F0F0F0" stroke="#283046" stroke-miterlimit="10"/>
<path d="M454.923 215.749C452.633 215.55 447.125 219.146 447.939 224.617C448.754 230.088 453.145 232.217 455.799 231.667C457.66 231.281 461.669 228.737 461.311 223.606C460.937 218.287 457.14 215.94 454.923 215.749Z" fill="#F0F0F0" stroke="#283046" stroke-miterlimit="10"/>
<path d="M460.53 214.303C458.24 214.105 452.732 217.7 453.546 223.171C454.36 228.643 458.752 230.771 461.406 230.221C463.267 229.835 467.276 227.291 466.918 222.16C466.545 216.84 462.748 214.495 460.53 214.303Z" fill="#F0F0F0" stroke="#283046" stroke-miterlimit="10"/>
<path d="M466.339 213.595C464.098 213.075 458.151 215.857 458.206 221.39C458.263 226.922 462.319 229.651 465.022 229.481C466.917 229.362 471.237 227.41 471.586 222.278C471.947 216.959 468.507 214.098 466.339 213.595Z" fill="#F0F0F0" stroke="#283046" stroke-miterlimit="10"/>
<path d="M472.347 213.334C470.162 212.608 463.988 214.824 463.543 220.339C463.1 225.853 466.892 228.948 469.599 229.031C471.498 229.089 475.976 227.547 476.786 222.469C477.627 217.206 474.461 214.037 472.347 213.334Z" fill="#F0F0F0" stroke="#283046" stroke-miterlimit="10"/>
<path d="M478.43 212.999C476.245 212.273 470.072 214.488 469.627 220.003C469.183 225.518 472.975 228.613 475.683 228.696C477.581 228.754 482.059 227.212 482.869 222.134C483.711 216.871 480.545 213.703 478.43 212.999Z" fill="#F0F0F0" stroke="#283046" stroke-miterlimit="10"/>
<path d="M486.182 214.474C484.111 213.463 477.704 214.839 476.552 220.248C475.401 225.657 478.762 229.229 481.436 229.671C483.31 229.98 487.948 229.048 489.406 224.12C490.918 219.013 488.189 215.452 486.182 214.474Z" fill="#F0F0F0" stroke="#283046" stroke-miterlimit="10"/>
<path d="M492.015 215.734C489.943 214.723 483.536 216.099 482.385 221.508C481.233 226.917 484.594 230.489 487.268 230.931C489.142 231.24 493.78 230.308 495.239 225.38C496.751 220.274 494.02 216.712 492.015 215.734Z" fill="#F0F0F0" stroke="#283046" stroke-miterlimit="10"/>
<path d="M497.859 217.687C495.787 216.677 489.38 218.053 488.229 223.462C487.077 228.871 490.438 232.443 493.112 232.885C494.986 233.194 499.624 232.261 501.083 227.334C502.595 222.227 499.864 218.666 497.859 217.687Z" fill="#F0F0F0" stroke="#283046" stroke-miterlimit="10"/>
<path d="M503.685 220.52C501.613 219.51 495.207 220.886 494.055 226.295C492.903 231.704 496.264 235.276 498.938 235.718C500.812 236.027 505.45 235.095 506.909 230.167C508.421 225.06 505.691 221.499 503.685 220.52Z" fill="#F0F0F0" stroke="#283046" stroke-miterlimit="10"/>
<path d="M509.51 223.971C507.47 222.758 500.822 223.634 499.242 229.104C497.662 234.573 500.829 238.532 503.527 239.212C505.418 239.688 510.226 239.119 512.084 234.171C514.008 229.043 511.485 225.147 509.51 223.971Z" fill="#F0F0F0" stroke="#283046" stroke-miterlimit="10"/>
<path d="M448.164 249.693C437.731 256.597 417.698 264.246 408.147 257.354C398.597 250.463 392.321 230.806 399.143 222.944C405.964 215.081 417.698 212.461 426.975 209.053C435.64 205.871 446.986 207.218 452.809 223.205C456.865 234.342 455.82 244.627 448.164 249.693Z" fill="#1F2533"/>
<path d="M442.459 252.307C437.532 255.057 430.886 258.432 424.428 259.131C417.971 259.829 403.98 261.651 399.415 243.822C395.323 227.835 399.309 220.721 412.482 215.168C426.158 209.402 426.724 209.334 430.545 208.635C433.903 208.02 445.459 205.408 452.011 225.496C457.766 243.145 447.164 249.68 442.459 252.307Z" fill="#F0F0F0"/>
<path d="M474.547 433.834C477.038 467.606 407.29 465.749 405.285 437.779C403.459 412.333 472.946 412.108 474.547 433.834Z" fill="#F0F0F0" stroke="#283046" stroke-miterlimit="10"/>
<path d="M431.416 389.026C448.58 384.15 473.67 402.069 475.184 427.8C477.359 464.771 406.7 462.866 404.175 432.812C401.649 402.756 420.722 392.063 431.416 389.026Z" fill="#283046"/>
<path d="M432.029 390.094C447.98 385.564 472.055 402.182 472.703 426.127C473.631 460.459 409.06 458.713 406.713 430.784C404.366 402.854 422.091 392.917 432.029 390.094Z" fill="#F0F0F0" stroke="#283046" stroke-miterlimit="10"/>
<path d="M420.459 325.712C417.024 313.016 435.526 309.755 438.224 323.036C438.494 324.37 443.879 340.402 444.656 359.372C445.408 377.75 443.841 397.453 443.841 397.453C443.841 397.453 442.485 403.211 435.171 403.075C426.973 402.924 426.532 392.803 426.532 392.803C426.533 355.595 427.518 351.802 420.459 325.712Z" fill="#283046"/>
<path d="M445.629 391.833C446.993 396.575 442.523 402.716 436.623 402.731C428.539 402.751 426.754 397.424 426.278 392.518C426.117 390.861 429.512 389.932 435.722 389.875C441.399 389.823 445.079 389.925 445.629 391.833Z" fill="#F0F0F0" stroke="#283046" stroke-miterlimit="10"/>
<path d="M445.629 385.457C446.993 390.199 442.523 396.341 436.623 396.355C428.539 396.376 426.754 391.048 426.278 386.143C426.117 384.485 429.512 383.557 435.722 383.499C441.399 383.446 445.079 383.549 445.629 385.457Z" fill="#F0F0F0" stroke="#283046" stroke-miterlimit="10"/>
<path d="M445.629 377.915C446.993 382.657 442.523 388.798 436.623 388.813C428.539 388.833 426.754 383.506 426.278 378.6C426.117 376.943 429.512 376.014 435.722 375.957C441.399 375.905 445.079 376.008 445.629 377.915Z" fill="#F0F0F0" stroke="#283046" stroke-miterlimit="10"/>
<path d="M445.629 370.891C446.993 375.634 441.376 381.775 435.475 381.79C427.391 381.81 426.754 376.483 426.278 371.577C426.117 369.919 429.512 368.991 435.722 368.934C441.399 368.882 445.079 368.985 445.629 370.891Z" fill="#F0F0F0" stroke="#283046" stroke-miterlimit="10"/>
<path d="M445.629 363.35C446.993 368.092 441.376 374.233 435.475 374.248C427.391 374.268 426.754 368.941 426.278 364.036C426.117 362.378 429.512 361.449 435.722 361.392C441.399 361.34 445.079 361.442 445.629 363.35Z" fill="#F0F0F0" stroke="#283046" stroke-miterlimit="10"/>
<path d="M445.628 355.807C446.993 360.55 442.523 366.691 436.623 366.706C428.539 366.726 426.754 361.399 426.278 356.493C426.117 354.835 428.363 353.907 434.573 353.85C440.25 353.798 445.079 353.901 445.628 355.807Z" fill="#F0F0F0" stroke="#283046" stroke-miterlimit="10"/>
<path d="M443.954 346.83C445.81 351.396 443.163 357.988 437.297 358.644C429.263 359.543 425.778 354.439 424.787 349.614C424.452 347.984 427.729 346.692 433.898 345.96C439.537 345.291 443.207 344.993 443.954 346.83Z" fill="#F0F0F0" stroke="#283046" stroke-miterlimit="10"/>
<path d="M442.672 339.706C444.734 344.181 441.239 350.943 435.41 351.871C427.424 353.143 424.859 348.154 423.651 343.38C423.242 341.766 426.457 340.324 432.587 339.305C438.191 338.375 441.844 337.906 442.672 339.706Z" fill="#F0F0F0" stroke="#283046" stroke-miterlimit="10"/>
<path d="M440.682 330.957C443.456 335.017 441.132 342.278 435.54 344.189C427.879 346.808 424.524 342.328 422.542 337.828C421.873 336.308 424.802 334.335 430.676 332.284C436.043 330.41 439.567 329.324 440.682 330.957Z" fill="#F0F0F0" stroke="#283046" stroke-miterlimit="10"/>
<path d="M438.205 323.964C440.978 328.023 438.655 335.285 433.062 337.196C425.402 339.814 422.046 335.335 420.064 330.834C419.395 329.314 422.325 327.342 428.198 325.291C433.566 323.418 437.09 322.332 438.205 323.964Z" fill="#F0F0F0" stroke="#283046" stroke-miterlimit="10"/>
<path d="M435.309 316.495C438.709 322.285 435.759 327.817 430.167 329.728C422.506 332.346 419.571 328.938 418.293 323.816C417.506 320.662 418.67 316.776 424.543 314.725C429.911 312.85 434.307 314.788 435.309 316.495Z" fill="#F0F0F0" stroke="#283046" stroke-miterlimit="10"/>
<path d="M435.466 452.768C438.445 437.091 424.137 419.893 439.568 417.804C451.512 416.188 456.858 409.01 463.923 418.559C469.137 425.605 470.387 439.158 470.387 439.158" stroke="#283046" stroke-miterlimit="10"/>
<path d="M401.468 304.046C409.507 296.307 425.223 283.437 438.872 304.639C451.505 324.263 435.246 336.201 428.033 341.049C421.297 345.578 409.381 347.299 401.406 333.232C395.85 323.434 395.55 309.742 401.468 304.046Z" fill="#283046"/>
<path d="M408.03 299.151C414.988 294.301 426.409 284.72 438.707 305.744C453.49 331.019 427.091 341.151 423.459 342.852C421.594 343.725 408.058 348.848 400.021 330.466C391.228 310.36 402.323 303.127 408.03 299.151Z" fill="#F0F0F0" stroke="#283046" stroke-miterlimit="10"/>
<path d="M348.846 370.923C365.24 374.015 380.716 366.259 397.943 355.184C415.17 344.108 424.359 349.937 432.685 330.409C441.012 310.881 439.07 285.763 435.337 272.354C431.605 258.946 417.467 242.385 373.251 249.088C329.034 255.791 316.492 264.512 316.702 282.316C316.936 302.14 312.669 364.099 348.846 370.923Z" fill="#283046"/>
<path d="M333.36 264.244C355.075 265.912 352.062 271.279 356.315 304.746C358.984 325.745 368.244 372.937 342.892 368.007C323.406 364.218 318.881 333.905 317.737 305.341C316.593 276.777 316.594 262.955 333.36 264.244Z" fill="#EEEFF1"/>
<path d="M379.744 362.236C395.603 354.657 398.144 349.599 412.019 346.148C425.895 342.697 430.797 333.032 434.893 319.333C438.989 305.634 439.093 285.673 435.338 274.014C431.582 262.355 432.161 258.251 395.973 264.162C359.785 270.073 344.699 259.873 349.821 274.737C354.942 289.603 362.584 325.949 361.117 344.399C359.167 368.943 363.884 369.815 379.744 362.236Z" fill="#F0F0F0" stroke="#283046" stroke-miterlimit="10"/>
<path d="M450.201 238.886C445.607 223.73 429.528 212.071 428.38 208.573C427.231 205.075 436.419 195.747 434.122 191.085C431.825 186.421 420.34 184.022 413.45 184.089C403.649 184.185 332.05 204.415 293.719 221.689C273.749 230.689 268.283 241.297 272.716 244.715C277.839 248.667 294.671 257.47 295.507 257.539C295.154 270.58 297.013 282.009 297.013 282.009C297.013 282.009 331.189 306.215 334.777 308.255C337.444 309.771 353.334 310.063 357.307 310.017C357.967 310.01 358.611 309.81 359.163 309.442L392.357 287.269C392.357 287.269 400.241 290.767 410.289 287.56C420.338 284.354 422.636 275.026 422.636 275.026L436.53 273.916C437.027 273.879 438.614 273.474 439.049 273.229C441.427 271.893 448.422 267.503 451.348 264.533C454.795 261.037 454.795 254.042 450.201 238.886Z" fill="#1F2533"/>
<path d="M281.811 250.423C292.31 243.559 309.21 235.968 318.431 243.633C327.652 251.298 333.712 273.159 327.126 281.902C320.539 290.647 309.211 293.562 300.253 297.35C291.887 300.889 280.933 299.39 275.311 281.611C271.394 269.225 274.082 255.475 281.811 250.423Z" fill="#1F2533"/>
<path d="M287.87 249.84C296.614 249.303 305.257 259.459 305.522 273.158C305.786 286.857 301.833 295.893 293.667 297.35C284.288 299.024 276.977 286.565 275.311 275.198C273.644 263.831 278.386 250.423 287.87 249.84Z" fill="#EEEFF1"/>
<path d="M288.651 257.626C294.537 257.265 298.505 262.917 299.478 273.322C300.337 282.496 298.05 288.625 292.552 289.606C286.239 290.732 281.318 282.346 280.196 274.695C279.074 267.044 282.266 258.019 288.651 257.626Z" fill="#1F2533"/>
<path d="M286.277 249.012C286.277 249.012 296.477 242.433 302.711 241.656C308.947 240.879 322.454 238.853 326.861 258.681C330.813 276.46 326.963 284.373 314.246 290.548C301.042 296.961 294.778 297.9 296.036 297.501C299.209 296.496 308.92 294.868 307.504 271.509C306.082 248.023 286.277 249.012 286.277 249.012Z" fill="#EEEFF1"/>
<path d="M273.863 242.384C269.724 238.605 277.193 230.981 297.164 221.981C330.295 207.05 399.531 188.238 408.28 186.13C416.336 184.189 432.398 186.13 434.695 190.794C436.993 195.457 427.804 203.619 428.953 207.115C430.101 210.613 443.096 221.376 448.477 236.263C453.007 248.796 454.22 258.414 450.774 261.912C448.064 264.663 440.75 269.3 438.73 270.658C438.164 271.038 437.505 271.239 436.827 271.239H424.078C422.972 271.239 422.03 272.034 421.823 273.137C421.26 276.119 419.383 281.772 413.159 283.772C405.474 286.243 399.048 282.712 396.457 280.919C395.676 280.378 394.659 280.377 393.877 280.918C387.646 285.229 361.838 303.065 358.306 305.183C354.37 307.544 341.58 305.173 338.794 304.466C335.348 303.592 341.665 301.26 340.804 283.481C339.942 265.701 341.952 249.087 327.883 248.795C313.813 248.504 304.146 256.484 294.576 254.042C286.904 252.083 278.979 247.055 273.863 242.384Z" fill="#EEEFF1" stroke="#1F2533" stroke-miterlimit="10"/>
<path d="M314.11 215.587C314.11 215.587 344.021 245.076 387.713 230.176C426.292 217.021 418.21 194.169 418.21 194.169C418.21 194.169 410.879 140.159 359.268 144.505C307.657 148.851 314.11 215.587 314.11 215.587Z" fill="#1F2533"/>
<path d="M317.146 213.401C317.146 213.401 344.847 240.627 386.962 226.266C424.15 213.585 416.358 193.953 416.358 193.953C416.358 193.953 409.292 141.893 359.545 146.082C309.796 150.27 317.146 213.401 317.146 213.401Z" fill="#EEEFF1" stroke="#283046" stroke-miterlimit="10"/>
<path d="M324.818 168.187C329.06 161.678 343.206 158.461 349.592 179.271C356.248 200.964 367.187 225.831 395.338 212.795C423.49 199.759 405.311 166.645 399.723 159.739" stroke="#283046" stroke-miterlimit="10"/>
<path d="M403.563 242.243C403.395 242.215 403.304 242.202 403.304 242.202L396.413 224.602L394.499 224.505L401.554 242.216C399.745 242.276 397.919 242.562 396.115 243.085C394.495 243.556 393.018 244.186 391.681 244.951L385.694 229.85L380.813 230.449L387.245 247.339C387.245 247.339 383.151 251.926 381.548 257.696C379.425 265.327 382.21 272.85 382.21 272.85L337.405 305.031L344.141 305.48L384.355 276.373C389.056 286.326 397.918 290.698 410.821 286.248C419.783 283.157 424.496 275.806 423.741 265.165C427.628 265.407 447.925 265.525 447.925 265.525L449.339 264.155L423.567 263.382C423.342 261.559 422.964 259.646 422.429 257.65C419.932 248.335 412.131 242.753 403.563 242.243Z" fill="#1F2533"/>
<path d="M328.38 281.152C330.723 285.097 332.861 286.986 335.269 286.986C337.062 286.986 337.517 289.853 335.27 289.853C332.825 289.853 330.38 289.09 325.565 280.771C321.026 272.931 319.527 275.43 317.6 275.428C315.674 275.426 315.679 272.825 317.749 272.452C322.787 271.542 326.037 277.207 328.38 281.152Z" fill="#EEEFF1" stroke="#1F2533" stroke-miterlimit="10"/>
<path d="M421.112 259.648C424.006 271.411 419.674 280.346 410.354 283.92C401.034 287.493 392.505 281.91 388.498 271.451C384.492 260.991 388.799 248.478 398.119 244.905C407.439 241.331 418.436 248.772 421.112 259.648Z" fill="#EEEFF1"/>
<path d="M377.366 484.602C380.778 521.305 306.247 520.915 303.481 490.517C300.965 462.864 375.171 460.993 377.366 484.602Z" fill="#F0F0F0" stroke="#283046" stroke-miterlimit="10"/>
<path d="M330.303 436.841C348.526 431.133 375.721 450.05 377.912 478.02C381.059 518.21 305.552 517.791 302.186 485.137C298.82 452.482 318.949 440.398 330.303 436.841Z" fill="#283046"/>
<path d="M330.981 437.99C347.915 432.685 373.998 450.21 375.223 476.258C376.981 513.605 307.98 513.217 304.851 482.872C301.721 452.527 320.43 441.295 330.981 437.99Z" fill="#F0F0F0" stroke="#283046" stroke-miterlimit="10"/>
<path d="M325.568 370.662C324.918 356.836 342.556 353.887 345.391 367.85C345.677 369.251 345.535 386.106 346.352 406.048C347.144 425.368 346.704 446.083 346.704 446.083C346.704 446.083 345.278 452.135 337.589 451.993C328.971 451.833 328.507 441.194 328.507 441.194C328.507 402.096 326.652 393.728 325.568 370.662Z" fill="#283046"/>
<path d="M347.375 441.398C348.809 446.383 344.111 452.84 337.906 452.855C329.408 452.877 327.532 447.276 327.031 442.119C326.862 440.377 330.43 439.4 336.959 439.34C342.929 439.285 346.798 439.393 347.375 441.398Z" fill="#F0F0F0" stroke="#283046" stroke-miterlimit="10"/>
<path d="M347.375 433.47C348.809 438.455 344.111 444.912 337.906 444.927C329.408 444.948 327.532 439.347 327.031 434.191C326.862 432.448 330.43 431.472 336.959 431.412C342.929 431.356 346.798 431.465 347.375 433.47Z" fill="#F0F0F0" stroke="#283046" stroke-miterlimit="10"/>
<path d="M347.375 425.542C348.809 430.527 344.111 436.984 337.906 436.999C329.408 437.02 327.532 431.419 327.031 426.263C326.862 424.52 330.43 423.544 336.959 423.483C342.929 423.428 346.798 423.536 347.375 425.542Z" fill="#F0F0F0" stroke="#283046" stroke-miterlimit="10"/>
<path d="M347.375 418.158C348.809 423.143 344.111 429.6 337.906 429.615C329.408 429.636 327.532 424.036 327.031 418.879C326.862 417.136 330.43 416.16 336.959 416.1C342.929 416.045 346.798 416.153 347.375 418.158Z" fill="#F0F0F0" stroke="#283046" stroke-miterlimit="10"/>
<path d="M347.375 410.229C348.809 415.214 344.111 421.671 337.906 421.686C329.408 421.707 327.532 416.106 327.031 410.95C326.862 409.207 330.43 405.899 336.959 405.839C342.929 405.784 346.798 408.224 347.375 410.229Z" fill="#F0F0F0" stroke="#283046" stroke-miterlimit="10"/>
<path d="M347.375 402.3C348.809 407.285 344.111 413.742 337.906 413.757C329.408 413.779 327.532 408.178 327.031 403.021C326.862 401.279 330.43 399.137 336.959 399.076C342.929 399.022 346.798 400.295 347.375 402.3Z" fill="#F0F0F0" stroke="#283046" stroke-miterlimit="10"/>
<path d="M347.249 394.826C348.812 399.77 344.284 406.351 338.083 406.533C329.589 406.782 327.566 401.233 326.932 396.091C326.717 394.354 330.259 393.283 336.784 393.047C342.749 392.832 346.621 392.836 347.249 394.826Z" fill="#F0F0F0" stroke="#283046" stroke-miterlimit="10"/>
<path d="M347.037 387.944C348.435 392.939 343.692 399.361 337.489 399.332C328.99 399.29 327.154 393.676 326.69 388.516C326.534 386.772 330.109 385.823 336.638 385.81C342.606 385.798 346.474 385.934 347.037 387.944Z" fill="#F0F0F0" stroke="#283046" stroke-miterlimit="10"/>
<path d="M346.919 379.912C348.674 384.789 344.406 391.546 338.216 391.978C329.738 392.568 327.502 387.105 326.667 381.993C326.386 380.266 329.882 379.053 336.393 378.556C342.345 378.101 346.213 377.95 346.919 379.912Z" fill="#F0F0F0" stroke="#283046" stroke-miterlimit="10"/>
<path d="M346.948 372.383C348.634 377.286 344.268 383.98 338.073 384.319C329.588 384.784 327.43 379.288 326.668 374.164C326.412 372.434 329.925 371.272 336.442 370.871C342.4 370.505 346.271 370.41 346.948 372.383Z" fill="#F0F0F0" stroke="#283046" stroke-miterlimit="10"/>
<path d="M344.642 362.966C346.876 369.679 342.641 374.704 336.478 375.414C328.034 376.387 325.759 372.227 325.559 366.676C325.436 363.257 327.478 359.525 333.961 358.733C339.887 358.01 343.983 360.988 344.642 362.966Z" fill="#F0F0F0" stroke="#283046" stroke-miterlimit="10"/>
<path d="M351.036 506.126C353.868 488.993 340.73 476.069 352.431 464.062C364.54 451.635 370.744 458.29 375.257 470.36" stroke="#283046" stroke-miterlimit="10"/>
<path d="M405.21 251.582C406.423 251.633 407.671 251.968 408.885 252.61C411.896 254.203 414.211 257.259 415.078 260.785V260.786C415.369 261.971 415.538 263.125 415.611 264.236L419.1 264.984C419.065 263.368 418.847 261.678 418.42 259.941C417.319 255.457 414.351 251.558 410.477 249.509C408.381 248.399 406.179 247.939 404.059 248.11L405.21 251.582Z" fill="#1F2533"/>
<path d="M415.474 267.746C414.877 271.601 412.795 274.519 409.559 275.55C406.141 276.637 402.806 275.482 400.255 272.548L397.671 274.836C400.253 277.807 403.534 279.455 407.023 279.455C408.195 279.455 409.392 279.269 410.591 278.887C415.099 277.45 418.021 273.546 418.853 268.473L415.474 267.746Z" fill="#1F2533"/>
<path d="M398.12 269.279C397.285 269.977 396.235 270.856 395.409 271.551C394.925 270.665 394.482 269.721 394.099 268.703C391.137 260.852 394.289 251.73 400.839 248.912C401.213 250.087 401.584 251.26 401.899 252.26C397.187 254.51 395.041 261.423 397.316 267.452C397.559 268.098 397.832 268.7 398.12 269.279Z" fill="#1F2533"/>
<path d="M315.629 345.781C324.25 338.716 340.925 327.158 352.868 349.395C363.922 369.978 347.478 381.04 339.908 385.291C332.837 389.26 320.124 389.535 313.278 374.869C308.509 364.653 309.284 350.981 315.629 345.781Z" fill="#1F2533"/>
<path d="M319.453 344.073C319.453 344.073 340.723 327.454 351.332 349.406C364.086 375.795 332.279 386.721 333.356 386.239C336.073 385.023 346.898 378.034 341 361C333.814 340.246 319.453 344.073 319.453 344.073Z" fill="#EEEFF1"/>
<path d="M320.656 345.466C327.955 342.884 336.735 351.39 339.992 362.221C343.192 372.864 338.371 385.046 331.212 385.916C322.961 386.918 315.612 378.838 313.009 369.698C310.406 360.557 312.799 348.246 320.656 345.466Z" fill="#EEEFF1"/>
<path d="M323.485 359.571C325.631 358.792 328.212 361.357 329.169 364.624C330.11 367.832 328.693 371.506 326.588 371.769C324.163 372.071 322.002 369.635 321.237 366.878C320.472 364.123 321.176 360.41 323.485 359.571Z" fill="#EEEFF1" stroke="#1F2533" stroke-miterlimit="10"/>
<path d="M337.42 332.782C334.302 336.873 333.33 340.521 334.381 342.72C335.164 344.358 332.823 346.026 331.842 343.974C330.774 341.742 330.489 337.062 335.648 331.144C339.845 326.328 343.947 324.762 344.016 327.318C344.073 329.371 340.197 329.139 337.42 332.782Z" fill="#F0F0F0" stroke="#283046" stroke-miterlimit="10"/>
<path d="M399.608 196.284C401.24 188.699 397.493 181.421 391.237 180.028C384.981 178.636 378.586 183.657 376.953 191.243C375.321 198.829 379.068 206.107 385.324 207.499C391.58 208.891 397.975 203.87 399.608 196.284Z" fill="#F0F0F0" stroke="#283046" stroke-miterlimit="10"/>
<path d="M395.403 195.343C396.782 188.948 393.86 182.867 388.878 181.76C383.895 180.653 378.738 184.939 377.36 191.334C375.981 197.729 378.903 203.81 383.885 204.917C388.868 206.024 394.025 201.737 395.403 195.343Z" fill="#1F2533"/>
<path d="M388.861 179.51L386.389 193.352L385.965 180.343" stroke="#283046" stroke-miterlimit="10"/>
<path d="M393.563 180.875L386.389 193.352L391.255 180.042" stroke="#283046" stroke-miterlimit="10"/>
<path d="M395.998 182.615L386.389 193.352L397.961 185.064" stroke="#283046" stroke-miterlimit="10"/>
<path d="M399.181 187.69L386.389 193.352L399.952 191.424" stroke="#283046" stroke-miterlimit="10"/>
<path d="M399.918 194.419L386.389 193.352L399.244 197.543" stroke="#283046" stroke-miterlimit="10"/>
<path d="M398.233 200.259L386.389 193.352L396.502 202.755" stroke="#283046" stroke-miterlimit="10"/>
<path d="M394.445 205.076L386.389 193.352L390.954 207.101" stroke="#283046" stroke-miterlimit="10"/>
<path d="M387.773 207.734L386.389 193.352L384.323 207.226" stroke="#283046" stroke-miterlimit="10"/>
<path d="M382.679 206.494L386.389 193.352L381.129 205.428" stroke="#283046" stroke-miterlimit="10"/>
<path d="M379.703 203.999L386.389 193.352L378.513 202.296" stroke="#283046" stroke-miterlimit="10"/>
<path d="M381.129 187.983C379.934 189.755 379.526 196.304 380.345 194.728C383.153 189.319 386.885 189.773 389.977 190.51C391.879 190.964 390.725 186.014 389.302 185.382C386.389 184.087 383.759 184.087 381.129 187.983Z" fill="#EEEFF1"/>
<path d="M381.293 201.645C381.293 201.645 384.977 198.197 389.688 196.786C390.762 196.464 392.577 197.233 390.618 199.538C387.779 202.879 381.293 201.645 381.293 201.645Z" fill="#EEEFF1"/>
<path d="M284.495 277.436C283.595 269.501 292.281 265.083 296.932 270.407C301.582 275.731 307.765 286.887 320.606 295.659C331.341 302.993 341.133 305.596 348.124 304.471C350.766 304.046 354.34 302.571 354.573 313.547C354.764 322.54 347.434 321.32 340.139 320.705C332.843 320.091 314.808 312.854 303.826 301.875C292.843 290.896 284.988 281.779 284.495 277.436Z" fill="#1F2533"/>
<path d="M287.656 285.037C285.659 283.661 282.528 276.345 286.756 272.428C290.984 268.51 295.295 269.996 297.701 273.14C298.924 274.738 294.136 272.554 290.5 276.5C286.732 280.59 289.59 286.369 287.656 285.037Z" fill="#EEEFF1" stroke="#1F2533" stroke-miterlimit="10"/>
<path d="M291.678 289.112C289.781 287.806 286.807 280.858 290.823 277.138C294.839 273.418 298.933 274.829 301.216 277.814C302.377 279.332 298.591 277.065 295.138 280.813C291.561 284.696 293.515 290.377 291.678 289.112Z" fill="#EEEFF1" stroke="#1F2533" stroke-miterlimit="10"/>
<path d="M295.905 294.119C294.007 292.813 291.034 285.865 295.049 282.145C299.065 278.425 303.159 279.837 305.443 282.821C306.604 284.339 302.818 282.073 299.365 285.82C295.788 289.704 297.741 295.384 295.905 294.119Z" fill="#EEEFF1" stroke="#1F2533" stroke-miterlimit="10"/>
<path d="M300.373 298.832C298.476 297.526 294.741 291.861 298.801 286.708C302.196 282.398 307.718 285.185 310.002 288.17C311.163 289.687 306.57 286.635 303.117 290.383C299.539 294.266 302.21 300.096 300.373 298.832Z" fill="#EEEFF1" stroke="#1F2533" stroke-miterlimit="10"/>
<path d="M304.579 303.576C302.582 302.435 298.955 296.783 302.28 292.416C305.341 288.395 310.637 288.728 313.157 291.511C314.44 292.926 310.48 290.986 307.347 295.013C304.1 299.185 306.513 304.681 304.579 303.576Z" fill="#EEEFF1" stroke="#1F2533" stroke-miterlimit="10"/>
<path d="M309.233 307.058C307.217 305.951 303.23 302.376 305.455 297.768C307.801 292.908 313.903 292.243 316.47 294.982C317.775 296.375 313.784 294.503 310.719 298.583C307.54 302.81 311.184 308.129 309.233 307.058Z" fill="#EEEFF1" stroke="#1F2533" stroke-miterlimit="10"/>
<path d="M314.49 311.211C312.298 310.531 307.437 304.783 310.192 300.025C312.948 295.267 317.269 295.39 320.32 297.559C321.871 298.661 317.594 297.63 315.385 302.244C313.095 307.027 316.612 311.869 314.49 311.211Z" fill="#EEEFF1" stroke="#1F2533" stroke-miterlimit="10"/>
<path d="M320.254 314.989C317.868 314.475 312.476 308.963 315.336 303.819C318.197 298.676 322.872 298.432 326.221 300.408C327.924 301.413 323.277 300.714 321.003 305.663C318.644 310.792 322.564 315.486 320.254 314.989Z" fill="#EEEFF1" stroke="#1F2533" stroke-miterlimit="10"/>
<path d="M326.988 318.151C324.562 317.906 318.604 313.028 320.892 307.597C323.179 302.166 327.798 301.402 331.341 302.993C333.142 303.802 328.448 303.626 326.723 308.798C324.934 314.159 329.338 318.388 326.988 318.151Z" fill="#EEEFF1" stroke="#1F2533" stroke-miterlimit="10"/>
<path d="M332.972 320.647C330.451 320.606 323.932 316.103 325.868 310.32C327.803 304.537 332.505 303.352 336.281 304.681C338.2 305.358 333.348 305.582 331.972 311.052C330.544 316.719 335.413 320.688 332.972 320.647Z" fill="#EEEFF1" stroke="#1F2533" stroke-miterlimit="10"/>
<path d="M338.438 322.086C335.399 323.166 329.205 317.961 330.881 312.095C332.557 306.228 337.201 304.829 341.032 305.983C342.98 306.57 338.143 307.017 337.011 312.544C335.838 318.274 340.741 321.267 338.438 322.086Z" fill="#EEEFF1" stroke="#1F2533" stroke-miterlimit="10"/>
<path d="M345.043 323.54C342.207 324.449 332.972 321.813 336.403 313.232C339.083 306.529 344.04 304.566 348.523 305.813C350.802 306.446 347.388 307.1 345.909 313.592C344.378 320.32 350.429 321.813 345.043 323.54Z" fill="#EEEFF1" stroke="#1F2533" stroke-miterlimit="10"/>
<path d="M225.5 460.5C234.3 468.1 286 512 294.5 519C303 526 312 531 333.5 522C355 513 475 461 475 461C475 461 601 405.5 625 393.5C649 381.5 651.5 349.5 634 341.5C616.5 333.5 541.2 305.5 536 303.5C529.5 301 516.5 300 493.5 307.5C470.5 315 257.5 389.5 228.5 407.5C199.5 425.5 214.5 451 225.5 460.5Z" fill="#EEEFF1" stroke="#1F2533" stroke-width="2"/>
<path d="M625 394.5C649 382.5 651.5 349.5 634 341.5C618.873 334.585 605.366 341.163 589 346.5C578.037 350.075 520.5 376.056 450 405.663C379.5 435.269 307 459 292.5 475.5C278 492 285.5 512.588 294.5 520C303.5 527.412 314 532 335.5 523C357 514 475 462 475 462C475 462 601 406.5 625 394.5Z" fill="#EEEFF1" stroke="#1F2533"/>
<path d="M628.5 390.067C614.363 399.27 589.088 408.425 557.521 422.4C502.713 446.664 360.629 511.133 323.961 523.63C294.761 533.581 262.899 486.794 312.606 464.983C373.555 438.239 478.535 395.974 504.555 384.708C534.748 371.635 597 345 617.5 340.972C650.037 337.806 649 375.5 628.5 390.067Z" fill="#1F2533"/>
<path d="M611 366.379C611 377.395 616.929 381.065 622.301 377.915C626.976 375.175 630 368.697 630 361.168C630 353.639 624.731 346.886 619.602 349.62C614.842 352.158 611 358.85 611 366.379Z" fill="#1F2533" stroke="#EEEFF1" stroke-width="2" stroke-miterlimit="10"/>
<path d="M303.277 494.184C303.595 507.212 310.761 513.476 320.073 510.023C327.455 507.286 334.237 499.745 332.749 486.709C331.681 477.345 325.876 469.851 316.58 473.274C307.955 476.451 303.047 484.759 303.277 494.184Z" fill="#1F2533" stroke="#EEEFF1" stroke-width="2" stroke-miterlimit="10"/>
<path d="M294 515.971C301.5 522 311.778 523.387 322.162 519.84C342.319 512.954 413.27 481.47 481.5 451.371C551.477 420.502 605.5 398.5 622.116 388.853C638.731 379.206 640.571 364 638 355C635.429 346 630 340.5 615.116 340.5" stroke="#EEEFF1" stroke-miterlimit="10" stroke-linejoin="round"/>
<path d="M546.128 236.077C559.12 250.101 549.393 265.981 533.855 281.482C520.35 294.956 507.177 296.769 493.071 278.747C479.633 261.577 482.375 249.727 494.941 240.16C510.256 228.5 533.136 222.053 546.128 236.077Z" fill="#1F2533"/>
<path d="M491.166 244.578C490.191 245.913 503.985 233.185 520.44 252.977C536.894 272.769 521.47 290.309 525.303 287.539C530.113 284.062 563.738 255.965 545.382 237.049C524.252 215.273 491.166 244.578 491.166 244.578Z" fill="#EEEFF1"/>
<path d="M492.218 243.863C496.386 240.717 509.59 239.963 520.621 254.739C531.653 269.514 526.031 285.577 521.178 288.431C516.731 291.047 503.757 292.603 491.877 274.283C479.998 255.962 489.324 246.047 492.218 243.863Z" fill="#EEEFF1"/>
<path d="M495.251 248.338C488.516 241.823 477.543 255.93 477.543 255.93C477.543 255.93 471.902 266.685 473.064 270.199C473.612 271.852 475.705 273.879 479.352 272.165C483 270.451 483.759 266.908 485.492 264.927C485.492 264.927 496.917 262.912 495.479 259.558C493.382 254.67 497.672 250.679 495.251 248.338Z" fill="#1F2533"/>
<path d="M478.784 259C481.488 260.279 485.083 264.039 484.999 264.836C484.914 265.632 480.033 274.078 475.432 271.519C470.832 268.96 478.784 259 478.784 259Z" fill="#EEEFF1"/>
<path d="M479.633 257.688C479.402 256.844 482.951 252.568 486.735 250.277C490.519 247.987 494.546 247.616 495.343 249.205C496.14 250.793 493.281 253.473 494.327 258.514C494.581 259.734 494.212 260.618 492.564 261.351C491.555 261.8 485.972 263.135 484.97 263.189C483.749 263.256 483.365 262.677 481.783 260.675C480.201 258.673 479.878 258.58 479.633 257.688Z" fill="#F0F0F0" stroke="#283046" stroke-miterlimit="10"/>
<path d="M482.14 260.955L487.538 290.759L482.7 293.765L475.209 302.485L476.201 307.108L509.5 320L526.5 308L525.5 303.5L506.173 292.208L502 290.759L497.5 266.579H488.839L482.14 260.955Z" fill="#1F2533"/>
<path d="M506 292.5L495.824 298.433L508 314L524.5 303.5L506 292.5Z" fill="#EEEFF1"/>
<path d="M525 304L526 307.5L509.5 319L508.328 314.664L525 304Z" fill="#F0F0F0"/>
<path d="M497.61 268.973L501.407 291.051L493.734 295.571L488.093 269.078L497.61 268.973Z" fill="#EEEFF1"/>
<path d="M487.409 238.847C499.338 236.379 507.883 245.98 505.738 258.286C503.472 271.294 503.264 272.487 503.264 272.487L493.801 275.215L476.954 264.096C476.953 264.096 474.913 241.431 487.409 238.847Z" fill="#EEEFF1" stroke="#1F2533" stroke-miterlimit="10" stroke-linejoin="round"/>
<path d="M493.8 275.215C493.972 275.725 496.867 256.576 495.336 250.383C494.079 245.3 484.849 238.113 480.649 244.369C476.45 250.625 476.953 264.094 476.953 264.094L493.8 275.215Z" fill="#1F2533"/>
<path d="M486.107 249.743C482.721 248.293 480.295 252.154 479.999 255.027C479.702 257.899 481.004 260.421 483.203 261.46C486.139 262.848 488.435 258.828 488.732 255.956C489.028 253.085 488.34 250.699 486.107 249.743Z" fill="#EEEFF1"/>
<path d="M524.776 233.775C523.895 238.471 512.43 240.489 513.531 236.6C514.904 231.746 525.308 230.937 524.776 233.775Z" fill="#F0F0F0" stroke="#283046" stroke-miterlimit="10"/>
<path d="M523.604 280.658C523.786 287.801 511.597 295.325 511.597 295.325C511.597 295.325 499.733 300.231 496.724 298.514C495.308 297.706 494.134 295.565 495.003 294.32C496.436 292.263 502.791 290.59 505.2 289.27C509.708 286.651 507.609 279.629 517.187 276.755C524.325 274.613 523.546 278.344 523.604 280.658Z" fill="#1F2533"/>
<path d="M509.497 295.197C507.898 293.848 505.616 292.34 505.826 290.633C505.921 289.863 495.048 292.942 496.083 296.053C497.38 299.946 509.497 295.197 509.497 295.197Z" fill="#EEEFF1" stroke="#1F2533" stroke-miterlimit="10"/>
<path d="M511.294 294.548C512.116 294.345 516.088 292.458 519.093 289.438C522.099 286.417 523.995 279.491 523.85 276.759C523.787 275.581 516.118 275.579 511.305 281.239C510.174 282.568 507.305 288.802 506.565 289.717C505.826 290.632 505.881 291.017 507.304 292.893C508.328 294.243 510.036 294.859 511.294 294.548Z" fill="#EEEFF1" stroke="#1F2533" stroke-miterlimit="10"/>
<path d="M510.962 251.238C508.5 252 505.225 260.079 499.044 266.032C495.654 269.295 491.817 273.549 490.207 276.697C488.518 279.999 492.331 285.348 495.493 284.397C502.431 282.309 519.667 269.875 521 266.032C522.333 262.189 520.277 257.881 518.581 254.647C516.886 251.414 513.425 250.476 510.962 251.238Z" fill="#1F2533"/>
<path d="M496.019 270.927C490.766 277.617 489.571 279.086 492.03 281.861C494.484 284.63 496.846 281.662 504.916 276.915C505.806 276.392 510.476 274.294 513.897 271.46C517.317 268.626 519.366 268.195 520.181 263.98C521.268 258.366 517.889 253.631 514.56 252.219C512.426 251.314 511.115 251.026 508.367 255.792C504.889 261.828 499.385 266.64 496.019 270.927Z" fill="#EEEFF1"/>
<path d="M478.543 357.381C478.256 355.326 471.71 297.653 471.71 297.653C471.71 297.653 471.75 261.906 438.466 265.189C405.344 268.457 416.032 306.928 416.032 306.928L423.403 364.268C424.845 366.471 433.276 379.912 454.588 377.057C472.049 374.717 478.543 357.381 478.543 357.381Z" fill="#283046"/>
<path d="M478.543 357.382L470.999 370.802C470.999 370.802 465.642 375.811 458.362 377.81C447.288 380.851 432.097 376.143 432.097 376.143L423.402 364.268C423.402 364.268 431.612 371.779 451.803 368.835C472.521 365.815 478.543 357.382 478.543 357.382Z" fill="#F0F0F0" stroke="#283046" stroke-miterlimit="10" stroke-linejoin="round"/>
<path d="M471.136 292.875C471.136 292.875 470.028 263.643 438.465 265.19C406.901 266.735 414.93 300.184 414.93 300.184C414.93 300.184 425.09 304.294 445.484 302.182C467.445 299.907 471.136 292.875 471.136 292.875Z" fill="#F0F0F0" stroke="#283046" stroke-miterlimit="10" stroke-linejoin="round"/>
<path d="M471.709 297.654L471.136 292.876C471.136 292.876 466.113 301.187 447.287 302.573C422.474 304.401 414.929 300.184 414.929 300.184L416.031 306.93C416.031 306.93 428.289 312.306 449.816 309.319C470.11 306.504 471.709 297.654 471.709 297.654Z" fill="#F0F0F0" stroke="#283046" stroke-miterlimit="10" stroke-linejoin="round"/>
<path d="M417.133 362.373L405.223 364.571V387.585L425.546 383.57L417.133 362.373Z" fill="#F0F0F0" stroke="#283046" stroke-miterlimit="10" stroke-linejoin="round"/>
<path d="M405.223 387.585L391.766 363.474L398.495 355.15L405.223 364.571V387.585Z" fill="#F0F0F0" stroke="#283046" stroke-miterlimit="10" stroke-linejoin="round"/>
<path d="M417.133 362.373L405.223 364.571L398.495 355.15L411.094 353.916L417.133 362.373Z" fill="#283046"/>
<path d="M425.546 383.57V387.164L405.223 391.861V387.585L425.546 383.57Z" fill="#F0F0F0" stroke="#283046" stroke-miterlimit="10" stroke-linejoin="round"/>
<path d="M405.223 391.861L391.213 365.583L391.766 363.474L405.223 387.586V391.861Z" fill="#F0F0F0" stroke="#283046" stroke-miterlimit="10" stroke-linejoin="round"/>
<path d="M415.428 339.396L413.911 361.506L405.888 362.77L406.718 337.279L415.428 339.396Z" fill="#F0F0F0" stroke="#283046" stroke-miterlimit="10" stroke-linejoin="round"/>
<path d="M405.888 362.77L401.181 355.884L403.119 328.479L407.964 335.17L405.888 362.77Z" fill="#F0F0F0" stroke="#283046" stroke-miterlimit="10" stroke-linejoin="round"/>
<path d="M429.767 310.934C435.055 311.415 442.66 311.481 450.785 310.021C473.527 305.936 471.708 297.654 471.708 297.654C471.708 297.654 478.256 354.063 478.542 356.117C478.542 356.117 472.243 362.862 455.001 366.517C448.447 367.907 442.312 367.913 437.221 367.389L429.767 310.934Z" fill="#F0F0F0" stroke="#283046" stroke-miterlimit="10" stroke-linejoin="round"/>
<path d="M463.482 375.937L466.707 363.286L462.371 364.677L461.254 376.651L463.482 375.937Z" fill="#283046"/>
<path d="M449.688 378.74C449.402 377.76 448.017 367.711 448.017 367.711L441.644 367.683L445.666 378.653L449.688 378.74Z" fill="#283046"/>
<path d="M429.023 310.017L436.299 367.288C428.514 366.369 423.401 363.425 423.401 363.425L416.03 306.929C416.031 306.929 420.506 309.139 429.023 310.017Z" fill="#F0F0F0" stroke="#283046" stroke-miterlimit="10" stroke-linejoin="round"/>
<path d="M420.769 341.493L425.418 327.95C425.418 327.95 429.278 314.982 420.576 307.819C412.453 301.134 403.425 306.294 402.374 311.9C401.171 318.313 397.182 325.968 397.182 325.968L410.549 343.609L420.769 341.493Z" fill="#F0F0F0" stroke="#283046" stroke-miterlimit="10" stroke-linejoin="round"/>
<path d="M410.549 343.609C410.549 343.609 417.256 330.299 417.27 321.06C417.284 311.821 407.971 304.089 404.347 308.55C400.723 313.012 397.182 325.967 397.182 325.967L410.549 343.609Z" fill="#F0F0F0" stroke="#283046" stroke-miterlimit="10" stroke-linejoin="round"/>
<path d="M430.864 283.791C433.276 284.387 440.747 285.917 449.34 284.534C455.85 283.486 459.88 280.951 461.854 279.366C462.49 280.447 463.062 281.539 463.536 282.627C464.051 283.808 464.506 284.979 464.909 286.125C464.401 286.524 463.825 286.946 463.168 287.378C459.47 289.811 455.077 291.449 450.114 292.25C447.295 292.703 444.593 292.876 442.115 292.876C436.706 292.876 432.359 292.056 430.163 291.539C430.355 288.914 430.588 286.252 430.864 283.791Z" fill="#283046"/>
<path d="M440.508 291.458C441.65 291.458 442.576 290.518 442.576 289.358C442.576 288.198 441.65 287.258 440.508 287.258C439.366 287.258 438.439 288.198 438.439 289.358C438.439 290.518 439.366 291.458 440.508 291.458Z" fill="#F0F0F0" stroke="#283046" stroke-miterlimit="10" stroke-linejoin="round"/>
<path d="M457.962 288.221C459.104 288.221 460.03 287.281 460.03 286.121C460.03 284.961 459.104 284.021 457.962 284.021C456.819 284.021 455.893 284.961 455.893 286.121C455.893 287.281 456.819 288.221 457.962 288.221Z" fill="#F0F0F0" stroke="#283046" stroke-miterlimit="10" stroke-linejoin="round"/>
<path fill-rule="evenodd" clip-rule="evenodd" d="M460.909 314.22C453.197 315.866 447.765 323.142 449.065 330.51C450.194 336.912 454.897 341.467 461.108 340.877C462.378 340.877 462.471 339.966 462.402 339.615C462.34 339.298 462.123 338.253 461.901 337.142C458.853 338.614 457.711 336.381 457.711 336.381C456.885 334.953 456.05 334.701 456.05 334.701C454.843 334.094 455.97 333.876 455.97 333.876C457.146 333.729 458.005 334.879 458.005 334.879C459.432 336.698 460.984 335.763 461.575 335.286C461.51 334.405 461.693 333.757 461.957 333.355C459.332 333.552 456.418 332.971 455.418 327.876C455.133 326.424 455.35 325.145 455.905 324.059C455.719 323.749 455.059 322.479 455.325 320.517C455.325 320.517 456.223 319.958 458.762 321.221C459.624 320.734 460.58 320.381 461.559 320.172C462.539 319.974 463.554 319.916 464.533 320.019C466.395 317.841 467.431 317.996 467.431 317.996C468.417 319.698 468.288 321.133 468.235 321.492C469.157 322.27 469.836 323.363 470.121 324.815C471.124 329.923 468.649 331.609 466.148 332.472C466.642 332.798 467.17 333.531 467.413 334.772C467.762 336.552 468.03 337.987 468.116 338.425C468.186 338.779 468.474 339.15 469.032 338.898C473.929 336.127 474.865 328.882 473.397 322.882C471.62 315.614 466.714 312.981 460.909 314.22Z" fill="#283046"/>
<path d="M396.118 341.846C397.864 351.956 415.409 347.19 415.409 347.19C415.409 347.19 427.347 342.401 428.467 338.605C428.994 336.818 428.489 335.125 426.893 334.712C423.821 333.918 417.826 335.793 415.201 336.333C415.201 336.333 403.396 328.209 402.601 332.053C401.442 337.658 395.491 338.212 396.118 341.846Z" fill="#283046"/>
<path d="M416.016 344.124C414.915 342.084 414.962 337.793 415.61 337.216C416.257 336.639 426.131 332.073 427.724 335.837C429.315 339.6 416.016 344.124 416.016 344.124Z" fill="#F0F0F0" stroke="#283046" stroke-miterlimit="10"/>
<path d="M414.709 344.279C414.399 345.16 408.895 346.454 404.375 345.886C399.856 345.318 396.275 342.938 396.555 341.039C396.835 339.141 400.814 338.755 402.94 333.724C403.454 332.506 404.288 331.993 406.098 332.468C407.206 332.758 412.659 335.353 413.527 335.977C414.585 336.737 414.562 337.492 414.69 340.272C414.819 343.052 415.036 343.35 414.709 344.279Z" fill="#F0F0F0" stroke="#283046" stroke-miterlimit="10"/>
<path d="M340.124 328.763C340.857 349.351 358.581 354.951 380.921 354.577C400.341 354.253 411.128 345.284 408.306 320.437C405.619 296.765 395.114 289.871 379.184 292.441C363.254 295.012 339.38 307.843 340.124 328.763Z" fill="#283046"/>
<path d="M391.657 296.645C406.95 296.113 411.179 298.143 416.516 302.281C419.51 304.601 425.977 314.416 425.933 316.749C425.893 318.887 424.191 321.564 422.36 321.327C419.34 320.935 413.99 314.612 411.221 312.637C405.878 309.035 399.461 315.794 391.016 306.479C384.724 299.539 385.848 296.846 391.657 296.645Z" fill="#283046"/>
<path d="M422.431 311.344C420.601 307.942 416.648 302.191 411.856 300.152C402.8 296.303 390.178 296.912 387.306 298.765C386.069 299.563 390.342 308.441 399.141 310.523C401.208 311.011 409.542 310.489 410.942 310.78C412.343 311.072 422.083 322.063 423.897 319.637C425.421 317.598 425.529 317.106 422.431 311.344Z" fill="#F0F0F0" stroke="#283046" stroke-miterlimit="10"/>
<path d="M399.719 307.348C400.202 305.916 407.814 308.61 415.184 311.037C419.093 312.323 425.223 313.613 427.955 315.075C430.819 316.608 431.482 323.168 428.626 323.779C422.62 325.065 402.975 326.291 401.631 324.502C399.31 321.411 401.717 319.049 401.32 315.676C400.924 312.304 399.076 309.258 399.719 307.348Z" fill="#283046"/>
<path d="M429.786 319.49C430.028 322.857 423.83 322.596 420.374 322.991C416.918 323.386 400.411 325.763 401.176 320.964C401.942 316.166 399.01 308.227 399.72 307.347C400.43 306.468 423.922 312.374 427.119 313.903C430.316 315.433 429.581 316.658 429.786 319.49Z" fill="#F0F0F0" stroke="#283046" stroke-miterlimit="10"/>
<path d="M385.081 292.846C386.743 293.1 407.304 291.352 409.709 319.398C412.113 347.443 396.189 351.584 391.437 352.481C385.473 353.607 341.046 358.577 340.64 329.705C340.173 296.47 385.081 292.846 385.081 292.846Z" fill="#EEEFF1" stroke="#1F2533" stroke-miterlimit="10"/>
<path d="M365.925 308.352C370.313 313.527 380.32 306.169 376.415 302.204C371.541 297.256 363.274 305.225 365.925 308.352Z" fill="#F0F0F0" stroke="#283046" stroke-miterlimit="10"/>
</svg>
