<svg width="680" height="600" viewBox="0 0 680 600" fill="none" xmlns="http://www.w3.org/2000/svg">
<g style="mix-blend-mode:multiply">
<path d="M0 -3.05176e-05H680V600H0V-3.05176e-05Z" fill="white" fill-opacity="0.01"/>
</g>
<path d="M481.077 461.072L474.493 457.245C472.297 455.968 468.751 455.968 466.568 457.245L431.143 477.974C428.961 479.251 428.967 481.321 431.163 482.599L437.747 486.426C439.944 487.703 443.496 487.699 445.677 486.422L481.102 465.693C483.285 464.417 483.274 462.35 481.077 461.072Z" fill="#F0F0F0" stroke="#283046" stroke-width="2" stroke-miterlimit="10" stroke-linecap="round" stroke-linejoin="round"/>
<path d="M444.673 480.576C443.791 480.063 442.361 480.063 441.486 480.576C440.61 481.088 440.615 481.922 441.497 482.435C442.378 482.947 443.807 482.947 444.684 482.435C445.56 481.921 445.555 481.088 444.673 480.576Z" fill="#F0F0F0" stroke="#283046" stroke-width="2" stroke-miterlimit="10"/>
<path d="M476.352 462.1C475.47 461.588 474.041 461.588 473.165 462.1C472.289 462.612 472.294 463.447 473.176 463.959C474.058 464.471 475.486 464.471 476.363 463.959C477.24 463.447 477.234 462.612 476.352 462.1Z" fill="#F0F0F0" stroke="#283046" stroke-width="2" stroke-miterlimit="10"/>
<path d="M334.915 441.866C332.719 443.247 332.708 445.483 334.889 446.864L366.575 470.219C368.758 471.6 372.309 471.604 374.505 470.223L381.089 466.085C383.286 464.704 383.292 462.464 381.109 461.083L349.423 437.728C347.241 436.347 343.695 436.347 341.499 437.728L334.915 441.866Z" fill="#F0F0F0" stroke="#283046" stroke-width="2" stroke-miterlimit="10" stroke-linecap="round" stroke-linejoin="round"/>
<path d="M367.579 464.45C366.697 464.962 366.693 465.796 367.569 466.308C368.445 466.821 369.874 466.821 370.756 466.308C371.638 465.796 371.643 464.961 370.767 464.449C369.89 463.938 368.461 463.938 367.579 464.45Z" fill="#F0F0F0" stroke="#283046" stroke-width="2" stroke-miterlimit="10"/>
<path d="M339.64 445.033C338.758 445.545 338.753 446.378 339.63 446.891C340.507 447.403 341.935 447.403 342.817 446.891C343.699 446.378 343.704 445.544 342.828 445.032C341.951 444.52 340.522 444.52 339.64 445.033Z" fill="#F0F0F0" stroke="#283046" stroke-width="2" stroke-miterlimit="10"/>
<path d="M604.289 387.972L597.705 384.145C595.509 382.868 591.963 382.868 589.78 384.145L554.355 404.874C552.173 406.151 552.179 408.221 554.375 409.499L560.959 413.326C563.156 414.603 566.708 414.599 568.889 413.322L604.314 392.593C606.498 391.317 606.485 389.25 604.289 387.972Z" fill="#F0F0F0" stroke="#283046" stroke-width="2" stroke-miterlimit="10" stroke-linecap="round" stroke-linejoin="round"/>
<path d="M567.885 407.476C567.004 406.963 565.574 406.963 564.698 407.476C563.823 407.988 563.828 408.822 564.709 409.335C565.591 409.847 567.02 409.847 567.896 409.335C568.772 408.822 568.767 407.988 567.885 407.476Z" fill="#F0F0F0" stroke="#283046" stroke-width="2" stroke-miterlimit="10"/>
<path d="M599.565 389C598.683 388.487 597.253 388.487 596.377 389C595.502 389.512 595.507 390.347 596.388 390.859C597.27 391.371 598.699 391.371 599.576 390.859C600.452 390.347 600.446 389.512 599.565 389Z" fill="#F0F0F0" stroke="#283046" stroke-width="2" stroke-miterlimit="10"/>
<path d="M426.195 348.563C339 280 292 361.962 124 329C-43.9999 296.038 -71.0011 148 246.999 212C565 276 638 92.9999 338 135C38 177 19 99.5713 50 72.9999C81 46.4285 193 83.9999 246.999 30.9999" stroke="url(#paint0_linear)" stroke-width="2" stroke-miterlimit="10" stroke-linecap="round" stroke-linejoin="round"/>
<path d="M430.195 346.563C343 278 296 359.962 128 327C-39.9999 294.038 -67.0011 146 250.999 210C569 274 642 90.9999 342 133C42 175 23 97.5713 54 70.9999C85 44.4285 197 81.9999 250.999 28.9999" stroke="url(#paint1_linear)" stroke-width="2" stroke-miterlimit="10" stroke-linecap="round" stroke-linejoin="round"/>
<path d="M319.769 410.131L414.489 480.016L604.354 369.791L495.394 302.687L319.769 410.131Z" fill="#F0F0F0" stroke="#283046" stroke-width="2" stroke-miterlimit="10" stroke-linecap="round" stroke-linejoin="round"/>
<path d="M319.769 420.377L414.75 490L604.354 377.935V369.528L414.489 479.753L319.769 411.444V420.377Z" fill="#F0F0F0" stroke="#283046" stroke-width="2" stroke-miterlimit="10" stroke-linecap="round" stroke-linejoin="round"/>
<path d="M414.75 490L414.489 479.753L319.769 411.444V420.377L414.75 490Z" fill="#283046"/>
<path d="M319.769 403.759L414.75 473.381L604.354 362.894V354.486L414.489 463.134L319.769 394.826V403.759Z" fill="#F0F0F0" stroke="#283046" stroke-width="2" stroke-miterlimit="10" stroke-linecap="round" stroke-linejoin="round"/>
<path d="M414.75 473.382L414.489 463.135L319.769 394.826V403.759L414.75 473.382Z" fill="#283046"/>
<path d="M319.769 394.826L414.489 463.135L604.354 354.486L496.127 291.455L319.769 394.826Z" fill="#F0F0F0" stroke="#283046" stroke-width="2" stroke-miterlimit="10" stroke-linecap="round" stroke-linejoin="round"/>
<path d="M419.698 451.39C417.964 450.382 415.154 450.381 413.432 451.389C411.709 452.397 411.72 454.036 413.454 455.043C415.187 456.05 417.996 456.05 419.718 455.043C421.44 454.036 421.43 452.398 419.698 451.39Z" fill="#F0F0F0" stroke="#283046" stroke-width="2" stroke-miterlimit="10"/>
<path d="M416.935 450.634L416.054 455.799" stroke="#283046" stroke-width="2" stroke-miterlimit="10"/>
<path d="M340.113 393C338.38 391.992 335.569 391.991 333.847 392.999C332.125 394.006 332.135 395.646 333.869 396.653C335.602 397.659 338.412 397.66 340.133 396.653C341.856 395.646 341.847 394.007 340.113 393Z" fill="#F0F0F0" stroke="#283046" stroke-width="2" stroke-miterlimit="10"/>
<path d="M333.848 392.998L340.134 396.653" stroke="#283046" stroke-width="2" stroke-miterlimit="10"/>
<path d="M499.229 298.808C497.897 298.034 495.737 298.033 494.413 298.807C493.089 299.581 493.097 300.841 494.43 301.615C495.762 302.389 497.921 302.389 499.245 301.615C500.567 300.841 500.56 299.582 499.229 298.808Z" fill="#F0F0F0" stroke="#283046" stroke-width="2" stroke-miterlimit="10"/>
<path d="M497.2 298.24L496.453 302.196" stroke="#283046" stroke-width="2" stroke-miterlimit="10"/>
<path d="M596.637 353.067C595.29 352.284 593.106 352.284 591.768 353.066C590.43 353.848 590.438 355.123 591.785 355.906C593.132 356.689 595.315 356.689 596.653 355.906C597.99 355.123 597.983 353.85 596.637 353.067Z" fill="#F0F0F0" stroke="#283046" stroke-width="2" stroke-miterlimit="10"/>
<path d="M594.489 352.48L593.805 356.493" stroke="#283046" stroke-width="2" stroke-miterlimit="10"/>
<path d="M408.588 440.502C405.004 440.422 401.49 439.398 398.692 437.618L358.289 410.058C353.867 407.249 351.287 402.63 351.387 397.703C351.487 392.783 354.249 388.281 358.774 385.659L496.855 305.957C499.73 304.292 503.293 303.419 506.886 303.5C510.466 303.579 513.977 304.602 516.771 306.379L557.212 333.971C561.636 336.787 564.217 341.407 564.117 346.333C564.014 351.254 561.255 355.755 556.735 358.375L418.614 438.049C415.744 439.71 412.182 440.582 408.588 440.502Z" fill="#283046"/>
<path d="M408.639 438.167C405.055 438.087 401.541 437.062 398.742 435.283L358.339 407.723C353.918 404.914 351.338 400.294 351.437 395.368C351.537 390.448 354.3 385.946 358.824 383.324L496.905 303.621C499.78 301.956 503.343 301.084 506.936 301.164C510.516 301.244 514.027 302.267 516.821 304.044L557.262 331.636C561.687 334.452 564.267 339.072 564.167 343.998C564.064 348.919 561.305 353.419 556.786 356.04L418.665 435.714C415.795 437.374 412.233 438.247 408.639 438.167Z" fill="#F0F0F0" stroke="#283046" stroke-width="2" stroke-miterlimit="10" stroke-linecap="round" stroke-linejoin="round"/>
<path d="M408.928 425.052C406.668 425.002 404.499 424.386 402.822 423.319L362.418 395.759C360.187 394.341 358.934 392.205 358.981 389.901C359.028 387.601 360.361 385.524 362.641 384.204L500.72 304.502C502.438 303.507 504.633 302.986 506.897 303.037C509.153 303.087 511.318 303.701 512.992 304.766L553.434 332.358C555.668 333.779 556.921 335.916 556.874 338.222C556.826 340.521 555.495 342.597 553.218 343.916L415.1 423.588C413.384 424.582 411.191 425.102 408.928 425.052Z" fill="#F0F0F0" stroke="#283046" stroke-width="2" stroke-miterlimit="10" stroke-linecap="round" stroke-linejoin="round"/>
<path d="M531.641 319.916L511.457 307.08C509.13 305.6 505.315 305.519 502.94 306.894L433.677 348.616L362.431 367.039L361.94 389.385L361.982 389.373C361.762 390.439 362.311 391.565 363.649 392.416L404.376 420.182C406.703 421.662 410.524 421.747 412.899 420.372L552.135 340.052C553.159 339.459 553.746 338.691 553.9 337.89L553.933 337.88L554.429 315.298L531.641 319.916Z" fill="#283046"/>
<path d="M551.971 312.111L507.745 285.471C505.436 284.002 501.652 283.922 499.296 285.287L365 364.037C362.644 365.402 362.6 367.7 364.909 369.167L407.206 396.759C409.516 398.228 413.306 398.312 415.663 396.948L551.887 317.245C554.243 315.881 554.281 313.579 551.971 312.111Z" fill="#F0F0F0" stroke="#283046" stroke-width="2" stroke-miterlimit="10" stroke-linecap="round" stroke-linejoin="round"/>
<path d="M434.439 355.93C433.508 355.388 432.558 355.014 431.615 354.805C430.672 354.598 429.724 354.504 428.789 354.524C427.854 354.542 426.931 354.649 426.011 354.839C425.096 355.032 424.206 355.246 423.336 355.503C422.454 355.752 421.621 356 420.802 356.249C419.982 356.497 419.213 356.687 418.477 356.828C417.746 356.966 417.053 357.021 416.41 356.988C415.761 356.95 415.169 356.783 414.639 356.475C414.224 356.234 413.917 355.967 413.718 355.681C413.507 355.395 413.435 355.095 413.478 354.779C413.527 354.46 413.691 354.134 413.982 353.8C414.273 353.466 414.71 353.128 415.287 352.79C415.927 352.416 416.561 352.141 417.19 351.959C417.819 351.777 418.41 351.64 418.957 351.551C419.503 351.462 419.986 351.388 420.399 351.332C420.812 351.276 421.13 351.187 421.346 351.061C421.549 350.942 421.682 350.812 421.719 350.671C421.763 350.535 421.73 350.367 421.64 350.167L420.695 348.412C419.169 348.434 417.637 348.653 416.105 349.065C414.581 349.474 413.153 350.063 411.834 350.835C410.654 351.525 409.799 352.241 409.256 352.983C408.706 353.721 408.431 354.448 408.41 355.161C408.401 355.873 408.614 356.552 409.069 357.194C409.525 357.836 410.158 358.396 410.975 358.871C412.002 359.469 413.016 359.888 414.01 360.118C415.004 360.356 415.977 360.47 416.932 360.455C417.88 360.444 418.809 360.341 419.723 360.147C420.626 359.954 421.503 359.732 422.354 359.48C423.198 359.224 424.018 358.968 424.818 358.708C425.612 358.452 426.374 358.252 427.117 358.114C427.855 357.98 428.561 357.932 429.229 357.98C429.891 358.024 430.528 358.218 431.121 358.563C432.175 359.175 432.662 359.843 432.577 360.548C432.498 361.257 431.859 361.958 430.673 362.652C429.9 363.105 429.132 363.435 428.363 363.631C427.601 363.831 426.882 363.976 426.209 364.065C425.541 364.157 424.95 364.228 424.435 364.276C423.926 364.329 423.538 364.428 423.278 364.58C423.094 364.688 422.968 364.822 422.898 364.974C422.842 365.126 422.823 365.278 422.869 365.423L423.656 367.308C424.534 367.308 425.438 367.257 426.354 367.145C427.275 367.03 428.178 366.859 429.074 366.641C429.97 366.421 430.833 366.147 431.665 365.824C432.497 365.501 433.265 365.134 433.974 364.718C435.217 363.99 436.117 363.242 436.704 362.458C437.284 361.679 437.572 360.9 437.581 360.128C437.589 359.356 437.311 358.61 436.774 357.891C436.227 357.177 435.454 356.52 434.439 355.93Z" fill="#283046"/>
<path d="M441.653 337.69L438.213 335.69L420.571 346.012L424.012 348.012L430.752 344.068L449.825 355.155L453.985 352.721L434.912 341.633L441.653 337.69Z" fill="#283046"/>
<path d="M457.684 340.639L452.936 334.721C452.724 334.442 452.462 334.127 452.148 333.775C451.828 333.426 451.469 333.055 451.079 332.666C451.755 332.888 452.386 333.093 452.992 333.275C453.591 333.453 454.126 333.601 454.591 333.716L464.798 336.477L457.684 340.639ZM480.65 337.118L449.349 329.174L445.113 331.652L458.823 349.889L462.07 347.99C462.425 347.782 462.615 347.552 462.651 347.299C462.7 347.047 462.636 346.824 462.482 346.639L459.567 342.992L468.826 337.575L475.089 339.263C475.471 339.351 475.873 339.386 476.272 339.36C476.679 339.33 477.067 339.215 477.428 339.003L480.65 337.118Z" fill="#283046"/>
<path d="M467.847 322.124L470.511 320.566C472.045 319.668 473.493 319.178 474.855 319.096C476.216 319.015 477.471 319.308 478.606 319.968C479.181 320.302 479.609 320.662 479.904 321.048C480.192 321.438 480.322 321.838 480.299 322.261C480.269 322.68 480.062 323.122 479.676 323.579C479.29 324.036 478.707 324.488 477.922 324.948L475.321 326.469L467.847 322.124ZM500.428 325.546L486.512 323.987C486.041 323.928 485.577 323.902 485.138 323.913C484.699 323.924 484.266 323.961 483.84 324.025C484.39 323.428 484.762 322.83 484.963 322.229C485.157 321.632 485.192 321.045 485.055 320.485C484.931 319.917 484.635 319.375 484.18 318.852C483.731 318.332 483.118 317.85 482.364 317.412C481.408 316.856 480.368 316.444 479.246 316.177C478.119 315.907 476.928 315.814 475.656 315.888C474.398 315.962 473.056 316.226 471.652 316.682C470.249 317.131 468.789 317.799 467.274 318.686L460.451 322.678L482.963 335.764L487.123 333.33L478.328 328.217L480.109 327.174C480.521 326.933 480.89 326.785 481.214 326.729C481.545 326.67 481.926 326.67 482.371 326.722L494.277 328.162C495.162 328.299 495.957 328.162 496.667 327.746L500.428 325.546Z" fill="#283046"/>
<path d="M498.814 304.243L495.373 302.243L477.732 312.566L481.172 314.566L487.913 310.622L506.984 321.708L511.144 319.274L492.073 308.188L498.814 304.243Z" fill="#283046"/>
<defs>
<linearGradient id="paint0_linear" x1="395.191" y1="18.9999" x2="395.191" y2="354.443" gradientUnits="userSpaceOnUse">
<stop stop-color="#283046" stop-opacity="0"/>
<stop offset="0.9996" stop-color="#283046"/>
</linearGradient>
<linearGradient id="paint1_linear" x1="399.191" y1="16.9999" x2="399.191" y2="352.443" gradientUnits="userSpaceOnUse">
<stop stop-color="#F0F0F0" stop-opacity="0"/>
<stop offset="0.9996" stop-color="#F0F0F0"/>
</linearGradient>
</defs>
</svg>
