<svg width="680" height="600" viewBox="0 0 680 600" fill="none" xmlns="http://www.w3.org/2000/svg">
<rect opacity="0.01" width="680" height="600" fill="white" fill-opacity="0.01"/>
<path d="M521.233 202.795C524.124 194.446 507.609 190.467 507.609 190.467C507.609 190.467 495.71 188.922 493.159 191.292C491.958 192.407 491.65 193.897 492.79 194.896C494.984 196.816 500.732 197.99 503.129 198.715C503.129 198.715 509.388 209.905 511.691 207.359C515.047 203.647 520.194 205.796 521.233 202.795Z" fill="#283046"/>
<path d="M505.793 192.51C505.828 194.516 503.951 197.72 503.17 197.875C502.389 198.029 492.286 197.205 492.586 193.692C492.884 190.179 505.793 192.51 505.793 192.51Z" fill="#F0F0F0" stroke="#283046" stroke-miterlimit="10"/>
<path d="M506.937 192.956C507.57 192.428 512.665 193.826 516.15 196.2C519.635 198.574 521.57 201.905 520.525 203.211C519.481 204.516 516.033 203.092 512.124 205.957C511.178 206.65 510.271 206.676 508.98 205.54C508.191 204.845 504.804 200.545 504.355 199.702C503.807 198.675 504.15 198.118 505.234 195.974C506.319 193.83 506.27 193.513 506.937 192.956Z" fill="#F0F0F0" stroke="#283046" stroke-miterlimit="10"/>
<path d="M5 572L669 183.861" stroke="url(#paint0_linear)" stroke-width="2" stroke-miterlimit="10" stroke-linecap="round" stroke-linejoin="round"/>
<path d="M44 547L675 178" stroke="url(#paint1_linear)" stroke-width="2" stroke-miterlimit="10" stroke-linecap="round" stroke-linejoin="round"/>
<path d="M334.4 100.127L333.59 377.407L453.448 307.452L454.256 30.9034L334.4 100.127Z" fill="#283046" stroke="#F0F0F0" stroke-width="2" stroke-miterlimit="10" stroke-linecap="round" stroke-linejoin="round"/>
<path d="M498.555 99.0767L465.746 28L464.968 305.28L498.772 378.439L498.555 99.0767Z" fill="#283046" stroke="#F0F0F0" stroke-width="2" stroke-miterlimit="10" stroke-linecap="round" stroke-linejoin="round"/>
<path d="M487.357 103.145L453.553 31.0699L453.77 309.349L486.58 381.509L487.357 103.145Z" fill="#283046" stroke="#F0F0F0" stroke-width="2" stroke-miterlimit="10" stroke-linecap="round" stroke-linejoin="round"/>
<path d="M498.555 99.0767L487.357 103.145L453.553 31.07L465.746 28L498.555 99.0767Z" fill="#283046" stroke="#F0F0F0" stroke-width="2" stroke-miterlimit="10" stroke-linecap="round" stroke-linejoin="round"/>
<path d="M498.555 99.0767L487.357 103.145L486.58 381.508L498.772 378.439L498.555 99.0767Z" fill="#283046" stroke="#F0F0F0" stroke-width="2" stroke-miterlimit="10" stroke-linecap="round" stroke-linejoin="round"/>
<path d="M503.528 496.35C500.345 530.167 569.864 529.809 572.443 501.8C574.789 476.319 505.575 474.596 503.528 496.35Z" fill="#F0F0F0" stroke="#283046" stroke-miterlimit="10"/>
<path d="M547.424 452.341C530.427 447.082 505.061 464.512 503.018 490.285C500.083 527.316 570.51 526.93 573.651 496.842C576.792 466.754 558.014 455.618 547.424 452.341Z" fill="#283046"/>
<path d="M546.792 453.399C530.997 448.511 506.669 464.659 505.526 488.66C503.887 523.072 568.246 522.715 571.165 494.754C574.084 466.793 556.634 456.444 546.792 453.399Z" fill="#F0F0F0" stroke="#283046" stroke-miterlimit="10"/>
<path d="M551.841 391.362C553.055 378.666 535.996 375.905 533.35 388.771C533.084 390.062 533.216 405.593 532.454 423.968C531.716 441.77 532.126 460.856 532.126 460.856C532.126 460.856 533.455 466.433 540.627 466.302C548.665 466.154 549.098 456.352 549.098 456.352C547.83 420.784 549.779 412.922 551.841 391.362Z" fill="#283046"/>
<path d="M531.714 457.271C530.73 461.953 535.552 467.55 541.322 467.121C549.227 466.534 551.354 460.102 550.683 456.481C550.39 454.895 547.332 454.226 541.255 454.637C535.701 455.013 532.11 455.388 531.714 457.271Z" fill="#F0F0F0" stroke="#283046" stroke-miterlimit="10"/>
<path d="M531.501 449.235C530.163 453.828 534.545 459.777 540.332 459.792C548.259 459.812 550.009 454.651 550.475 449.899C550.634 448.294 547.305 447.395 541.215 447.339C535.648 447.288 532.039 447.387 531.501 449.235Z" fill="#F0F0F0" stroke="#283046" stroke-miterlimit="10"/>
<path d="M531.501 441.929C530.163 446.522 534.545 452.472 540.332 452.487C548.259 452.506 550.009 447.345 550.475 442.593C550.634 440.988 547.305 440.089 541.215 440.033C535.648 439.982 532.039 440.081 531.501 441.929Z" fill="#F0F0F0" stroke="#283046" stroke-miterlimit="10"/>
<path d="M530.786 435.126C529.449 439.719 533.831 445.668 539.617 445.683C547.544 445.703 549.294 440.542 549.761 435.79C549.919 434.185 546.59 430.51 540.5 430.454C534.934 430.403 531.324 433.278 530.786 435.126Z" fill="#F0F0F0" stroke="#283046" stroke-miterlimit="10"/>
<path d="M529.964 427.378C528.626 431.971 533.008 437.921 538.794 437.936C546.721 437.956 548.472 432.794 548.938 428.044C549.096 426.438 545.767 423.39 539.678 423.335C534.111 423.283 530.502 425.531 529.964 427.378Z" fill="#F0F0F0" stroke="#283046" stroke-miterlimit="10"/>
<path d="M529.964 420.515C528.626 425.108 533.008 431.058 538.794 431.073C546.721 431.093 548.472 425.931 548.938 421.181C549.096 419.575 545.767 417.601 539.678 417.546C534.111 417.494 530.502 418.667 529.964 420.515Z" fill="#F0F0F0" stroke="#283046" stroke-miterlimit="10"/>
<path d="M530.821 413.627C529.363 418.183 533.587 424.246 539.371 424.414C547.294 424.643 549.18 419.531 549.771 414.793C549.971 413.192 546.668 412.205 540.582 411.989C535.017 411.79 531.407 411.794 530.821 413.627Z" fill="#F0F0F0" stroke="#283046" stroke-miterlimit="10"/>
<path d="M531.493 406.78C530.188 411.383 534.613 417.301 540.4 417.273C548.325 417.235 550.039 412.061 550.472 407.307C550.618 405.7 547.283 404.825 541.193 404.813C535.627 404.804 532.018 404.929 531.493 406.78Z" fill="#F0F0F0" stroke="#283046" stroke-miterlimit="10"/>
<path d="M531.926 399.885C530.289 404.381 534.27 410.606 540.043 411.003C547.951 411.547 550.037 406.513 550.816 401.803C551.078 400.212 547.817 399.095 541.744 398.636C536.192 398.217 532.584 398.077 531.926 399.885Z" fill="#F0F0F0" stroke="#283046" stroke-miterlimit="10"/>
<path d="M532.641 392.949C531.069 397.467 535.14 403.635 540.919 403.947C548.833 404.376 550.846 399.312 551.557 394.59C551.796 392.995 548.519 391.925 542.439 391.555C536.883 391.218 533.273 391.13 532.641 392.949Z" fill="#F0F0F0" stroke="#283046" stroke-miterlimit="10"/>
<path d="M534.05 384.271C531.967 390.457 535.916 395.086 541.666 395.741C549.542 396.638 551.663 392.804 551.849 387.689C551.964 384.539 550.06 381.1 544.013 380.371C538.485 379.704 534.665 382.448 534.05 384.271Z" fill="#F0F0F0" stroke="#283046" stroke-miterlimit="10"/>
<path d="M529.738 454.635C534.407 453.347 529.417 455.72 524.806 460.866C514.07 472.844 514.63 463.807 505.494 483.226" stroke="#283046" stroke-miterlimit="10"/>
<path d="M494.002 234.661C484.429 233.652 477.75 219.857 477.75 219.857C477.75 219.857 474.473 206.833 477.589 204.026C479.056 202.704 482.233 201.856 483.655 202.958C486.002 204.777 486.486 211.592 487.582 214.29C489.833 219.365 499.773 218.381 500.971 228.713C501.862 236.414 497.103 234.989 494.002 234.661Z" fill="#283046"/>
<path d="M478.497 217.719C480.737 216.3 483.375 214.205 485.592 214.707C486.594 214.933 485.479 203.235 481.047 203.779C475.499 204.462 478.497 217.719 478.497 217.719Z" fill="#F0F0F0" stroke="#283046" stroke-miterlimit="10"/>
<path d="M478.869 219.676C478.914 220.554 480.336 224.955 483.537 228.552C486.737 232.15 495.45 235.259 499.133 235.567C500.72 235.7 502.832 227.812 496.61 221.914C495.148 220.528 487.628 216.534 486.611 215.62C485.595 214.707 485.066 214.699 482.174 215.849C480.092 216.675 478.801 218.329 478.869 219.676Z" fill="#F0F0F0" stroke="#283046" stroke-miterlimit="10"/>
<path d="M539.08 238.632C531.127 254.34 516.892 252.095 501.639 243.495C486.385 234.897 480.195 226.362 491.941 206.769C503.352 187.734 522.809 195.493 531.005 203.086C536.741 208.4 545.21 226.525 539.08 238.632Z" fill="#283046"/>
<path d="M526.753 200.071C528.95 201.365 505.438 186.183 493.635 207.058C480.841 229.682 490.385 233.974 495.153 237.957C498.854 241.049 527.657 261.429 538.382 239.17C549.377 216.352 530.947 202.54 526.753 200.071Z" fill="#F0F0F0" stroke="#283046" stroke-miterlimit="10"/>
<path d="M513.508 229.239C509.299 235.548 499.708 229.13 503.454 224.211C508.13 218.071 516.052 225.427 513.508 229.239Z" fill="#F0F0F0" stroke="#283046" stroke-miterlimit="10"/>
<path d="M534.089 231.344C526.728 229.25 521.186 236.798 525.49 242.04C529.793 247.282 539.375 254.887 545.648 268.439C551.92 281.99 548.584 295.608 548.584 295.608C548.584 295.608 546.886 301.511 557.226 303.447C565.7 305.034 565.697 297.892 566.262 290.877C566.827 283.862 562.817 265.627 554.16 253.495C545.504 241.365 538.118 232.49 534.089 231.344Z" fill="#283046"/>
<path d="M538.52 234.843C537.533 232.733 531.601 229.655 527.234 233.053C522.867 236.452 523.231 241.353 525.056 243.415C526.335 244.861 530.589 247.138 534.89 244.307C539.348 241.372 539.475 236.884 538.52 234.843Z" fill="#F0F0F0" stroke="#283046" stroke-miterlimit="10"/>
<path d="M541.711 237.514C540.725 235.404 534.793 232.327 530.426 235.725C526.059 239.123 526.423 244.024 528.248 246.086C529.527 247.532 533.781 249.809 538.082 246.978C542.54 244.043 542.666 239.557 541.711 237.514Z" fill="#F0F0F0" stroke="#283046" stroke-miterlimit="10"/>
<path d="M545.305 241.42C544.319 239.31 538.387 236.232 534.02 239.63C529.653 243.028 530.017 247.93 531.842 249.992C533.121 251.437 537.375 253.714 541.676 250.884C546.134 247.949 546.261 243.462 545.305 241.42Z" fill="#F0F0F0" stroke="#283046" stroke-miterlimit="10"/>
<path d="M549.409 245.638C548.422 243.528 542.491 240.45 538.124 243.848C533.757 247.246 534.121 252.148 535.946 254.21C537.225 255.655 541.478 257.932 545.78 255.102C550.238 252.167 550.365 247.68 549.409 245.638Z" fill="#F0F0F0" stroke="#283046" stroke-miterlimit="10"/>
<path d="M552.969 250.394C552.289 248.171 546.845 244.308 542.04 247.07C537.234 249.831 536.905 254.733 538.422 257.026C539.487 258.632 543.379 261.471 548.04 259.262C552.871 256.971 553.628 252.547 552.969 250.394Z" fill="#F0F0F0" stroke="#283046" stroke-miterlimit="10"/>
<path d="M556.239 255.545C555.767 253.27 550.704 248.931 545.66 251.245C540.617 253.558 539.834 258.407 541.133 260.827C542.043 262.522 545.658 265.702 550.506 263.926C555.531 262.083 556.695 257.749 556.239 255.545Z" fill="#F0F0F0" stroke="#283046" stroke-miterlimit="10"/>
<path d="M559.613 260.727C559.142 258.452 554.079 254.112 549.035 256.426C543.992 258.74 543.209 263.589 544.508 266.008C545.418 267.704 549.033 270.883 553.881 269.107C558.905 267.265 560.07 262.93 559.613 260.727Z" fill="#F0F0F0" stroke="#283046" stroke-miterlimit="10"/>
<path d="M562.252 268.261C562.085 265.945 557.638 260.991 552.329 262.63C547.02 264.27 545.602 268.973 546.571 271.54C547.249 273.338 550.414 276.956 555.457 275.822C560.685 274.648 562.414 270.503 562.252 268.261Z" fill="#F0F0F0" stroke="#283046" stroke-miterlimit="10"/>
<path d="M564.105 274.004C563.938 271.688 559.491 266.734 554.182 268.373C548.873 270.013 547.455 274.716 548.424 277.283C549.102 279.081 552.267 282.699 557.31 281.565C562.537 280.391 564.266 276.246 564.105 274.004Z" fill="#F0F0F0" stroke="#283046" stroke-miterlimit="10"/>
<path d="M565.358 280.095C565.191 277.779 560.744 272.825 555.435 274.464C550.126 276.104 548.708 280.807 549.677 283.374C550.355 285.172 553.52 288.791 558.563 287.657C563.79 286.483 565.519 282.338 565.358 280.095Z" fill="#F0F0F0" stroke="#283046" stroke-miterlimit="10"/>
<path d="M565.833 286.604C565.667 284.288 561.22 279.334 555.911 280.973C550.602 282.612 549.183 287.316 550.152 289.883C550.83 291.681 553.995 295.299 559.039 294.165C564.265 292.991 565.995 288.846 565.833 286.604Z" fill="#F0F0F0" stroke="#283046" stroke-miterlimit="10"/>
<path d="M565.768 293.413C565.795 291.026 561.662 285.615 556.083 286.907C550.503 288.2 548.648 292.924 549.421 295.628C549.963 297.523 552.895 301.467 558.159 300.674C563.616 299.853 565.742 295.726 565.768 293.413Z" fill="#F0F0F0" stroke="#283046" stroke-miterlimit="10"/>
<path d="M559.258 316.833C549.526 323.194 530.841 330.242 521.934 323.892C513.026 317.541 507.173 299.43 513.535 292.186C519.898 284.941 530.841 282.526 539.495 279.387C547.578 276.455 558.159 277.697 563.591 292.427C567.374 302.688 566.399 312.165 559.258 316.833Z" fill="#283046"/>
<path d="M553.937 319.242C549.341 321.776 543.142 324.886 537.119 325.529C531.096 326.174 518.046 327.851 513.789 311.424C509.97 296.694 513.689 290.139 525.975 285.022C538.731 279.709 539.26 279.648 542.823 279.003C545.955 278.437 556.734 276.029 562.845 294.538C568.213 310.799 558.325 316.822 553.937 319.242Z" fill="#F0F0F0" stroke="#283046" stroke-miterlimit="10"/>
<path d="M520.676 361.93C528.175 354.798 542.833 342.94 555.565 362.476C567.348 380.558 552.182 391.558 545.455 396.025C539.171 400.198 528.057 401.783 520.618 388.822C515.437 379.794 515.156 367.179 520.676 361.93Z" fill="#283046"/>
<path d="M526.796 357.418C533.285 352.949 543.939 344.121 555.409 363.494C569.198 386.782 544.576 396.118 541.187 397.685C539.448 398.49 526.822 403.21 519.325 386.273C511.124 367.747 521.474 361.082 526.796 357.418Z" fill="#F0F0F0" stroke="#283046" stroke-miterlimit="10"/>
<path d="M466.621 428.536C481.913 431.386 496.348 424.24 512.416 414.033C528.484 403.828 537.054 409.199 544.821 391.205C552.588 373.211 550.776 350.067 547.295 337.712C543.813 325.359 530.627 310.098 489.385 316.275C448.143 322.451 436.445 330.486 436.64 346.891C436.858 365.158 432.876 422.249 466.621 428.536Z" fill="#283046"/>
<path d="M452.177 330.241C472.431 331.779 469.621 336.723 473.588 367.561C476.077 386.909 484.715 430.393 461.068 425.851C442.893 422.359 438.673 394.429 437.605 368.11C436.537 341.79 436.537 329.054 452.177 330.241Z" fill="#F0F0F0" stroke="#283046" stroke-miterlimit="10"/>
<path d="M495.441 420.532C510.234 413.55 512.603 408.889 525.545 405.708C538.487 402.527 543.059 393.623 546.88 381C550.701 368.377 550.798 349.985 547.295 339.242C543.792 328.499 544.332 324.717 510.578 330.165C476.824 335.613 462.754 326.212 467.53 339.91C472.306 353.607 479.435 387.097 478.067 404.097C476.248 426.713 480.648 427.515 495.441 420.532Z" fill="#F0F0F0" stroke="#283046" stroke-miterlimit="10"/>
<path d="M552.982 307.837C550.09 277.84 564.402 278.107 562.023 267.842C561.256 264.533 527.338 257.248 520.911 257.31C511.769 257.398 450.954 273.119 415.202 289.035C396.575 297.327 391.478 309.096 395.612 312.246C400.391 315.887 416.091 323.998 416.87 324.062C416.541 336.079 418.275 346.61 418.275 346.61C418.275 346.61 450.151 368.914 453.499 370.794C455.985 372.19 470.807 372.459 474.514 372.417C475.13 372.41 475.731 372.227 476.245 371.887C476.245 371.887 547.335 339.524 550.064 336.787C553.276 333.565 554.94 328.155 552.982 307.837Z" fill="#283046"/>
<path d="M407.124 320.987C416.174 313.634 431.088 304.966 440.402 311.051C449.716 317.136 457.514 336.545 452.278 345.223C447.043 353.901 436.829 357.72 428.901 362.099C421.496 366.191 411.191 365.928 404.205 350.214C399.338 339.266 400.461 326.399 407.124 320.987Z" fill="#283046"/>
<path d="M412.684 319.838C420.738 318.459 429.766 326.884 431.375 339.406C432.985 351.928 430.222 360.604 422.794 362.769C414.266 365.253 406.245 354.584 403.566 344.341C400.888 334.097 403.948 321.334 412.684 319.838Z" fill="#F0F0F0" stroke="#283046" stroke-miterlimit="10"/>
<path d="M414.184 326.892C419.606 325.963 423.849 330.738 425.789 340.17C427.5 348.486 425.99 354.332 420.99 355.789C415.25 357.462 409.85 350.28 408.047 343.385C406.244 336.49 408.304 327.899 414.184 326.892Z" fill="#283046"/>
<path d="M411.124 319.242C411.124 319.242 419.926 312.18 425.63 310.836C431.334 309.491 443.656 306.265 449.719 323.979C455.155 339.865 452.375 347.502 441.199 354.449C429.594 361.663 423.88 363.159 425.008 362.666C427.85 361.423 435.665 358.132 432.024 336.88C428.363 315.511 411.124 319.242 411.124 319.242Z" fill="#F0F0F0" stroke="#283046" stroke-miterlimit="10"/>
<path d="M396.682 310.099C392.822 306.617 399.788 295.602 418.415 287.309C449.319 273.552 513.896 260.207 522.058 258.266C529.57 256.477 558.71 265.131 559.791 268.35C562.377 276.051 550.385 278.351 551.301 301.774C551.876 316.469 552.13 331.286 548.917 334.509C546.39 337.043 482.687 364.142 479.393 366.094C475.722 368.27 464.715 368.271 462.117 367.62C458.903 366.814 459.628 351.999 458.825 335.616C458.021 319.233 434.301 327.669 425.374 325.419C418.216 323.613 401.454 314.402 396.682 310.099Z" fill="#F0F0F0" stroke="#283046" stroke-miterlimit="10"/>
<path d="M429.685 281.426C429.685 281.426 457.899 308.904 499.113 295.02C535.504 282.761 527.88 261.468 527.88 261.468C527.88 261.468 520.964 211.14 472.282 215.189C423.599 219.24 429.685 281.426 429.685 281.426Z" fill="#283046"/>
<path d="M432.548 279.388C432.548 279.388 458.677 304.759 498.404 291.377C533.481 279.561 526.132 261.267 526.132 261.267C526.132 261.267 519.467 212.756 472.542 216.659C425.617 220.561 432.548 279.388 432.548 279.388Z" fill="#F0F0F0" stroke="#283046" stroke-miterlimit="10"/>
<path d="M439.786 237.258C443.787 231.193 457.131 228.194 463.154 247.586C469.433 267.8 479.751 290.972 506.305 278.824C532.859 266.676 515.711 235.82 510.441 229.385" stroke="#283046" stroke-miterlimit="10"/>
<path d="M404.929 541.545C401.463 576.022 477.181 575.656 479.991 547.102C482.546 521.126 407.159 519.368 404.929 541.545Z" fill="#F0F0F0" stroke="#283046" stroke-miterlimit="10"/>
<path d="M452.741 495.663C434.228 490.302 406.599 509.088 404.374 535.362C401.177 573.114 477.887 572.722 481.307 542.048C484.727 511.374 464.276 499.005 452.741 495.663Z" fill="#283046"/>
<path d="M452.053 496.742C434.849 491.759 408.35 509.238 407.105 533.706C405.32 568.788 475.42 568.424 478.6 539.918C481.777 511.414 462.771 499.846 452.053 496.742Z" fill="#F0F0F0" stroke="#283046" stroke-miterlimit="10"/>
<path d="M456.897 432.673C458.112 419.977 441.052 417.216 438.406 430.082C438.141 431.373 438.272 446.903 437.51 465.278C436.772 483.081 437.182 505.159 437.182 505.159C437.182 505.159 438.512 510.736 445.683 510.604C453.722 510.457 454.154 500.655 454.154 500.655C452.886 465.086 454.835 454.232 456.897 432.673Z" fill="#283046"/>
<path d="M436.77 501.573C435.786 506.255 440.608 511.852 446.379 511.423C454.283 510.836 456.41 504.403 455.739 500.783C455.446 499.197 452.388 498.528 446.311 498.939C440.757 499.315 437.166 499.69 436.77 501.573Z" fill="#F0F0F0" stroke="#283046" stroke-miterlimit="10"/>
<path d="M436.557 492.539C435.22 497.132 439.602 504.079 445.388 504.094C453.315 504.114 455.065 497.955 455.532 493.205C455.69 491.599 452.361 488.705 446.271 488.65C440.705 488.598 437.095 490.691 436.557 492.539Z" fill="#F0F0F0" stroke="#283046" stroke-miterlimit="10"/>
<path d="M436.557 483.239C435.22 487.832 439.602 494.779 445.388 494.794C453.315 494.814 455.065 488.655 455.532 483.903C455.69 482.297 452.361 481.399 446.271 481.343C440.705 481.292 437.095 481.392 436.557 483.239Z" fill="#F0F0F0" stroke="#283046" stroke-miterlimit="10"/>
<path d="M435.842 476.436C434.505 481.029 438.887 486.978 444.673 486.993C452.6 487.013 454.35 481.852 454.817 477.1C454.975 475.494 451.646 471.82 445.556 471.764C439.99 471.713 436.38 474.589 435.842 476.436Z" fill="#F0F0F0" stroke="#283046" stroke-miterlimit="10"/>
<path d="M435.02 468.689C433.682 473.282 438.064 479.231 443.851 479.246C451.777 479.266 453.528 474.105 453.994 469.353C454.152 467.748 450.824 464.7 444.734 464.645C439.167 464.594 435.558 466.841 435.02 468.689Z" fill="#F0F0F0" stroke="#283046" stroke-miterlimit="10"/>
<path d="M435.02 461.825C433.682 466.418 438.064 472.367 443.851 472.382C451.777 472.402 453.528 467.241 453.994 462.489C454.152 460.884 450.824 458.91 444.734 458.855C439.167 458.804 435.558 459.977 435.02 461.825Z" fill="#F0F0F0" stroke="#283046" stroke-miterlimit="10"/>
<path d="M435.876 454.937C434.418 459.493 438.642 465.556 444.426 465.724C452.349 465.953 454.235 460.841 454.827 456.103C455.027 454.502 451.724 453.515 445.637 453.298C440.073 453.101 436.463 453.104 435.876 454.937Z" fill="#F0F0F0" stroke="#283046" stroke-miterlimit="10"/>
<path d="M436.549 448.091C435.244 452.694 439.669 458.612 445.456 458.584C453.381 458.546 455.095 453.372 455.528 448.618C455.674 447.011 452.339 446.136 446.249 446.124C440.683 446.114 437.074 446.239 436.549 448.091Z" fill="#F0F0F0" stroke="#283046" stroke-miterlimit="10"/>
<path d="M436.982 441.195C435.345 445.69 439.326 451.916 445.1 452.313C453.007 452.857 455.093 447.823 455.872 443.113C456.134 441.521 452.873 440.404 446.8 439.945C441.249 439.527 437.64 439.387 436.982 441.195Z" fill="#F0F0F0" stroke="#283046" stroke-miterlimit="10"/>
<path d="M437.697 434.258C436.126 438.776 440.196 444.944 445.975 445.256C453.89 445.685 455.903 440.622 456.613 435.9C456.852 434.305 453.575 433.235 447.496 432.865C441.939 432.528 438.33 432.441 437.697 434.258Z" fill="#F0F0F0" stroke="#283046" stroke-miterlimit="10"/>
<path d="M439.106 425.582C437.023 431.768 440.972 436.397 446.722 437.052C454.598 437.949 456.719 434.115 456.905 429C457.02 425.849 455.116 422.41 449.069 421.681C443.541 421.015 439.721 423.758 439.106 425.582Z" fill="#F0F0F0" stroke="#283046" stroke-miterlimit="10"/>
<path d="M432.287 498.711C437.332 497.424 433.931 500.794 428.95 505.939C417.353 517.918 416.963 508.881 407.094 528.3" stroke="#283046" stroke-miterlimit="10"/>
<path d="M432.731 399.998C440.772 393.489 456.325 382.839 467.466 403.328C477.776 422.294 462.438 432.487 455.378 436.404C448.783 440.061 436.924 440.314 430.539 426.801C426.09 417.387 426.813 404.789 432.731 399.998Z" fill="#283046"/>
<path d="M436.298 398.425C436.298 398.425 456.138 383.112 466.033 403.339C477.929 427.655 448.261 437.722 449.266 437.277C451.8 436.157 461.687 430.821 455.559 413.34C448.856 394.218 436.298 398.425 436.298 398.425Z" fill="#F0F0F0" stroke="#283046" stroke-miterlimit="10"/>
<path d="M437.214 398.294C444.178 395.797 452.556 404.021 455.664 414.492C458.718 424.78 454.118 436.558 447.286 437.399C439.413 438.368 432.401 430.557 429.917 421.72C427.434 412.884 429.717 400.982 437.214 398.294Z" fill="#F0F0F0" stroke="#283046" stroke-miterlimit="10"/>
<path d="M440.059 412.706C442.06 411.989 444.468 414.351 445.361 417.362C446.239 420.319 444.917 423.703 442.953 423.944C440.691 424.223 438.676 421.978 437.962 419.438C437.248 416.899 437.904 413.479 440.059 412.706Z" fill="#F0F0F0" stroke="#283046" stroke-miterlimit="10"/>
<path d="M451.985 386.948C449.077 390.717 448.17 394.08 449.151 396.105C449.882 397.614 447.698 399.151 446.782 397.26C445.786 395.204 445.52 390.892 450.332 385.438C454.247 381.001 458.072 379.558 458.137 381.914C458.19 383.805 454.576 383.591 451.985 386.948Z" fill="#F0F0F0" stroke="#283046" stroke-miterlimit="10"/>
<path d="M423.711 339.038C419.336 333.129 410.65 335.717 410.833 342.272C411.016 348.826 413.82 360.28 410.598 374.392C407.904 386.19 402.879 394.205 397.416 397.922C395.352 399.327 391.994 400.622 398.733 408.148C404.256 414.314 408.476 408.804 413.053 403.723C417.63 398.643 425.351 382.239 425.922 367.832C426.492 353.426 426.105 342.272 423.711 339.038Z" fill="#283046"/>
<path d="M423.923 344.813C424.417 342.61 421.95 335.69 416.611 335.762C411.272 335.835 409.273 339.592 409.613 343.244C409.786 345.101 410.998 340.945 415.952 341.271C421.085 341.609 423.444 346.945 423.923 344.813Z" fill="#F0F0F0" stroke="#283046" stroke-miterlimit="10"/>
<path d="M423.748 350.125C424.217 348.033 421.873 341.46 416.804 341.53C411.734 341.599 409.835 345.168 410.158 348.636C410.322 350.399 411.473 346.452 416.177 346.763C421.053 347.082 423.293 352.15 423.748 350.125Z" fill="#F0F0F0" stroke="#283046" stroke-miterlimit="10"/>
<path d="M424.02 356.194C424.489 354.102 422.145 347.53 417.076 347.599C412.006 347.668 410.107 351.237 410.43 354.705C410.594 356.468 411.745 352.522 416.449 352.832C421.325 353.152 423.565 358.22 424.02 356.194Z" fill="#F0F0F0" stroke="#283046" stroke-miterlimit="10"/>
<path d="M423.942 362.221C424.412 360.129 423.392 353.933 417.392 353.067C412.374 352.343 410.368 357.749 410.691 361.217C410.855 362.98 412.061 357.989 416.766 358.298C421.64 358.619 423.488 364.247 423.942 362.221Z" fill="#F0F0F0" stroke="#283046" stroke-miterlimit="10"/>
<path d="M424.062 368.101C424.704 366.056 423.619 359.936 418.613 359.129C414.002 358.385 410.61 361.999 410.644 365.482C410.661 367.253 412.136 363.416 416.798 364.117C421.629 364.843 423.441 370.08 424.062 368.101Z" fill="#F0F0F0" stroke="#283046" stroke-miterlimit="10"/>
<path d="M423.085 373.418C423.76 371.384 424.226 366.43 419.816 364.756C415.165 362.991 410.596 366.449 410.571 369.932C410.558 371.703 412.098 367.892 416.747 368.671C421.566 369.48 422.43 375.388 423.085 373.418Z" fill="#F0F0F0" stroke="#283046" stroke-miterlimit="10"/>
<path d="M422.118 379.574C423.182 377.714 422.876 370.741 418.011 369.306C413.147 367.872 410.282 370.72 409.57 374.129C409.208 375.862 411.469 372.432 415.873 374.12C420.437 375.869 421.087 381.375 422.118 379.574Z" fill="#F0F0F0" stroke="#283046" stroke-miterlimit="10"/>
<path d="M420.571 385.801C421.871 383.929 422.075 376.773 416.897 375.147C411.717 373.521 408.384 376.348 407.348 379.819C406.821 381.584 409.543 378.141 414.201 380.011C419.029 381.95 419.312 387.614 420.571 385.801Z" fill="#F0F0F0" stroke="#283046" stroke-miterlimit="10"/>
<path d="M417.978 392.235C419.475 390.518 420.462 383.427 415.493 381.241C410.523 379.055 406.9 381.496 405.489 384.833C404.772 386.529 407.855 383.406 412.28 385.779C416.867 388.238 416.528 393.898 417.978 392.235Z" fill="#F0F0F0" stroke="#283046" stroke-miterlimit="10"/>
<path d="M415.475 397.742C417.163 396.101 418.769 388.904 413.817 386.256C408.865 383.608 404.921 385.819 403.188 389.129C402.307 390.811 405.75 387.858 410.124 390.653C414.658 393.549 413.84 399.331 415.475 397.742Z" fill="#F0F0F0" stroke="#283046" stroke-miterlimit="10"/>
<path d="M412.661 402.206C414.421 400.644 416.35 393.527 411.522 390.656C406.694 387.786 402.655 389.818 400.775 393.044C399.819 394.685 403.39 391.89 407.634 394.881C412.034 397.98 410.956 403.719 412.661 402.206Z" fill="#F0F0F0" stroke="#283046" stroke-miterlimit="10"/>
<path d="M409.424 405.453C411.184 403.891 413.113 396.774 408.285 393.903C403.457 391.033 399.418 393.064 397.538 396.291C396.582 397.932 400.153 395.137 404.397 398.128C408.797 401.227 407.719 406.966 409.424 405.453Z" fill="#F0F0F0" stroke="#283046" stroke-miterlimit="10"/>
<path d="M405.6 409.471C407.36 407.909 409.288 400.792 404.461 397.922C399.633 395.051 395.594 397.083 393.713 400.309C392.758 401.95 396.329 399.155 400.573 402.146C404.972 405.245 403.894 410.984 405.6 409.471Z" fill="#F0F0F0" stroke="#283046" stroke-miterlimit="10"/>
<path d="M397.732 455.683C404.232 462.149 390.873 473.334 390.873 473.334C390.873 473.334 380.639 480.161 377.202 479.11C375.585 478.614 374.616 477.366 375.205 475.921C376.339 473.14 381.087 469.443 382.958 467.683C382.958 467.683 383.565 454.427 386.855 455.755C391.649 457.691 395.396 453.358 397.732 455.683Z" fill="#283046"/>
<path d="M388.263 472.253C387.372 470.369 384.171 468.234 383.381 468.445C382.592 468.654 373.679 473.996 375.571 477.133C377.463 480.27 388.263 472.253 388.263 472.253Z" fill="#F0F0F0" stroke="#283046" stroke-miterlimit="10"/>
<path d="M389.11 471.319C389.935 471.525 393.978 467.914 396.091 464.125C398.204 460.336 398.45 456.357 396.89 455.614C395.329 454.871 392.812 457.76 387.9 456.861C386.71 456.644 385.864 457.03 385.2 458.673C384.794 459.679 383.657 465.216 383.632 466.205C383.601 467.408 384.173 467.772 386.156 469.278C388.138 470.786 388.24 471.103 389.11 471.319Z" fill="#F0F0F0" stroke="#283046" stroke-miterlimit="10"/>
<path d="M383.677 456.48C384.597 457.472 379.011 462.806 373.747 468.044C370.956 470.822 367.156 475.476 364.758 477.188C362.244 478.983 357.915 477.683 358.323 474.93C359.218 468.886 367.902 451.974 369.966 451.816C372.814 451.6 373.476 453.385 376.335 454.428C379.194 455.474 382.45 455.156 383.677 456.48Z" fill="#283046"/>
<path d="M360.42 476.932C357.584 475.888 360.648 470.629 361.898 467.546C363.148 464.463 363.368 461.469 366.834 464.077C370.3 466.685 373.369 467.085 373.747 468.045C374.125 469.004 368.728 474.885 366.066 476.962C363.404 479.04 361.802 477.441 360.42 476.932Z" fill="#F0F0F0" stroke="#283046" stroke-miterlimit="10"/>
<path d="M374.228 467.013C373.234 467.314 371.874 466.865 369.483 464.889C367.093 462.913 365.874 462.569 365.075 462.242C364.275 461.915 364.786 460.35 366.702 457.17C368.616 453.99 369.354 449.647 372.097 451.913C374.84 454.179 380.453 455.609 382.397 455.743C384.341 455.876 384.406 457.511 381.153 460.721C377.898 463.931 376.381 466.359 374.228 467.013Z" fill="#F0F0F0" stroke="#283046" stroke-miterlimit="10"/>
<path d="M360.082 431.317C352.929 433.83 350.132 448.957 350.132 448.957C350.132 448.957 349.808 462.77 352.662 465.155C354.006 466.278 356.578 466.653 357.481 465.307C358.972 463.086 358.199 456.048 358.586 453.122C359.458 447.588 367.226 447.055 366.409 436.314C365.8 428.311 362.399 430.503 360.082 431.317Z" fill="#283046"/>
<path d="M351.062 451.026C353.013 452.129 355.383 453.861 356.994 453.005C357.722 452.618 358.83 464.742 355.349 464.872C350.991 465.034 351.062 451.026 351.062 451.026Z" fill="#F0F0F0" stroke="#283046" stroke-miterlimit="10"/>
<path d="M351.018 448.97C350.905 448.065 351.256 443.349 353.101 439.179C354.946 435.009 361.089 430.484 363.854 429.599C365.046 429.218 367.983 436.949 364.212 443.938C363.326 445.58 358.243 450.825 357.618 451.915C356.994 453.005 356.591 453.096 354.186 452.369C352.456 451.845 351.191 450.355 351.018 448.97Z" fill="#F0F0F0" stroke="#283046" stroke-miterlimit="10"/>
<path d="M409.073 401.918C395.907 389.076 380.167 397.195 364.895 412.242C351.621 425.321 349.65 438.275 366.885 452.49C383.304 466.034 394.831 463.537 404.304 451.316C413.776 439.096 422.451 414.968 409.073 401.918Z" fill="#283046"/>
<path d="M399.961 454.963C398.652 455.9 387.69 469.287 368.778 452.724C349.867 436.161 356.139 424.298 358.886 420.568C362.333 415.887 390.102 383.229 408.134 401.651C428.893 422.857 399.961 454.963 399.961 454.963Z" fill="#F0F0F0" stroke="#283046" stroke-miterlimit="10"/>
<path d="M385.457 403.674C380.333 400.101 372.443 408.651 376.876 411.273C382.41 414.546 388.554 405.834 385.457 403.674Z" fill="#F0F0F0" stroke="#283046" stroke-miterlimit="10"/>
<path d="M552.53 307.234L536.913 299.68C530.476 297.091 507.447 306.331 493.437 314.316C481.872 320.906 485.521 339.161 486.358 363.739C487.096 385.429 490.244 391.027 493.053 393.877C495.685 396.548 505.052 401.818 505.052 401.818L513.42 386.274C525.616 380.576 539.988 372.693 542.644 366.393C544.842 361.181 545.006 344.97 543.807 329.823L552.53 307.234Z" fill="#F0F0F0" stroke="#283046" stroke-miterlimit="10"/>
<path d="M507.532 322.382C522.033 314.118 545.866 304.555 552.529 307.234C559.192 309.913 562.98 365.563 558.461 376.28C553.94 386.997 515.737 400.302 509.552 402.539C503.367 404.777 501.161 397.874 500.206 369.834C499.339 344.396 495.563 329.204 507.532 322.382Z" fill="#F0F0F0" stroke="#283046" stroke-miterlimit="10"/>
<path d="M512.076 357.92L511.332 337.726L509.616 338.497L510.238 358.669L512.076 357.92Z" fill="#283046"/>
<path d="M519.179 355.299L518.42 334.695L516.704 335.466L517.339 356.049L519.179 355.299Z" fill="#283046"/>
<path d="M526.733 352.218L525.992 332.113L524.276 332.884L524.896 352.967L526.733 352.218Z" fill="#283046"/>
<path d="M535.592 348.605L534.829 327.924L533.115 328.695L533.751 349.356L535.592 348.605Z" fill="#283046"/>
<path d="M543.159 345.52L542.381 324.428L540.667 325.199L541.316 346.271L543.159 345.52Z" fill="#283046"/>
<path d="M550.713 342.439L549.954 321.846L548.238 322.617L548.873 343.189L550.713 342.439Z" fill="#283046"/>
<path d="M505.832 316.468C500.839 317.733 502.685 309.739 497.808 309.843C490.876 309.992 490.636 302.736 493.558 301.42C496.479 300.105 502.555 301.723 505.794 304.19C509.033 306.657 513.52 314.521 505.832 316.468Z" fill="#283046"/>
<path d="M506.777 315.624C504.629 316.17 503.983 315.319 503.393 314.072C503.202 313.669 504.023 312.391 503.795 311.939C503.56 311.473 503.168 311.455 501.893 311.387C500.502 311.315 502.74 308.846 500.72 308.677C500.385 308.649 498.471 309.453 497.987 309.366C497.51 309.28 497.39 307.774 496.991 307.659C496.592 307.544 495.914 308.819 495.588 308.679C491.499 306.925 491.602 302.209 494.121 301.074C497.042 299.759 501.694 301.511 504.933 303.979C508.17 306.446 512.605 314.144 506.777 315.624Z" fill="#F0F0F0" stroke="#283046" stroke-miterlimit="10"/>
<path d="M532.443 305.713C527.45 306.978 531.175 300.684 524.255 299.437C517.335 298.189 518.603 292.554 521.525 291.238C524.446 289.923 529.165 290.969 532.404 293.435C535.643 295.902 540.131 303.766 532.443 305.713Z" fill="#283046"/>
<path d="M533.387 304.869C531.239 305.415 530.593 304.564 530.003 303.317C529.812 302.915 530.633 301.636 530.405 301.184C530.17 300.718 528.883 301.077 528.503 300.633C528.302 300.398 528.075 300.172 527.81 299.958C527.546 299.746 527.672 298.103 527.33 297.923C527.032 297.766 526.276 299.067 525.907 298.943C525.516 298.81 525.08 298.699 524.597 298.612C524.12 298.526 524 297.02 523.601 296.905C523.202 296.791 522.524 298.065 522.198 297.926C518.109 296.171 519.544 292.628 522.063 291.493C524.984 290.178 528.302 290.758 531.542 293.225C534.781 295.69 539.216 303.388 533.387 304.869Z" fill="#F0F0F0" stroke="#283046" stroke-miterlimit="10"/>
<path d="M511.869 386.763V391.653L522.347 386.763V382.197L511.869 386.763Z" fill="#283046"/>
<path d="M521.826 386.301L517.684 384.692L521.826 382.888V386.301Z" fill="#F0F0F0" stroke="#283046" stroke-miterlimit="10" stroke-linejoin="round"/>
<defs>
<linearGradient id="paint0_linear" x1="5" y1="571.629" x2="602.148" y2="98.6414" gradientUnits="userSpaceOnUse">
<stop stop-color="#283046" stop-opacity="0"/>
<stop offset="0.39779" stop-color="#293046"/>
<stop offset="0.574586" stop-color="#293046"/>
<stop offset="1" stop-color="#283046" stop-opacity="0"/>
</linearGradient>
<linearGradient id="paint1_linear" x1="44" y1="546.648" x2="611.65" y2="97.2089" gradientUnits="userSpaceOnUse">
<stop stop-color="#F0F0F0" stop-opacity="0"/>
<stop offset="0.39779" stop-color="#E6E6E6"/>
<stop offset="0.574586" stop-color="#E6E6E6"/>
<stop offset="1" stop-color="#F0F0F0" stop-opacity="0"/>
</linearGradient>
</defs>
</svg>
