<svg width="680" height="600" viewBox="0 0 680 600" fill="none" xmlns="http://www.w3.org/2000/svg">
    <path d="M550.2 227.895L528 235.995L503.7 222.995L521.7 215.895L550.2 227.895Z" fill="#EEEFF1" stroke="#1F2533" stroke-miterlimit="10" stroke-linejoin="round"/>
    <path d="M550.2 227.895L548.9 251.295L528.2 260.295L528 235.995L550.2 227.895Z" fill="#EEEFF1" stroke="#1F2533" stroke-miterlimit="10" stroke-linejoin="round"/>
    <path d="M528 235.995L528.2 260.295L503.8 246.095L503.7 222.995L528 235.995Z" fill="#EEEFF1" stroke="#1F2533" stroke-miterlimit="10" stroke-linejoin="round"/>
    <path d="M526.7 222.495L519.6 221.095L518.1 221.595L520.4 224.795L522.1 224.195L520.3 221.995L525.2 223.095L526.7 222.495Z" fill="#1F2533"/>
    <path d="M535 224.995L533.7 224.295L518.8 225.795L520.1 226.495L535 224.995Z" fill="#1F2533"/>
    <path d="M533.9 225.995L532.3 226.595L534.3 228.895L529.2 227.695L527.6 228.295L535.1 229.895L536.6 229.295L533.9 225.995Z" fill="#1F2533"/>
    <path d="M320.3 191.495L324.7 200.895L284.7 200.395L283.1 190.895L320.3 191.495Z" fill="#EEEFF1" stroke="#1F2533" stroke-miterlimit="10" stroke-linejoin="round"/>
    <path d="M324.7 200.895L322.8 225.895L283.8 224.695L284.7 200.395L324.7 200.895Z" fill="#EEEFF1" stroke="#1F2533" stroke-miterlimit="10" stroke-linejoin="round"/>
    <path d="M284.7 200.395L283.8 224.695L282.3 214.695L283.1 190.895L284.7 200.395Z" fill="#EEEFF1" stroke="#1F2533" stroke-miterlimit="10" stroke-linejoin="round"/>
    <path d="M275.5 188.995L282.7 198.795L243.1 202.395L239.5 191.295L275.5 188.995Z" fill="#EEEFF1" stroke="#1F2533" stroke-miterlimit="10" stroke-linejoin="round"/>
    <path d="M282.7 198.795L282.6 224.095L242.1 229.095L243.1 202.395L282.7 198.795Z" fill="#EEEFF1" stroke="#1F2533" stroke-miterlimit="10" stroke-linejoin="round"/>
    <path d="M243.1 202.395L242.1 229.095L238.7 214.695L239.5 191.295L243.1 202.395Z" fill="#EEEFF1" stroke="#1F2533" stroke-miterlimit="10" stroke-linejoin="round"/>
    <path d="M229.1 192.295L240.9 202.195L202.4 207.795L189.4 197.095L229.1 192.295Z" fill="#EEEFF1" stroke="#1F2533" stroke-miterlimit="10" stroke-linejoin="round"/>
    <path d="M240.9 202.195L239.6 229.395L201.3 236.195L202.4 207.795L240.9 202.195Z" fill="#EEEFF1" stroke="#1F2533" stroke-miterlimit="10" stroke-linejoin="round"/>
    <path d="M202.4 207.795L201.3 236.195L188.7 224.095L189.4 197.095L202.4 207.795Z" fill="#EEEFF1" stroke="#1F2533" stroke-miterlimit="10" stroke-linejoin="round"/>
    <path d="M178 197.195L198 207.395L160.3 216.495L139.7 204.995L178 197.195Z" fill="#EEEFF1" stroke="#1F2533" stroke-miterlimit="10" stroke-linejoin="round"/>
    <path d="M198 207.395L195.8 238.095L158.5 248.995L160.3 216.495L198 207.395Z" fill="#EEEFF1" stroke="#1F2533" stroke-miterlimit="10" stroke-linejoin="round"/>
    <path d="M160.3 216.495L158.5 248.995L139.5 235.695L139.7 204.995L160.3 216.495Z" fill="#EEEFF1" stroke="#1F2533" stroke-miterlimit="10" stroke-linejoin="round"/>
    <path d="M161.9 206.095L157.7 208.395L158.9 209.095L166.9 208.795L165.6 208.095L160.1 208.295L163.2 206.695L161.9 206.095Z" fill="#1F2533"/>
    <path d="M168.3 203.595L166.7 203.995L169.4 209.495L171 209.195L168.3 203.595Z" fill="#1F2533"/>
    <path d="M170.6 204.195L171.9 204.795L177.2 204.595L174.3 206.095L175.6 206.795L179.5 204.495L178.3 203.895L170.6 204.195Z" fill="#1F2533"/>
    <path d="M256.8 195.295L252.2 196.095L252.5 196.695L257.8 197.395L257.5 196.895L253.8 196.395L257.1 195.795L256.8 195.295Z" fill="#1F2533"/>
    <path d="M262.9 194.595H261.7L258.7 198.195H260.1L262.9 194.595Z" fill="#1F2533"/>
    <path d="M264 195.195L264.2 195.695L267.9 196.195L264.8 196.795L265 197.295L269.5 196.495L269.3 195.895L264 195.195Z" fill="#1F2533"/>
    <path d="M300.5 191.695C303.2 191.595 309.1 186.495 307.3 180.395C305.5 174.295 300 172.495 297 173.495C294.9 174.195 290.6 177.795 291.8 183.695C293 189.695 297.8 191.795 300.5 191.695Z" fill="#F0F0F0" stroke="#283046" stroke-miterlimit="10"/>
    <path d="M296.2 193.995C298.9 193.895 304.8 188.795 303 182.695C301.2 176.495 295.7 174.795 292.7 175.795C290.6 176.495 286.3 180.095 287.5 185.995C288.8 191.995 293.6 194.095 296.2 193.995Z" fill="#F0F0F0" stroke="#283046" stroke-miterlimit="10"/>
    <path d="M290.4 196.095C293.1 195.995 299 190.895 297.2 184.795C295.4 178.595 289.9 176.895 286.9 177.895C284.8 178.595 280.5 182.195 281.7 188.095C283 194.095 287.8 196.195 290.4 196.095Z" fill="#F0F0F0" stroke="#283046" stroke-miterlimit="10"/>
    <path d="M284.1 198.695C286.8 198.595 292.7 193.495 290.9 187.395C289.1 181.195 283.6 179.495 280.6 180.495C278.5 181.195 274.2 184.795 275.4 190.695C276.7 196.695 281.5 198.795 284.1 198.695Z" fill="#F0F0F0" stroke="#283046" stroke-miterlimit="10"/>
    <path d="M277.4 200.395C280.1 200.595 286.6 196.495 285.7 190.095C284.8 183.695 279.6 181.195 276.5 181.895C274.3 182.295 269.6 185.295 270 191.195C270.3 197.395 274.8 200.195 277.4 200.395Z" fill="#F0F0F0" stroke="#283046" stroke-miterlimit="10"/>
    <path d="M270.4 201.695C273.1 202.195 279.9 198.695 279.6 192.195C279.3 185.695 274.3 182.795 271.2 183.195C269 183.395 264 185.895 263.8 191.895C263.6 197.995 267.8 201.195 270.4 201.695Z" fill="#F0F0F0" stroke="#283046" stroke-miterlimit="10"/>
    <path d="M263.4 202.995C266.1 203.495 272.9 199.995 272.6 193.495C272.3 186.995 267.3 184.095 264.2 184.495C262 184.695 257 187.195 256.8 193.195C256.6 199.395 260.8 202.495 263.4 202.995Z" fill="#F0F0F0" stroke="#283046" stroke-miterlimit="10"/>
    <path d="M254.1 202.495C256.7 203.295 264 200.695 264.5 194.295C265 187.895 260.5 184.295 257.3 184.195C255.1 184.095 249.8 185.995 248.9 191.895C247.8 198.095 251.6 201.695 254.1 202.495Z" fill="#F0F0F0" stroke="#283046" stroke-miterlimit="10"/>
    <path d="M247.1 201.995C249.7 202.795 257 200.195 257.5 193.795C258 187.395 253.5 183.795 250.3 183.695C248.1 183.595 242.8 185.495 241.9 191.395C240.8 197.495 244.6 201.195 247.1 201.995Z" fill="#F0F0F0" stroke="#283046" stroke-miterlimit="10"/>
    <path d="M239.9 200.695C242.5 201.495 249.8 198.895 250.3 192.495C250.8 186.095 246.3 182.495 243.1 182.395C240.9 182.295 235.6 184.195 234.7 190.095C233.7 196.195 237.4 199.895 239.9 200.695Z" fill="#F0F0F0" stroke="#283046" stroke-miterlimit="10"/>
    <path d="M232.7 198.395C235.3 199.195 242.6 196.595 243.1 190.195C243.6 183.795 239.1 180.195 235.9 180.095C233.7 179.995 228.4 181.895 227.5 187.795C226.4 193.895 230.2 197.595 232.7 198.395Z" fill="#F0F0F0" stroke="#283046" stroke-miterlimit="10"/>
    <path d="M225.3 195.295C227.9 196.395 235.5 194.295 236.5 187.795C237.5 181.295 233.2 177.195 229.9 176.795C227.6 176.595 222.1 177.995 220.7 183.995C219.3 190.195 222.8 194.295 225.3 195.295Z" fill="#F0F0F0" stroke="#283046" stroke-miterlimit="10"/>
    <path d="M304.9 208.395C317.2 216.395 340.8 225.295 352.1 217.295C363.4 209.295 370.8 186.395 362.7 177.295C354.7 168.195 340.8 165.095 329.9 161.195C319.7 157.495 306.3 159.095 299.4 177.595C294.6 190.595 295.8 202.595 304.9 208.395Z" fill="#283046"/>
    <path d="M311.6 211.495C317.4 214.695 325.3 218.595 332.9 219.395C340.5 220.195 357 222.295 362.4 201.595C367.2 182.995 362.5 174.795 347 168.295C330.9 161.595 330.2 161.495 325.7 160.695C321.7 159.995 308.1 156.895 300.4 180.295C293.5 200.795 306 208.395 311.6 211.495Z" fill="#F0F0F0" stroke="#283046" stroke-miterlimit="10"/>
    <path d="M284.6 434.895C281.7 474.195 364 471.995 366.3 439.495C368.5 409.995 286.5 409.695 284.6 434.895Z" fill="#F0F0F0" stroke="#283046" stroke-miterlimit="10"/>
    <path d="M335.5 382.895C315.2 377.195 285.6 398.095 283.9 427.995C281.3 470.995 364.7 468.795 367.7 433.795C370.6 398.795 348.1 386.395 335.5 382.895Z" fill="#283046"/>
    <path d="M334.8 384.095C316 378.795 287.6 398.095 286.8 425.995C285.7 465.895 361.9 463.895 364.7 431.395C367.4 398.895 346.5 387.395 334.8 384.095Z" fill="#F0F0F0" stroke="#283046" stroke-miterlimit="10"/>
    <path d="M348.4 309.295C352.5 294.495 330.6 290.795 327.4 306.195C327.1 307.695 320.7 326.395 319.8 348.395C318.9 369.795 320.8 392.695 320.8 392.695C320.8 392.695 322.4 399.395 331 399.195C340.7 398.995 341.2 387.295 341.2 387.295C341.2 343.995 340.1 339.595 348.4 309.295Z" fill="#283046"/>
    <path d="M318.7 386.095C317.1 391.595 322.4 398.695 329.3 398.795C338.8 398.795 340.9 392.595 341.5 386.895C341.7 384.995 337.7 383.895 330.4 383.795C323.7 383.795 319.4 383.895 318.7 386.095Z" fill="#F0F0F0" stroke="#283046" stroke-miterlimit="10"/>
    <path d="M318.7 378.695C317.1 384.195 322.4 391.295 329.3 391.395C338.8 391.395 340.9 385.195 341.5 379.495C341.7 377.595 337.7 376.495 330.4 376.395C323.7 376.395 319.4 376.495 318.7 378.695Z" fill="#F0F0F0" stroke="#283046" stroke-miterlimit="10"/>
    <path d="M318.7 369.895C317.1 375.395 322.4 382.495 329.3 382.595C338.8 382.595 340.9 376.395 341.5 370.695C341.7 368.795 337.7 367.695 330.4 367.595C323.7 367.595 319.4 367.695 318.7 369.895Z" fill="#F0F0F0" stroke="#283046" stroke-miterlimit="10"/>
    <path d="M318.7 361.795C317.1 367.295 323.7 374.395 330.7 374.495C340.2 374.495 341 368.295 341.6 362.595C341.8 360.695 337.8 359.595 330.5 359.495C323.7 359.395 319.4 359.595 318.7 361.795Z" fill="#F0F0F0" stroke="#283046" stroke-miterlimit="10"/>
    <path d="M318.7 352.995C317.1 358.495 323.7 365.595 330.7 365.695C340.2 365.695 341 359.495 341.6 353.795C341.8 351.895 337.8 350.795 330.5 350.695C323.7 350.695 319.4 350.795 318.7 352.995Z" fill="#F0F0F0" stroke="#283046" stroke-miterlimit="10"/>
    <path d="M318.7 344.295C317.1 349.795 322.4 356.895 329.3 356.995C338.8 356.995 340.9 350.795 341.5 345.095C341.7 343.195 339 342.095 331.7 341.995C325.1 341.895 319.4 341.995 318.7 344.295Z" fill="#F0F0F0" stroke="#283046" stroke-miterlimit="10"/>
    <path d="M320.7 333.795C318.5 339.095 321.6 346.795 328.6 347.495C338.1 348.495 342.2 342.595 343.4 336.995C343.8 335.095 339.9 333.595 332.6 332.795C325.9 331.995 321.6 331.695 320.7 333.795Z" fill="#F0F0F0" stroke="#283046" stroke-miterlimit="10"/>
    <path d="M322.2 325.495C319.8 330.695 323.9 338.595 330.8 339.595C340.2 341.095 343.2 335.295 344.7 329.695C345.2 327.795 341.4 326.095 334.2 324.995C327.5 323.995 323.2 323.395 322.2 325.495Z" fill="#F0F0F0" stroke="#283046" stroke-miterlimit="10"/>
    <path d="M324.5 315.395C321.2 320.095 324 328.595 330.6 330.795C339.6 333.795 343.6 328.595 345.9 323.395C346.7 321.595 343.2 319.295 336.3 316.995C330 314.695 325.9 313.495 324.5 315.395Z" fill="#F0F0F0" stroke="#283046" stroke-miterlimit="10"/>
    <path d="M327.5 307.195C324.2 311.895 327 320.395 333.6 322.595C342.6 325.595 346.6 320.395 348.9 315.195C349.7 313.395 346.2 311.095 339.3 308.795C332.9 306.595 328.8 305.295 327.5 307.195Z" fill="#F0F0F0" stroke="#283046" stroke-miterlimit="10"/>
    <path d="M330.9 298.595C326.9 305.295 330.4 311.795 337 313.995C346 316.995 349.5 313.095 351 307.095C351.9 303.395 350.6 298.895 343.6 296.495C337.3 294.295 332.1 296.595 330.9 298.595Z" fill="#F0F0F0" stroke="#283046" stroke-miterlimit="10"/>
    <path d="M330.7 456.895C327.2 438.695 344.1 418.695 325.9 416.295C311.8 414.395 305.5 406.095 297.2 417.195C291 425.395 289.6 441.095 289.6 441.095" stroke="#283046" stroke-miterlimit="10"/>
    <path d="M366.1 274.495C356.6 265.495 338.1 250.495 322 275.195C307.1 297.995 326.3 311.895 334.8 317.495C342.7 322.795 356.8 324.795 366.2 308.395C372.7 296.995 373 281.095 366.1 274.495Z" fill="#283046"/>
    <path d="M358.3 268.795C350.1 263.195 336.6 251.995 322.1 276.495C304.7 305.895 335.8 317.695 340.1 319.595C342.3 320.595 358.3 326.595 367.8 305.195C378.1 281.795 365.1 273.395 358.3 268.795Z" fill="#F0F0F0" stroke="#283046" stroke-miterlimit="10"/>
    <path d="M422 349.395C402.7 352.995 384.4 343.995 364.1 331.095C343.8 318.195 332.9 324.995 323.1 302.295C313.3 279.595 315.6 250.395 320 234.795C324.4 219.195 341.1 199.995 393.3 207.795C445.5 215.595 460.3 225.695 460 246.395C459.7 269.395 464.7 341.395 422 349.395Z" fill="#283046"/>
    <path d="M440.3 225.395C414.7 227.295 418.2 233.595 413.2 272.495C410.1 296.895 399.1 351.795 429 345.995C452 341.595 457.3 306.395 458.7 273.195C460.1 239.895 460.1 223.895 440.3 225.395Z" fill="#F0F0F0" stroke="#283046" stroke-miterlimit="10"/>
    <path d="M385.6 339.295C366.9 330.495 363.9 324.595 347.5 320.595C331.1 316.595 325.3 305.395 320.5 289.395C315.7 273.495 315.5 250.295 320 236.695C324.4 223.095 323.7 218.395 366.4 225.195C409.1 231.995 426.9 220.195 420.9 237.495C414.9 254.795 405.8 296.995 407.6 318.495C409.9 346.995 404.3 348.095 385.6 339.295Z" fill="#F0F0F0" stroke="#283046" stroke-miterlimit="10"/>
    <path d="M302.5 195.895C307.9 178.295 326.9 164.695 328.2 160.695C329.6 156.595 318.7 145.795 321.4 140.395C324.1 134.995 337.7 132.195 345.8 132.295C357.4 132.395 441.8 155.895 487.1 175.995C510.7 186.495 517.1 198.795 511.9 202.795C505.9 207.395 486 217.595 485 217.695C485.4 232.895 483.2 246.095 483.2 246.095C483.2 246.095 442.9 274.195 438.6 276.595C435.5 278.395 416.7 278.695 412 278.595C411.2 278.595 410.5 278.395 409.8 277.895L370.6 252.095C370.6 252.095 361.3 256.195 349.4 252.395C337.5 248.695 334.8 237.795 334.8 237.795L318.4 236.495C317.8 236.495 315.9 235.995 315.4 235.695C312.6 234.095 304.3 228.995 300.9 225.595C297 221.595 297 213.495 302.5 195.895Z" fill="#283046"/>
    <path d="M501.1 209.295C488.7 201.295 468.8 192.495 457.9 201.395C447 210.295 439.9 235.695 447.6 245.895C455.3 256.095 468.7 259.495 479.3 263.895C489.2 267.995 502.1 266.295 508.7 245.595C513.4 231.095 510.3 215.195 501.1 209.295Z" fill="#283046"/>
    <path d="M494 208.595C483.7 207.995 473.5 219.795 473.2 235.695C472.9 251.595 477.6 262.095 487.2 263.795C498.3 265.695 506.9 251.295 508.9 238.095C510.9 224.895 505.2 209.295 494 208.595Z" fill="#F0F0F0" stroke="#283046" stroke-miterlimit="10"/>
    <path d="M493.1 217.695C486.2 217.295 481.5 223.795 480.3 235.895C479.3 246.595 482 253.695 488.5 254.795C495.9 256.095 501.8 246.395 503.1 237.495C504.4 228.595 500.6 218.095 493.1 217.695Z" fill="#283046"/>
    <path d="M495.9 207.695C495.9 207.695 483.9 200.095 476.5 199.195C469.1 198.295 453.2 195.895 448 218.995C443.3 239.695 447.9 248.895 462.9 255.995C478.5 263.495 485.9 264.495 484.4 264.095C480.7 262.895 470.4 259.895 472 232.695C473.7 205.295 495.9 207.695 495.9 207.695Z" fill="#F0F0F0" stroke="#283046" stroke-miterlimit="10"/>
    <path d="M510.5 199.995C515.4 195.595 506.6 186.695 483 176.295C443.9 158.895 362.2 136.995 351.9 134.595C342.4 132.295 323.4 134.595 320.7 139.995C318 145.395 328.8 154.895 327.5 158.995C326.1 163.095 310.8 175.595 304.5 192.895C299.2 207.495 297.7 218.595 301.8 222.695C305 225.895 313.6 231.295 316 232.895C316.7 233.295 317.4 233.595 318.2 233.595H333.2C334.5 233.595 335.6 234.495 335.9 235.795C336.6 239.295 338.8 245.795 346.1 248.195C355.2 251.095 362.7 246.995 365.8 244.895C366.7 244.295 367.9 244.295 368.8 244.895C376.2 249.895 406.6 270.595 410.8 273.095C415.4 275.795 430.5 273.095 433.8 272.295C437.9 271.295 430.4 268.595 431.4 247.895C432.4 227.195 430 207.895 446.6 207.595C463.2 207.295 474.6 216.495 485.9 213.695C495.1 211.195 504.5 205.395 510.5 199.995Z" fill="#F0F0F0" stroke="#283046" stroke-miterlimit="10"/>
    <path d="M463 168.795C463 168.795 427.7 203.095 376.2 185.795C330.7 170.495 340.2 143.995 340.2 143.995C340.2 143.995 348.8 81.1946 409.7 86.2946C470.6 91.3946 463 168.795 463 168.795Z" fill="#283046"/>
    <path d="M459.5 166.295C459.5 166.295 426.8 197.895 377.1 181.295C333.2 166.595 342.4 143.695 342.4 143.695C342.4 143.695 350.7 83.1946 409.4 88.0946C468.1 92.9946 459.5 166.295 459.5 166.295Z" fill="#F0F0F0" stroke="#283046" stroke-miterlimit="10"/>
    <path d="M450.4 113.695C445.4 106.095 428.7 102.395 421.2 126.595C413.3 151.795 400.4 180.695 367.2 165.595C334 150.495 355.4 111.895 362 103.895" stroke="#283046" stroke-miterlimit="10"/>
    <path d="M446.2 244.995C443.4 249.595 440.9 251.795 438.1 251.795C436 251.795 435.4 255.095 438.1 255.095C441 255.095 443.9 254.195 449.6 244.495C455 235.395 456.7 238.295 459 238.295C461.3 238.295 461.3 235.295 458.8 234.795C452.8 233.795 449 240.395 446.2 244.995Z" fill="#F0F0F0" stroke="#283046" stroke-miterlimit="10"/>
    <path d="M335.2 217.695C330.6 234.795 336 246.595 348.9 250.895C365.3 256.495 376.1 250.195 381.3 236.695C386.5 223.195 382.4 205.395 366.2 200.795C353.2 196.995 339 203.795 335.2 217.695Z" fill="#283046"/>
    <path d="M336.7 219.495C333.3 233.495 338.4 244.195 349.5 248.395C360.6 252.595 370.8 245.995 375.6 233.495C380.4 220.995 375.2 206.095 364.1 201.895C353 197.695 339.9 206.495 336.7 219.495Z" fill="#F0F0F0" stroke="#283046" stroke-miterlimit="10"/>
    <path d="M388.4 481.495C384.4 524.195 472.3 523.695 475.6 488.395C478.5 456.195 391 453.995 388.4 481.495Z" fill="#EEEFF1" stroke="#1F2533" stroke-miterlimit="10"/>
    <path d="M443.9 425.995C422.4 419.395 390.3 441.395 387.7 473.895C384 520.595 473.1 520.095 477 482.195C481.1 444.095 457.3 430.095 443.9 425.995Z" fill="#1F2533"/>
    <path d="M443.1 427.295C423.1 421.095 392.3 441.495 390.9 471.795C388.8 515.195 470.2 514.795 473.9 479.495C477.6 444.195 455.6 431.095 443.1 427.295Z" fill="#F0F0F0"/>
    <path d="M449.5 348.995C450.3 332.895 429.5 329.495 426.1 345.695C425.8 347.295 425.9 366.895 425 390.095C424.1 412.595 424.6 436.595 424.6 436.595C424.6 436.595 426.3 443.595 435.4 443.495C445.6 443.295 446.1 430.895 446.1 430.895C446 385.595 448.2 375.895 449.5 348.995Z" fill="#283046"/>
    <path d="M423.8 431.295C422.1 437.095 427.7 444.595 435 444.595C445 444.595 447.2 438.095 447.8 432.095C448 430.095 443.8 428.895 436.1 428.895C429 428.795 424.5 428.895 423.8 431.295Z" fill="#F0F0F0" stroke="#283046" stroke-miterlimit="10"/>
    <path d="M423.8 421.995C422.1 427.795 427.7 435.295 435 435.295C445 435.295 447.2 428.795 447.8 422.795C448 420.795 443.8 419.595 436.1 419.595C429 419.595 424.5 419.695 423.8 421.995Z" fill="#F0F0F0" stroke="#283046" stroke-miterlimit="10"/>
    <path d="M423.8 412.795C422.1 418.595 427.7 426.095 435 426.095C445 426.095 447.2 419.595 447.8 413.595C448 411.595 443.8 410.395 436.1 410.395C429 410.395 424.5 410.495 423.8 412.795Z" fill="#F0F0F0" stroke="#283046" stroke-miterlimit="10"/>
    <path d="M423.8 404.295C422.1 410.095 427.7 417.595 435 417.595C445 417.595 447.2 411.095 447.8 405.095C448 403.095 443.8 401.895 436.1 401.895C429 401.795 424.5 401.895 423.8 404.295Z" fill="#F0F0F0" stroke="#283046" stroke-miterlimit="10"/>
    <path d="M423.8 394.995C422.1 400.795 427.7 408.295 435 408.295C445 408.295 447.2 401.795 447.8 395.795C448 393.795 443.8 389.895 436.1 389.895C429 389.895 424.5 392.695 423.8 394.995Z" fill="#F0F0F0" stroke="#283046" stroke-miterlimit="10"/>
    <path d="M423.8 385.795C422.1 391.595 427.7 399.095 435 399.095C445 399.095 447.2 392.595 447.8 386.595C448 384.595 443.8 382.095 436.1 381.995C429 381.995 424.5 383.495 423.8 385.795Z" fill="#F0F0F0" stroke="#283046" stroke-miterlimit="10"/>
    <path d="M423.9 377.095C422.1 382.795 427.4 390.495 434.7 390.695C444.7 390.995 447.1 384.495 447.9 378.595C448.2 376.595 444 375.295 436.3 375.095C429.2 374.795 424.7 374.795 423.9 377.095Z" fill="#F0F0F0" stroke="#283046" stroke-miterlimit="10"/>
    <path d="M424.2 369.095C422.5 374.895 428.1 382.395 435.5 382.295C445.5 382.295 447.7 375.695 448.2 369.695C448.4 367.695 444.2 366.595 436.5 366.595C429.4 366.595 424.8 366.795 424.2 369.095Z" fill="#F0F0F0" stroke="#283046" stroke-miterlimit="10"/>
    <path d="M424.3 359.795C422.2 365.495 427.3 373.295 434.6 373.795C444.6 374.495 447.2 368.095 448.2 362.195C448.5 360.195 444.4 358.795 436.7 358.195C429.7 357.695 425.2 357.495 424.3 359.795Z" fill="#F0F0F0" stroke="#283046" stroke-miterlimit="10"/>
    <path d="M424.3 350.995C422.3 356.695 427.5 364.495 434.8 364.895C444.8 365.395 447.4 359.095 448.3 353.095C448.6 351.095 444.5 349.695 436.8 349.295C429.7 348.895 425.1 348.795 424.3 350.995Z" fill="#F0F0F0" stroke="#283046" stroke-miterlimit="10"/>
    <path d="M427 340.095C424.4 347.895 429.4 353.695 436.6 354.595C446.6 355.695 449.2 350.895 449.5 344.395C449.6 340.395 447.2 336.095 439.6 335.195C432.6 334.295 427.8 337.795 427 340.095Z" fill="#F0F0F0" stroke="#283046" stroke-miterlimit="10"/>
    <path d="M419.5 506.495C416.2 486.595 431.7 471.595 417.9 457.595C403.6 443.195 396.3 450.895 391 464.895" stroke="#1F2533" stroke-miterlimit="10"/>
    <path d="M435.5 272.795L382.6 235.395C382.6 235.395 385.9 226.695 383.4 217.795C381.5 211.095 376.7 205.795 376.7 205.795L384.3 186.195L378.5 185.495L370.6 204.995C370.6 204.995 378 212.295 378.4 221.795C378.7 231.295 377.8 237.895 377.8 237.895L427.5 273.295L435.5 272.795Z" fill="#283046"/>
    <path d="M334.4 226.295C333.6 226.595 305.1 226.795 305.1 226.795L303.4 225.195L334.3 224.295C334.3 224.295 335.3 213.695 341.5 207.395C347.7 201.095 357.7 199.695 357.7 199.695L365.8 179.195L368.1 179.095L359.6 199.995C359.6 199.995 343.2 201.995 339.3 211.795C335.4 221.595 335.8 226.195 335.8 226.195H334.4V226.295Z" fill="#283046"/>
    <path d="M355.5 210.595C354.1 210.695 352.6 210.995 351.2 211.795C347.6 213.695 344.9 217.195 343.9 221.295C343.6 222.695 343.4 223.995 343.3 225.295L339.2 226.195C339.2 224.295 339.5 222.395 340 220.295C341.3 215.095 344.8 210.595 349.4 208.195C351.9 206.895 354.5 206.395 357 206.595L355.5 210.595Z" fill="#283046"/>
    <path d="M343.4 229.395C344.1 233.895 346.6 237.295 350.4 238.495C354.4 239.795 358.4 238.395 361.4 234.995L364.4 237.695C361.4 241.195 357.5 243.095 353.4 243.095C352 243.095 350.6 242.895 349.2 242.395C343.9 240.695 340.4 236.195 339.5 230.295L343.4 229.395Z" fill="#283046"/>
    <path d="M367.1 233.895C366.1 233.095 364.9 232.095 363.9 231.295C364.2 230.595 364.6 229.895 364.8 229.195C367.5 222.195 365 214.195 359.4 211.495C359.8 210.295 360.2 208.995 360.7 207.595C368.4 210.895 372.1 221.495 368.7 230.595C368.2 231.695 367.7 232.795 367.1 233.895Z" fill="#283046"/>
    <path d="M461.2 320.095C451 311.895 431.4 298.495 417.3 324.295C404.3 348.195 423.7 361.095 432.6 365.995C440.9 370.595 455.9 370.895 464 353.895C469.6 342.095 468.7 326.195 461.2 320.095Z" fill="#283046"/>
    <path d="M456.7 318.095C456.7 318.095 431.6 298.795 419.1 324.295C404.1 354.995 441.6 367.695 440.3 367.095C437.1 365.695 424.6 358.995 432.3 336.895C440.8 312.795 456.7 318.095 456.7 318.095Z" fill="#F0F0F0" stroke="#283046" stroke-miterlimit="10"/>
    <path d="M455.6 317.995C446.8 314.895 436.2 325.195 432.3 338.395C428.4 351.395 434.3 366.195 442.9 367.295C452.9 368.495 461.7 358.695 464.9 347.495C467.9 336.395 465.1 321.395 455.6 317.995Z" fill="#F0F0F0" stroke="#283046" stroke-miterlimit="10"/>
    <path d="M452 336.195C449.5 335.295 446.4 338.295 445.3 342.095C444.2 345.795 445.9 350.095 448.3 350.395C451.2 350.795 453.7 347.895 454.6 344.695C455.5 341.395 454.7 337.095 452 336.195Z" fill="#F0F0F0" stroke="#283046" stroke-miterlimit="10"/>
    <path d="M435.5 304.995C439.2 309.795 440.3 313.995 439.1 316.595C438.2 318.495 440.9 320.395 442.1 318.095C443.4 315.495 443.7 310.095 437.6 303.195C432.6 297.595 427.8 295.795 427.7 298.795C427.7 301.095 432.3 300.795 435.5 304.995Z" fill="#F0F0F0" stroke="#283046" stroke-miterlimit="10"/>
    <path d="M377.986 157.329C385.378 155.711 389.81 147.271 387.885 138.476C385.96 129.682 378.408 123.864 371.016 125.482C363.625 127.1 359.193 135.54 361.118 144.334C363.043 153.129 370.595 158.947 377.986 157.329Z" fill="#F0F0F0" stroke="#283046" stroke-miterlimit="10"/>
    <path d="M379.651 154.397C385.532 153.11 388.978 146.031 387.349 138.585C385.72 131.14 379.631 126.147 373.75 127.434C367.87 128.721 364.423 135.8 366.053 143.246C367.682 150.691 373.77 155.684 379.651 154.397Z" fill="#283046"/>
    <path d="M373.8 124.795L376.7 140.895L377.2 125.795" stroke="#283046" stroke-miterlimit="10"/>
    <path d="M368.3 126.395L376.7 140.895L371 125.495" stroke="#283046" stroke-miterlimit="10"/>
    <path d="M365.4 128.495L376.7 140.895L363.1 131.295" stroke="#283046" stroke-miterlimit="10"/>
    <path d="M361.6 134.395L376.7 140.895L360.7 138.695" stroke="#283046" stroke-miterlimit="10"/>
    <path d="M360.8 142.195L376.7 140.895L361.6 145.795" stroke="#283046" stroke-miterlimit="10"/>
    <path d="M362.8 148.995L376.7 140.895L364.8 151.895" stroke="#283046" stroke-miterlimit="10"/>
    <path d="M367.2 154.595L376.7 140.895L371.4 156.895" stroke="#283046" stroke-miterlimit="10"/>
    <path d="M375.1 157.695L376.7 140.895L379.2 157.095" stroke="#283046" stroke-miterlimit="10"/>
    <path d="M381.1 156.195L376.7 140.895L382.9 154.995" stroke="#283046" stroke-miterlimit="10"/>
    <path d="M384.6 153.295L376.7 140.895L386 151.295" stroke="#283046" stroke-miterlimit="10"/>
    <path d="M382.9 134.695C384.3 136.795 384.8 144.395 383.8 142.495C380.5 136.195 376.1 136.695 372.4 137.595C370.2 138.095 371.5 132.395 373.2 131.595C376.7 130.195 379.8 130.195 382.9 134.695Z" fill="#F0F0F0" stroke="#283046" stroke-miterlimit="10"/>
    <path d="M382.8 150.595C382.8 150.595 378.5 146.595 372.9 144.995C371.6 144.595 369.5 145.495 371.8 148.195C375.1 151.995 382.8 150.595 382.8 150.595Z" fill="#F0F0F0" stroke="#283046" stroke-miterlimit="10"/>
    <path d="M228.1 183.195C219.6 203.495 198.4 201.995 174.5 192.695C153.7 184.595 145.4 171.195 157.7 147.495C169.4 124.895 183.3 122.195 199.5 131.195C215.7 140.195 236.7 162.595 228.1 183.195Z" fill="#283046"/>
    <path d="M193.1 129.195C191.2 128.795 211.4 137.595 198.3 164.695C185.2 191.795 159.2 183.595 164 186.395C170 189.895 216 212.795 227.2 183.995C240.1 150.895 193.1 129.195 193.1 129.195Z" fill="#F0F0F0" stroke="#283046" stroke-miterlimit="10"/>
    <path d="M194 129.495C199.4 132.595 206.7 146.795 196.4 165.995C186.1 185.195 166.2 186.695 160.7 182.695C155.7 179.095 147.6 165.495 161.3 143.595C175 121.695 190.3 127.395 194 129.495Z" fill="#F0F0F0" stroke="#283046" stroke-miterlimit="10"/>
    <path d="M167.4 148.095C176.9 132.095 186.5 129.095 192.2 129.495C188.1 127.395 174.6 123.395 162.3 144.195C149.3 165.995 156.7 179.295 161.3 182.795C161.6 182.995 162 183.295 162.4 183.395C158.7 177.795 156.8 165.995 167.4 148.095Z" fill="#F0F0F0" stroke="#283046" stroke-miterlimit="10"/>
    <path d="M191 135.395C194.7 125.095 174.4 119.895 174.4 119.895C174.4 119.895 159.8 117.895 156.6 120.795C155.1 122.195 154.7 123.995 156.1 125.295C158.8 127.695 165.8 129.195 168.8 130.095C168.8 130.095 176.4 144.095 179.2 140.895C183.4 136.395 189.7 139.095 191 135.395Z" fill="#283046"/>
    <path d="M172.2 122.995C172.1 126.795 169.7 132.995 168.7 133.395C167.7 133.695 155.3 132.395 155.9 125.595C156.4 118.895 172.2 122.995 172.2 122.995Z" fill="#F0F0F0" stroke="#283046" stroke-miterlimit="10"/>
    <path d="M173.6 122.995C174.4 122.295 180.6 124.095 184.9 127.095C189.2 130.095 191.5 134.195 190.2 135.895C188.9 137.495 184.7 135.695 179.8 139.195C178.6 140.095 177.5 140.095 175.9 138.695C174.9 137.795 170.8 132.495 170.3 131.395C169.6 130.095 170.1 129.395 171.4 126.795C172.8 124.095 172.8 123.695 173.6 122.995Z" fill="#F0F0F0" stroke="#283046" stroke-miterlimit="10"/>
    <path d="M220.7 160.195C215.3 161.495 207.6 150.095 212.3 149.395C218.1 148.595 224 159.395 220.7 160.195Z" fill="#F0F0F0" stroke="#283046" stroke-miterlimit="10"/>
    <path d="M170.5 181.195C163 184.795 149.1 175.195 149.1 175.195C149.1 175.195 138.2 164.895 138.5 160.795C138.7 158.895 140.4 156.595 142.1 156.995C145 157.595 149.8 163.595 152.4 165.595C157.4 169.195 163.8 163.595 171.5 172.595C177.2 179.095 172.9 180.095 170.5 181.195Z" fill="#283046"/>
    <path d="M148.2 172.995C148.9 170.595 149.4 167.495 151.3 166.895C152.2 166.595 143.6 156.395 140.8 158.995C137.3 162.195 148.2 172.995 148.2 172.995Z" fill="#F0F0F0" stroke="#283046" stroke-miterlimit="10"/>
    <path d="M149.8 174.595C150.4 175.395 154.3 178.795 159 180.595C163.7 182.395 171.9 181.095 174.7 179.695C175.9 179.095 172.2 170.795 163.9 168.295C161.9 167.695 153.9 167.595 152.6 167.195C151.3 166.795 150.9 167.095 149.6 169.495C148.7 171.295 148.8 173.395 149.8 174.595Z" fill="#F0F0F0" stroke="#283046" stroke-miterlimit="10"/>
    <path d="M194.5 154.095C194.9 152.195 183.4 151.695 174.1 147.795C169 145.695 162.6 143.595 158.5 143.395C154.2 143.195 150.3 149.795 152.9 152.795C158.5 159.295 179.1 171.195 181.7 169.895C185.2 167.995 184.7 165.395 187.3 162.095C189.9 158.795 194 156.595 194.5 154.095Z" fill="#283046"/>
    <path d="M171.1 146.595C161.5 144.095 155.7 143.895 153.9 147.895C152.1 151.895 156.4 152.995 165.4 159.395C166.4 160.095 171.3 165.195 176 167.595C180.7 169.995 182.1 171.895 187 170.795C193.5 169.295 197.4 161.895 197.3 157.595C197.2 154.895 196.9 153.295 190.5 152.595C182.5 151.695 177.3 148.195 171.1 146.595Z" fill="#F0F0F0" stroke="#283046" stroke-miterlimit="10"/>
    <path d="M209 198.695L203.8 200.695L204.8 201.395L212.8 201.595L211.8 200.795H206.3L209.9 199.395L209 198.695Z" fill="#1F2533"/>
    <path d="M216.3 196.695L214.6 196.895L215 202.495L216.8 202.295L216.3 196.695Z" fill="#1F2533"/>
    <path d="M218.4 197.395L219.4 198.095L224.8 198.195L221.3 199.495L222.3 200.195L227.2 198.295L226.2 197.595L218.4 197.395Z" fill="#1F2533"/>
    <path d="M121.2 212.195L156 221.395L125.7 237.995L88.3 226.695L121.2 212.195Z" fill="#EEEFF1" stroke="#1F2533" stroke-miterlimit="10" stroke-linejoin="round"/>
    <path d="M156 221.395L152.8 255.295L123.4 275.395L125.7 237.995L156 221.395Z" fill="#EEEFF1" stroke="#1F2533" stroke-miterlimit="10" stroke-linejoin="round"/>
    <path d="M125.7 237.995L123.4 275.395L87.7 262.495L88.3 226.695L125.7 237.995Z" fill="#EEEFF1" stroke="#1F2533" stroke-miterlimit="10" stroke-linejoin="round"/>
    <path d="M114.1 224.895L111.9 228.795L114.3 229.495L124 227.695L121.5 226.995L114.9 228.295L116.5 225.595L114.1 224.895Z" fill="#1F2533"/>
    <path d="M118.6 220.495L117.2 221.195L128.3 228.395L129.8 227.595L118.6 220.495Z" fill="#1F2533"/>
    <path d="M122.3 220.895L124.8 221.595L130.9 220.495L129.6 222.995L132.1 223.595L133.7 219.995L131.3 219.395L122.3 220.895Z" fill="#1F2533"/>
    <path d="M65.8 242.895L121.3 245.395L117.4 278.495L56.5 275.395L65.8 242.895Z" fill="#EEEFF1" stroke="#1F2533" stroke-miterlimit="10" stroke-linejoin="round"/>
    <path d="M65.8 242.895L121.3 245.395L117.4 278.495L56.5 275.395L65.8 242.895Z" fill="#EEEFF1"/>
    <path d="M65.8 242.895L121.3 245.395L117.4 278.495L56.5 275.395L65.8 242.895Z" stroke="#1F2533" stroke-miterlimit="10" stroke-linejoin="round"/>
    <path d="M121.3 245.395L119.6 283.895L116.6 323.295L117.4 278.495L121.3 245.395Z" fill="#EEEFF1" stroke="#1F2533" stroke-miterlimit="10" stroke-linejoin="round"/>
    <path d="M117.4 278.495L116.6 323.295L56.8 320.095L56.5 275.395L117.4 278.495Z" fill="#EEEFF1" stroke="#1F2533" stroke-miterlimit="10" stroke-linejoin="round"/>
    <path d="M83 263.395L88 269.695L92.1 269.895L99.3 264.195L95.1 263.995L90.3 267.995L87.1 263.595L83 263.395Z" fill="#1F2533"/>
    <path d="M79.9 255.595L79.6 257.095L105.2 263.695L105.4 262.095L79.9 255.595Z" fill="#1F2533"/>
    <path d="M84.8 254.895L88.8 255.095L93.4 251.395L96.6 255.495L100.6 255.695L95.6 249.895L91.8 249.695L84.8 254.895Z" fill="#1F2533"/>
    <path d="M54 299.995L104.1 284.795L140.4 322.995L87.6 344.695L54 299.995Z" fill="#EEEFF1" stroke="#1F2533" stroke-miterlimit="10" stroke-linejoin="round"/>
    <path d="M140.4 322.995L141 359.195L88.4 381.895L87.6 344.695L140.4 322.995Z" fill="#EEEFF1" stroke="#1F2533" stroke-miterlimit="10" stroke-linejoin="round"/>
    <path d="M87.6 344.695L88.4 381.895L56.5 335.395L54 299.995L87.6 344.695Z" fill="#EEEFF1" stroke="#1F2533" stroke-miterlimit="10" stroke-linejoin="round"/>
    <path d="M93 319.195L106 325.195L109.7 323.795L108.1 313.295L104.3 314.795L105.6 321.995L96.8 317.695L93 319.195Z" fill="#1F2533"/>
    <path d="M79.7 310.295L81.5 312.495L112.4 310.295L110.5 308.195L79.7 310.295Z" fill="#1F2533"/>
    <path d="M83.1 307.495L86.9 306.095L85.9 299.395L94.1 303.295L97.8 301.995L85.6 296.495L82.1 297.795L83.1 307.495Z" fill="#1F2533"/>
    <path d="M99.4 357.995L148 331.495L215.1 363.195L166.5 398.295L99.4 357.995Z" fill="#EEEFF1" stroke="#1F2533" stroke-miterlimit="10" stroke-linejoin="round"/>
    <path d="M99.4 357.995L148 331.495L215.1 363.195L166.5 398.295L99.4 357.995Z" fill="#EEEFF1"/>
    <path d="M99.4 357.995L148 331.495L215.1 363.195L166.5 398.295L99.4 357.995Z" stroke="#1F2533" stroke-miterlimit="10" stroke-linejoin="round"/>
    <path d="M215.1 363.195L214.9 408.395L167.6 449.295L166.5 398.295L215.1 363.195Z" fill="#EEEFF1" stroke="#1F2533" stroke-miterlimit="10" stroke-linejoin="round"/>
    <path d="M166.5 398.295L167.6 449.295L101.1 399.695L99.4 357.995L166.5 398.295Z" fill="#EEEFF1" stroke="#1F2533" stroke-miterlimit="10" stroke-linejoin="round"/>
    <path d="M160 369.295L177.6 372.495L180.9 370.495L173.6 361.495L170.2 363.495L175.5 369.595L163.5 367.395L160 369.295Z" fill="#1F2533"/>
    <path d="M140.1 363.695L143.3 365.295L176.8 357.995L173.6 356.495L140.1 363.695Z" fill="#1F2533"/>
    <path d="M142.3 360.595L145.8 358.595L140.9 352.595L152.5 354.795L155.9 352.895L139 349.995L135.6 351.795L142.3 360.595Z" fill="#1F2533"/>
    <path d="M195.3 404.795L223.9 369.495L332.2 383.295L311.9 421.395L195.3 404.795Z" fill="#EEEFF1" stroke="#1F2533" stroke-miterlimit="10" stroke-linejoin="round"/>
    <path d="M195.3 404.795L223.9 369.495L332.2 383.295L311.9 421.395L195.3 404.795Z" fill="#EEEFF1"/>
    <path d="M195.3 404.795L223.9 369.495L332.2 383.295L311.9 421.395L195.3 404.795Z" stroke="#1F2533" stroke-miterlimit="10" stroke-linejoin="round"/>
    <path d="M332.2 383.295L329.3 434.895L311.3 478.895L311.9 421.395L332.2 383.295Z" fill="#EEEFF1" stroke="#1F2533" stroke-miterlimit="10" stroke-linejoin="round"/>
    <path d="M311.9 421.395L311.3 478.895L196.9 458.795L195.3 404.795L311.9 421.395Z" fill="#EEEFF1" stroke="#1F2533" stroke-miterlimit="10" stroke-linejoin="round"/>
    <path d="M277.1 400.395L300.8 399.195L302.2 396.695L283.4 390.095L281.8 392.695L295.1 397.095L278.7 397.695L277.1 400.395Z" fill="#1F2533"/>
    <path d="M247.3 399.795L253 400.495L283 386.295L277.6 385.595L247.3 399.795Z" fill="#1F2533"/>
    <path d="M246.3 396.295L248.1 393.695L235.5 389.295L251.6 388.695L253.4 386.195L230.3 387.295L228.4 389.695L246.3 396.295Z" fill="#1F2533"/>
    <path d="M582.7 249.395L553.7 258.295L531.1 240.495L557.8 231.795L582.7 249.395Z" fill="#EEEFF1" stroke="#1F2533" stroke-miterlimit="10" stroke-linejoin="round"/>
    <path d="M582.7 249.395L582.1 272.495L553 282.195L553.7 258.295L582.7 249.395Z" fill="#EEEFF1" stroke="#1F2533" stroke-miterlimit="10" stroke-linejoin="round"/>
    <path d="M553.7 258.295L553 282.195L531.2 262.995L531.1 240.495L553.7 258.295Z" fill="#EEEFF1" stroke="#1F2533" stroke-miterlimit="10" stroke-linejoin="round"/>
    <path d="M557.3 240.795L551.1 238.695L549.4 239.095L550.4 242.595L552.2 242.095L551.3 239.695L555.6 241.195L557.3 240.795Z" fill="#1F2533"/>
    <path d="M564.4 243.895L563.3 243.095L548.4 243.595L549.4 244.295L564.4 243.895Z" fill="#1F2533"/>
    <path d="M563 244.795L561.2 245.295L562.2 247.795L557.7 246.295L556 246.695L562.6 248.995L564.3 248.495L563 244.795Z" fill="#1F2533"/>
    <path d="M612 281.895L570.3 290.295L554.9 263.995L590.6 257.395L612 281.895Z" fill="#EEEFF1" stroke="#1F2533" stroke-miterlimit="10" stroke-linejoin="round"/>
    <path d="M612 281.895L570.3 290.295L554.9 263.995L590.6 257.395L612 281.895Z" fill="#EEEFF1"/>
    <path d="M612 281.895L570.3 290.295L554.9 263.995L590.6 257.395L612 281.895Z" stroke="#1F2533" stroke-miterlimit="10" stroke-linejoin="round"/>
    <path d="M612 281.895L610.8 307.195L570.8 316.095L570.3 290.295L612 281.895Z" fill="#EEEFF1" stroke="#1F2533" stroke-miterlimit="10" stroke-linejoin="round"/>
    <path d="M570.3 290.295L570.8 316.095L554 287.995L554.9 263.995L570.3 290.295Z" fill="#EEEFF1" stroke="#1F2533" stroke-miterlimit="10" stroke-linejoin="round"/>
    <path d="M585.2 268.195L578.1 264.695L575.6 265.095L574.9 270.095L577.5 269.595L577.8 266.195L582.6 268.595L585.2 268.195Z" fill="#1F2533"/>
    <path d="M592.7 273.295L591.8 272.095L571.6 271.295L572.4 272.395L592.7 273.295Z" fill="#1F2533"/>
    <path d="M590.2 274.495L587.5 274.995L587.4 278.695L582.3 275.995L579.7 276.495L587.2 280.395L589.8 279.895L590.2 274.495Z" fill="#1F2533"/>
    <path d="M626.7 325.295L577.4 329.295L570 296.695L613.1 293.795L626.7 325.295Z" fill="#EEEFF1" stroke="#1F2533" stroke-miterlimit="10" stroke-linejoin="round"/>
    <path d="M626.7 325.295L624.3 357.895L577.9 362.295L577.4 329.295L626.7 325.295Z" fill="#EEEFF1" stroke="#1F2533" stroke-miterlimit="10" stroke-linejoin="round"/>
    <path d="M577.4 329.295L577.9 362.295L570.8 327.395L570 296.695L577.4 329.295Z" fill="#EEEFF1" stroke="#1F2533" stroke-miterlimit="10" stroke-linejoin="round"/>
    <path d="M602.4 305.195L595.4 299.795L592.2 299.995L588.9 306.095L592.4 305.895L594.4 301.595L599 305.395L602.4 305.195Z" fill="#1F2533"/>
    <path d="M609.3 312.795L608.7 311.095L584.4 307.195L584.8 308.795L609.3 312.795Z" fill="#1F2533"/>
    <path d="M605.6 314.095L602.1 314.395L600.1 319.195L595.2 314.895L591.7 315.095L599.1 321.295L602.6 320.995L605.6 314.095Z" fill="#1F2533"/>
    <path d="M599.4 380.495L540.4 365.295L575.5 334.695L626.8 345.995L599.4 380.495Z" fill="#EEEFF1" stroke="#1F2533" stroke-miterlimit="10" stroke-linejoin="round"/>
    <path d="M599.4 380.495L540.4 365.295L575.5 334.695L626.8 345.995L599.4 380.495Z" fill="#EEEFF1"/>
    <path d="M599.4 380.495L540.4 365.295L575.5 334.695L626.8 345.995L599.4 380.495Z" stroke="#1F2533" stroke-miterlimit="10" stroke-linejoin="round"/>
    <path d="M599.4 380.495L595.9 427.695L541.3 411.195L540.4 365.295L599.4 380.495Z" fill="#EEEFF1" stroke="#1F2533" stroke-miterlimit="10" stroke-linejoin="round"/>
    <path d="M626.8 345.995L622 388.295L595.9 427.695L599.4 380.495L626.8 345.995Z" fill="#EEEFF1" stroke="#1F2533" stroke-miterlimit="10" stroke-linejoin="round"/>
    <path d="M600.8 351.795L600.2 343.795L595.9 342.895L582.9 347.695L587.4 348.695L596.2 345.195L596.3 350.795L600.8 351.795Z" fill="#1F2533"/>
    <path d="M597.9 362.395L599.7 360.395L575.8 346.995L573.9 348.795L597.9 362.395Z" fill="#1F2533"/>
    <path d="M591.3 362.195L586.4 360.995L576.6 365.195L577.2 358.795L572.5 357.695L571.9 366.995L576.7 368.095L591.3 362.195Z" fill="#1F2533"/>
    <path d="M481.2 423.195L451.8 384.995L545.6 365.895L582.4 399.995L481.2 423.195Z" fill="#EEEFF1" stroke="#1F2533" stroke-miterlimit="10"/>
    <path d="M481.2 423.195L481.4 474.595L454.1 433.395L451.8 384.995L481.2 423.195Z" fill="#EEEFF1" stroke="#1F2533" stroke-miterlimit="10"/>
    <path d="M582.4 399.995L578.9 449.395L482.4 475.595L481.2 423.195L582.4 399.995Z" fill="#EEEFF1" stroke="#1F2533" stroke-miterlimit="10"/>
    <path d="M535.9 395.195L550.8 386.895L548.1 384.295H525.3L527.9 386.995L543.8 386.795L533.2 392.395L535.9 395.195Z" fill="#1F2533"/>
    <path d="M513.4 404.295L518.7 403.095L519.3 380.995L514.3 382.095L513.4 404.295Z" fill="#1F2533"/>
    <path d="M507.3 401.495L504.7 398.595L488.3 398.795L499.7 392.995L497.3 390.195L481 398.695L483.4 401.495H507.3Z" fill="#1F2533"/>
    <path d="M332.4 424.395L341.9 381.995L454.2 383.895L454.8 426.495L332.4 424.395Z" fill="#EEEFF1" stroke="#1F2533" stroke-miterlimit="10"/>
    <path d="M454.8 426.495L453.3 481.695L334.3 481.495L332.4 424.395L454.8 426.495Z" fill="#EEEFF1" stroke="#1F2533" stroke-miterlimit="10"/>
    <path d="M414.9 411.995L442.8 406.595V402.895L415.7 396.695L415.5 400.495L434.5 404.595L415.1 408.095L414.9 411.995Z" fill="#1F2533"/>
    <path d="M378.1 415.995L385.6 416.095L412.6 391.395L405.4 391.295L378.1 415.995Z" fill="#1F2533"/>
    <path d="M374.4 411.295L374.8 407.395L356.1 403.295L375.7 399.795L376.1 396.095L348.2 401.295L347.6 404.995L374.4 411.295Z" fill="#1F2533"/>
    <path d="M497.3 228.895C489.1 224.495 480.6 232.195 484.3 239.595C488.1 246.995 497.5 258.495 501.4 276.295C504.7 291.195 503.3 303.095 499.1 310.295C497.5 312.995 494.4 316.295 506.1 321.195C515.8 325.195 517.6 316.695 520.1 308.395C522.6 300.095 522.5 277.195 515.3 260.495C508.3 243.795 501.8 231.295 497.3 228.895Z" fill="#283046"/>
    <path d="M504.2 235.595C503.6 232.795 497 226.295 490.9 229.295C484.8 232.295 484.6 237.695 487 241.595C488.2 243.595 487.3 238.195 493.2 235.895C499.2 233.495 504.8 238.295 504.2 235.595Z" fill="#F0F0F0" stroke="#283046" stroke-miterlimit="10"/>
    <path d="M506.8 241.695C506.2 239.095 500 232.895 494.2 235.695C488.4 238.495 488.2 243.595 490.5 247.395C491.6 249.295 490.8 244.195 496.4 241.995C502.1 239.695 507.4 244.295 506.8 241.695Z" fill="#F0F0F0" stroke="#283046" stroke-miterlimit="10"/>
    <path d="M510.4 248.495C509.8 245.895 503.6 239.695 497.8 242.495C492 245.295 491.8 250.395 494.1 254.195C495.2 256.095 494.4 250.995 500 248.795C505.7 246.495 511 251.095 510.4 248.495Z" fill="#F0F0F0" stroke="#283046" stroke-miterlimit="10"/>
    <path d="M513.6 255.395C513 252.795 508.5 246.295 501.2 248.495C495.1 250.395 495.7 257.695 498 261.395C499.1 263.295 497.8 256.995 503.4 254.795C509 252.595 514.2 257.995 513.6 255.395Z" fill="#F0F0F0" stroke="#283046" stroke-miterlimit="10"/>
    <path d="M516.9 261.995C516.5 259.295 512 252.895 505.8 254.695C500.1 256.395 498.2 262.295 500.1 266.295C501.1 268.295 500.7 263.095 506.4 261.395C512.4 259.695 517.3 264.595 516.9 261.995Z" fill="#F0F0F0" stroke="#283046" stroke-miterlimit="10"/>
    <path d="M518.7 268.595C518.4 265.895 516.2 259.995 510.3 260.495C504 260.995 500.7 267.395 502.5 271.395C503.4 273.395 503.1 268.195 508.9 266.595C514.8 264.995 519 271.195 518.7 268.595Z" fill="#F0F0F0" stroke="#283046" stroke-miterlimit="10"/>
    <path d="M520.9 276.195C521.1 273.495 517 265.695 510.6 266.695C504.3 267.695 502.5 272.495 503.6 276.795C504.1 278.995 504.8 273.795 510.8 273.395C517 272.895 520.7 278.795 520.9 276.195Z" fill="#F0F0F0" stroke="#283046" stroke-miterlimit="10"/>
    <path d="M522.6 284.095C523.1 281.295 519.4 272.995 512.6 273.995C505.8 274.995 503.5 279.995 504.2 284.495C504.6 286.795 505.8 281.395 512.1 280.995C518.7 280.595 522.1 286.895 522.6 284.095Z" fill="#F0F0F0" stroke="#283046" stroke-miterlimit="10"/>
    <path d="M523.1 292.795C523.9 289.995 521.2 281.395 514.3 281.595C507.4 281.795 504.6 286.595 504.8 291.095C504.9 293.395 506.7 288.195 513.1 288.495C519.6 288.895 522.3 295.495 523.1 292.795Z" fill="#F0F0F0" stroke="#283046" stroke-miterlimit="10"/>
    <path d="M523.2 300.495C524.2 297.695 522.2 288.595 515.1 288.295C508 287.995 504.7 292.595 504.5 297.395C504.4 299.795 506.7 294.595 513.2 295.395C520 296.095 522.2 303.195 523.2 300.495Z" fill="#F0F0F0" stroke="#283046" stroke-miterlimit="10"/>
    <path d="M522.4 307.095C524.9 304.195 521.9 295.195 514.8 294.595C507.7 293.995 504.2 298.495 503.8 303.195C503.6 305.595 506.2 300.495 512.6 301.595C519.4 302.595 520.5 309.295 522.4 307.095Z" fill="#F0F0F0" stroke="#283046" stroke-miterlimit="10"/>
    <path d="M521.1 314.995C523.3 312.295 524.4 300.995 513.7 301.095C505.3 301.195 501 305.795 500.5 311.295C500.2 314.095 502.4 310.595 510 311.695C517.9 312.895 517 320.195 521.1 314.995Z" fill="#F0F0F0" stroke="#283046" stroke-miterlimit="10"/>
    <path d="M473.9 344.295C460.2 336.995 449.3 362.795 449.3 362.795C449.3 362.795 443.7 381.795 447.2 386.695C448.8 388.995 451.3 389.995 453.3 388.395C457.2 385.395 460.6 376.395 462.4 372.695C462.4 372.695 483.3 365.895 479.4 361.395C473.9 354.695 478.8 346.895 473.9 344.295Z" fill="#283046"/>
    <path d="M452.3 366.295C455.8 366.895 460.9 370.895 461 372.195C461.1 373.495 457.2 389.795 451.2 388.195C445.2 386.695 452.3 366.295 452.3 366.295Z" fill="#F0F0F0" stroke="#283046" stroke-miterlimit="10"/>
    <path d="M453.4 364.595C452.6 363.395 456.3 355.495 461.3 350.495C466.3 345.495 472.5 343.395 474.5 345.495C476.5 347.595 473.2 352.795 477.2 360.095C478.2 361.895 478 363.295 475.7 365.095C474.3 366.195 466 370.395 464.5 370.895C462.6 371.495 461.7 370.695 458.3 368.295C454.7 365.895 454.2 365.895 453.4 364.595Z" fill="#F0F0F0" stroke="#283046" stroke-miterlimit="10"/>
    <path d="M525.2 310.995C502.8 298.795 485.5 314.395 471.5 338.695C459.4 359.895 462 377.195 490.2 389.895C517.1 401.995 531.2 394.995 538.7 376.195C546.2 357.395 547.9 323.395 525.2 310.995Z" fill="#283046"/>
    <path d="M520.8 395.495C511.5 412.295 506.7 415.595 498.8 418.795C494.4 420.595 479.8 421.295 477.4 419.795C475.2 418.395 473.4 414.895 474.8 412.995C477.2 409.995 487.3 408.195 491.2 406.495C498.5 402.995 495.4 391.795 510.7 388.595C522.1 386.195 524.3 389.095 520.8 395.495Z" fill="#283046"/>
    <path d="M485.4 419.395C490.2 419.595 498.8 418.995 504.1 415.095C514 407.795 521.5 393.695 521.3 389.495C521.2 387.695 509.1 386.695 501.2 394.795C499.4 396.695 494.6 405.995 493.3 407.395C492 408.795 474.1 412.295 475.6 415.795C476.8 418.695 477.2 419.095 485.4 419.395Z" fill="#F0F0F0" stroke="#283046" stroke-miterlimit="10"/>
    <path d="M497.4 392.995C498.6 394.395 490.9 400.895 483.5 407.395C479.6 410.795 474.3 416.595 471 418.595C467.5 420.695 460.1 417.295 461.3 413.795C463.8 406.495 475.1 384.495 477.9 384.195C482.7 383.695 483.6 387.695 487.5 389.395C491.3 391.195 495.8 391.095 497.4 392.995Z" fill="#283046"/>
    <path d="M465.2 417.795C461.5 415.895 465.7 409.395 467.5 405.395C469.3 401.395 477.4 382.095 482 385.995C486.6 389.895 496.9 391.695 497.4 392.995C497.9 394.295 476.5 415.895 472.8 418.395C469.1 420.895 468.3 419.395 465.2 417.795Z" fill="#F0F0F0" stroke="#283046" stroke-miterlimit="10"/>
    <path d="M534.5 382.295C533.2 383.895 521.8 407.195 490.4 392.095C459 376.895 464.9 357.095 467 351.395C469.6 344.195 492.9 293.095 523.8 310.995C559.5 331.495 534.5 382.295 534.5 382.295Z" fill="#F0F0F0" stroke="#283046" stroke-miterlimit="10"/>
    <path d="M530.3 351.795C522 353.295 523.4 368.695 530.1 366.995C538.5 364.895 535.4 350.895 530.3 351.795Z" fill="#F0F0F0" stroke="#283046" stroke-miterlimit="10"/>
</svg>
