<svg width="680" height="600" viewBox="0 0 680 600" fill="none" xmlns="http://www.w3.org/2000/svg">
<path d="M219.6 450.632C211.3 449.632 202 447.532 201 443.432C200 439.332 193.8 436.232 188.6 434.132C185.891 433.038 182.91 425.212 180.096 417.824C177.51 411.032 175.064 404.611 173.1 404.132C172.134 403.896 169.717 403.888 166.481 403.878C155.986 403.843 136.867 403.781 130.6 395.832C126.803 391.063 123.435 387.387 120.605 384.299C117.323 380.717 114.765 377.924 113.1 375.132C112.31 373.808 111.586 371.951 110.739 369.782C108.262 363.436 104.741 354.418 95.5001 348.232C90.1865 344.675 84.6709 341.89 79.7009 339.38C73.0726 336.033 67.4146 333.175 64.5001 329.632C60.9467 325.312 62.3448 319.488 63.5197 314.593C64.031 312.463 64.5001 310.509 64.5001 308.932C64.5001 303.732 71.4001 297.032 77.3001 292.132C78.5733 291.056 79.6683 289.995 80.733 288.963C84.5185 285.294 87.9222 281.995 97.6001 279.732C107.546 277.406 106.877 272.957 106.222 268.604C106.061 267.53 105.9 266.461 105.9 265.432C105.9 263.892 104.997 261.615 103.938 258.947C101.422 252.606 98.0287 244.055 103.8 237.932C107.407 234.106 109.814 229.08 112.792 222.863C116.584 214.945 121.301 205.096 130.6 193.332C147.2 172.332 172.1 151.432 191.7 143.232C196.418 141.258 201.142 139.383 205.624 137.603L205.625 137.603C219.765 131.99 231.506 127.328 233.1 123.532C233.909 121.605 235.936 120.243 238.18 118.735C241.758 116.33 245.885 113.555 246.5 107.532C247.5 97.7321 252.7 83.5321 270.3 73.5321C287.9 63.5321 326.2 41.9321 356.2 37.2321C379.567 33.5713 400.446 33.3079 410.474 33.1814C413.321 33.1454 415.294 33.1206 416.2 33.0321C420.3 32.5321 440 37.9321 447.2 45.0321C452.125 49.8887 458.079 51.9847 464.647 54.2966C467.681 55.3646 470.845 56.4786 474.1 57.9321C475.663 58.6301 477.537 59.4456 479.606 60.346L479.609 60.3472C491.175 65.3805 508.838 73.0671 512.4 77.7321C516.6 83.2321 523.8 91.8321 529 93.2321C534.2 94.6321 540.4 101.732 540.4 107.532C540.4 113.232 546.6 124.032 550.7 123.332C554.8 122.532 568.3 135.832 568.3 143.132C568.3 148.059 568.743 166.907 571.49 180.105C582.586 177.324 596.416 181.73 601.981 183.503C602.239 183.586 602.479 183.662 602.7 183.732C605.557 184.619 607.006 186.451 608.59 188.453C610.222 190.516 611.997 192.759 615.6 194.332C622.7 197.432 621.8 203.032 617.4 207.932C613.541 212.318 615.913 215.55 619.322 220.192L619.323 220.193C619.8 220.843 620.297 221.52 620.8 222.232C624.9 228.032 624.5 239.532 624 245.332C623.791 248.361 625.982 251.253 628.123 254.08C630.082 256.667 632 259.199 632 261.732C632 267.032 628.9 271.032 620.5 274.632C612.1 278.232 605.9 280.432 593.5 274.632C591.987 273.924 590.552 273.197 589.193 272.465C589.092 279.377 589.489 285.216 591 287.132C595.1 292.332 597.2 304.732 595.1 307.832C594.775 308.312 594.352 309.065 593.823 310.006C590.932 315.147 584.881 325.912 574.4 328.532C562 331.632 505.1 357.532 498.9 361.632C492.7 365.732 443 380.232 432.7 381.332C422.4 382.332 374.8 395.832 365.4 401.032C360.919 403.538 347.543 409.155 334.193 414.762C326.821 417.858 319.457 420.951 313.602 423.515C318.297 426.868 323.014 431.25 327.046 434.997C330.763 438.451 333.899 441.365 335.9 442.432C348.609 449.019 347.061 454.766 345.693 459.847C345.005 462.403 344.362 464.79 345.6 467.032C348.114 471.585 343.749 475.537 339.908 479.014C338.096 480.655 336.401 482.19 335.6 483.632C333.738 487.122 331.817 487.545 322.837 489.518C320.238 490.089 317.049 490.79 313.1 491.732C297.531 495.536 286.187 502.157 280.454 505.503C279.706 505.94 279.054 506.321 278.5 506.632C275.391 508.345 269.868 507.764 264.381 507.187C261.219 506.854 258.069 506.522 255.4 506.632C248.1 506.932 228.7 499.132 226.2 483.632C224.272 471.179 223.893 459.695 225.063 451.252C221.808 450.932 219.6 450.632 219.6 450.632Z" stroke="#1F2533" stroke-width="4" stroke-miterlimit="10"/>
<path d="M535.4 416.432C536.3 405.332 549.1 396.932 564.2 401.832C579.3 406.732 578.8 411.632 578.8 416.432C578.8 421.332 585.5 421.332 585.9 423.132C586.3 424.932 586.8 430.632 585.9 433.732C585 436.832 575.7 435.532 570.4 435.932C565.1 436.332 551.3 439.032 548.7 434.132C546 429.332 535.4 416.432 535.4 416.432Z" fill="#EEEFF1" stroke="#1F2533" stroke-miterlimit="10"/>
<path d="M552.2 253.332C546.4 246.632 553.5 231.632 552.2 224.532C550.9 217.432 548.7 210.532 548.2 208.032C547.7 205.532 554.9 187.932 566.8 181.832C578.8 175.732 597 181.932 602.7 183.732C608.5 185.532 608.5 191.232 615.6 194.332C622.7 197.432 621.8 203.032 617.4 207.932C613 212.932 616.7 216.432 620.8 222.232C624.9 228.032 624.5 239.532 624 245.332C623.6 251.132 632 256.432 632 261.732C632 267.032 628.9 271.032 620.5 274.632C612.1 278.232 605.9 280.432 593.5 274.632C581.1 268.832 574 261.732 570 261.732C566 261.732 552.2 253.332 552.2 253.332Z" fill="#EEEFF1" stroke="#1F2533" stroke-miterlimit="10"/>
<path d="M219.6 450.632C211.3 449.632 202 447.532 201 443.432C200 439.332 193.8 436.232 188.6 434.132C183.4 432.032 177.2 405.132 173.1 404.132C169 403.132 138.8 406.232 130.6 395.832C122.4 385.532 116.2 380.332 113.1 375.132C110 369.932 107.9 356.532 95.5001 348.232C83.1001 339.932 69.6001 335.832 64.5001 329.632C59.4001 323.432 64.5001 314.132 64.5001 308.932C64.5001 303.732 71.4001 297.032 77.3001 292.132C83.1001 287.232 85.2001 282.632 97.6001 279.732C110 276.832 105.9 270.632 105.9 265.432C105.9 260.232 95.6001 246.632 103.8 237.932C112 229.232 114 214.332 130.6 193.332C147.2 172.332 172.1 151.432 191.7 143.232C211.3 135.032 231 128.532 233.1 123.532C235.2 118.532 245.5 117.332 246.5 107.532C247.5 97.7321 252.7 83.5321 270.3 73.5321C287.9 63.5321 326.2 41.9321 356.2 37.2321C386.2 32.5321 412.1 33.4321 416.2 33.0321C420.3 32.5321 440 37.9321 447.2 45.0321C454.4 52.1321 463.8 53.3321 474.1 57.9321C484.4 62.5321 508.2 72.2321 512.4 77.7321C516.6 83.2321 523.8 91.8321 529 93.2321C534.2 94.6321 540.4 101.732 540.4 107.532C540.4 113.232 546.6 124.032 550.7 123.332C554.8 122.532 568.3 135.832 568.3 143.132C568.3 150.532 569.3 189.332 577.6 193.232C585.9 197.132 583.8 210.332 583.8 215.132C583.8 219.932 591 235.832 591 241.832C591 247.832 586.9 281.932 591 287.132C595.1 292.332 597.2 304.732 595.1 307.832C593 310.932 586.8 325.432 574.4 328.532C562 331.632 505.1 357.532 498.9 361.632C492.7 365.732 443 380.232 432.7 381.332C422.4 382.332 374.8 395.832 365.4 401.032C356.1 406.232 308.5 424.832 302.3 428.932C296.1 433.032 256.8 447.532 249.5 450.632C242.4 453.732 219.6 450.632 219.6 450.632Z" fill="#EEEFF1" stroke="#1F2533" stroke-miterlimit="10"/>
<path d="M523 196.332C526.2 189.232 513.7 183.932 510.4 182.832C506.9 181.732 498.6 180.232 495.9 182.432C494.6 183.432 494.2 184.932 495.2 186.032C497.2 188.132 501.2 189.732 505.2 190.732C505.2 190.732 510.5 202.432 513 200.132C516.7 196.632 521.7 199.232 523 196.332Z" fill="#1F2533"/>
<path d="M508.3 184.632C508.8 185.032 506.1 189.732 505.3 189.732C504.5 189.732 494.7 187.332 495.4 184.332C496.1 181.332 505.2 182.332 508.3 184.632Z" fill="#EEEFF1"/>
<path d="M509.5 185.232C510.2 184.732 515.2 186.632 518.4 189.232C521.7 191.932 523.3 195.432 522.2 196.632C521 197.832 517.7 196.132 513.5 198.632C512.5 199.232 511.6 199.232 510.4 197.932C509.7 197.132 506.6 192.532 506.3 191.732C505.8 190.632 506.7 190.532 508 188.532C509.3 186.532 508.8 185.732 509.5 185.232Z" fill="#EEEFF1"/>
<path d="M514.9 490.532C511.7 524.432 581.6 524.032 584.2 496.032C586.5 470.432 516.9 468.732 514.9 490.532Z" fill="#EEEFF1" stroke="#1F2533" stroke-miterlimit="10"/>
<path d="M559 446.432C541.9 441.132 516.4 458.632 514.4 484.432C511.4 521.532 582.3 521.132 585.4 491.032C588.5 460.832 569.7 449.732 559 446.432Z" fill="#1F2533"/>
<path d="M558.4 447.532C542.5 442.632 518.1 458.832 516.9 482.932C515.3 517.432 580 517.032 582.9 489.032C585.8 461.032 568.3 450.532 558.4 447.532Z" fill="#EEEFF1" stroke="#1F2533" stroke-miterlimit="10"/>
<path d="M563.5 385.332C564.7 372.632 547.6 369.832 544.9 382.732C544.6 384.032 544.8 399.632 544 418.032C543.3 435.832 543.7 455.032 543.7 455.032C543.7 455.032 545 460.632 552.2 460.532C560.3 460.432 560.7 450.532 560.7 450.532C559.4 414.832 561.4 406.932 563.5 385.332Z" fill="#1F2533"/>
<path d="M543.2 451.332C542.2 456.032 547.1 461.632 552.9 461.232C560.8 460.632 563 454.232 562.3 450.532C562 448.932 558.9 448.232 552.8 448.732C547.2 449.132 543.6 449.432 543.2 451.332Z" fill="#EEEFF1" stroke="#1F2533" stroke-miterlimit="10"/>
<path d="M543 443.332C541.7 447.932 546.1 453.932 551.9 453.932C559.9 453.932 561.6 448.732 562.1 444.032C562.3 442.432 558.9 441.532 552.8 441.432C547.2 441.332 543.5 441.432 543 443.332Z" fill="#EEEFF1" stroke="#1F2533" stroke-miterlimit="10"/>
<path d="M543 436.032C541.7 440.632 546.1 446.632 551.9 446.632C559.9 446.632 561.6 441.432 562.1 436.732C562.3 435.132 558.9 434.232 552.8 434.132C547.2 434.032 543.5 434.132 543 436.032Z" fill="#EEEFF1" stroke="#1F2533" stroke-miterlimit="10"/>
<path d="M542.3 429.132C541 433.732 545.4 439.732 551.2 439.732C559.2 439.732 560.9 434.532 561.4 429.832C561.6 428.232 558.2 424.532 552.1 424.432C546.5 424.432 542.8 427.332 542.3 429.132Z" fill="#EEEFF1" stroke="#1F2533" stroke-miterlimit="10"/>
<path d="M541.5 421.432C540.2 426.032 544.6 432.032 550.4 432.032C558.4 432.032 560.1 426.832 560.6 422.132C560.8 420.532 557.4 417.432 551.3 417.432C545.6 417.332 542 419.532 541.5 421.432Z" fill="#EEEFF1" stroke="#1F2533" stroke-miterlimit="10"/>
<path d="M541.5 414.532C540.2 419.132 544.6 425.132 550.4 425.132C558.4 425.132 560.1 419.932 560.6 415.232C560.8 413.632 557.4 411.632 551.3 411.632C545.6 411.532 542 412.632 541.5 414.532Z" fill="#EEEFF1" stroke="#1F2533" stroke-miterlimit="10"/>
<path d="M542.3 407.632C540.8 412.232 545.1 418.232 550.9 418.432C558.9 418.632 560.8 413.532 561.4 408.832C561.6 407.232 558.3 406.232 552.2 406.032C546.5 405.732 542.9 405.732 542.3 407.632Z" fill="#EEEFF1" stroke="#1F2533" stroke-miterlimit="10"/>
<path d="M543 400.732C541.7 405.332 546.1 411.232 552 411.232C560 411.232 561.7 406.032 562.1 401.232C562.2 399.632 558.9 398.732 552.8 398.732C547.2 398.732 543.5 398.932 543 400.732Z" fill="#EEEFF1" stroke="#1F2533" stroke-miterlimit="10"/>
<path d="M543.4 393.832C541.8 398.332 545.8 404.532 551.6 404.932C559.6 405.432 561.6 400.432 562.4 395.732C562.7 394.132 559.4 393.032 553.3 392.532C547.7 392.132 544.1 392.032 543.4 393.832Z" fill="#EEEFF1" stroke="#1F2533" stroke-miterlimit="10"/>
<path d="M544.2 386.832C542.6 391.332 546.7 397.532 552.5 397.832C560.5 398.232 562.5 393.232 563.2 388.432C563.4 386.832 560.1 385.732 554 385.432C548.4 385.132 544.8 385.032 544.2 386.832Z" fill="#EEEFF1" stroke="#1F2533" stroke-miterlimit="10"/>
<path d="M545.6 378.132C543.5 384.332 547.5 388.932 553.3 389.632C561.2 390.532 563.4 386.732 563.5 381.532C563.6 378.332 561.7 374.932 555.6 374.232C550 373.632 546.2 376.332 545.6 378.132Z" fill="#EEEFF1" stroke="#1F2533" stroke-miterlimit="10"/>
<path d="M541.2 448.732C545.9 447.432 540.9 449.832 536.2 454.932C525.4 466.932 526 457.832 516.8 477.332" stroke="#283046" stroke-miterlimit="10"/>
<path d="M471.9 235.432C481.4 224.132 542.9 148.332 542.9 148.332L552.6 157.732C552.6 157.732 487.7 232.632 480.3 240.932C477 244.532 470.3 237.332 471.9 235.432Z" fill="#EEEFF1" stroke="#1F2533" stroke-miterlimit="10"/>
<path d="M522.1 151.232C529.6 158.432 546.3 174.5 552.5 180.5C558.6 186.3 578.2 169.1 571.5 162C562.7 152.6 548.1 138.632 540.9 131.732C532.5 123.832 513.7 143.332 522.1 151.232Z" fill="#EEEFF1" stroke="#1F2533" stroke-miterlimit="10"/>
<path d="M552.3 137.832C550.1 140.232 548.3 142.832 545.8 145.932C545.3 146.832 545.6 148.932 547.2 150.532C550.8 154.032 553.9 154.332 555 153.132C555 153.132 559.8 147.932 561.1 145.932C563.8 142.132 555.4 134.332 552.3 137.832Z" fill="#EEEFF1" stroke="#1F2533" stroke-miterlimit="10"/>
<path d="M552.3 137.832C551.5 138.732 551.5 140.932 554.2 143.832C556.6 146.332 559.8 147.932 561.2 145.932C563.8 142.132 555.4 134.332 552.3 137.832Z" fill="#EEEFF1" stroke="#1F2533" stroke-miterlimit="10"/>
<path d="M571.287 162.057C569.495 160.381 563.016 161.171 557.193 166.409C552.154 170.913 548 178.5 554 181.5C560 184.5 578.229 168.342 571.287 162.057Z" fill="#EEEFF1" stroke="#1F2533" stroke-miterlimit="10"/>
<path d="M506.9 219.532C494.4 215.832 492.6 201.232 492.6 201.232C492.6 201.232 492.6 188.032 496.1 185.832C497.8 184.732 500.1 184.232 501.3 185.632C503.3 187.832 502.6 194.632 503.3 197.532C504.7 202.932 514.7 203.632 514.1 214.032C513.7 221.732 509.9 220.432 506.9 219.532Z" fill="#1F2533"/>
<path d="M493.8 198.732C496.5 196.632 499.2 196.232 501.3 197.032C502.3 197.432 503.1 186.132 498.6 185.832C493 185.632 493.8 198.732 493.8 198.732Z" fill="#EEEFF1"/>
<path d="M493.7 201.232C493.6 202.132 494.3 206.732 496.8 210.832C499.4 214.932 506.4 218.432 510 219.332C511.5 219.732 516.1 213.432 510.9 206.532C509.7 204.932 503.6 200.332 502.7 199.232C501.8 198.132 500.7 197.432 497.6 198.032C495.5 198.532 493.9 199.932 493.7 201.232Z" fill="#EEEFF1"/>
<path d="M549.2 240.132C538.6 254.332 524.899 249.632 511.299 238.532C497.699 227.432 493 217.932 508 200.632C522.6 183.732 540.499 194.732 547.299 203.632C551.999 209.832 557.3 229.132 549.2 240.132Z" fill="#1F2533"/>
<path d="M543.5 199.832C545.5 201.532 524.8 182.432 509.5 201.032C493 221.232 501.7 227.032 505.7 231.832C508.8 235.532 533.9 260.632 548.3 240.432C563.2 219.832 547.3 203.032 543.5 199.832Z" fill="#EEEFF1" stroke="#1F2533" stroke-miterlimit="10"/>
<path d="M525.4 226.432C520.2 231.932 511.7 223.932 516.3 219.732C522 214.432 528.6 223.132 525.4 226.432Z" fill="#EEEFF1" stroke="#1F2533" stroke-miterlimit="10"/>
<path d="M545.5 232.032C538.6 228.732 531.8 235.232 535.2 241.132C538.6 247.032 546.8 256.232 550.7 270.632C554.6 285.132 549 297.932 549 297.932C549 297.932 546.3 303.432 556.2 307.132C564.3 310.132 565.5 303.132 567.3 296.232C569.1 289.432 568.2 270.732 561.7 257.232C555.1 243.932 549.2 233.832 545.5 232.032Z" fill="#1F2533"/>
<path d="M549.2 236.232C548.6 233.932 543.2 229.932 538.3 232.532C533.4 235.132 532.9 240.032 534.4 242.432C535.4 244.032 539.2 247.032 544 245.032C549 242.832 549.8 238.432 549.2 236.232Z" fill="#EEEFF1" stroke="#1F2533" stroke-miterlimit="10"/>
<path d="M552 239.432C551.4 237.132 546 233.132 541.1 235.732C536.2 238.332 535.7 243.232 537.2 245.632C538.2 247.232 542 250.232 546.8 248.232C551.7 246.032 552.5 241.632 552 239.432Z" fill="#EEEFF1" stroke="#1F2533" stroke-miterlimit="10"/>
<path d="M554.8 243.932C554.2 241.632 548.8 237.632 543.9 240.232C539 242.832 538.5 247.732 540 250.132C541 251.732 544.8 254.732 549.6 252.732C554.6 250.532 555.4 246.132 554.8 243.932Z" fill="#EEEFF1" stroke="#1F2533" stroke-miterlimit="10"/>
<path d="M558.2 248.732C557.6 246.432 552.2 242.432 547.3 245.032C542.4 247.632 541.9 252.532 543.4 254.932C544.4 256.532 548.2 259.532 553 257.532C557.9 255.332 558.8 250.932 558.2 248.732Z" fill="#EEEFF1" stroke="#1F2533" stroke-miterlimit="10"/>
<path d="M560.9 254.132C560.6 251.832 555.9 247.032 550.6 248.932C545.4 250.832 544.2 255.632 545.3 258.132C546.1 259.932 549.5 263.332 554.4 262.032C559.7 260.532 561.2 256.332 560.9 254.132Z" fill="#EEEFF1" stroke="#1F2533" stroke-miterlimit="10"/>
<path d="M563.3 259.732C563.2 257.432 558.9 252.232 553.6 253.632C548.2 255.032 546.6 259.732 547.5 262.332C548.1 264.132 551.2 267.932 556.3 267.032C561.5 266.032 563.3 262.032 563.3 259.732Z" fill="#EEEFF1" stroke="#1F2533" stroke-miterlimit="10"/>
<path d="M565.7 265.432C565.6 263.132 561.3 257.932 556 259.332C550.6 260.732 549 265.432 549.9 268.032C550.5 269.832 553.6 273.632 558.7 272.732C563.9 271.732 565.8 267.732 565.7 265.432Z" fill="#EEEFF1" stroke="#1F2533" stroke-miterlimit="10"/>
<path d="M567.1 273.332C567.3 271.032 563.8 265.332 558.2 266.032C552.7 266.732 550.5 271.132 551 273.832C551.4 275.732 553.9 279.832 559.1 279.632C564.4 279.332 566.8 275.532 567.1 273.332Z" fill="#EEEFF1" stroke="#1F2533" stroke-miterlimit="10"/>
<path d="M567.9 279.332C568.1 277.032 564.6 271.332 559 272.032C553.5 272.732 551.3 277.132 551.8 279.832C552.2 281.732 554.7 285.832 559.9 285.632C565.3 285.332 567.7 281.532 567.9 279.332Z" fill="#EEEFF1" stroke="#1F2533" stroke-miterlimit="10"/>
<path d="M568.1 285.532C568.3 283.232 564.8 277.532 559.2 278.232C553.7 278.932 551.5 283.332 552 286.032C552.4 287.932 554.9 292.032 560.1 291.832C565.5 291.632 567.9 287.832 568.1 285.532Z" fill="#EEEFF1" stroke="#1F2533" stroke-miterlimit="10"/>
<path d="M567.5 292.032C567.7 289.732 564.2 284.032 558.6 284.732C553.1 285.432 550.9 289.832 551.4 292.532C551.8 294.432 554.3 298.532 559.5 298.332C564.8 298.132 567.3 294.332 567.5 292.032Z" fill="#EEEFF1" stroke="#1F2533" stroke-miterlimit="10"/>
<path d="M566.2 298.732C566.6 296.332 563.5 290.332 557.7 290.632C552 290.932 549.3 295.332 549.6 298.132C549.8 300.132 552 304.532 557.4 304.632C563 304.732 565.8 301.032 566.2 298.732Z" fill="#EEEFF1" stroke="#1F2533" stroke-miterlimit="10"/>
<path d="M572.8 298.632C563.7 304.532 546.2 311.132 537.8 305.232C529.4 299.332 524 282.332 529.9 275.632C535.9 268.832 546.1 266.632 554.2 263.632C561.8 260.932 571.7 262.032 576.8 275.832C580.5 285.432 579.5 294.332 572.8 298.632Z" fill="#1F2533"/>
<path d="M567.9 300.932C563.6 303.332 557.8 306.232 552.1 306.832C546.4 307.432 534.2 309.032 530.2 293.632C526.6 279.832 530.1 273.732 541.6 268.932C553.6 263.932 554.1 263.932 557.4 263.332C560.3 262.832 570.4 260.532 576.2 277.832C581.2 293.032 572 298.632 567.9 300.932Z" fill="#EEEFF1" stroke="#1F2533" stroke-miterlimit="10"/>
<path d="M527 360.132C534.5 353.032 549.3 341.132 562.1 360.632C573.9 378.732 558.7 389.832 551.9 394.232C545.6 398.432 534.4 400.032 526.9 387.032C521.7 378.032 521.4 365.432 527 360.132Z" fill="#1F2533"/>
<path d="M533.1 355.632C539.6 351.132 550.3 342.332 561.9 361.732C575.8 385.032 551 394.432 547.6 396.032C545.9 396.832 533.2 401.532 525.6 384.632C517.3 365.932 527.8 359.232 533.1 355.632Z" fill="#EEEFF1" stroke="#1F2533" stroke-miterlimit="10"/>
<path d="M484.3 420.232C499.7 423.132 514.2 415.932 530.3 405.732C546.5 395.532 555.1 400.932 562.9 382.832C570.7 364.832 568.9 341.632 565.4 329.232C561.9 316.832 548.6 301.532 507.2 307.732C465.8 313.932 454.2 321.732 454.2 340.432C454.1 357.232 450.3 413.932 484.3 420.232Z" fill="#1F2533"/>
<path d="M470.6 321.732C487.7 321.732 493.4 330.432 495.4 348.932C497.4 368.232 504.2 421.532 481.3 417.032C463.7 413.532 456.6 387.732 455.5 361.532C454.4 335.232 455.4 321.732 470.6 321.732Z" fill="#EEEFF1"/>
<path d="M516.1 412.232C530.2 405.232 532.5 400.532 544.8 397.332C557.1 394.132 561.5 385.232 565.1 372.532C568.7 359.832 568.8 341.432 565.5 330.632C562.2 319.832 562.7 316.032 530.5 321.532C498.3 327.032 489.9 317.532 494.5 331.332C499.1 345.132 500.9 378.632 499.5 395.732C497.8 418.432 502 419.232 516.1 412.232Z" fill="#EEEFF1"/>
<path d="M571.1 299.232C568.2 269.132 580.6 267.432 578.2 257.132C577.4 253.832 545.3 248.532 538.9 248.532C529.7 248.632 468.6 264.332 432.6 280.332C413.9 288.632 408.7 300.432 412.9 303.632C417.7 307.332 433.5 315.432 434.3 315.432C434 327.432 435.7 338.032 435.7 338.032C435.7 338.032 472.8 358.432 476.1 360.232C478.6 361.632 493.5 361.932 497.2 361.832C497.8 361.832 498.4 361.632 498.9 361.332C498.9 361.332 565.4 330.932 568.1 328.132C571.4 325.032 573.1 319.632 571.1 299.232Z" fill="#1F2533"/>
<path d="M424.4 312.432C433.5 305.032 448.5 296.332 457.9 302.432C467.3 308.532 475.1 328.032 469.8 336.732C464.5 345.432 454.3 349.232 446.3 353.632C438.9 357.732 428.5 357.432 421.5 341.732C416.6 330.732 417.7 317.832 424.4 312.432Z" fill="#1F2533"/>
<path d="M430 311.332C438.1 309.932 447.2 318.432 448.8 330.932C450.4 343.532 447.6 352.232 440.2 354.332C431.6 356.832 423.6 346.132 420.9 335.832C418.2 325.632 421.2 312.832 430 311.332Z" fill="#EEEFF1" stroke="#1F2533" stroke-miterlimit="10"/>
<path d="M431.5 318.332C437 317.432 441.2 322.232 443.2 331.632C444.9 339.932 443.4 345.832 438.4 347.332C432.6 349.032 427.2 341.832 425.4 334.932C423.6 328.032 425.6 319.332 431.5 318.332Z" fill="#1F2533"/>
<path d="M428.5 310.732C428.5 310.732 437.3 303.632 443.1 302.332C448.9 301.032 461.2 297.732 467.3 315.532C472.8 331.432 470 339.132 458.7 346.032C447 353.232 441.3 354.732 442.4 354.232C445.3 353.032 453.1 349.732 449.5 328.332C445.8 306.932 428.5 310.732 428.5 310.732Z" fill="#EEEFF1" stroke="#1F2533" stroke-miterlimit="10"/>
<path d="M292 236.132V241.932L292.3 263.232L302 259.932L301.7 232.732L298.6 233.832L298.8 255.232L295.3 256.332L295.1 235.032L292 236.132Z" fill="#1F2533"/>
<path d="M308.9 246.332L306.4 247.232L306.3 242.532L308.8 241.632L308.9 246.332ZM303.3 238.032L303.6 259.332L306.5 258.332L306.4 252.132L311.8 250.232L311.6 235.032L303.3 238.032Z" fill="#1F2533"/>
<path d="M319.6 248.432L317.4 249.232L317.3 238.732L319.5 237.932L319.6 248.432ZM313 234.732L313.1 240.132L314.3 239.732L314.4 250.232L313.2 250.632L313.3 256.032L322.7 252.832L322.4 231.432L313 234.732Z" fill="#1F2533"/>
<path d="M328.8 240.732L326.7 241.432L326.9 235.432L328.4 234.932L328.8 240.732ZM324.6 230.832L323.5 252.632L326.4 251.632L326.6 246.932L329.2 246.032L329.5 250.532L332.4 249.532L330.7 228.632L324.6 230.832Z" fill="#1F2533"/>
<path d="M332.2 228.232L332.3 233.632L335 232.732L335.2 248.632L338.1 247.632L337.9 231.632L340.7 230.732L340.6 225.332L332.2 228.232Z" fill="#1F2533"/>
<path d="M341.5 225.032V230.432L341.7 246.332L349.6 243.632L349.5 238.632L344.6 240.332V237.232L347 236.332V231.332L344.5 232.132V229.032L349.4 227.332L349.3 222.332L341.5 225.032Z" fill="#1F2533"/>
<path d="M354.3 220.632L355.8 225.532L357.9 232.232L358 240.732L361 239.732L360.9 231.232L364.2 217.232L361.1 218.232L359.4 226.632L359.3 226.732L357.4 219.532L354.3 220.632Z" fill="#1F2533"/>
<path d="M413.9 301.532C410 298.032 417 287.032 435.8 278.732C466.9 264.932 531.8 251.532 540 249.632C547.6 247.832 575.9 253.532 576.9 256.732C579.5 264.432 568.4 268.732 569.4 292.232C570 306.932 570.2 321.832 567 325.032C564.5 327.532 508.6 354.932 504.1 356.332C502.1 357.032 495 355.932 491.3 354.332C488.2 353.032 488.3 341.532 487.5 325.132C486.7 308.732 451.8 319.132 442.9 316.932C435.6 315.032 418.7 305.832 413.9 301.532Z" fill="#EEEFF1" stroke="#1F2533" stroke-miterlimit="10"/>
<path d="M447.1 272.732C447.1 272.732 475.5 300.232 516.9 286.332C553.5 274.032 545.8 252.732 545.8 252.732C545.8 252.732 538.8 202.232 489.9 206.332C441 210.432 447.1 272.732 447.1 272.732Z" fill="#1F2533"/>
<path d="M450.9 270.332C450.9 270.332 476.7 295.332 515.9 282.132C550.5 270.532 543.3 252.532 543.3 252.532C543.3 252.532 536.7 204.732 490.4 208.632C444.1 212.532 450.9 270.332 450.9 270.332Z" fill="#EEEFF1"/>
<path d="M457.3 228.532C461.3 222.432 474.7 219.432 480.8 238.932C487.1 259.232 497.5 282.432 524.2 270.232C550.9 258.032 533.7 227.132 528.4 220.632" stroke="#1F2533" stroke-miterlimit="10"/>
<path d="M415.3 523.932C407.4 562.232 483.1 570.432 489.6 538.732C495.4 509.832 420.3 499.332 415.3 523.932Z" fill="#EEEFF1" stroke="#1F2533" stroke-miterlimit="10"/>
<path d="M468.1 484.932C450.2 477.432 420.5 493.032 415.3 518.932C407.8 556.132 484.5 564.532 491.4 534.332C498.3 504.232 479.2 489.632 468.1 484.932Z" fill="#1F2533"/>
<path d="M467.3 485.932C450.7 479.032 422.2 493.432 418.2 517.632C412.4 552.332 482.5 560.032 488.9 531.932C495.3 503.932 477.7 490.332 467.3 485.932Z" fill="#EEEFF1" stroke="#1F2533" stroke-miterlimit="10"/>
<path d="M447.699 489.632C446.799 494.332 450.799 499.832 457.499 499.332C465.199 498.832 467.499 492.132 466.799 488.532C466.499 486.932 463.599 484.332 457.499 484.832C451.899 485.332 447.999 487.732 447.699 489.632Z" fill="#EEEFF1" stroke="#1F2533" stroke-miterlimit="10"/>
<path d="M447.3 480.632C446 485.232 450.5 492.132 456.3 492.132C464.3 492.032 465.9 485.832 466.4 481.132C466.5 479.532 463.2 476.632 457 476.732C451.4 476.532 447.8 478.732 447.3 480.632Z" fill="#EEEFF1" stroke="#1F2533" stroke-miterlimit="10"/>
<path d="M447.199 471.232C445.899 475.832 450.399 482.732 456.199 482.732C464.199 482.632 465.799 476.432 466.299 471.732C466.399 470.132 463.099 469.232 456.999 469.332C451.399 469.232 447.699 469.432 447.199 471.232Z" fill="#EEEFF1" stroke="#1F2533" stroke-miterlimit="10"/>
<path d="M446.4 464.432C445.1 469.032 449.6 474.932 455.4 474.932C463.4 474.832 465.1 469.632 465.5 464.932C465.6 463.332 462.2 459.632 456.1 459.732C450.5 459.632 446.9 462.632 446.4 464.432Z" fill="#EEEFF1" stroke="#1F2533" stroke-miterlimit="10"/>
<path d="M445.5 456.732C444.2 461.332 448.7 467.232 454.5 467.232C462.5 467.132 464.2 461.932 464.6 457.232C464.7 455.632 461.4 452.632 455.2 452.632C449.6 452.532 446 454.832 445.5 456.732Z" fill="#EEEFF1" stroke="#1F2533" stroke-miterlimit="10"/>
<path d="M445.4 449.832C444.1 454.432 448.6 460.332 454.4 460.332C462.4 460.232 464.1 455.032 464.5 450.332C464.6 448.732 461.3 446.832 455.1 446.832C449.5 446.732 445.9 447.932 445.4 449.832Z" fill="#EEEFF1" stroke="#1F2533" stroke-miterlimit="10"/>
<path d="M445.8 441.032C443.6 445.332 446.8 452.032 452.5 453.132C460.3 454.632 463 449.932 464.4 445.332C464.9 443.832 461.8 442.232 455.8 441.032C450.3 439.832 446.7 439.232 445.8 441.032Z" fill="#EEEFF1" stroke="#1F2533" stroke-miterlimit="10"/>
<path d="M447.6 434.332C445.5 438.632 449 445.232 454.7 446.232C462.6 447.532 465.1 442.632 466.3 438.032C466.7 436.432 463.5 435.032 457.5 434.032C452 433.032 448.4 432.632 447.6 434.332Z" fill="#EEEFF1" stroke="#1F2533" stroke-miterlimit="10"/>
<path d="M449.199 427.632C446.799 431.832 449.799 438.632 455.399 439.932C463.199 441.832 466.099 437.132 467.599 432.632C468.099 431.132 465.099 429.432 459.099 428.032C453.699 426.632 450.099 425.932 449.199 427.632Z" fill="#EEEFF1" stroke="#1F2533" stroke-miterlimit="10"/>
<path d="M451 420.832C448.7 425.032 451.7 431.832 457.4 433.032C465.2 434.732 468 430.132 469.5 425.532C470 424.032 466.9 422.432 461 421.032C455.5 419.832 452 419.132 451 420.832Z" fill="#EEEFF1" stroke="#1F2533" stroke-miterlimit="10"/>
<path d="M453.899 412.532C450.799 418.332 453.999 423.532 459.599 425.132C467.299 427.332 469.999 423.932 470.999 418.832C471.599 415.732 470.299 412.032 464.399 410.332C458.999 408.732 454.799 410.832 453.899 412.532Z" fill="#EEEFF1" stroke="#1F2533" stroke-miterlimit="10"/>
<path d="M443.1 486.832C448.2 485.432 444.8 488.932 439.8 494.132C428.3 506.332 427.8 497.232 418.1 516.832" stroke="#283046" stroke-miterlimit="10"/>
<path d="M450.2 391.632C458.3 385.132 481.1 377.332 488.1 398.932C494.7 419.532 480 424.132 472.9 428.132C466.3 431.832 454.3 432.032 447.9 418.532C443.5 409.132 444.2 396.432 450.2 391.632Z" fill="#1F2533"/>
<path d="M453.8 390.132C453.8 390.132 476.2 378.532 484.7 396.032C497.2 422.032 465.8 429.532 466.8 429.032C469.3 427.932 478.8 424.632 476.1 407.032C473.1 386.732 453.8 390.132 453.8 390.132Z" fill="#EEEFF1"/>
<path d="M454.7 390.932C463.2 390.332 472.499 395.932 474.299 407.132C475.899 417.732 471.699 428.232 464.899 429.132C456.999 430.132 449.899 422.232 447.399 413.432C444.899 404.532 446.7 391.532 454.7 390.932Z" fill="#EEEFF1"/>
<path d="M457.6 404.432C459.6 403.732 462 406.132 462.9 409.132C463.8 412.132 462.5 415.532 460.5 415.732C458.2 416.032 456.2 413.732 455.5 411.232C454.7 408.632 455.4 405.132 457.6 404.432Z" fill="#EEEFF1" stroke="#1F2533" stroke-miterlimit="10"/>
<path d="M469.5 378.532C466.6 382.332 465.7 385.632 466.7 387.732C467.4 389.232 465.2 390.832 464.3 388.932C463.3 386.832 463 382.532 467.9 377.032C471.8 372.632 475.7 371.132 475.7 373.532C475.8 375.432 472.1 375.232 469.5 378.532Z" fill="#EEEFF1" stroke="#1F2533" stroke-miterlimit="10"/>
<path d="M387.7 231.632C379.5 227.432 390.1 214.232 390.1 214.232C390.1 214.232 398.7 205.732 402.5 205.832C404.3 205.932 405.6 206.732 405.3 208.232C404.9 211.032 401 215.432 399.6 217.432C399.6 217.432 402.4 229.432 398.7 229.032C393.4 228.432 390.7 233.232 387.7 231.632Z" fill="#1F2533"/>
<path d="M393 214.632C394.2 215.932 397.599 216.632 398.299 216.232C398.999 215.832 406.599 208.932 404.299 206.932C401.999 204.932 393 214.632 393 214.632Z" fill="#EEEFF1"/>
<path d="M392.399 215.632C391.499 215.632 388.3 219.832 387.2 223.732C386.1 227.632 386.799 231.232 388.599 231.532C390.399 231.832 392.199 228.632 397.399 228.332C398.699 228.232 399.4 227.732 399.7 226.032C399.9 225.032 399.599 219.832 399.399 218.932C399.099 217.832 398.499 217.632 396.099 216.732C393.599 215.932 393.399 215.632 392.399 215.632Z" fill="#EEEFF1"/>
<path d="M423 243.332C429.6 239.432 428.5 225.232 428.5 225.232C428.5 225.232 425.3 212.832 421.8 211.332C420.2 210.632 417.5 210.932 416.9 212.332C416 214.632 418.5 220.832 418.9 223.532C419.4 228.732 411.7 231.032 415.3 240.432C418 247.432 420.9 244.632 423 243.332Z" fill="#1F2533"/>
<path d="M427.1 223.632C424.8 223.132 422 222.132 420.6 223.232C420 223.732 415.7 213.132 419.2 212.232C423.6 211.032 427.1 223.632 427.1 223.632Z" fill="#EEEFF1" stroke="#1F2533" stroke-miterlimit="10"/>
<path d="M427.7 225.432C428 226.232 428.9 230.532 428.1 234.732C427.3 238.932 422.2 244.432 419.7 245.832C418.6 246.432 413.6 240.232 415.7 233.132C416.2 231.432 420 225.532 420.3 224.432C420.7 223.332 421 223.132 423.7 223.232C425.5 223.232 427.1 224.232 427.7 225.432Z" fill="#EEEFF1" stroke="#1F2533" stroke-miterlimit="10"/>
<path d="M426.5 206.632C424.6 207.632 423.1 209.332 419.1 210.732C406.1 215.332 378 225.432 378 225.432C378 225.432 358.9 237.632 359.4 239.832C360 242.732 383.6 237.532 383.6 237.532C383.6 237.532 411.3 229.732 425 225.532C428.9 224.332 429 225.332 432.6 224.932C442.2 223.932 435.6 202.132 426.5 206.632Z" fill="#EEEFF1" stroke="#1F2533" stroke-miterlimit="10"/>
<path d="M426.5 217.532C428.1 223.232 431.1 226.132 434.5 224.332L426.5 217.532Z" fill="#EEEFF1"/>
<path d="M426.5 217.532C428.1 223.232 431.1 226.132 434.5 224.332" stroke="#1F2533" stroke-miterlimit="10"/>
<path d="M427.5 206.232C424.8 207.732 425.1 211.832 425.1 211.832L427.5 206.232Z" fill="#EEEFF1"/>
<path d="M427.5 206.232C424.8 207.732 425.1 211.832 425.1 211.832" stroke="#1F2533" stroke-miterlimit="10"/>
<path d="M392.7 226.432C391.5 225.732 395.8 219.632 399.8 213.732C401.9 210.632 404.6 205.532 406.6 203.432C408.7 201.232 413.4 201.332 413.7 203.932C414.3 209.532 409.9 226.732 407.8 227.332C405 228.232 403.8 226.732 400.7 226.532C397.6 226.332 394.2 227.332 392.7 226.432Z" fill="#1F2533"/>
<path d="M411 202.632C414.1 202.932 412.4 208.332 411.9 211.332C411.4 214.432 412 217.132 407.8 215.632C403.6 214.132 400.4 214.532 399.8 213.732C399.2 212.932 403.1 206.432 405.3 203.932C407.4 201.432 409.4 202.532 411 202.632Z" fill="#EEEFF1" stroke="#1F2533" stroke-miterlimit="10"/>
<path d="M399.5 214.832C400.4 214.332 401.9 214.432 404.8 215.632C407.7 216.832 409 216.832 409.9 216.932C410.8 217.032 410.7 218.532 409.6 221.832C408.5 225.132 408.8 229.232 405.5 227.832C402.1 226.432 396.1 226.532 394.1 226.832C392.1 227.132 391.6 225.732 394.1 222.132C396.6 218.432 397.5 215.932 399.5 214.832Z" fill="#EEEFF1" stroke="#1F2533" stroke-miterlimit="10"/>
<path d="M381 281.232C397.6 289.632 411.5 278.632 423.1 261.532C433.2 246.732 431.9 234.632 410.8 226.032C390.7 217.832 379.7 222.732 373.2 235.932C366.7 249.132 364.1 272.732 381 281.232Z" fill="#1F2533"/>
<path d="M376.6 231.632C377.7 230.532 385.3 215.932 408.7 226.232C432.1 236.532 428.8 248.632 427 252.632C424.7 257.632 405 293.432 382 281.232C355.5 267.232 376.6 231.632 376.6 231.632Z" fill="#EEEFF1" stroke="#1F2533" stroke-miterlimit="10"/>
<path d="M404.9 272.632C411.5 274.132 419.2 262.532 413.6 261.632C406.6 260.732 400.9 271.732 404.9 272.632Z" fill="#EEEFF1" stroke="#1F2533" stroke-miterlimit="10"/>
<path d="M359.4 239.832L368.6 235.832L378 225.432" fill="#EEEFF1"/>
<path d="M359.4 239.832L368.6 235.832L378 225.432" stroke="#1F2533" stroke-miterlimit="10"/>
<path d="M368.6 235.832L373.5 237.232" stroke="#1F2533" stroke-miterlimit="10"/>
<path d="M382.3 270.832C380.8 272.232 378.8 277.832 383.2 280.732C387.9 283.832 391.4 280.832 393.1 277.732C394 276.132 393.3 273.332 389.8 270.732C386.2 267.932 383.9 269.332 382.3 270.832Z" fill="#EEEFF1" stroke="#1F2533" stroke-miterlimit="10"/>
<path d="M379.699 277.932C378.699 279.832 378.599 285.932 383.699 287.332C389.199 288.832 391.599 284.732 392.299 281.032C392.599 279.132 390.299 281.432 386.099 280.032C381.599 278.532 380.699 276.032 379.699 277.932Z" fill="#EEEFF1" stroke="#1F2533" stroke-miterlimit="10"/>
<path d="M378.7 284.932C377.9 286.932 378.4 293.332 383.7 294.132C389.3 295.032 391.4 290.432 391.6 286.632C391.7 284.632 389.7 287.332 385.3 286.332C380.7 285.332 379.5 282.832 378.7 284.932Z" fill="#EEEFF1" stroke="#1F2533" stroke-miterlimit="10"/>
<path d="M378 291.532C377.4 293.832 378.5 300.532 384.1 300.832C390 301.232 391.7 296.132 391.6 292.032C391.6 289.932 389.6 292.932 385 292.332C380.2 291.732 378.7 289.132 378 291.532Z" fill="#EEEFF1" stroke="#1F2533" stroke-miterlimit="10"/>
<path d="M378.1 297.932C378.4 301.232 380.2 306.932 386.3 306.532C392.8 306.132 393.2 301.332 392.4 297.432C392 295.432 390.7 299.332 385.8 299.432C380.6 299.332 377.9 295.532 378.1 297.932Z" fill="#EEEFF1" stroke="#1F2533" stroke-miterlimit="10"/>
<path d="M379.099 303.632C379.899 306.832 382.899 313.132 388.999 312.032C395.499 310.832 394.899 305.232 393.399 301.432C392.599 299.532 392.399 304.332 387.299 304.932C382.099 305.732 378.499 301.432 379.099 303.632Z" fill="#EEEFF1" stroke="#1F2533" stroke-miterlimit="10"/>
<path d="M381.9 310.932C383.3 313.932 387.4 319.732 393.1 317.732C399.2 315.532 397.5 310.132 395.3 306.632C394.2 304.832 394.9 309.632 390.1 311.032C385.2 312.432 380.9 308.732 381.9 310.932Z" fill="#EEEFF1" stroke="#1F2533" stroke-miterlimit="10"/>
<path d="M386.3 318.132C388.4 320.832 393.8 325.532 398.9 322.432C404.3 319.132 401.3 314.132 398.4 311.232C396.9 309.732 398.7 314.232 394.4 316.632C390 318.932 384.9 316.232 386.3 318.132Z" fill="#EEEFF1" stroke="#1F2533" stroke-miterlimit="10"/>
<path d="M392.8 324.032C395.6 326.132 402 329.632 406.1 325.432C410.5 321.032 406.3 316.832 402.6 314.632C400.7 313.532 403.7 317.532 400.2 320.732C396.5 324.032 390.9 322.632 392.8 324.032Z" fill="#EEEFF1" stroke="#1F2533" stroke-miterlimit="10"/>
<path d="M399.7 328.232C402.8 329.932 409.8 332.532 413.1 327.832C416.7 322.832 411.9 319.332 407.9 317.632C405.9 316.732 409.5 320.332 406.5 323.932C403.4 327.732 397.6 327.032 399.7 328.232Z" fill="#EEEFF1" stroke="#1F2533" stroke-miterlimit="10"/>
<path d="M407.6 331.632C410.6 333.132 416.5 334.632 419.3 329.832C422.3 324.632 417.4 321.532 413.5 320.132C411.5 319.432 415.2 322.632 412.7 326.532C410.1 330.432 405.5 330.532 407.6 331.632Z" fill="#EEEFF1" stroke="#1F2533" stroke-miterlimit="10"/>
<path d="M412.9 333.732C415.9 335.232 422.5 337.332 425.3 332.232C428.3 326.732 423.5 323.432 419.7 322.032C417.7 321.232 421.4 324.732 418.9 328.732C416.2 332.932 410.7 332.732 412.9 333.732Z" fill="#EEEFF1" stroke="#1F2533" stroke-miterlimit="10"/>
<path d="M419.299 336.332C422.399 337.632 429.199 339.332 431.599 334.032C434.099 328.332 429.099 325.432 425.199 324.132C423.199 323.532 427.099 326.732 424.899 330.932C422.599 335.232 417.099 335.332 419.299 336.332Z" fill="#EEEFF1" stroke="#1F2533" stroke-miterlimit="10"/>
<path d="M425.799 338.432C428.999 339.532 435.899 340.532 437.799 335.032C439.799 329.132 434.599 326.632 430.599 325.732C428.499 325.332 432.699 328.132 430.899 332.532C428.999 337.132 423.599 337.732 425.799 338.432Z" fill="#EEEFF1" stroke="#1F2533" stroke-miterlimit="10"/>
<path d="M583.1 290.832L567.4 283.232C560.9 280.632 537.8 289.932 523.7 297.932C512.1 304.532 515.7 322.832 516.6 347.532C517.3 369.232 520.5 374.932 523.3 377.732C525.9 380.432 539.1 385.732 539.1 385.732L543.8 370.032C556.1 364.332 570.5 356.432 573.2 350.132C575.4 344.932 575.6 328.632 574.4 313.432L583.1 290.832Z" fill="#EEEFF1" stroke="#1F2533" stroke-miterlimit="10"/>
<path d="M541.5 306.032C555.1 297.732 577.4 288.132 583.6 290.832C589.8 293.532 593.4 349.332 589.2 360.032C585 370.732 549.2 384.132 543.4 386.332C537.6 388.532 535.5 381.632 534.6 353.532C533.8 328.132 530.3 312.832 541.5 306.032Z" fill="#EEEFF1" stroke="#1F2533" stroke-miterlimit="10"/>
<path d="M545.3 341.032L544.5 320.732L542.8 321.532L543.4 341.732L545.3 341.032Z" fill="#1F2533"/>
<path d="M552.4 338.332L551.7 317.732L549.9 318.532L550.6 339.132L552.4 338.332Z" fill="#1F2533"/>
<path d="M560 335.332L559.3 315.132L557.6 315.932L558.2 336.032L560 335.332Z" fill="#1F2533"/>
<path d="M568.9 331.632L568.2 310.932L566.4 311.732L567.1 332.432L568.9 331.632Z" fill="#1F2533"/>
<path d="M576.5 328.532L575.8 307.432L574 308.232L574.7 329.332L576.5 328.532Z" fill="#1F2533"/>
<path d="M584.1 325.432L583.4 304.832L581.7 305.632L582.3 326.232L584.1 325.432Z" fill="#1F2533"/>
<path d="M538.4 298.732C533.4 300.032 535.2 292.032 530.3 292.132C523.3 292.232 523.1 285.032 526 283.732C528.9 282.432 535 284.032 538.3 286.532C541.6 289.032 546.1 296.832 538.4 298.732Z" fill="#1F2533"/>
<path d="M539.4 297.932C537.2 298.432 536.6 297.632 536 296.332C535.8 295.932 536.6 294.632 536.4 294.232C536.2 293.732 535.8 293.732 534.5 293.632C533.1 293.532 535.4 291.132 533.3 290.932C533 290.932 531 291.732 530.6 291.632C530.1 291.532 530 290.032 529.6 289.932C529.2 289.832 528.5 291.132 528.2 290.932C524.1 289.132 524.2 284.432 526.7 283.332C529.6 282.032 534.3 283.732 537.6 286.232C540.8 288.732 545.2 296.432 539.4 297.932Z" fill="#EEEFF1" stroke="#1F2533" stroke-miterlimit="10"/>
<path d="M558.6 289.332C553.6 290.632 557.3 284.332 550.4 283.032C543.4 281.732 544.7 276.132 547.7 274.832C550.6 273.532 555.4 274.532 558.6 277.032C561.8 279.532 566.3 287.332 558.6 289.332Z" fill="#1F2533"/>
<path d="M559.5 288.432C557.3 288.932 556.7 288.132 556.1 286.832C555.9 286.432 556.7 285.132 556.5 284.732C556.3 284.232 555 284.632 554.6 284.132C554.4 283.932 554.2 283.632 553.9 283.432C553.6 283.232 553.8 281.532 553.4 281.432C553.1 281.232 552.3 282.532 552 282.432C551.6 282.332 551.2 282.232 550.7 282.132C550.2 282.032 550.1 280.532 549.7 280.432C549.3 280.332 548.6 281.632 548.3 281.432C544.2 279.632 545.6 276.132 548.2 275.032C551.1 273.732 554.5 274.332 557.7 276.732C560.9 279.232 565.4 287.032 559.5 288.432Z" fill="#EEEFF1" stroke="#1F2533" stroke-miterlimit="10"/>
<path d="M542.2 370.532V375.832L552.8 370.932V365.932L542.2 370.532Z" fill="#1F2533"/>
<path d="M552.1 370.232L548.2 368.732L552.1 367.032V370.232Z" fill="#EEEFF1"/>
<path d="M200.444 415.4C200.444 415.4 193.444 332.6 192.444 300.7C191.444 268.8 192.444 226 192.444 226C192.444 226 208.844 216.1 229.844 204.5C256.844 189.5 301.144 174.5 327.144 166.1C354.444 157.2 400.944 148 400.944 148C400.944 148 370.544 153.9 337.544 165.2C304.544 176.5 287.644 184.5 287.644 184.5L283.844 209.6L281.644 186.1C281.644 186.1 269.644 187.8 241.044 202.6C212.444 217.4 195.644 228 195.644 228C195.644 228 193.744 281.4 194.944 322C196.144 362.6 200.444 415.4 200.444 415.4Z" fill="#1F2533"/>
<path d="M213.2 533.532C209.7 537.132 201.1 545.332 206.7 552.632C208.7 555.232 215.9 562.432 221.2 564.632C226.5 566.832 242.5 566.832 246.9 564.632C251.3 562.432 268.2 548.032 267.8 544.132C267.4 540.132 246.9 523.432 242.5 521.632C238.1 519.832 218.8 527.932 213.2 533.532Z" fill="#EEEFF1" stroke="#1F2533" stroke-miterlimit="10"/>
<path d="M158.3 462.632C165 464.832 166.7 470.632 166.7 472.432C166.7 474.232 169.8 476.432 172 478.632C174.2 480.832 177.8 484.832 177.3 487.932C176.9 491.032 165.3 494.632 162.7 495.932C160 497.232 155.2 492.432 149.8 490.632C144.5 488.832 144.5 482.032 143.1 479.432C141.8 476.832 142.7 472.032 146.2 466.632C149.7 461.232 158.3 462.632 158.3 462.632Z" fill="#EEEFF1" stroke="#1F2533" stroke-miterlimit="10"/>
<path d="M45 431.532C45 427.532 46.3 416.432 56.1 418.232C65.9 420.032 70.7 424.932 70.7 428.032C70.7 431.132 66.9 436.432 62.6 438.232C58.3 440.032 45 431.532 45 431.532Z" fill="#EEEFF1" stroke="#1F2533" stroke-miterlimit="10"/>
<path d="M595.3 386.732C599.7 386.132 599.2 387.632 599.5 388.632C599.8 389.632 600.5 391.432 601.8 391.832C603.1 392.232 603.3 395.132 602.8 396.332C602.3 397.432 597.4 397.332 595.3 397.132C593.2 396.932 589.9 396.032 589.4 393.832C588.9 391.632 588.3 389.432 590.5 387.932C592.9 386.332 595.3 386.732 595.3 386.732Z" fill="#EEEFF1" stroke="#1F2533" stroke-miterlimit="10"/>
<path d="M618.9 501.332C625.8 500.032 633.4 503.832 634 510.132C634.6 516.432 634.6 519.632 626.4 520.832C618.2 522.132 610.6 517.432 610.6 510.932C610.6 504.432 618.9 501.332 618.9 501.332Z" fill="#EEEFF1" stroke="#1F2533" stroke-miterlimit="10"/>
<path d="M250.4 241.932V250.632L262.5 245.932V270.632C262.5 270.632 256.5 272.732 250.8 274.232V283.432C259.5 281.432 271.5 276.732 278.6 272.532L278.3 263.832C278.3 263.832 274 267.032 269.8 268.132L269.6 244.432L276.9 241.432V232.132C271.8 234.732 263.2 238.232 250.4 241.932Z" fill="#EEEFF1" stroke="#1F2533" stroke-miterlimit="10"/>
<path d="M277 241.332L266.1 236.932C266.1 236.932 256.4 240.432 250.5 242.032V250.732L262.6 246.032V270.732L250.9 274.332V283.532C258.8 282.932 278.8 274.332 278.7 272.632L269.9 268.232V244.532L277 241.332Z" fill="#1F2533"/>
<path d="M285.3 326.232C285.3 326.232 284.2 327.232 279.1 329.832L278.9 306.232L283.9 303.932V294.632C279 297.232 262.9 305.032 250.2 309.932V319.732L258.1 316.732V339.232C258.1 339.232 256.4 340.132 250.5 342.132V352.232C264.4 349.532 278.7 340.132 285.5 334.932L285.3 326.232ZM272.3 332.832L264.4 336.032V314.132L272.3 310.332V332.832Z" fill="#EEEFF1" stroke="#1F2533" stroke-miterlimit="10"/>
<path d="M279 329.832V306.232L283.9 303.932L275.6 298.732C275.6 298.732 263 305.032 250.2 310.032V319.832L258.1 316.832V339.332L250.5 342.232V352.332C262.4 350.432 285.5 336.732 285.5 335.032L279 329.832ZM272.3 332.832L264.4 336.032V314.132L272.3 310.332V332.832Z" fill="#1F2533"/>
<path d="M295 385.832C295 385.832 293.9 386.832 288.8 389.432L288.6 365.832L292.6 363.532V354.232C280.2 361.832 262 370.032 249.3 375.032V383.832L255.9 381.132V404.632C255.9 404.632 255.5 405.232 249.6 407.232V416.332C263.5 413.632 288.4 399.832 295.2 394.532L295 385.832ZM282 393.432C278.1 397.132 266.6 402.232 262.2 402.932V378.532L282 369.932V393.432Z" fill="#EEEFF1" stroke="#1F2533" stroke-miterlimit="10"/>
<path d="M288.8 389.432V365.832L292.7 363.532L285.4 358.332C285.4 358.332 262.2 370.132 249.3 375.032V383.832L255.9 381.132V404.632L249.6 407.232V416.332C261.5 414.432 295.2 396.232 295.2 394.532L288.8 389.432ZM262.3 378.432L269.4 375.332L269.8 400.332C267.3 401.432 264.7 402.132 262.3 402.832V378.432ZM276.3 397.032L275.7 372.632L282 369.932V393.232C280.7 394.232 278.7 395.632 276.3 397.032Z" fill="#1F2533"/>
<path d="M238.4 432.532C256 420.032 290.6 417.032 302.2 418.232C313.7 419.432 329.9 439.232 335.9 442.432C355 452.332 341.9 460.332 345.6 467.032C349.3 473.732 338.1 479.132 335.6 483.632C333.2 488.132 330.7 487.532 313.1 491.732C295.5 496.032 283.3 503.932 278.5 506.632C273.6 509.332 262.7 506.332 255.4 506.632C248.1 506.932 228.7 499.132 226.2 483.632C223.8 468.132 223.8 454.132 226.2 445.632C228.7 437.032 238.4 432.532 238.4 432.532Z" fill="#EEEFF1" stroke="#1F2533" stroke-miterlimit="10"/>
</svg>
