<svg width="680" height="600" viewBox="0 0 680 600" fill="none" xmlns="http://www.w3.org/2000/svg">
<path d="M248.788 40V119.474L356.417 152.721V65.5043L248.788 40Z" fill="#F0F0F0" stroke="#283046" stroke-miterlimit="10"/>
<path d="M286.229 67.1829V87.1623L312.571 94.5686V74.0632L286.229 67.1829Z" fill="#F0F0F0" stroke="#283046" stroke-miterlimit="10"/>
<path d="M287.96 69.8313V85.9963L309.978 91.9201V75.5178L287.96 69.8313Z" fill="#F0F0F0" stroke="#283046" stroke-miterlimit="10"/>
<path d="M289.261 104.389L283.156 108.488V116.002L289.261 112.131V104.389Z" fill="#283046" stroke="#283046" stroke-miterlimit="10" stroke-linecap="round" stroke-linejoin="round"/>
<path d="M287.452 103.989L281.348 108.088L309.518 115.717L315.624 111.618L312.569 110.791L308.199 113.553L284.401 107.632L289.262 104.388L287.452 103.989Z" fill="#F0F0F0" stroke="#283046" stroke-miterlimit="10" stroke-linecap="round" stroke-linejoin="round"/>
<path d="M315.623 111.618L309.518 115.717V123.231L315.623 119.36V111.618Z" fill="#F0F0F0" stroke="#283046" stroke-miterlimit="10" stroke-linecap="round" stroke-linejoin="round"/>
<path d="M309.518 115.717L281.348 108.088V115.602L309.518 123.231V115.717Z" fill="#F0F0F0" stroke="#283046" stroke-miterlimit="10" stroke-linecap="round" stroke-linejoin="round"/>
<path d="M359.825 66.0176V153.241L477.949 189.73V94.0092L359.825 66.0176Z" fill="#F0F0F0" stroke="#283046" stroke-miterlimit="10"/>
<path d="M400.917 95.8511V117.779L429.828 125.907V103.402L400.917 95.8511Z" fill="#F0F0F0" stroke="#283046" stroke-miterlimit="10"/>
<path d="M402.816 98.7583V116.498L426.983 123.001V104.998L402.816 98.7583Z" fill="#F0F0F0" stroke="#283046" stroke-miterlimit="10"/>
<path d="M404.244 136.684L397.544 141.183V149.43L404.244 145.181V136.684Z" fill="#283046" stroke="#283046" stroke-miterlimit="10" stroke-linecap="round" stroke-linejoin="round"/>
<path d="M402.26 136.246L395.56 140.744L426.478 149.118L433.178 144.619L429.826 143.71L425.029 146.743L398.909 140.245L404.245 136.683L402.26 136.246Z" fill="#F0F0F0" stroke="#283046" stroke-miterlimit="10" stroke-linecap="round" stroke-linejoin="round"/>
<path d="M433.178 144.619L426.478 149.118V157.365L433.178 153.116V144.619Z" fill="#F0F0F0" stroke="#283046" stroke-miterlimit="10" stroke-linecap="round" stroke-linejoin="round"/>
<path d="M426.478 149.118L395.559 140.744V148.993L426.478 157.365V149.118Z" fill="#F0F0F0" stroke="#283046" stroke-miterlimit="10" stroke-linecap="round" stroke-linejoin="round"/>
<path d="M483.267 95.8511V189.432L610 228.58V125.883L483.267 95.8511Z" fill="#F0F0F0" stroke="#283046" stroke-miterlimit="10"/>
<path d="M527.354 127.859V151.385L558.372 160.106V135.96L527.354 127.859Z" fill="#F0F0F0" stroke="#283046" stroke-miterlimit="10"/>
<path d="M529.392 130.977V150.01L555.319 156.986V137.673L529.392 130.977Z" fill="#F0F0F0" stroke="#283046" stroke-miterlimit="10"/>
<path d="M530.925 171.669L523.736 176.495V185.343L530.925 180.785V171.669Z" fill="#283046" stroke="#283046" stroke-miterlimit="10" stroke-linecap="round" stroke-linejoin="round"/>
<path d="M528.795 171.198L521.607 176.025L554.778 185.007L561.967 180.181L558.37 179.206L553.223 182.46L525.201 175.489L530.925 171.668L528.795 171.198Z" fill="#F0F0F0" stroke="#283046" stroke-miterlimit="10" stroke-linecap="round" stroke-linejoin="round"/>
<path d="M561.966 180.18L554.778 185.007V193.856L561.966 189.297V180.18Z" fill="#F0F0F0" stroke="#283046" stroke-miterlimit="10" stroke-linecap="round" stroke-linejoin="round"/>
<path d="M554.778 185.007L521.606 176.025V184.873L554.778 193.856V185.007Z" fill="#F0F0F0" stroke="#283046" stroke-miterlimit="10" stroke-linecap="round" stroke-linejoin="round"/>
<path d="M248.788 122.533V202.007L356.417 242.846V155.629L248.788 122.533Z" fill="#F0F0F0" stroke="#283046" stroke-miterlimit="10"/>
<path d="M286.229 152.357V172.336L312.571 181.6V161.094L286.229 152.357Z" fill="#F0F0F0" stroke="#283046" stroke-miterlimit="10"/>
<path d="M287.96 155.127V171.292L309.978 178.769V162.366L287.96 155.127Z" fill="#F0F0F0" stroke="#283046" stroke-miterlimit="10"/>
<path d="M289.261 189.776L283.156 193.444V200.959L289.261 197.518V189.776Z" fill="#283046" stroke="#283046" stroke-miterlimit="10" stroke-linecap="round" stroke-linejoin="round"/>
<path d="M287.452 189.249L281.348 192.917L309.518 202.532L315.624 198.864L312.569 197.821L308.199 200.276L284.401 192.677L289.262 189.775L287.452 189.249Z" fill="#F0F0F0" stroke="#283046" stroke-miterlimit="10" stroke-linecap="round" stroke-linejoin="round"/>
<path d="M315.623 198.864L309.518 202.533V210.047L315.623 206.607V198.864Z" fill="#F0F0F0" stroke="#283046" stroke-miterlimit="10" stroke-linecap="round" stroke-linejoin="round"/>
<path d="M309.518 202.533L281.348 192.917V200.432L309.518 210.047V202.533Z" fill="#F0F0F0" stroke="#283046" stroke-miterlimit="10" stroke-linecap="round" stroke-linejoin="round"/>
<path d="M359.825 156.383V243.606L477.949 288.426V192.705L359.825 156.383Z" fill="#F0F0F0" stroke="#283046" stroke-miterlimit="10"/>
<path d="M400.917 189.114V211.042L429.828 221.209V198.704L400.917 189.114Z" fill="#F0F0F0" stroke="#283046" stroke-miterlimit="10"/>
<path d="M402.816 192.154V209.895L426.983 218.101V200.099L402.816 192.154Z" fill="#F0F0F0" stroke="#283046" stroke-miterlimit="10"/>
<path d="M404.244 230.182L397.544 234.209V242.456L404.244 238.679V230.182Z" fill="#283046" stroke="#283046" stroke-miterlimit="10" stroke-linecap="round" stroke-linejoin="round"/>
<path d="M402.26 229.604L395.56 233.63L426.478 244.183L433.178 240.157L429.826 239.012L425.029 241.706L398.909 233.367L404.245 230.181L402.26 229.604Z" fill="#F0F0F0" stroke="#283046" stroke-miterlimit="10" stroke-linecap="round" stroke-linejoin="round"/>
<path d="M433.178 240.156L426.478 244.183V252.43L433.178 248.655V240.156Z" fill="#F0F0F0" stroke="#283046" stroke-miterlimit="10" stroke-linecap="round" stroke-linejoin="round"/>
<path d="M426.478 244.183L395.559 233.63V241.877L426.478 252.43V244.183Z" fill="#F0F0F0" stroke="#283046" stroke-miterlimit="10" stroke-linecap="round" stroke-linejoin="round"/>
<path d="M359.825 156.383V243.606L457.045 186.16L359.825 156.383Z" fill="#283046" stroke="#283046" stroke-miterlimit="10" stroke-linecap="round" stroke-linejoin="round"/>
<path d="M477.949 284.092L363.117 241.652L457.045 186.16L477.949 192.705V284.092Z" fill="#F0F0F0" stroke="#283046" stroke-miterlimit="10" stroke-linecap="round" stroke-linejoin="round"/>
<path d="M483.267 194.922V288.503L610 336.589V233.893L483.267 194.922Z" fill="#F0F0F0" stroke="#283046" stroke-miterlimit="10"/>
<path d="M527.354 230.04V253.565L558.372 264.474V240.328L527.354 230.04Z" fill="#F0F0F0" stroke="#283046" stroke-miterlimit="10"/>
<path d="M529.392 233.301V252.335L555.319 261.14V241.825L529.392 233.301Z" fill="#F0F0F0" stroke="#283046" stroke-miterlimit="10"/>
<path d="M530.925 274.099L523.736 278.419V287.268L530.925 283.216V274.099Z" fill="#283046" stroke="#283046" stroke-miterlimit="10" stroke-linecap="round" stroke-linejoin="round"/>
<path d="M528.795 273.48L521.607 277.799L554.778 289.122L561.967 284.802L558.37 283.575L553.223 286.464L525.201 277.517L530.925 274.099L528.795 273.48Z" fill="#F0F0F0" stroke="#283046" stroke-miterlimit="10" stroke-linecap="round" stroke-linejoin="round"/>
<path d="M561.966 284.802L554.778 289.122V297.971L561.966 293.919V284.802Z" fill="#F0F0F0" stroke="#283046" stroke-miterlimit="10" stroke-linecap="round" stroke-linejoin="round"/>
<path d="M554.778 289.122L521.606 277.8V286.649L554.778 297.971V289.122Z" fill="#F0F0F0" stroke="#283046" stroke-miterlimit="10" stroke-linecap="round" stroke-linejoin="round"/>
<path d="M248.788 205.603V285.076L356.417 333.494V246.278L248.788 205.603Z" fill="#F0F0F0" stroke="#283046" stroke-miterlimit="10"/>
<path d="M286.229 238.063V258.042L312.571 269.161V248.656L286.229 238.063Z" fill="#F0F0F0" stroke="#283046" stroke-miterlimit="10"/>
<path d="M287.96 240.955V257.119L309.978 266.148V249.744L287.96 240.955Z" fill="#F0F0F0" stroke="#283046" stroke-miterlimit="10"/>
<path d="M289.261 275.695L283.156 278.933V286.448L289.261 283.437V275.695Z" fill="#283046" stroke="#283046" stroke-miterlimit="10" stroke-linecap="round" stroke-linejoin="round"/>
<path d="M287.452 275.041L281.348 278.28L309.518 289.879L315.624 286.641L312.569 285.383L308.199 287.53L284.401 278.255L289.262 275.695L287.452 275.041Z" fill="#F0F0F0" stroke="#283046" stroke-miterlimit="10" stroke-linecap="round" stroke-linejoin="round"/>
<path d="M315.623 286.641L309.518 289.879V297.394L315.623 294.383V286.641Z" fill="#F0F0F0" stroke="#283046" stroke-miterlimit="10" stroke-linecap="round" stroke-linejoin="round"/>
<path d="M309.518 289.879L281.348 278.28V285.794L309.518 297.394V289.879Z" fill="#F0F0F0" stroke="#283046" stroke-miterlimit="10" stroke-linecap="round" stroke-linejoin="round"/>
<path d="M359.825 247.271V334.494L477.949 387.634V291.913L359.825 247.271Z" fill="#F0F0F0" stroke="#283046" stroke-miterlimit="10"/>
<path d="M400.917 282.897V304.824L429.828 317.028V294.523L400.917 282.897Z" fill="#F0F0F0" stroke="#283046" stroke-miterlimit="10"/>
<path d="M402.816 286.071V303.812L426.983 313.72V295.717L402.816 286.071Z" fill="#F0F0F0" stroke="#283046" stroke-miterlimit="10"/>
<path d="M404.244 324.199L397.544 327.753V336L404.244 332.696V324.199Z" fill="#283046" stroke="#283046" stroke-miterlimit="10" stroke-linecap="round" stroke-linejoin="round"/>
<path d="M402.26 323.481L395.56 327.035L426.478 339.766L433.178 336.212L429.826 334.831L425.029 337.187L398.909 327.008L404.245 324.199L402.26 323.481Z" fill="#F0F0F0" stroke="#283046" stroke-miterlimit="10" stroke-linecap="round" stroke-linejoin="round"/>
<path d="M433.178 336.212L426.478 339.766V348.013L433.178 344.709V336.212Z" fill="#F0F0F0" stroke="#283046" stroke-miterlimit="10" stroke-linecap="round" stroke-linejoin="round"/>
<path d="M426.478 339.766L395.559 327.035V335.283L426.478 348.013V339.766Z" fill="#F0F0F0" stroke="#283046" stroke-miterlimit="10" stroke-linecap="round" stroke-linejoin="round"/>
<path d="M483.267 294.504V388.084L610 445.097V342.399L483.267 294.504Z" fill="#F0F0F0" stroke="#283046" stroke-miterlimit="10"/>
<path d="M527.354 332.726V356.252L558.372 369.345V345.199L527.354 332.726Z" fill="#F0F0F0" stroke="#283046" stroke-miterlimit="10"/>
<path d="M529.392 336.132V355.166L555.319 365.796V346.481L529.392 336.132Z" fill="#F0F0F0" stroke="#283046" stroke-miterlimit="10"/>
<path d="M530.925 377.038L523.736 380.852V389.7L530.925 386.155V377.038Z" fill="#283046" stroke="#283046" stroke-miterlimit="10" stroke-linecap="round" stroke-linejoin="round"/>
<path d="M528.795 376.268L521.607 380.082L554.778 393.74L561.967 389.927L558.37 388.446L553.223 390.974L525.201 380.052L530.925 377.038L528.795 376.268Z" fill="#F0F0F0" stroke="#283046" stroke-miterlimit="10" stroke-linecap="round" stroke-linejoin="round"/>
<path d="M561.966 389.927L554.778 393.741V402.589L561.966 399.044V389.927Z" fill="#F0F0F0" stroke="#283046" stroke-miterlimit="10" stroke-linecap="round" stroke-linejoin="round"/>
<path d="M554.778 393.741L521.606 380.082V388.931L554.778 402.588V393.741Z" fill="#F0F0F0" stroke="#283046" stroke-miterlimit="10" stroke-linecap="round" stroke-linejoin="round"/>
<path d="M398.637 271.125C391.131 276.547 382.225 262.069 382.225 262.069C382.225 262.069 379.22 249.436 380.836 246.145C381.597 244.597 382.998 243.84 384.338 244.694C386.915 246.341 387.717 251.81 389.158 254.019C389.158 254.019 402.237 257.008 400.371 260.1C397.65 264.608 401.335 269.175 398.637 271.125Z" fill="#283046"/>
<path d="M380.424 258.483C382.505 258.751 386.05 257.149 386.3 256.347C386.55 255.545 385.811 244.85 382.126 244.759C378.439 244.67 380.424 258.483 380.424 258.483Z" fill="#F0F0F0" stroke="#283046" stroke-miterlimit="10"/>
<path d="M381.609 261.97C381.269 262.768 385.229 267.508 388.647 270.326C392.064 273.144 395.978 274.106 396.975 272.658C397.973 271.211 395.519 268.146 397.227 263.333C397.639 262.168 397.397 261.243 395.872 260.276C394.94 259.685 389.622 257.542 388.644 257.339C387.452 257.092 386.996 257.606 385.17 259.344C383.344 261.083 381.969 261.128 381.609 261.97Z" fill="#F0F0F0" stroke="#283046" stroke-miterlimit="10"/>
<path d="M191.523 413.163L477.072 253.547V249.423L191.537 408.387L191.523 413.163Z" fill="#F0F0F0" stroke="#283046" stroke-miterlimit="10"/>
<path d="M70 415.64L363.117 243.41V213.625L70.0136 377.447L70 415.64Z" fill="#283046" stroke="#283046" stroke-miterlimit="10" stroke-linecap="round" stroke-linejoin="round"/>
<path d="M73.1521 379.988L390.86 200.482L363.117 213.671L73.1657 375.394L73.1521 379.988Z" fill="#F0F0F0" stroke="#283046" stroke-miterlimit="10"/>
<path d="M406.048 242.847L407.084 187.343L488.427 212.488L486.355 276.211L406.048 242.847Z" fill="#283046" stroke="#F0F0F0" stroke-miterlimit="10" stroke-linecap="round" stroke-linejoin="round"/>
<path d="M399.364 189.016L432.601 200.232L436.1 208.588L484.142 226.073L486.209 276L399.364 241.024V189.016Z" fill="#F0F0F0" stroke="#283046" stroke-miterlimit="10"/>
<path d="M388.679 253.063V195.473L471.058 224.79L468.986 286.426L388.679 253.063Z" fill="#283046" stroke="#F0F0F0" stroke-miterlimit="10" stroke-linecap="round" stroke-linejoin="round"/>
<path d="M381.995 198.189L415.231 209.405L418.73 218.803L466.773 236.289L468.84 286.216L381.995 251.239V198.189Z" fill="#F0F0F0" stroke="#283046" stroke-miterlimit="10"/>
<path d="M369.939 264.122L370.975 205.49L452.319 234.805L450.247 297.485L369.939 264.122Z" fill="#283046" stroke="#F0F0F0" stroke-miterlimit="10" stroke-linecap="round" stroke-linejoin="round"/>
<path d="M363.256 209.248L396.492 220.464L399.991 229.862L448.034 247.348L450.101 297.274L363.256 262.298V209.248Z" fill="#F0F0F0" stroke="#283046" stroke-miterlimit="10"/>
<path d="M348.815 277.243L349.85 218.611L431.193 247.927L429.123 310.606L348.815 277.243Z" fill="#283046" stroke="#F0F0F0" stroke-miterlimit="10" stroke-linecap="round" stroke-linejoin="round"/>
<path d="M342.131 222.37L375.368 233.585L378.867 242.983L426.91 260.469L428.977 310.395L342.131 275.419V222.37Z" fill="#F0F0F0" stroke="#283046" stroke-miterlimit="10"/>
<path d="M326.805 288.845L327.84 230.213L409.183 259.53L407.111 322.209L326.805 288.845Z" fill="#283046" stroke="#F0F0F0" stroke-miterlimit="10" stroke-linecap="round" stroke-linejoin="round"/>
<path d="M320.12 233.972L353.357 245.188L356.856 254.585L404.898 272.071L406.965 321.998L320.12 287.021V233.972Z" fill="#F0F0F0" stroke="#283046" stroke-miterlimit="10"/>
<path d="M303.92 272.382L304.993 211.661L389.233 242.021L387.087 306.933L303.92 272.382Z" fill="#283046" stroke="#F0F0F0" stroke-miterlimit="10" stroke-linecap="round" stroke-linejoin="round"/>
<path d="M296.998 215.554L331.418 227.17L335.042 236.902L384.795 255.01L386.936 306.715L296.998 270.494V215.554Z" fill="#F0F0F0" stroke="#283046" stroke-miterlimit="10"/>
<path d="M282.67 317.125L283.742 256.405L367.982 286.765L365.837 351.677L282.67 317.125Z" fill="#283046" stroke="#F0F0F0" stroke-miterlimit="10" stroke-linecap="round" stroke-linejoin="round"/>
<path d="M275.748 260.297L310.168 271.912L313.792 281.645L363.545 299.754L365.686 351.459L275.748 315.236V260.297Z" fill="#F0F0F0" stroke="#283046" stroke-miterlimit="10"/>
<path d="M262.665 330.877L263.738 270.156L347.977 300.517L345.832 365.428L262.665 330.877Z" fill="#283046" stroke="#F0F0F0" stroke-miterlimit="10" stroke-linecap="round" stroke-linejoin="round"/>
<path d="M255.742 274.048L290.163 285.664L293.786 295.397L343.539 313.505L345.681 365.21L255.742 328.988V274.048Z" fill="#F0F0F0" stroke="#283046" stroke-miterlimit="10"/>
<path d="M241.291 343.669L242.364 282.948L326.604 313.308L324.459 378.22L241.291 343.669Z" fill="#283046" stroke="#F0F0F0" stroke-miterlimit="10" stroke-linecap="round" stroke-linejoin="round"/>
<path d="M234.37 286.841L268.79 298.456L272.413 308.189L322.167 326.298L324.308 378.002L234.37 341.78V286.841Z" fill="#F0F0F0" stroke="#283046" stroke-miterlimit="10"/>
<path d="M215.672 356.784L216.745 296.063L300.985 326.423L298.84 391.335L215.672 356.784Z" fill="#283046" stroke="#F0F0F0" stroke-miterlimit="10" stroke-linecap="round" stroke-linejoin="round"/>
<path d="M208.75 299.956L243.17 311.571L246.793 321.304L296.547 339.413L298.688 391.117L208.75 354.895V299.956Z" fill="#F0F0F0" stroke="#283046" stroke-miterlimit="10"/>
<path d="M190.435 370.607L191.507 309.886L275.747 340.246L273.603 405.158L190.435 370.607Z" fill="#283046" stroke="#F0F0F0" stroke-miterlimit="10" stroke-linecap="round" stroke-linejoin="round"/>
<path d="M183.512 313.779L217.933 325.395L221.556 335.127L271.31 353.235L273.45 404.94L183.512 368.718V313.779Z" fill="#F0F0F0" stroke="#283046" stroke-miterlimit="10"/>
<path d="M167.258 384.685L168.331 323.965L252.571 354.325L250.427 419.237L167.258 384.685Z" fill="#283046" stroke="#F0F0F0" stroke-miterlimit="10" stroke-linecap="round" stroke-linejoin="round"/>
<path d="M160.335 327.857L194.757 339.474L198.38 349.206L248.134 367.314L250.274 419.019L160.335 382.796V327.857Z" fill="#F0F0F0" stroke="#283046" stroke-miterlimit="10"/>
<path d="M141.238 401.287L142.311 340.566L226.551 370.927L224.406 435.839L141.238 401.287Z" fill="#283046" stroke="#F0F0F0" stroke-miterlimit="10" stroke-linecap="round" stroke-linejoin="round"/>
<path d="M134.315 344.459L168.736 356.075L172.359 365.807L222.113 383.915L224.253 435.62L134.315 399.399V344.459Z" fill="#F0F0F0" stroke="#283046" stroke-miterlimit="10"/>
<path d="M191.523 455.563L477.072 283.333V253.547L191.537 414.22L191.523 455.563Z" fill="#F0F0F0" stroke="#283046" stroke-miterlimit="10"/>
<path d="M194.65 439.814L477.072 272.833V271.396L194.664 435.219L194.65 439.814Z" fill="#283046" stroke="#283046" stroke-miterlimit="10" stroke-linecap="round" stroke-linejoin="round"/>
<path d="M70 324.568V414.943L191.252 461.863V366.142L70 324.568Z" fill="#F0F0F0" stroke="#283046" stroke-miterlimit="10"/>
<path d="M73.4218 322.469L70.0002 324.568L191.252 366.142V461.863L195.715 458.713V362.992L73.4218 322.469Z" fill="#F0F0F0" stroke="#283046" stroke-miterlimit="10" stroke-linecap="round" stroke-linejoin="round"/>
<path d="M109.006 362.551V384.478L137.918 394.645V372.141L109.006 362.551Z" fill="#F0F0F0" stroke="#283046" stroke-miterlimit="10"/>
<path d="M110.906 365.591V383.332L135.073 391.538V373.536L110.906 365.591Z" fill="#F0F0F0" stroke="#283046" stroke-miterlimit="10"/>
<path d="M112.335 403.618L105.635 407.643V415.892L112.335 412.115V403.618Z" fill="#283046" stroke="#283046" stroke-miterlimit="10" stroke-linecap="round" stroke-linejoin="round"/>
<path d="M110.35 403.04L103.649 407.066L134.568 417.62L141.268 413.593L137.915 412.449L133.119 415.143L106.999 406.802L112.335 403.618L110.35 403.04Z" fill="#F0F0F0" stroke="#283046" stroke-miterlimit="10" stroke-linecap="round" stroke-linejoin="round"/>
<path d="M141.269 413.594L134.568 417.62V425.867L141.269 422.091V413.594Z" fill="#F0F0F0" stroke="#283046" stroke-miterlimit="10" stroke-linecap="round" stroke-linejoin="round"/>
<path d="M134.568 417.62L103.649 407.066V415.314L134.568 425.867V417.62Z" fill="#F0F0F0" stroke="#283046" stroke-miterlimit="10" stroke-linecap="round" stroke-linejoin="round"/>
<path d="M488.951 486.046C485.615 521.646 558.486 521.269 561.189 491.783C563.649 464.961 491.097 463.146 488.951 486.046Z" fill="#F0F0F0" stroke="#283046" stroke-miterlimit="10"/>
<path d="M534.964 439.719C517.147 434.182 490.558 452.531 488.417 479.662C485.34 518.644 559.163 518.238 562.456 486.565C565.748 454.892 546.065 443.169 534.964 439.719Z" fill="#283046"/>
<path d="M534.301 440.832C517.744 435.687 492.242 452.685 491.044 477.951C489.326 514.176 556.789 513.801 559.849 484.366C562.908 454.933 544.617 444.039 534.301 440.832Z" fill="#F0F0F0" stroke="#283046" stroke-miterlimit="10"/>
<path d="M539.594 375.527C540.867 362.162 522.984 359.256 520.211 372.8C519.933 374.159 520.07 390.508 519.272 409.851C518.498 428.592 518.928 448.683 518.928 448.683C518.928 448.683 520.321 454.555 527.839 454.416C536.265 454.261 536.718 443.942 536.718 443.942C535.388 406.499 537.433 398.223 539.594 375.527Z" fill="#283046"/>
<path d="M518.496 444.91C517.465 449.838 522.519 455.731 528.568 455.279C536.854 454.661 539.083 447.889 538.38 444.078C538.072 442.409 534.867 441.704 528.497 442.137C522.675 442.532 518.911 442.926 518.496 444.91Z" fill="#F0F0F0" stroke="#283046" stroke-miterlimit="10"/>
<path d="M518.273 436.449C516.871 441.284 521.464 447.547 527.53 447.563C535.839 447.584 537.674 442.15 538.163 437.149C538.329 435.458 534.839 434.512 528.456 434.453C522.621 434.4 518.837 434.504 518.273 436.449Z" fill="#F0F0F0" stroke="#283046" stroke-miterlimit="10"/>
<path d="M518.273 428.758C516.871 433.593 521.464 439.856 527.53 439.872C535.839 439.893 537.674 434.46 538.163 429.459C538.329 427.768 534.839 426.822 528.456 426.763C522.621 426.709 518.837 426.814 518.273 428.758Z" fill="#F0F0F0" stroke="#283046" stroke-miterlimit="10"/>
<path d="M517.523 421.597C516.121 426.432 520.714 432.695 526.78 432.71C535.089 432.731 536.924 427.298 537.413 422.296C537.579 420.605 534.089 416.737 527.706 416.679C521.871 416.625 518.087 419.652 517.523 421.597Z" fill="#F0F0F0" stroke="#283046" stroke-miterlimit="10"/>
<path d="M516.661 413.442C515.259 418.277 519.852 424.54 525.918 424.555C534.227 424.576 536.061 419.143 536.55 414.141C536.716 412.451 533.227 409.242 526.843 409.184C521.008 409.131 517.225 411.496 516.661 413.442Z" fill="#F0F0F0" stroke="#283046" stroke-miterlimit="10"/>
<path d="M516.661 406.216C515.259 411.051 519.852 417.314 525.918 417.33C534.227 417.351 536.061 411.917 536.55 406.915C536.716 405.225 533.227 403.147 526.843 403.089C521.008 403.036 517.225 404.272 516.661 406.216Z" fill="#F0F0F0" stroke="#283046" stroke-miterlimit="10"/>
<path d="M517.56 398.965C516.031 403.761 520.459 410.144 526.522 410.32C534.827 410.562 536.804 405.18 537.424 400.192C537.634 398.507 534.172 397.468 527.791 397.24C521.959 397.032 518.175 397.035 517.56 398.965Z" fill="#F0F0F0" stroke="#283046" stroke-miterlimit="10"/>
<path d="M518.265 391.758C516.897 396.604 521.535 402.833 527.601 402.803C535.909 402.764 537.705 397.317 538.158 392.312C538.312 390.621 534.816 389.7 528.433 389.688C522.597 389.677 518.814 389.809 518.265 391.758Z" fill="#F0F0F0" stroke="#283046" stroke-miterlimit="10"/>
<path d="M518.719 384.499C517.003 389.231 521.176 395.785 527.228 396.203C535.517 396.775 537.703 391.476 538.519 386.518C538.795 384.842 535.376 383.666 529.01 383.183C523.19 382.742 519.409 382.595 518.719 384.499Z" fill="#F0F0F0" stroke="#283046" stroke-miterlimit="10"/>
<path d="M519.468 377.197C517.821 381.953 522.088 388.446 528.145 388.774C536.441 389.226 538.552 383.895 539.296 378.925C539.547 377.246 536.112 376.119 529.739 375.73C523.914 375.375 520.131 375.284 519.468 377.197Z" fill="#F0F0F0" stroke="#283046" stroke-miterlimit="10"/>
<path d="M520.945 368.063C518.761 374.575 522.901 379.448 528.928 380.137C537.184 381.081 539.408 377.045 539.603 371.661C539.723 368.344 537.727 364.724 531.389 363.957C525.594 363.255 521.59 366.144 520.945 368.063Z" fill="#F0F0F0" stroke="#283046" stroke-miterlimit="10"/>
<path d="M516.424 442.134C521.319 440.778 516.09 443.276 511.256 448.693C500.003 461.302 500.589 451.789 491.013 472.231" stroke="#283046" stroke-miterlimit="10"/>
<path d="M400.716 238.211C395.367 229.595 379.338 229.63 379.338 229.63C379.338 229.63 365.597 232.535 364.393 236.787C363.826 238.788 364.49 242.194 366.179 243.035C368.966 244.422 375.591 241.733 378.63 241.528C384.432 241.321 388.078 251.205 398.335 247.569C405.976 244.859 402.449 241.002 400.716 238.211Z" fill="#283046"/>
<path d="M377.671 231.326C377.368 234.107 376.614 237.577 378.105 239.449C378.778 240.294 367.277 244.639 365.751 240.183C363.84 234.603 377.671 231.326 377.671 231.326Z" fill="#F0F0F0" stroke="#283046" stroke-miterlimit="10"/>
<path d="M379.68 230.775C380.526 230.412 385.314 229.728 390.164 231.104C395.014 232.479 401.942 239.309 403.923 242.661C404.778 244.105 398.341 249.751 389.939 246.572C387.965 245.825 380.755 240.533 379.429 239.991C378.104 239.448 377.853 238.95 377.604 235.676C377.424 233.32 378.385 231.332 379.68 230.775Z" fill="#F0F0F0" stroke="#283046" stroke-miterlimit="10"/>
<path d="M425.173 279.144C436.27 264.345 427.616 251.878 412.526 241.378C397.435 230.877 386.573 228.945 373.569 249.136C360.936 268.751 377.17 283.627 388.071 287.897C395.699 290.885 416.619 290.55 425.173 279.144Z" fill="#283046"/>
<path d="M383.282 285.255C385.508 286.742 360.436 271.447 374.617 250.61C389.988 228.026 398.407 235.098 404.341 237.781C408.947 239.865 441.336 257.779 425.358 278.233C408.979 299.2 387.529 288.093 383.282 285.255Z" fill="#F0F0F0" stroke="#283046" stroke-miterlimit="10"/>
<path d="M412.884 254.365C416.875 247.459 406.437 241.323 403.538 247.149C399.921 254.419 410.473 258.539 412.884 254.365Z" fill="#F0F0F0" stroke="#283046" stroke-miterlimit="10"/>
<path d="M416.031 277.773C410.68 271.757 415.221 263.014 422.125 264.676C429.028 266.338 440.578 271.916 456.192 271.61C471.806 271.303 483.062 261.849 483.062 261.849C483.062 261.849 487.826 257.512 494.4 266.428C499.787 273.735 493.078 277.029 486.748 280.805C480.419 284.581 461.446 289.196 446.07 286.586C430.693 283.976 418.961 281.066 416.031 277.773Z" fill="#283046"/>
<path d="M421.354 280.362C418.919 280.4 413.301 276.195 414.484 270.482C415.667 264.769 420.439 262.852 423.215 263.631C425.161 264.177 429.256 267.161 428.575 272.549C427.869 278.133 423.713 280.325 421.354 280.362Z" fill="#F0F0F0" stroke="#283046" stroke-miterlimit="10"/>
<path d="M425.331 282.155C422.895 282.193 417.277 277.988 418.461 272.275C419.644 266.563 424.415 264.645 427.192 265.424C429.137 265.97 433.232 268.954 432.551 274.343C431.845 279.926 427.688 282.119 425.331 282.155Z" fill="#F0F0F0" stroke="#283046" stroke-miterlimit="10"/>
<path d="M430.652 283.762C428.217 283.8 422.599 279.595 423.782 273.882C424.965 268.169 429.737 266.252 432.513 267.031C434.458 267.577 438.554 270.561 437.873 275.949C437.167 281.533 433.01 283.725 430.652 283.762Z" fill="#F0F0F0" stroke="#283046" stroke-miterlimit="10"/>
<path d="M436.502 285.707C434.067 285.745 428.449 281.54 429.632 275.827C430.815 270.115 435.587 268.197 438.363 268.976C440.309 269.522 444.404 272.506 443.723 277.895C443.016 283.478 438.859 285.671 436.502 285.707Z" fill="#F0F0F0" stroke="#283046" stroke-miterlimit="10"/>
<path d="M442.608 286.888C440.206 287.27 434.075 283.89 434.459 278.055C434.844 272.221 439.297 269.645 442.148 270.026C444.146 270.294 448.603 272.676 448.671 278.118C448.74 283.757 444.933 286.519 442.608 286.888Z" fill="#F0F0F0" stroke="#283046" stroke-miterlimit="10"/>
<path d="M448.95 287.612C446.595 288.214 440.191 285.415 440.045 279.563C439.899 273.71 444.094 270.728 446.965 270.843C448.977 270.924 453.625 272.885 454.185 278.304C454.766 283.921 451.23 287.028 448.95 287.612Z" fill="#F0F0F0" stroke="#283046" stroke-miterlimit="10"/>
<path d="M455.368 288.42C453.014 289.023 446.61 286.224 446.464 280.371C446.318 274.518 450.513 271.535 453.383 271.651C455.395 271.732 460.044 273.693 460.604 279.112C461.183 284.73 457.647 287.837 455.368 288.42Z" fill="#F0F0F0" stroke="#283046" stroke-miterlimit="10"/>
<path d="M463.659 287.445C461.407 288.356 454.708 286.424 453.807 280.631C452.906 274.837 456.673 271.32 459.528 271.053C461.53 270.866 466.384 272.198 467.637 277.506C468.938 283.008 465.84 286.563 463.659 287.445Z" fill="#F0F0F0" stroke="#283046" stroke-miterlimit="10"/>
<path d="M469.904 286.55C467.652 287.462 460.953 285.53 460.052 279.736C459.152 273.943 462.918 270.425 465.774 270.159C467.775 269.972 472.63 271.303 473.883 276.612C475.183 282.113 472.085 285.668 469.904 286.55Z" fill="#F0F0F0" stroke="#283046" stroke-miterlimit="10"/>
<path d="M476.203 284.927C473.951 285.839 467.252 283.907 466.351 278.113C465.45 272.32 469.217 268.802 472.073 268.536C474.074 268.349 478.928 269.68 480.182 274.988C481.482 280.49 478.383 284.044 476.203 284.927Z" fill="#F0F0F0" stroke="#283046" stroke-miterlimit="10"/>
<path d="M482.536 282.373C480.284 283.284 473.584 281.352 472.684 275.558C471.783 269.765 475.55 266.248 478.405 265.981C480.407 265.794 485.261 267.125 486.514 272.434C487.814 277.936 484.716 281.49 482.536 282.373Z" fill="#F0F0F0" stroke="#283046" stroke-miterlimit="10"/>
<path d="M488.902 279.166C486.671 280.295 479.689 278.872 478.338 272.982C476.988 267.092 480.572 263.151 483.467 262.636C485.495 262.275 490.551 263.235 492.225 268.595C493.961 274.151 491.063 278.073 488.902 279.166Z" fill="#F0F0F0" stroke="#283046" stroke-miterlimit="10"/>
<path d="M547.368 297.071C537.167 303.767 517.581 311.186 508.244 304.501C498.906 297.816 492.771 278.75 499.44 271.124C506.109 263.499 517.581 260.956 526.652 257.652C535.125 254.565 546.216 255.872 551.909 271.379C555.876 282.18 554.855 292.157 547.368 297.071Z" fill="#283046"/>
<path d="M541.792 299.606C536.975 302.274 530.477 305.548 524.163 306.225C517.849 306.903 504.17 308.669 499.707 291.377C495.705 275.87 499.603 268.97 512.481 263.584C525.853 257.991 526.406 257.926 530.142 257.247C533.425 256.651 544.724 254.116 551.129 273.601C556.757 290.72 546.391 297.06 541.792 299.606Z" fill="#F0F0F0" stroke="#283046" stroke-miterlimit="10"/>
<path d="M506.926 344.544C514.787 337.037 530.152 324.554 543.497 345.12C555.849 364.154 539.952 375.734 532.9 380.437C526.313 384.83 514.663 386.498 506.866 372.854C501.434 363.35 501.14 350.069 506.926 344.544Z" fill="#283046"/>
<path d="M513.341 339.794C520.143 335.091 531.311 325.797 543.334 346.191C557.788 370.706 531.977 380.534 528.426 382.184C526.603 383.031 513.369 388 505.51 370.17C496.913 350.667 507.762 343.651 513.341 339.794Z" fill="#F0F0F0" stroke="#283046" stroke-miterlimit="10"/>
<path d="M450.263 414.661C466.292 417.661 481.424 410.138 498.267 399.394C515.11 388.65 524.093 394.305 532.235 375.362C540.376 356.42 538.477 332.056 534.827 319.051C531.177 306.045 517.356 289.981 474.125 296.483C430.893 302.985 418.632 311.444 418.836 328.713C419.065 347.943 414.892 408.042 450.263 414.661Z" fill="#283046"/>
<path d="M435.124 311.184C456.355 312.803 453.409 318.008 457.567 350.471C460.177 370.839 469.231 416.615 444.444 411.833C425.392 408.157 420.968 378.755 419.85 351.049C418.73 323.341 418.73 309.935 435.124 311.184Z" fill="#F0F0F0" stroke="#283046" stroke-miterlimit="10"/>
<path d="M480.473 406.235C495.979 398.884 498.463 393.978 512.028 390.629C525.594 387.281 530.387 377.907 534.393 364.619C538.398 351.331 538.499 331.97 534.827 320.661C531.155 309.352 531.722 305.371 496.34 311.105C460.957 316.84 446.21 306.944 451.216 321.363C456.223 335.782 463.695 371.037 462.261 388.934C460.354 412.74 464.967 413.585 480.473 406.235Z" fill="#F0F0F0" stroke="#283046" stroke-miterlimit="10"/>
<path d="M540.79 287.6C537.759 256.023 552.761 256.305 550.268 245.498C549.464 242.015 513.909 234.346 507.172 234.411C497.589 234.503 433.841 251.053 396.365 267.808C376.84 276.537 371.497 288.926 375.831 292.242C380.84 296.075 397.297 304.614 398.114 304.681C397.769 317.331 399.587 328.417 399.587 328.417C399.587 328.417 433 351.897 436.509 353.875C439.117 355.345 454.653 355.628 458.538 355.584C459.183 355.577 459.813 355.384 460.352 355.026C460.352 355.026 534.87 320.957 537.731 318.076C541.098 314.685 542.843 308.99 540.79 287.6Z" fill="#283046"/>
<path d="M387.897 301.443C397.384 293.703 413.017 284.578 422.78 290.983C432.544 297.389 440.717 317.821 435.229 326.956C429.741 336.091 419.035 340.111 410.724 344.722C402.963 349.029 392.16 348.753 384.837 332.21C379.736 320.686 380.913 307.141 387.897 301.443Z" fill="#283046"/>
<path d="M393.725 300.234C402.167 298.782 411.631 307.651 413.317 320.833C415.005 334.014 412.108 343.149 404.322 345.427C395.383 348.043 386.975 336.812 384.167 326.029C381.36 315.245 384.568 301.809 393.725 300.234Z" fill="#F0F0F0" stroke="#283046" stroke-miterlimit="10"/>
<path d="M395.297 307.659C400.98 306.681 405.428 311.707 407.462 321.636C409.255 330.391 407.672 336.546 402.431 338.079C396.414 339.839 390.754 332.279 388.864 325.02C386.974 317.762 389.134 308.719 395.297 307.659Z" fill="#283046"/>
<path d="M392.091 299.607C392.091 299.607 401.317 292.173 407.296 290.758C413.275 289.342 426.192 285.946 432.547 304.594C438.246 321.316 435.331 329.356 423.616 336.67C411.452 344.263 405.462 345.838 406.645 345.319C409.623 344.011 417.815 340.546 413.999 318.174C410.161 295.679 392.091 299.607 392.091 299.607Z" fill="#F0F0F0" stroke="#283046" stroke-miterlimit="10"/>
<path d="M376.952 289.981C372.906 286.315 380.208 274.72 399.734 265.99C432.127 251.507 499.819 237.46 508.374 235.416C516.249 233.533 546.795 242.643 547.928 246.032C550.638 254.138 538.068 256.559 539.028 281.217C539.63 296.687 539.897 312.285 536.529 315.677C533.88 318.345 467.104 346.872 463.652 348.927C459.803 351.218 448.266 351.219 445.543 350.533C442.174 349.685 442.934 334.089 442.092 316.842C441.249 299.596 416.385 308.476 407.028 306.108C399.524 304.207 381.954 294.512 376.952 289.981Z" fill="#F0F0F0" stroke="#283046" stroke-miterlimit="10"/>
<path d="M411.546 259.798C411.546 259.798 441.12 288.724 484.322 274.109C522.468 261.204 514.476 238.788 514.476 238.788C514.476 238.788 507.227 185.808 456.197 190.071C405.167 194.334 411.546 259.798 411.546 259.798Z" fill="#283046"/>
<path d="M414.548 257.652C414.548 257.652 441.936 284.359 483.579 270.272C520.349 257.833 512.645 238.575 512.645 238.575C512.645 238.575 505.658 187.508 456.47 191.616C407.281 195.726 414.548 257.652 414.548 257.652Z" fill="#F0F0F0" stroke="#283046" stroke-miterlimit="10"/>
<path d="M422.134 213.301C426.328 206.916 440.316 203.76 446.63 224.173C453.211 245.452 464.026 269.846 491.861 257.057C519.696 244.269 501.721 211.788 496.197 205.013" stroke="#283046" stroke-miterlimit="10"/>
<path d="M389.429 532.683C386.092 568.283 458.964 567.906 461.667 538.42C464.126 511.598 391.574 509.784 389.429 532.683Z" fill="#F0F0F0" stroke="#283046" stroke-miterlimit="10"/>
<path d="M435.441 485.306C417.625 479.77 391.036 499.169 388.894 526.299C385.818 565.282 459.641 564.875 462.933 533.203C466.225 501.529 446.542 488.755 435.441 485.306Z" fill="#283046"/>
<path d="M434.778 486.42C418.22 481.274 392.719 499.323 391.521 524.589C389.803 560.814 457.266 560.438 460.326 531.004C463.386 501.57 445.094 489.626 434.778 486.42Z" fill="#F0F0F0" stroke="#283046" stroke-miterlimit="10"/>
<path d="M440.071 419.014C441.344 405.649 423.462 402.743 420.688 416.286C420.41 417.646 420.548 433.995 419.749 453.338C418.976 472.078 419.405 495.32 419.405 495.32C419.405 495.32 420.799 501.191 428.317 501.053C436.742 500.897 437.196 490.578 437.196 490.578C435.866 453.135 437.91 441.711 440.071 419.014Z" fill="#283046"/>
<path d="M418.973 491.546C417.942 496.475 422.996 502.367 429.045 501.915C437.331 501.297 439.56 494.526 438.857 490.715C438.55 489.045 435.344 488.341 428.974 488.773C423.153 489.168 419.388 489.564 418.973 491.546Z" fill="#F0F0F0" stroke="#283046" stroke-miterlimit="10"/>
<path d="M418.75 482.036C417.348 486.871 421.941 494.184 428.007 494.2C436.316 494.221 438.151 487.737 438.64 482.735C438.806 481.045 435.316 477.999 428.933 477.94C423.098 477.887 419.314 480.092 418.75 482.036Z" fill="#F0F0F0" stroke="#283046" stroke-miterlimit="10"/>
<path d="M418.75 472.246C417.348 477.081 421.941 484.394 428.007 484.41C436.316 484.431 438.151 477.947 438.64 472.945C438.806 471.255 435.316 470.309 428.933 470.25C423.098 470.197 419.314 470.301 418.75 472.246Z" fill="#F0F0F0" stroke="#283046" stroke-miterlimit="10"/>
<path d="M418.001 465.085C416.599 469.92 421.192 476.183 427.257 476.198C435.566 476.219 437.401 470.786 437.89 465.785C438.056 464.095 434.567 460.227 428.183 460.168C422.347 460.113 418.565 463.139 418.001 465.085Z" fill="#F0F0F0" stroke="#283046" stroke-miterlimit="10"/>
<path d="M417.138 456.929C415.736 461.764 420.33 468.027 426.395 468.042C434.704 468.063 436.539 462.63 437.028 457.628C437.194 455.937 433.704 452.729 427.321 452.671C421.486 452.618 417.702 454.984 417.138 456.929Z" fill="#F0F0F0" stroke="#283046" stroke-miterlimit="10"/>
<path d="M417.138 449.703C415.736 454.538 420.33 460.801 426.395 460.817C434.704 460.838 436.539 455.404 437.028 450.402C437.194 448.712 433.704 446.634 427.321 446.576C421.486 446.523 417.702 447.758 417.138 449.703Z" fill="#F0F0F0" stroke="#283046" stroke-miterlimit="10"/>
<path d="M418.036 442.452C416.508 447.248 420.935 453.63 426.999 453.807C435.303 454.048 437.28 448.666 437.9 443.679C438.11 441.994 434.648 440.954 428.267 440.727C422.435 440.519 418.651 440.523 418.036 442.452Z" fill="#F0F0F0" stroke="#283046" stroke-miterlimit="10"/>
<path d="M418.742 435.245C417.374 440.091 422.012 446.32 428.078 446.291C436.386 446.251 438.182 440.805 438.636 435.8C438.789 434.108 435.293 433.187 428.91 433.175C423.074 433.164 419.291 433.297 418.742 435.245Z" fill="#F0F0F0" stroke="#283046" stroke-miterlimit="10"/>
<path d="M419.196 427.987C417.48 432.719 421.653 439.273 427.705 439.69C435.994 440.263 438.18 434.964 438.996 430.006C439.272 428.33 435.853 427.154 429.487 426.671C423.667 426.23 419.886 426.083 419.196 427.987Z" fill="#F0F0F0" stroke="#283046" stroke-miterlimit="10"/>
<path d="M419.944 420.683C418.297 425.44 422.564 431.933 428.622 432.261C436.918 432.713 439.028 427.382 439.772 422.412C440.024 420.733 436.589 419.606 430.216 419.217C424.391 418.862 420.607 418.77 419.944 420.683Z" fill="#F0F0F0" stroke="#283046" stroke-miterlimit="10"/>
<path d="M421.423 411.55C419.239 418.062 423.379 422.934 429.406 423.624C437.662 424.568 439.885 420.532 440.08 415.148C440.2 411.832 438.205 408.211 431.866 407.443C426.072 406.742 422.067 409.63 421.423 411.55Z" fill="#F0F0F0" stroke="#283046" stroke-miterlimit="10"/>
<path d="M416.902 488.771C421.797 487.416 416.567 489.914 411.732 495.33C400.479 507.94 401.066 498.427 391.489 518.869" stroke="#283046" stroke-miterlimit="10"/>
<path d="M414.74 384.619C423.169 377.766 439.472 366.555 451.149 388.124C461.957 408.089 445.879 418.819 438.478 422.943C431.565 426.793 419.135 427.059 412.442 412.834C407.778 402.924 408.536 389.662 414.74 384.619Z" fill="#283046"/>
<path d="M418.479 382.963C418.479 382.963 439.275 366.843 449.647 388.136C462.117 413.732 431.018 424.331 432.072 423.862C434.729 422.683 445.092 417.066 438.668 398.664C431.643 378.533 418.479 382.963 418.479 382.963Z" fill="#F0F0F0" stroke="#283046" stroke-miterlimit="10"/>
<path d="M419.438 382.823C426.738 380.195 435.521 388.852 438.778 399.875C441.979 410.705 437.157 423.104 429.996 423.989C421.743 425.009 414.394 416.787 411.789 407.484C409.186 398.183 411.58 385.653 419.438 382.823Z" fill="#F0F0F0" stroke="#283046" stroke-miterlimit="10"/>
<path d="M422.42 397.996C424.517 397.241 427.041 399.728 427.978 402.897C428.897 406.01 427.512 409.573 425.454 409.827C423.082 410.12 420.97 407.757 420.221 405.083C419.474 402.41 420.162 398.808 422.42 397.996Z" fill="#F0F0F0" stroke="#283046" stroke-miterlimit="10"/>
<path d="M434.923 370.88C431.874 374.848 430.924 378.387 431.953 380.52C432.719 382.108 430.43 383.726 429.469 381.735C428.425 379.57 428.146 375.03 433.19 369.29C437.294 364.619 441.303 363.1 441.372 365.58C441.427 367.572 437.638 367.346 434.923 370.88Z" fill="#F0F0F0" stroke="#283046" stroke-miterlimit="10"/>
<path d="M403.252 336.392C406.089 329.191 398.994 322.829 393.271 326.626C387.547 330.422 378.917 339.287 364.597 344.217C352.625 348.338 342.729 348.269 336.411 345.426C334.023 344.352 331.019 342.056 328.051 352.275C325.618 360.649 332.844 361.383 339.884 362.675C346.926 363.967 365.764 361.805 378.882 354.334C392.001 346.862 401.698 340.335 403.252 336.392Z" fill="#283046"/>
<path d="M398.237 339.784C400.467 339.007 405.255 332.956 402.244 328.205C399.233 323.454 394.791 323.741 391.733 326.07C390.179 327.255 394.54 326.04 396.984 330.666C399.517 335.46 396.076 340.535 398.237 339.784Z" fill="#F0F0F0" stroke="#283046" stroke-miterlimit="10"/>
<path d="M393.42 342.571C395.537 341.833 400.085 336.087 397.225 331.575C394.366 327.064 390.148 327.337 387.243 329.548C385.767 330.672 389.909 329.519 392.23 333.911C394.637 338.465 391.369 343.285 393.42 342.571Z" fill="#F0F0F0" stroke="#283046" stroke-miterlimit="10"/>
<path d="M388.175 346.179C390.293 345.441 394.84 339.695 391.981 335.183C389.121 330.67 384.903 330.944 381.998 333.156C380.522 334.28 384.664 333.126 386.985 337.519C389.392 342.073 386.125 346.893 388.175 346.179Z" fill="#F0F0F0" stroke="#283046" stroke-miterlimit="10"/>
<path d="M382.778 349.448C384.895 348.71 389.84 344.361 387.297 338.495C385.17 333.59 379.26 334.786 376.357 336.997C374.881 338.121 379.982 336.438 382.302 340.832C384.708 345.386 380.727 350.163 382.778 349.448Z" fill="#F0F0F0" stroke="#283046" stroke-miterlimit="10"/>
<path d="M377.619 352.816C379.79 352.258 384.629 347.893 382.584 342.953C380.7 338.402 375.618 337.36 372.54 339.32C370.976 340.316 375.199 339.514 377.149 344.087C379.17 348.826 375.516 353.356 377.619 352.816Z" fill="#F0F0F0" stroke="#283046" stroke-miterlimit="10"/>
<path d="M372.353 354.885C374.534 354.364 379.192 352.037 378.245 347.151C377.248 341.999 371.653 339.814 368.545 341.723C366.964 342.693 371.2 341.962 373.073 346.567C375.014 351.34 370.242 355.39 372.353 354.885Z" fill="#F0F0F0" stroke="#283046" stroke-miterlimit="10"/>
<path d="M366.349 357.43C368.589 357.355 374.618 353.216 373.207 348.054C371.796 342.894 367.686 341.902 364.263 343.151C362.523 343.786 366.818 343.915 367.749 348.803C368.715 353.868 364.181 357.503 366.349 357.43Z" fill="#F0F0F0" stroke="#283046" stroke-miterlimit="10"/>
<path d="M359.961 359.493C362.343 359.622 368.815 355.839 367.401 350.289C365.987 344.739 361.636 343.315 357.979 344.308C356.119 344.813 360.681 345.348 361.59 350.565C362.532 355.974 357.656 359.367 359.961 359.493Z" fill="#F0F0F0" stroke="#283046" stroke-miterlimit="10"/>
<path d="M352.812 360.731C355.164 361.124 362.01 358.079 361.21 352.407C360.411 346.734 356.241 344.837 352.498 345.42C350.594 345.716 355.071 346.753 355.405 352.04C355.752 357.518 350.534 360.351 352.812 360.731Z" fill="#F0F0F0" stroke="#283046" stroke-miterlimit="10"/>
<path d="M346.538 361.536C348.927 362.142 356.209 359.595 355.83 353.683C355.45 347.771 351.308 345.456 347.411 345.736C345.429 345.878 349.954 347.331 349.884 352.805C349.813 358.479 344.223 360.95 346.538 361.536Z" fill="#F0F0F0" stroke="#283046" stroke-miterlimit="10"/>
<path d="M341.018 361.485C343.378 362.199 350.767 359.986 350.653 354.062C350.539 348.138 346.505 345.638 342.599 345.74C340.613 345.791 345.068 347.448 344.753 352.915C344.427 358.58 338.733 360.793 341.018 361.485Z" fill="#F0F0F0" stroke="#283046" stroke-miterlimit="10"/>
<path d="M336.346 360.379C338.706 361.093 346.095 358.879 345.981 352.955C345.868 347.032 341.833 344.532 337.928 344.634C335.942 344.685 340.396 346.342 340.082 351.809C339.755 357.474 334.061 359.688 336.346 360.379Z" fill="#F0F0F0" stroke="#283046" stroke-miterlimit="10"/>
<path d="M330.664 359.173C333.024 359.887 340.413 357.674 340.299 351.75C340.185 345.826 336.151 343.326 332.245 343.428C330.259 343.479 334.714 345.136 334.399 350.603C334.073 356.268 328.378 358.481 330.664 359.173Z" fill="#F0F0F0" stroke="#283046" stroke-miterlimit="10"/>
<path d="M283.408 373.678C278.788 382.15 263.691 371.838 263.691 371.838C263.691 371.838 253.875 363.434 253.939 359.641C253.97 357.856 254.944 356.511 256.566 356.69C259.689 357.033 264.775 360.78 267.085 362.168C267.085 362.168 280.579 358.938 280.194 362.661C279.633 368.088 285.067 370.632 283.408 373.678Z" fill="#283046"/>
<path d="M264.023 368.876C265.659 367.425 266.879 363.558 266.44 362.817C266.001 362.076 258.059 354.582 255.454 357.412C252.847 360.242 264.023 368.876 264.023 368.876Z" fill="#F0F0F0" stroke="#283046" stroke-miterlimit="10"/>
<path d="M265.205 369.465C265.237 370.361 270.032 373.417 274.45 374.461C278.868 375.506 282.936 374.602 283.232 372.802C283.528 371.003 279.899 369.287 279.382 364.041C279.257 362.77 278.624 362.024 276.781 361.826C275.653 361.705 269.761 362.158 268.761 362.419C267.542 362.738 267.342 363.423 266.402 365.873C265.461 368.322 265.171 368.519 265.205 369.465Z" fill="#F0F0F0" stroke="#283046" stroke-miterlimit="10"/>
<path d="M276.79 365.552C276.415 366.927 268.592 364.869 261.033 363.049C257.023 362.083 250.79 361.252 247.946 360.049C244.963 358.787 243.728 354.181 246.4 353.022C252.265 350.476 272.087 348.897 273.365 350.661C275.129 353.097 273.908 354.682 274.559 357.826C275.209 360.971 277.289 363.716 276.79 365.552Z" fill="#283046"/>
<path d="M245.78 356.013C245.143 352.889 251.506 352.723 254.936 352.136C258.366 351.549 261.149 350.088 260.743 354.645C260.338 359.201 261.676 362.177 261.033 363.048C260.389 363.919 252.185 362.335 248.87 361.097C245.554 359.859 246.09 357.536 245.78 356.013Z" fill="#F0F0F0" stroke="#283046" stroke-miterlimit="10"/>
<path d="M262.215 362.909C261.399 362.184 261.048 360.714 261.485 357.473C261.922 354.232 261.555 352.949 261.404 352.049C261.253 351.149 262.926 350.742 266.808 350.699C270.691 350.656 274.958 348.911 274.458 352.628C273.957 356.344 275.784 362.176 276.739 363.994C277.694 365.813 276.276 366.778 271.628 365.636C266.979 364.496 263.984 364.479 262.215 362.909Z" fill="#F0F0F0" stroke="#283046" stroke-miterlimit="10"/>
<path d="M286.13 330.428C279.949 325.4 264.963 331.275 264.963 331.275C264.963 331.275 252.509 338.639 251.965 342.523C251.708 344.351 252.795 346.868 254.489 346.932C257.286 347.039 263.112 342.444 265.927 341.17C271.326 338.886 276.087 345.561 285.182 338.876C291.957 333.894 288.131 332.056 286.13 330.428Z" fill="#283046"/>
<path d="M263.637 333.256C263.733 335.618 263.503 338.704 265.152 339.677C265.897 340.115 255.735 347.829 253.699 344.777C251.15 340.955 263.637 333.256 263.637 333.256Z" fill="#F0F0F0" stroke="#283046" stroke-miterlimit="10"/>
<path d="M265.441 332.077C266.182 331.474 270.567 329.175 275.291 328.519C280.014 327.864 287.427 330.87 289.739 332.861C290.736 333.719 285.487 340.64 277.195 341.129C275.248 341.244 267.781 339.588 266.468 339.632C265.154 339.676 264.852 339.364 264.171 336.803C263.679 334.961 264.305 333.001 265.441 332.077Z" fill="#F0F0F0" stroke="#283046" stroke-miterlimit="10"/>
<path d="M339.293 358.105C343.44 339.171 327.537 329.544 305.737 324.176C286.788 319.51 274.189 324.922 271.067 348.268C268.092 370.512 276.673 379.473 292.762 381.202C308.85 382.931 335.08 377.346 339.293 358.105Z" fill="#283046"/>
<path d="M287.126 379.326C285.57 378.671 267.624 376.252 271.907 350.098C276.188 323.945 290.193 323 295.024 323.398C301.085 323.897 345.433 330.721 339.014 357.115C331.623 387.499 287.126 379.326 287.126 379.326Z" fill="#F0F0F0" stroke="#283046" stroke-miterlimit="10"/>
<path d="M324.699 337.882C325.047 331.303 313.094 328.96 313.21 334.392C313.356 341.173 324.49 341.859 324.699 337.882Z" fill="#F0F0F0" stroke="#283046" stroke-miterlimit="10"/>
<path d="M540.315 286.966L523.946 279.014C517.197 276.288 493.058 286.016 478.372 294.421C466.25 301.359 470.075 320.576 470.952 346.449C471.726 369.282 475.026 375.174 477.97 378.175C480.729 380.987 490.548 386.535 490.548 386.535L499.319 370.171C512.103 364.173 527.168 355.874 529.953 349.243C532.257 343.756 532.429 326.691 531.171 310.745L540.315 286.966Z" fill="#F0F0F0" stroke="#283046" stroke-miterlimit="10"/>
<path d="M493.148 302.912C508.348 294.212 533.331 284.145 540.315 286.965C547.299 289.786 551.27 348.368 546.533 359.65C541.794 370.932 501.748 384.938 495.265 387.293C488.781 389.648 486.469 382.381 485.468 352.864C484.56 326.086 480.601 310.094 493.148 302.912Z" fill="#F0F0F0" stroke="#283046" stroke-miterlimit="10"/>
<path d="M497.911 340.322L497.131 319.064L495.333 319.876L495.984 341.111L497.911 340.322Z" fill="#283046"/>
<path d="M505.357 337.563L504.562 315.874L502.763 316.686L503.427 338.354L505.357 337.563Z" fill="#283046"/>
<path d="M513.275 334.321L512.497 313.156L510.7 313.968L511.348 335.11L513.275 334.321Z" fill="#283046"/>
<path d="M522.562 330.517L521.762 308.745L519.965 309.557L520.632 331.308L522.562 330.517Z" fill="#283046"/>
<path d="M530.493 327.269L529.678 305.066L527.881 305.878L528.562 328.06L530.493 327.269Z" fill="#283046"/>
<path d="M538.411 324.026L537.615 302.348L535.817 303.16L536.483 324.816L538.411 324.026Z" fill="#283046"/>
<path d="M491.366 296.687C486.133 298.018 488.068 289.603 482.955 289.713C475.689 289.87 475.437 282.231 478.5 280.846C481.563 279.462 487.931 281.165 491.327 283.762C494.722 286.36 499.425 294.637 491.366 296.687Z" fill="#283046"/>
<path d="M492.357 295.799C490.106 296.373 489.429 295.476 488.81 294.165C488.61 293.741 489.47 292.395 489.232 291.919C488.986 291.429 488.575 291.41 487.238 291.338C485.78 291.262 488.126 288.663 486.008 288.486C485.657 288.456 483.651 289.302 483.143 289.211C482.644 289.121 482.518 287.535 482.1 287.415C481.682 287.294 480.971 288.636 480.629 288.489C476.343 286.642 476.45 281.678 479.091 280.483C482.153 279.098 487.029 280.943 490.424 283.54C493.818 286.136 498.466 294.239 492.357 295.799Z" fill="#F0F0F0" stroke="#283046" stroke-miterlimit="10"/>
<path d="M519.26 285.364C514.027 286.696 517.931 280.07 510.677 278.757C503.424 277.443 504.753 271.511 507.816 270.126C510.879 268.741 515.824 269.843 519.219 272.439C522.615 275.036 527.319 283.315 519.26 285.364Z" fill="#283046"/>
<path d="M520.25 284.476C517.999 285.05 517.321 284.155 516.703 282.842C516.503 282.418 517.363 281.072 517.124 280.596C516.878 280.106 515.529 280.484 515.131 280.016C514.92 279.769 514.682 279.531 514.404 279.306C514.128 279.081 514.259 277.353 513.901 277.163C513.589 276.998 512.797 278.367 512.41 278.237C511.999 278.097 511.542 277.98 511.036 277.888C510.536 277.798 510.41 276.213 509.992 276.092C509.574 275.971 508.863 277.313 508.521 277.166C504.235 275.319 505.741 271.589 508.38 270.395C511.442 269.01 514.92 269.621 518.316 272.218C521.711 274.814 526.359 282.918 520.25 284.476Z" fill="#F0F0F0" stroke="#283046" stroke-miterlimit="10"/>
<path d="M497.695 370.686V375.834L508.678 370.686V365.878L497.695 370.686Z" fill="#283046"/>
<path d="M508.132 370.199L503.79 368.506L508.132 366.606V370.199Z" fill="#F0F0F0" stroke="#283046" stroke-miterlimit="10" stroke-linejoin="round"/>
</svg>
