<svg width="680" height="600" viewBox="0 0 680 600" fill="none" xmlns="http://www.w3.org/2000/svg">
    <path d="M288.964 99.3397C349.063 197.854 388.063 111.254 468.962 98.4386C542.261 86.8251 619.76 143.491 608.96 231.293C598.06 319.095 516.861 289.661 516.861 349.53C516.861 379.365 607.06 432.927 531.461 497.102C455.262 561.777 324.864 533.044 281.664 429.523C238.465 326.003 186.666 353.835 136.267 357.74C31.868 365.949 33.668 208.366 81.3673 129.074C127.767 52.0848 237.165 14.5411 288.964 99.3397Z" fill="#1F2533"/>
    <path d="M138.168 110.052C145.868 110.152 158.068 114.257 160.368 130.276C162.568 145.694 150.268 153.202 142.468 154.704C135.068 156.206 118.468 154.604 115.968 136.683C113.468 118.662 128.168 109.852 138.168 110.052Z" fill="#F0F0F0"/>
    <path d="M239.465 190.445C239.765 190.445 240.365 190.646 240.465 191.347C240.565 192.047 240.065 192.348 239.665 192.448C239.365 192.548 238.565 192.448 238.465 191.647C238.365 190.846 239.065 190.445 239.465 190.445Z" fill="#F0F0F0"/>
    <path d="M405.163 508.415C405.463 508.415 406.063 508.615 406.163 509.316C406.263 510.017 405.763 510.317 405.363 510.417C405.063 510.517 404.263 510.417 404.163 509.616C404.063 508.816 404.763 508.415 405.163 508.415Z" fill="#F0F0F0"/>
    <path d="M519.161 390.178C519.461 390.178 520.061 390.378 520.161 391.079C520.261 391.78 519.761 392.08 519.361 392.18C519.061 392.28 518.261 392.18 518.161 391.379C518.061 390.578 518.761 390.178 519.161 390.178Z" fill="#F0F0F0"/>
    <path d="M207.565 72.7088C207.865 72.7088 208.465 72.909 208.565 73.6098C208.665 74.3107 208.165 74.611 207.765 74.7111C207.465 74.8112 206.665 74.7111 206.565 73.9102C206.465 73.1093 207.065 72.7088 207.565 72.7088Z" fill="#F0F0F0"/>
    <path d="M70.9677 208.867C71.2677 208.867 71.8677 209.067 71.9677 209.768C72.0677 210.469 71.5677 210.769 71.1677 210.869C70.8677 210.969 70.0677 210.869 69.9677 210.068C69.8677 209.267 70.5677 208.867 70.9677 208.867Z" fill="#F0F0F0"/>
    <path d="M468.262 128.073C468.562 128.073 469.162 128.273 469.262 128.974C469.362 129.675 468.862 129.975 468.462 130.075C468.162 130.176 467.362 130.075 467.262 129.274C467.162 128.474 467.862 128.073 468.262 128.073Z" fill="#F0F0F0"/>
    <path d="M560.96 182.536C561.26 182.536 561.86 182.737 561.96 183.437C562.06 184.138 561.46 184.439 561.16 184.539C560.86 184.639 560.06 184.539 559.96 183.738C559.86 182.937 560.56 182.536 560.96 182.536Z" fill="#F0F0F0"/>
    <path d="M303.464 385.472C303.764 385.472 304.364 385.672 304.464 386.373C304.564 387.074 304.064 387.374 303.664 387.474C303.364 387.575 302.564 387.474 302.464 386.674C302.364 385.873 302.964 385.472 303.464 385.472Z" fill="#F0F0F0"/>
    <path d="M422.862 301.675C423.162 301.675 423.762 301.875 423.862 302.576C423.962 303.277 423.462 303.577 423.062 303.677C422.762 303.777 421.962 303.677 421.862 302.876C421.762 302.075 422.362 301.675 422.862 301.675Z" fill="#F0F0F0"/>
    <path d="M390.463 174.727C390.763 174.727 391.363 174.927 391.463 175.628C391.563 176.329 391.063 176.629 390.663 176.73C390.363 176.83 389.563 176.73 389.463 175.929C389.363 175.128 390.063 174.727 390.463 174.727Z" fill="#F0F0F0"/>
    <path d="M340.564 249.014C340.864 249.014 341.464 249.214 341.564 249.915C341.664 250.616 341.163 250.916 340.763 251.016C340.463 251.116 339.664 251.016 339.564 250.215C339.464 249.414 340.064 249.014 340.564 249.014Z" fill="#F0F0F0"/>
    <path d="M71.9677 308.483C72.2677 308.483 72.8677 308.683 72.9677 309.384C73.0677 310.085 72.5677 310.385 72.1677 310.485C71.8677 310.585 71.0677 310.485 70.9677 309.684C70.8677 308.883 71.5677 308.483 71.9677 308.483Z" fill="#F0F0F0"/>
    <path d="M168.667 257.423C139.267 256.823 95.7678 282.753 103.268 335.814C104.368 343.423 106.268 350.031 108.868 355.738C117.067 357.84 126.167 358.641 136.167 357.84C166.367 355.437 197.166 344.525 226.266 358.441C232.966 347.628 236.566 333.912 234.166 316.792C227.366 269.738 191.366 257.824 168.667 257.423Z" fill="#F0F0F0"/>
    <path d="M529.861 209.868C502.561 209.368 462.162 233.395 469.062 282.753C473.962 317.894 498.661 329.908 519.661 332.511C530.261 304.879 568.06 305.179 591.26 276.746C591.36 273.042 591.16 269.137 590.56 265.032C584.36 221.382 550.96 210.269 529.861 209.868Z" fill="#F0F0F0"/>
    <path d="M469.762 255.722C469.862 254.921 470.062 253.919 470.262 253.219C470.862 251.417 471.662 249.114 472.362 247.412L472.662 246.811C472.362 247.612 472.062 248.613 471.862 249.414C470.962 251.416 470.262 253.619 469.762 255.722Z" fill="#1F2533"/>
    <path d="M478.262 237.6C477.762 238.101 477.062 238.802 476.662 239.302L478.862 236.299L480.562 234.296C481.162 233.696 481.962 232.995 482.562 232.494C481.062 234.196 479.662 235.798 478.262 237.6Z" fill="#1F2533"/>
    <path d="M476.162 264.331C475.162 263.731 474.262 263.13 473.462 262.529C474.362 258.124 475.962 253.619 478.062 249.314C481.062 243.107 478.962 243.507 478.562 243.607C477.962 243.808 476.962 244.608 475.462 247.412C473.362 251.717 471.862 256.222 470.962 260.727C470.462 260.327 469.962 259.926 469.662 259.626C470.662 254.42 472.362 249.214 475.062 244.308C478.062 238.802 481.962 233.996 486.462 230.092C486.762 230.392 487.262 230.692 487.762 231.193C484.662 233.996 481.862 237.1 479.362 240.704C484.862 235.898 484.862 241.004 484.762 241.305C484.662 243.808 482.862 247.111 481.862 249.114C481.862 249.114 481.862 249.214 481.762 249.214C479.262 254.22 477.362 259.326 476.162 264.331Z" fill="#1F2533"/>
    <path d="M494.862 253.719C493.562 252.918 492.362 252.217 491.062 251.416C490.562 252.317 490.062 253.118 489.562 254.019C488.262 256.422 487.062 258.825 486.062 261.228C484.762 264.932 488.062 264.932 489.162 264.832C488.462 266.534 487.762 268.336 487.262 270.038C487.162 270.038 477.862 270.639 481.662 259.826C482.762 257.023 483.962 254.22 485.462 251.516C485.962 250.615 486.462 249.714 486.962 248.913C486.462 248.613 485.962 248.213 485.462 247.912C486.562 246.11 487.662 244.408 488.962 242.706C489.462 243.007 489.962 243.307 490.462 243.707C491.762 242.005 493.062 240.303 494.462 238.702C495.562 239.402 496.662 240.103 497.862 240.804C498.062 240.904 498.162 241.004 498.362 241.104C497.062 242.706 495.762 244.408 494.462 246.11C495.662 246.811 496.862 247.612 498.162 248.313C497.062 250.215 495.962 251.917 494.862 253.719Z" fill="#1F2533"/>
    <path d="M508.562 261.628C507.062 260.827 505.662 260.026 504.262 259.226C503.762 260.127 503.262 260.928 502.762 261.829C501.462 264.231 500.262 266.634 499.162 268.937C497.662 272.641 501.862 272.741 502.662 272.641C501.862 274.343 501.062 275.945 500.362 277.547C500.262 277.547 489.462 277.547 493.762 267.035C494.962 264.331 496.262 261.628 497.762 258.825C498.262 257.924 498.762 257.023 499.262 256.222C498.562 255.822 497.862 255.421 497.262 255.021C498.362 253.219 499.462 251.416 500.562 249.714C501.262 250.115 501.862 250.515 502.562 250.916C503.762 249.114 504.962 247.412 506.162 245.71C507.762 246.611 509.362 247.512 510.962 248.513C509.762 250.215 508.662 252.017 507.462 253.819C508.862 254.62 510.262 255.421 511.662 256.222C510.562 258.024 509.562 259.826 508.562 261.628Z" fill="#1F2533"/>
    <path d="M523.362 278.248C522.862 279.049 519.862 283.153 515.762 281.251C510.562 278.047 514.762 269.537 519.462 268.436C523.662 267.435 527.262 272.341 523.362 278.248ZM528.262 281.752C533.262 274.343 532.262 266.634 525.962 263.731C523.462 262.93 521.862 263.13 519.062 264.632C519.662 263.53 520.262 262.529 520.862 261.428C519.062 260.427 517.362 259.526 515.562 258.525C514.062 261.128 512.562 263.831 511.062 266.534C507.162 273.742 502.562 282.653 499.862 288.76C501.462 289.661 503.062 290.562 504.662 291.463C506.062 288.76 508.762 283.854 510.362 280.851C511.962 289.861 522.362 290.462 528.262 281.752Z" fill="#1F2533"/>
    <path d="M548.562 289.361C543.962 289.961 539.662 290.462 528.562 290.362C529.762 288.66 530.962 286.858 532.062 284.955C538.462 284.955 540.262 284.955 546.062 284.555C543.362 280.35 542.562 279.149 538.462 273.242C539.462 271.24 540.362 269.137 541.162 267.135C546.562 275.044 548.762 278.348 551.662 283.554C551.162 284.655 550.562 285.756 549.962 286.858C549.562 287.659 549.062 288.56 548.562 289.361Z" fill="#1F2533"/>
    <path d="M483.862 392.178C485.162 396.983 491.562 402.289 497.162 400.888C504.862 398.985 506.662 393.179 504.662 388.774C502.262 383.167 495.962 380.664 490.062 382.066C484.662 383.367 482.462 387.072 483.862 392.178Z" fill="#EEEFF1" stroke="#1F2533" stroke-miterlimit="10"/>
    <path d="M493.362 403.391C496.062 407.295 503.462 407.696 507.162 403.19C512.162 396.983 509.262 392.378 505.862 388.974C504.762 387.873 498.262 389.875 494.362 394.68C490.862 398.985 492.262 401.789 493.362 403.391Z" fill="#EEEFF1" stroke="#1F2533" stroke-miterlimit="10"/>
    <path d="M501.061 410.499C504.461 413.903 511.761 413.002 514.661 407.896C518.561 400.988 514.961 396.883 510.961 394.18C509.661 393.279 504.461 395.181 501.361 400.487C498.561 405.393 499.661 409.097 501.061 410.499Z" fill="#EEEFF1" stroke="#1F2533" stroke-miterlimit="10"/>
    <path d="M510.562 414.504C514.362 417.407 522.462 416.406 524.562 411C527.562 403.591 521.662 400.287 517.362 398.085C515.962 397.384 511.562 400.788 509.762 405.593C507.762 410.799 509.062 413.302 510.562 414.504Z" fill="#EEEFF1" stroke="#1F2533" stroke-miterlimit="10"/>
    <path d="M522.362 417.908C526.962 419.309 534.262 415.605 534.362 409.798C534.462 401.789 529.362 398.685 524.562 399.386C521.962 399.787 519.162 402.59 518.362 408.697C517.662 414.303 520.462 417.307 522.362 417.908Z" fill="#EEEFF1" stroke="#1F2533" stroke-miterlimit="10"/>
    <path d="M533.562 417.007C538.362 417.607 543.462 412.201 542.562 406.494C541.262 398.585 535.762 396.983 531.062 398.085C529.162 398.485 526.162 402.59 527.162 408.597C527.962 414.103 531.662 416.806 533.562 417.007Z" fill="#EEEFF1" stroke="#1F2533" stroke-miterlimit="10"/>
    <path d="M542.461 413.002C547.461 411.8 552.961 405.593 550.661 399.987C547.661 392.178 541.861 392.077 537.161 394.981C535.661 395.882 532.061 399.486 533.961 405.393C535.861 411.5 541.261 413.302 542.461 413.002Z" fill="#EEEFF1" stroke="#1F2533" stroke-miterlimit="10"/>
    <path d="M551.662 407.295C556.262 405.994 559.862 398.585 556.762 393.579C552.562 386.772 546.362 388.574 542.062 390.676C540.562 391.377 539.162 396.383 542.362 401.689C545.262 406.394 549.762 407.796 551.662 407.295Z" fill="#EEEFF1" stroke="#1F2533" stroke-miterlimit="10"/>
    <path d="M559.661 399.386C564.062 397.384 566.461 389.575 562.761 385.069C557.661 378.962 551.761 381.665 547.861 384.368C546.561 385.27 545.061 391.176 549.061 395.882C552.561 400.287 557.861 400.187 559.661 399.386Z" fill="#EEEFF1" stroke="#1F2533" stroke-miterlimit="10"/>
    <path d="M565.561 393.479C569.761 391.177 572.862 383.267 568.162 378.362C562.862 372.755 554.062 377.26 551.662 380.164C551.662 380.164 550.461 384.168 554.261 388.974C558.361 394.08 563.861 394.38 565.561 393.479Z" fill="#EEEFF1" stroke="#1F2533" stroke-miterlimit="10"/>
    <path d="M560.261 383.868C573.061 396.282 609.361 391.176 624.761 369.651C649.16 335.512 581.661 294.464 559.662 326.802C542.762 351.731 551.562 375.458 560.261 383.868Z" fill="#1F2533"/>
    <path d="M561.362 383.267C574.161 395.882 612.961 386.771 625.761 365.747C644.06 335.612 582.361 296.767 561.062 326.702C544.562 349.728 553.362 375.358 561.362 383.267Z" fill="#EEEFF1"/>
    <path d="M623.46 366.248C645.459 340.518 587.26 298.969 563.161 325.5C541.161 349.728 598.96 394.981 623.46 366.248Z" fill="#1F2533"/>
    <path d="M555.962 334.31C554.562 338.115 554.162 342.119 554.662 345.924C555.162 349.828 556.562 353.533 558.362 356.937C560.262 360.341 562.462 363.544 565.162 366.348C567.762 369.251 570.762 371.754 573.962 374.056C577.162 376.259 580.562 378.161 584.162 379.663C587.762 381.165 591.562 382.066 595.362 382.466C599.162 382.867 603.162 382.566 606.862 381.465C610.662 380.464 614.162 378.562 617.462 376.259C614.662 379.162 611.162 381.365 607.362 382.867C603.562 384.368 599.362 384.969 595.262 384.769C591.162 384.669 587.062 383.668 583.162 382.266C579.262 380.864 575.662 378.862 572.262 376.459C565.562 371.654 559.862 365.446 556.362 357.938C554.562 354.233 553.462 350.129 553.262 346.024C553.062 342.019 553.862 337.814 555.962 334.31Z" fill="#1F2533"/>
    <path d="M561.261 327.202C543.661 349.828 596.561 394.08 624.261 366.748" stroke="#EEEFF1" stroke-miterlimit="10"/>
    <path d="M558.761 329.405C541.061 351.931 595.661 397.083 623.761 369.952" stroke="#1F2533" stroke-miterlimit="10"/>
    <path d="M567.36 339.717L584.46 361.542C585.66 363.044 588.06 363.745 589.96 363.044C591.76 362.343 592.36 360.541 591.16 359.039L573.96 337.114C572.76 335.612 570.36 334.911 568.46 335.612C566.66 336.413 566.16 338.215 567.36 339.717Z" fill="#EEEFF1"/>
    <path d="M594.76 329.204L611.861 351.03C613.061 352.532 615.461 353.232 617.361 352.532C619.161 351.831 619.76 350.029 618.56 348.527L601.46 326.702C600.26 325.2 597.86 324.499 595.96 325.2C594.06 325.901 593.56 327.703 594.76 329.204Z" fill="#EEEFF1"/>
    <path d="M578.56 330.606L603.16 362.043C604.36 363.544 606.76 364.245 608.66 363.544C610.46 362.844 611.06 361.041 609.86 359.54L585.26 328.103C584.06 326.601 581.66 325.901 579.76 326.601C577.86 327.302 577.36 329.104 578.56 330.606Z" fill="#EEEFF1"/>
    <path d="M368.714 231.713C371.352 225.064 359.707 220.783 356.705 219.963C353.52 219.052 345.878 218.05 343.422 220.145C342.239 221.147 341.966 222.422 342.967 223.424C344.877 225.246 348.608 226.612 352.247 227.341C352.247 227.341 357.523 237.816 359.707 235.538C363.073 232.259 367.622 234.354 368.714 231.713Z" fill="#1F2533"/>
    <path d="M354.885 221.603C355.34 221.967 353.065 226.248 352.338 226.339C351.61 226.43 342.603 224.608 343.149 221.876C343.604 219.052 351.974 219.599 354.885 221.603Z" fill="#EEEFF1"/>
    <path d="M356.068 222.149C356.704 221.694 361.253 223.151 364.347 225.428C367.44 227.705 369.078 230.802 368.077 231.986C367.076 233.17 363.983 231.713 360.253 234.172C359.343 234.81 358.524 234.719 357.432 233.626C356.704 232.988 353.793 228.889 353.429 228.161C352.974 227.159 353.793 227.068 354.885 225.155C355.886 223.333 355.431 222.604 356.068 222.149Z" fill="#EEEFF1"/>
    <path d="M354.339 256.397C342.603 258.127 335.507 246.742 335.507 246.742C335.507 246.742 330.412 235.812 332.504 232.624C333.505 231.075 335.234 229.8 336.689 230.438C339.237 231.44 341.238 237.36 342.876 239.455C346.06 243.372 354.612 240.184 358.16 248.928C360.799 255.668 357.16 256.032 354.339 256.397Z" fill="#1F2533"/>
    <path d="M335.507 244.283C336.962 241.55 339.055 240.093 341.056 240.002C341.966 239.91 338.327 230.256 334.597 231.804C329.866 233.808 335.507 244.283 335.507 244.283Z" fill="#EEEFF1"/>
    <path d="M336.507 246.377C336.78 247.106 339.055 250.658 342.785 253.118C346.515 255.577 353.611 255.668 356.887 255.122C358.342 254.848 359.616 247.926 352.702 244.191C351.064 243.281 344.241 241.914 343.149 241.277C342.057 240.639 340.783 240.548 338.509 242.279C336.871 243.463 336.052 245.193 336.507 246.377Z" fill="#EEEFF1"/>
    <path d="M397.099 257.216C393.824 272.974 380.723 274.431 365.165 270.424C349.608 266.507 342.148 260.404 347.88 240.366C353.429 220.874 372.444 223.06 381.542 227.796C387.819 231.075 399.646 245.102 397.099 257.216Z" fill="#1F2533"/>
    <path d="M376.993 226.157C379.267 226.794 354.885 219.052 349.427 240.275C343.513 263.319 352.975 264.776 358.16 267.145C362.163 268.966 392.459 280.079 396.644 257.854C400.829 235.083 381.269 227.341 376.993 226.157Z" fill="#EEEFF1" stroke="#1F2533" stroke-miterlimit="10"/>
    <path d="M372.262 255.03C370.078 261.588 360.071 258.218 362.163 253.026C364.893 246.468 373.627 251.114 372.262 255.03Z" fill="#EEEFF1" stroke="#1F2533" stroke-miterlimit="10"/>
    <path d="M394.945 254.304C393.825 252.944 388.898 251.886 386.434 255.211C383.895 258.535 385.165 262.087 386.882 263.22C388.076 264.051 391.585 264.883 394.199 261.936C396.886 258.913 396.065 255.588 394.945 254.304Z" fill="#EEEFF1" stroke="#1F2533" stroke-miterlimit="10"/>
    <path d="M398.877 255.422C397.652 253.939 392.263 252.785 389.568 256.412C386.792 260.039 388.18 263.913 390.058 265.149C391.365 266.056 395.203 266.963 398.061 263.748C400.919 260.451 400.102 256.824 398.877 255.422Z" fill="#EEEFF1" stroke="#1F2533" stroke-miterlimit="10"/>
    <path d="M403.753 258.422C402.43 256.939 396.606 255.785 393.694 259.412C390.694 263.039 392.194 266.913 394.224 268.149C395.636 269.056 399.783 269.963 402.871 266.748C406.048 263.451 405.077 259.824 403.753 258.422Z" fill="#EEEFF1" stroke="#1F2533" stroke-miterlimit="10"/>
    <path d="M408.686 260.66C407.253 258.928 400.947 257.582 397.794 261.814C394.641 266.045 396.17 270.565 398.367 272.008C399.896 273.065 404.387 274.123 407.731 270.373C411.075 266.526 410.119 262.294 408.686 260.66Z" fill="#EEEFF1" stroke="#1F2533" stroke-miterlimit="10"/>
    <path d="M413.211 263.465C412.095 261.509 406.233 259.259 402.512 263.073C398.884 266.888 399.721 271.68 401.675 273.44C403.07 274.712 407.257 276.375 410.885 273.049C414.793 269.724 414.327 265.323 413.211 263.465Z" fill="#EEEFF1" stroke="#1F2533" stroke-miterlimit="10"/>
    <path d="M418.163 267.633C417.063 265.53 411.063 262.727 406.763 266.231C402.463 269.735 402.963 274.741 404.863 276.743C406.163 278.145 410.563 280.247 414.763 277.244C419.163 274.14 419.163 269.635 418.163 267.633Z" fill="#EEEFF1" stroke="#1F2533" stroke-miterlimit="10"/>
    <path d="M422.763 271.738C421.663 269.635 415.663 266.832 411.363 270.336C407.063 273.84 407.563 278.846 409.463 280.848C410.763 282.25 415.163 284.352 419.363 281.349C423.763 278.245 423.763 273.74 422.763 271.738Z" fill="#EEEFF1" stroke="#1F2533" stroke-miterlimit="10"/>
    <path d="M427.262 278.345C426.462 276.143 420.862 272.539 416.162 275.542C411.462 278.546 411.262 283.451 412.862 285.654C413.962 287.256 417.962 289.859 422.562 287.456C427.462 284.953 428.062 280.448 427.262 278.345Z" fill="#EEEFF1" stroke="#1F2533" stroke-miterlimit="10"/>
    <path d="M430.563 283.451C429.763 281.249 424.163 277.645 419.463 280.648C414.763 283.651 414.563 288.557 416.163 290.76C417.263 292.362 421.263 294.965 425.863 292.562C430.763 290.059 431.363 285.554 430.563 283.451Z" fill="#EEEFF1" stroke="#1F2533" stroke-miterlimit="10"/>
    <path d="M433.362 288.958C432.562 286.755 426.962 283.151 422.262 286.154C417.562 289.158 417.362 294.064 418.962 296.266C420.062 297.868 424.062 300.471 428.662 298.068C433.562 295.565 434.162 291.16 433.362 288.958Z" fill="#EEEFF1" stroke="#1F2533" stroke-miterlimit="10"/>
    <path d="M435.563 295.165C434.763 292.962 429.163 289.358 424.463 292.362C419.763 295.365 419.563 300.271 421.163 302.473C422.263 304.075 426.263 306.678 430.863 304.275C435.663 301.772 436.263 297.267 435.563 295.165Z" fill="#EEEFF1" stroke="#1F2533" stroke-miterlimit="10"/>
    <path d="M437.262 301.772C436.662 299.47 431.263 295.265 426.163 297.968C421.063 300.671 420.563 305.777 421.963 308.18C422.963 309.882 426.862 312.885 431.762 310.783C436.862 308.58 437.862 304.075 437.262 301.772Z" fill="#EEEFF1" stroke="#1F2533" stroke-miterlimit="10"/>
    <path d="M447.063 316.59C444.863 327.302 437.063 344.322 426.963 346.024C416.863 347.726 400.963 339.616 400.463 330.606C399.863 321.596 405.563 312.685 409.163 304.876C412.563 297.568 420.463 291.36 433.763 297.468C443.163 301.873 448.763 308.781 447.063 316.59Z" fill="#1F2533"/>
    <path d="M445.163 321.696C443.763 326.401 441.763 332.608 438.163 337.013C434.563 341.419 427.063 351.23 413.363 343.121C401.063 335.912 399.263 329.104 403.963 317.591C408.863 305.577 409.263 305.176 411.163 302.473C412.863 299.97 418.463 291.26 434.663 299.47C449.063 306.678 446.463 317.19 445.163 321.696Z" fill="#EEEFF1" stroke="#1F2533" stroke-miterlimit="10"/>
    <path d="M458.562 390.776C458.862 380.364 460.862 361.542 483.762 366.348C504.962 370.753 501.962 389.374 500.362 397.384C498.862 404.792 492.062 413.903 477.562 409.998C467.462 407.195 458.262 398.385 458.562 390.776Z" fill="#1F2533"/>
    <path d="M459.662 383.168C461.062 375.359 462.462 361.543 484.362 367.15C510.662 373.857 499.762 397.986 498.462 401.59C497.762 403.392 492.162 415.706 474.862 409.098C455.862 401.69 458.462 389.576 459.662 383.168Z" fill="#EEEFF1" stroke="#1F2533" stroke-miterlimit="10"/>
    <path d="M470.462 465.363C483.362 456.452 488.562 441.134 492.762 422.513C496.961 403.791 506.861 401.588 499.661 383.267C492.462 364.946 474.762 349.828 463.462 343.521C452.162 337.214 432.062 335.812 407.063 369.551C382.163 403.29 379.463 417.006 392.663 430.222C404.563 442.136 442.062 484.885 470.462 465.363Z" fill="#1F2533"/>
    <path d="M391.163 405.293C403.263 393.179 413.463 395.281 427.862 406.995C442.962 419.209 485.462 452.147 465.962 465.262C451.062 475.274 427.762 462.059 408.463 444.138C389.263 426.317 380.363 416.105 391.163 405.293Z" fill="#EEEFF1"/>
    <path d="M487.262 437.23C492.262 422.312 490.562 417.407 497.062 406.394C503.562 395.381 500.262 385.97 493.962 374.457C487.662 362.943 474.662 349.828 464.662 344.522C454.662 339.216 452.362 336.212 433.463 362.843C414.563 389.474 401.963 388.773 414.863 395.281C427.763 401.789 452.762 424.315 463.962 437.23C478.762 454.55 482.262 452.147 487.262 437.23Z" fill="#EEEFF1"/>
    <path d="M446.262 318.192C422.962 298.969 430.462 288.958 421.462 283.351C418.562 281.549 392.163 300.471 387.563 305.177C381.163 311.784 349.063 366.147 334.864 402.89C327.464 422.012 332.264 434.026 337.364 433.325C343.363 432.524 360.263 427.118 360.863 426.618C369.163 435.428 377.863 441.635 377.863 441.635C377.863 441.635 418.462 429.821 422.162 428.82C424.962 428.019 435.662 417.707 438.262 415.004C438.662 414.604 438.962 414.003 439.162 413.402C439.162 413.402 464.662 344.823 464.662 340.918C464.762 336.313 462.062 331.307 446.262 318.192Z" fill="#1F2533"/>
    <path d="M351.964 431.423C353.164 419.81 357.664 402.99 368.564 400.688C379.464 398.385 398.764 406.594 401.264 416.506C403.664 426.417 399.164 436.329 396.564 445.139C394.164 453.349 386.664 460.457 370.564 454.25C359.364 449.945 351.064 439.933 351.964 431.423Z" fill="#1F2533"/>
    <path d="M355.064 426.618C359.764 419.91 372.164 419.509 382.264 427.218C392.264 434.927 396.464 443.037 392.764 449.945C388.464 457.754 375.164 455.952 366.064 450.545C356.764 445.139 349.864 433.926 355.064 426.618Z" fill="#EEEFF1" stroke="#1F2533" stroke-miterlimit="10"/>
    <path d="M361.163 430.522C364.363 426.017 370.763 426.417 378.863 431.724C385.963 436.429 389.063 441.635 386.563 446.24C383.663 451.547 374.763 450.245 368.563 446.641C362.263 443.037 357.663 435.428 361.163 430.522Z" fill="#1F2533"/>
    <path d="M353.563 427.319C353.563 427.319 354.863 416.005 357.963 411C361.063 405.994 367.563 394.881 384.363 403.191C399.463 410.599 402.963 418.008 399.863 430.923C396.763 444.338 393.763 449.444 394.163 448.243C395.263 445.34 398.563 437.43 380.863 424.916C363.163 412.401 353.563 427.319 353.563 427.319Z" fill="#EEEFF1" stroke="#1F2533" stroke-miterlimit="10"/>
    <path d="M336.764 431.123C331.564 431.423 328.664 418.608 336.064 399.486C348.263 367.749 384.763 312.285 389.163 305.076C393.263 298.469 417.262 282.45 420.262 283.952C427.562 287.556 422.762 298.469 440.062 314.387C450.862 324.399 461.562 334.711 461.562 339.316C461.562 342.92 441.362 401.789 439.162 406.094C438.162 407.996 432.462 412.201 428.662 413.703C425.562 415.004 417.462 406.795 405.263 395.782C393.063 384.769 375.863 416.806 367.863 421.512C361.663 425.316 343.263 430.722 336.764 431.123Z" fill="#EEEFF1" stroke="#1F2533" stroke-miterlimit="10"/>
    <path d="M339.863 387.272C339.863 387.272 379.363 386.671 398.863 347.526C416.062 312.885 395.563 303.274 395.563 303.274C395.563 303.274 354.963 272.438 323.264 309.982C291.564 347.526 339.863 387.272 339.863 387.272Z" fill="#1F2533"/>
    <path d="M340.764 382.867C340.764 382.867 376.663 382.266 395.063 345.223C411.362 312.485 393.463 304.876 393.463 304.876C393.463 304.876 355.063 275.742 324.964 311.284C294.864 346.825 340.764 382.867 340.764 382.867Z" fill="#EEEFF1"/>
    <path d="M315.764 348.727C314.264 341.619 321.664 329.905 339.663 339.416C358.463 349.328 382.263 358.438 392.463 330.906C402.763 303.374 368.663 293.663 360.363 292.862" stroke="#1F2533" stroke-miterlimit="10"/>
    <path d="M426.162 469.267C427.262 458.955 437.862 437.23 458.162 447.642C477.462 457.554 470.262 471.169 468.062 478.978C465.962 486.287 457.762 494.897 443.562 489.891C433.762 486.287 425.362 476.876 426.162 469.267Z" fill="#1F2533"/>
    <path d="M427.562 465.563C427.562 465.563 435.263 441.435 453.562 447.842C480.763 457.353 463.862 484.885 464.262 483.884C465.262 481.281 469.662 472.271 455.262 461.658C438.862 449.544 427.562 465.563 427.562 465.563Z" fill="#EEEFF1"/>
    <path d="M428.862 465.563C434.462 459.155 444.962 456.452 454.162 463.26C462.862 469.668 467.262 479.98 463.062 485.486C458.162 491.793 447.662 491.193 439.562 486.687C431.462 482.182 423.562 471.57 428.862 465.563Z" fill="#EEEFF1"/>
    <path d="M440.362 473.071C441.262 471.169 444.662 471.069 447.462 472.571C450.162 474.073 451.662 477.376 450.462 478.978C449.062 480.78 446.062 480.58 443.762 479.379C441.362 477.977 439.362 475.174 440.362 473.071Z" fill="#EEEFF1" stroke="#1F2533" stroke-miterlimit="10"/>
    <path d="M430.562 446.24C431.162 450.946 432.862 454.049 435.062 454.75C436.662 455.251 436.162 457.954 434.162 457.253C431.962 456.552 428.762 453.649 428.262 446.341C427.862 440.434 429.562 436.629 431.362 438.331C432.762 439.633 430.062 442.036 430.562 446.24Z" fill="#EEEFF1" stroke="#1F2533" stroke-miterlimit="10"/>
    <path d="M440.362 483.484C457.662 495.598 465.962 475.675 447.662 466.464C433.062 459.256 427.562 474.473 440.362 483.484Z" fill="#EEEFF1" stroke="#1F2533" stroke-miterlimit="10"/>
    <path d="M439.662 489.491C441.562 493.896 445.462 498.902 451.062 497.3C458.762 495.197 460.262 489.29 458.162 484.985C455.562 479.479 449.262 477.176 443.362 478.778C437.962 480.18 438.262 486.487 439.662 489.491Z" fill="#EEEFF1" stroke="#1F2533" stroke-miterlimit="10"/>
    <path d="M441.662 498.101C441.662 502.906 447.562 507.411 453.162 505.709C460.762 503.507 461.062 498 460.162 493.295C459.862 491.693 453.362 489.791 447.462 491.493C442.162 493.095 441.662 496.198 441.662 498.101Z" fill="#EEEFF1" stroke="#1F2533" stroke-miterlimit="10"/>
    <path d="M446.262 508.212C447.062 512.918 453.662 516.322 458.962 513.719C466.162 510.215 465.362 504.808 463.662 500.303C463.062 498.801 457.662 497.5 452.162 500.103C447.162 502.606 445.962 506.31 446.262 508.212Z" fill="#EEEFF1" stroke="#1F2533" stroke-miterlimit="10"/>
    <path d="M451.662 516.822C453.162 521.428 460.062 523.93 464.962 520.627C471.562 516.222 470.162 510.915 467.862 506.71C467.062 505.309 460.862 505.409 455.662 508.813C450.962 511.917 451.062 515.02 451.662 516.822Z" fill="#EEEFF1" stroke="#1F2533" stroke-miterlimit="10"/>
    <path d="M460.462 524.832C463.462 528.636 470.862 528.436 474.262 523.73C478.862 517.223 476.362 511.716 472.062 509.614C469.762 508.513 465.262 510.115 461.662 515.12C458.362 519.626 459.262 523.23 460.462 524.832Z" fill="#EEEFF1" stroke="#1F2533" stroke-miterlimit="10"/>
    <path d="M470.862 528.936C474.462 532.04 481.762 530.538 484.162 525.232C487.462 517.924 483.862 513.218 479.362 511.816C476.362 510.915 472.762 512.818 470.262 518.324C467.862 523.43 469.362 527.735 470.862 528.936Z" fill="#EEEFF1" stroke="#1F2533" stroke-miterlimit="10"/>
    <path d="M480.862 530.338C485.162 532.741 492.162 529.838 493.562 524.131C495.362 516.422 490.962 513.218 485.662 512.918C483.962 512.818 479.762 513.819 478.362 519.726C477.062 525.132 479.162 529.337 480.862 530.338Z" fill="#EEEFF1" stroke="#1F2533" stroke-miterlimit="10"/>
    <path d="M490.162 530.438C494.662 531.94 501.862 527.935 502.162 522.028C502.562 514.019 496.462 512.017 491.662 511.316C490.062 511.116 485.962 514.419 485.662 520.527C485.462 526.233 488.362 529.837 490.162 530.438Z" fill="#EEEFF1" stroke="#1F2533" stroke-miterlimit="10"/>
    <path d="M500.163 530.138C504.763 531.339 511.663 526.834 511.562 521.027C511.462 513.018 505.162 511.416 500.462 511.016C498.862 510.915 494.062 514.52 494.062 520.727C494.063 526.333 498.263 529.637 500.163 530.138Z" fill="#EEEFF1" stroke="#1F2533" stroke-miterlimit="10"/>
    <path d="M509.261 528.937C513.961 529.838 521.361 525.533 520.861 518.825C520.261 511.116 510.561 509.113 506.961 509.814C506.961 509.814 503.461 512.217 503.361 518.324C503.261 524.932 507.361 528.636 509.261 528.937Z" fill="#EEEFF1" stroke="#1F2533" stroke-miterlimit="10"/>
    <path d="M512.261 520.026C514.461 537.747 545.96 556.569 571.36 549.46C611.759 538.247 584.86 463.761 547.56 475.274C518.761 484.084 510.761 508.012 512.261 520.026Z" fill="#1F2533"/>
    <path d="M513.561 520.226C515.661 538.147 551.56 555.367 574.66 546.957C607.759 534.943 584.06 465.963 548.76 475.875C521.461 483.584 512.261 509.113 513.561 520.226Z" fill="#EEEFF1"/>
    <path d="M572.561 545.956C605.861 539.649 586.461 470.869 551.061 476.375C518.761 481.481 535.461 552.964 572.561 545.956Z" fill="#1F2533"/>
    <path d="M539.961 478.778C536.461 480.781 533.661 483.684 531.661 487.088C529.661 490.392 528.361 494.196 527.661 498.001C526.961 501.805 526.761 505.71 527.061 509.614C527.361 513.519 527.961 517.323 529.061 521.127C530.161 524.832 531.561 528.536 533.461 531.84C535.361 535.244 537.661 538.347 540.461 541.051C543.261 543.754 546.461 545.956 550.061 547.458C553.661 549.06 557.561 549.761 561.561 550.061C557.561 550.562 553.461 550.161 549.561 548.86C545.661 547.558 541.961 545.456 538.861 542.753C535.761 540.049 533.161 536.746 530.961 533.242C528.861 529.637 527.261 525.833 526.061 521.928C523.861 514.019 523.261 505.509 525.261 497.5C526.261 493.495 527.861 489.591 530.361 486.287C532.861 482.883 536.161 480.18 539.961 478.778Z" fill="#1F2533"/>
    <path d="M548.561 476.576C520.661 483.183 534.161 550.862 572.861 546.957" stroke="#EEEFF1" stroke-miterlimit="10"/>
    <path d="M545.261 476.676C517.361 483.083 531.661 552.564 570.461 549.06" stroke="#1F2533" stroke-miterlimit="10"/>
    <path d="M551.061 483.183L544.261 518.524C543.661 521.728 544.761 524.431 546.561 525.432C548.361 526.434 550.161 525.332 550.861 522.129L557.661 486.787C558.261 483.584 557.161 480.881 555.361 479.879C553.561 478.878 551.661 479.879 551.061 483.183Z" fill="#EEEFF1"/>
    <path d="M564.861 485.085L556.761 529.037C556.161 532.34 557.461 534.142 559.261 535.144C561.061 536.145 562.761 535.744 563.361 532.541L571.461 488.59C572.061 485.286 570.761 483.484 568.961 482.482C567.161 481.481 565.461 481.882 564.861 485.085Z" fill="#EEEFF1"/>
    <path d="M576.061 499.602L569.861 532.941C569.261 536.045 570.561 537.747 572.461 538.748C574.261 539.749 575.961 539.549 576.561 536.445L582.761 503.106C583.361 500.003 582.061 498.301 580.161 497.3C578.261 496.299 576.561 496.499 576.061 499.602Z" fill="#EEEFF1"/>
    <path d="M379.863 445.141C382.663 438.032 375.763 431.625 370.063 435.429C364.363 439.234 355.864 448.044 341.664 452.95C327.464 457.855 314.264 453.15 314.264 453.15C314.264 453.15 308.564 450.847 305.564 460.959C303.064 469.269 310.264 469.97 317.164 471.271C324.064 472.573 342.664 470.37 355.664 462.961C368.663 455.553 378.263 449.045 379.863 445.141Z" fill="#1F2533"/>
    <path d="M375.053 448.294C377.253 447.493 380.953 441.886 377.953 437.181C375.053 432.476 370.053 432.275 367.853 433.977C366.253 435.079 363.553 439.183 365.953 443.689C368.453 448.394 372.953 448.995 375.053 448.294Z" fill="#EEEFF1" stroke="#1F2533" stroke-miterlimit="10"/>
    <path d="M372.053 451.294C374.253 450.493 377.953 444.886 374.953 440.181C372.053 435.476 367.053 435.275 364.853 436.977C363.253 438.079 360.553 442.183 362.953 446.689C365.453 451.494 369.953 451.995 372.053 451.294Z" fill="#EEEFF1" stroke="#1F2533" stroke-miterlimit="10"/>
    <path d="M368.282 454.754C370.314 453.981 373.73 448.573 370.96 444.033C368.282 439.494 363.666 439.301 361.634 440.943C360.157 442.005 357.664 445.965 359.88 450.311C362.188 454.947 366.251 455.43 368.282 454.754Z" fill="#EEEFF1" stroke="#1F2533" stroke-miterlimit="10"/>
    <path d="M363.963 459.055C366.163 458.255 369.863 452.648 366.863 447.943C363.963 443.237 358.963 443.037 356.763 444.739C355.163 445.84 352.463 449.945 354.863 454.45C357.463 459.156 361.863 459.756 363.963 459.055Z" fill="#EEEFF1" stroke="#1F2533" stroke-miterlimit="10"/>
    <path d="M358.863 462.059C361.163 461.558 365.563 456.553 363.263 451.447C360.963 446.341 356.163 445.54 353.663 446.841C351.963 447.742 348.763 451.347 350.463 456.252C352.363 461.358 356.663 462.56 358.863 462.059Z" fill="#EEEFF1" stroke="#1F2533" stroke-miterlimit="10"/>
    <path d="M353.464 464.862C355.764 464.662 360.664 459.957 358.864 454.751C357.064 449.444 352.364 448.143 349.764 449.244C347.964 449.945 344.464 453.249 345.664 458.355C346.964 463.461 351.164 465.063 353.464 464.862Z" fill="#EEEFF1" stroke="#1F2533" stroke-miterlimit="10"/>
    <path d="M347.964 467.666C350.264 467.465 355.164 462.76 353.364 457.554C351.564 452.248 346.864 450.946 344.264 452.047C342.464 452.748 338.964 456.052 340.164 461.158C341.464 466.264 345.664 467.966 347.964 467.666Z" fill="#EEEFF1" stroke="#1F2533" stroke-miterlimit="10"/>
    <path d="M340.164 469.568C342.464 469.668 347.864 465.663 346.764 460.257C345.664 454.751 341.164 452.848 338.464 453.549C336.564 454.05 332.664 456.853 333.264 462.059C333.964 467.365 337.864 469.468 340.164 469.568Z" fill="#EEEFF1" stroke="#1F2533" stroke-miterlimit="10"/>
    <path d="M334.164 470.869C336.464 470.969 341.864 466.965 340.764 461.558C339.664 456.052 335.164 454.15 332.464 454.851C330.564 455.351 326.664 458.154 327.264 463.36C327.964 468.567 331.964 470.769 334.164 470.869Z" fill="#EEEFF1" stroke="#1F2533" stroke-miterlimit="10"/>
    <path d="M326.126 471.998C328.811 472.109 335.113 467.649 333.83 461.627C332.546 455.493 327.293 453.374 324.142 454.155C321.924 454.713 317.372 457.835 318.072 463.634C318.889 469.545 323.558 471.886 326.126 471.998Z" fill="#EEEFF1" stroke="#1F2533" stroke-miterlimit="10"/>
    <path d="M317.634 471.998C320.486 472.116 327.183 467.407 325.819 461.05C324.455 454.576 318.874 452.34 315.526 453.164C313.169 453.752 308.333 457.048 309.077 463.169C309.945 469.408 314.906 471.88 317.634 471.998Z" fill="#EEEFF1" stroke="#1F2533" stroke-miterlimit="10"/>
    <path d="M305.723 470.977C308.986 471.373 316.873 466.625 315.921 459.108C314.969 451.591 308.85 448.426 305.043 449.085C302.459 449.481 296.612 452.909 297.02 459.899C297.292 467.284 302.595 470.713 305.723 470.977Z" fill="#EEEFF1" stroke="#1F2533" stroke-miterlimit="10"/>
    <path d="M243.762 451.88C238.623 462.057 222.366 450.393 222.366 450.393C222.366 450.393 211.836 439.968 211.946 435.311C211.999 433.106 213.015 431.536 214.845 431.824C218.264 432.273 222.44 436.908 224.97 438.684C224.97 438.684 240.852 435.137 240.377 439.662C239.609 446.264 245.563 448.244 243.762 451.88Z" fill="#EEEFF1" stroke="#1F2533" stroke-miterlimit="10"/>
    <path d="M221.471 446.816C222.975 445.38 225.157 441.141 224.688 440.271C224.218 439.402 215.62 430.126 213.225 433.012C210.83 435.898 221.471 446.816 221.471 446.816Z" fill="#1F2533"/>
    <path d="M224.024 447.612C223.998 448.715 229.174 452.516 234.041 453.857C238.785 455.195 243.217 454.197 243.634 452.122C243.931 449.922 240.063 447.746 239.602 441.36C239.517 439.764 238.803 438.889 236.851 438.598C235.63 438.446 229.254 438.786 228.143 439.127C226.788 439.463 226.646 440.318 225.597 443.236C224.303 446.148 223.931 446.384 224.024 447.612Z" fill="#1F2533"/>
    <path d="M258.027 413.108C256.287 403.872 236.98 402.066 236.98 402.066C236.98 402.066 220.824 401.684 217.68 405.165C216.174 406.724 216.97 409.317 218.409 410.577C220.689 412.593 229.297 411.08 232.587 411.771C238.797 413.266 237.679 424.274 250.05 424.199C259.238 424.049 258.567 416.186 258.027 413.108Z" fill="#EEEFF1" stroke="#1F2533" stroke-miterlimit="10"/>
    <path d="M235.576 404.483C235.649 406.569 233.356 410.316 232.371 410.538C231.386 410.759 218.876 411.567 219.088 407.771C219.545 403.981 235.576 404.483 235.576 404.483Z" fill="#1F2533"/>
    <path d="M237.036 404.886C237.788 404.168 241.827 404.263 246.181 406.573C250.657 408.886 255.451 413.291 254.312 414.858C253.173 416.424 248.793 415.217 244.297 418.912C243.175 419.743 242.068 419.962 240.38 418.819C239.416 418.183 236.842 413.096 235.029 412.072C233.942 411.433 233.951 411.066 235.113 408.518C236.398 405.974 236.284 405.603 237.036 404.886Z" fill="#1F2533"/>
    <path d="M304.538 460.797C314.574 440.314 300.89 423.438 279.913 409.456C261.587 397.252 244.883 399.309 234.407 422.846C222.244 450.39 232.961 463.272 249.188 471.012C265.292 478.749 294.247 481.641 304.538 460.797Z" fill="#1F2533"/>
    <path d="M243.776 466.838C232.689 459.219 225.793 450.474 233.699 426.876C241.069 405.226 256.496 400.197 268.879 404.781C281.99 409.627 318.519 434.032 303.191 460.765C289.9 484.236 256.43 475.474 243.776 466.838Z" fill="#EEEFF1"/>
    <path d="M259.824 404.444C254.212 403.575 240.472 409.748 235.206 425.317C229.939 440.886 230.543 451.567 234.455 457.054C238.366 462.541 250.982 467.621 262.268 440.915C272.004 417.605 266.172 405.33 259.824 404.444Z" fill="#1F2533"/>
    <path d="M293.594 431.603C295.254 423.55 281.023 414.264 280.126 421.108C278.944 429.663 292.621 436.484 293.594 431.603Z" fill="#EEEFF1" stroke="#1F2533" stroke-miterlimit="10"/>
    <path d="M259.907 457.902C258.191 457.984 250.701 453.638 243.467 448.808C239.609 446.265 233.803 443.185 231.288 440.796C228.531 438.278 228.927 431.912 232.117 431.62C235.556 431.211 236.999 432.349 241.149 432.937C244.934 433.394 249.932 434.371 252.977 435.056C257.847 436.275 261.291 435.621 262.029 435.515C266.324 435.127 268.816 438.496 268.24 447.31C267.708 454.286 261.256 457.811 259.907 457.902Z" fill="#1F2533"/>
    <path d="M230.453 434.644C230.788 430.852 237.353 432.846 241.136 433.426C244.919 434.006 248.244 433.226 246.406 438.455C244.57 443.561 245.118 446.271 244.241 447.109C243.364 447.946 235.274 443.096 232.153 440.447C229.031 437.799 230.284 436.602 230.453 434.644Z" fill="#EEEFF1"/>
    <path d="M246.178 448.136C245.469 447.016 245.39 445.175 246.698 441.651C248.006 438.126 247.922 436.53 247.948 435.427C247.974 434.324 249.926 434.616 254.298 436.191C258.669 437.765 263.136 435.296 265.736 439.281C268.931 444.016 267.448 449.743 264.418 453.595C263.282 455.039 260.875 458.415 255.932 455.11C251.109 451.931 247.833 450.628 246.178 448.136Z" fill="#EEEFF1"/>
    <path d="M448.862 303.777L432.362 309.483C425.963 312.186 416.163 335.213 411.863 350.831C408.363 363.746 423.863 374.058 441.862 390.978C457.762 405.895 463.962 407.597 467.962 407.597C471.762 407.597 484.862 402.091 484.862 402.091L477.062 387.674C481.662 374.959 486.362 359.141 483.762 352.733C481.662 347.427 470.262 335.814 458.662 325.902L448.862 303.777Z" fill="#EEEFF1" stroke="#1F2533" stroke-miterlimit="10"/>
    <path d="M430.163 344.022C433.863 328.504 442.862 305.977 449.262 303.475C455.562 300.972 497.562 337.915 502.162 348.527C506.762 359.139 490.862 393.88 488.362 399.586C485.862 405.293 479.462 401.789 458.962 382.566C440.363 365.046 427.063 356.736 430.163 344.022Z" fill="#EEEFF1" stroke="#1F2533" stroke-miterlimit="10"/>
    <path d="M457.563 366.047L442.763 352.231L442.063 354.033L456.763 367.849L457.563 366.047Z" fill="#1F2533"/>
    <path d="M460.763 359.139L445.563 345.023L444.963 346.825L459.963 360.941L460.763 359.139Z" fill="#1F2533"/>
    <path d="M463.963 351.531L449.163 337.815L448.463 339.617L463.163 353.433L463.963 351.531Z" fill="#1F2533"/>
    <path d="M467.663 342.72L452.463 328.604L451.763 330.306L466.863 344.522L467.663 342.72Z" fill="#1F2533"/>
    <path d="M470.863 335.111L455.363 320.694L454.663 322.497L470.063 337.013L470.863 335.111Z" fill="#1F2533"/>
    <path d="M474.063 327.603L458.963 313.486L458.263 315.288L473.263 329.405L474.063 327.603Z" fill="#1F2533"/>
    <path d="M422.863 341.018C420.163 345.423 415.863 338.515 412.463 342.019C407.663 347.025 402.363 342.119 403.463 339.116C404.563 336.112 410.063 332.909 414.163 332.408C418.263 331.908 426.963 334.21 422.863 341.018Z" fill="#1F2533"/>
    <path d="M422.863 339.717C421.763 341.619 420.663 341.519 419.363 341.018C418.963 340.818 418.663 339.416 418.163 339.216C417.663 339.016 417.363 339.316 416.463 340.217C415.463 341.118 415.263 337.814 413.663 339.116C413.363 339.316 412.663 341.218 412.163 341.519C411.763 341.819 410.563 340.818 410.263 341.018C409.863 341.218 410.363 342.62 409.963 342.72C405.763 344.422 402.563 340.918 403.563 338.415C404.663 335.412 409.263 333.309 413.263 332.809C417.263 332.308 425.963 334.611 422.863 339.717Z" fill="#EEEFF1" stroke="#1F2533" stroke-miterlimit="10"/>
    <path d="M430.363 320.094C427.663 324.499 425.863 317.391 420.063 321.496C414.263 325.6 411.163 320.595 412.263 317.591C413.363 314.588 417.463 311.985 421.563 311.384C425.663 310.783 434.463 313.186 430.363 320.094Z" fill="#1F2533"/>
    <path d="M430.463 318.792C429.363 320.695 428.263 320.594 426.963 320.094C426.563 319.894 426.263 318.492 425.763 318.292C425.263 318.092 424.563 319.293 424.063 319.293C423.763 319.293 423.463 319.293 423.063 319.293C422.763 319.293 421.663 318.092 421.263 318.192C420.963 318.292 421.363 319.794 420.963 319.894C420.563 320.094 420.163 320.294 419.763 320.594C419.363 320.895 418.163 319.894 417.863 320.094C417.463 320.294 417.963 321.696 417.563 321.796C413.363 323.498 411.963 319.894 412.863 317.291C413.963 314.287 416.763 312.285 420.863 311.784C424.963 311.284 433.563 313.586 430.463 318.792Z" fill="#EEEFF1" stroke="#1F2533" stroke-miterlimit="10"/>
    <path d="M476.262 389.174L479.962 392.878L483.962 381.966L480.462 378.462L476.262 389.174Z" fill="#1F2533"/>
    <path d="M483.061 381.966L479.261 383.668L480.761 379.663L483.061 381.966Z" fill="#EEEFF1"/>
    <path fill-rule="evenodd" clip-rule="evenodd" d="M202.967 297.47C205.467 305.479 204.367 314.089 199.167 320.597C193.967 327.104 185.767 330.108 177.467 329.307L175.967 343.423C189.367 345.125 202.667 340.62 211.067 330.108C219.467 319.596 220.967 305.579 216.467 292.865L202.967 297.47Z" fill="#1F2533"/>
    <path fill-rule="evenodd" clip-rule="evenodd" d="M170.066 328.105C166.566 327.104 163.166 325.402 160.066 322.899C148.966 313.989 146.366 298.471 153.566 287.058L141.866 277.647C129.766 295.367 133.466 320.096 150.966 334.212C156.166 338.317 161.966 341.121 167.966 342.522L170.066 328.105Z" fill="#1F2533"/>
    <path fill-rule="evenodd" clip-rule="evenodd" d="M158.266 283.754C167.266 275.044 182.366 274.843 193.466 283.754C196.466 286.157 198.966 289.06 200.766 292.264L213.866 287.859C211.066 282.452 207.066 277.447 201.866 273.342C184.366 259.225 160.266 259.926 146.566 274.443L158.266 283.754Z" stroke="#1F2533" stroke-miterlimit="10"/>
    <path d="M474.062 240.303C474.162 240.003 474.262 239.803 474.462 239.603C408.863 219.78 378.963 240.003 453.262 270.438C473.062 278.548 521.661 293.365 557.16 301.875C561.06 299.873 563.36 298.771 567.36 296.469C493.661 278.748 365.863 225.686 474.062 240.303Z" fill="#1F2533"/>
    <path d="M474.062 240.303C474.162 240.003 474.262 239.803 474.462 239.603C408.862 219.78 380.963 237 455.262 267.435C475.061 275.544 521.661 293.365 557.16 301.875C561.06 299.873 563.36 298.771 567.36 296.469C493.661 278.748 365.863 225.686 474.062 240.303Z" fill="#F0F0F0"/>
</svg>
